<svg width="48" height="48" viewBox="0 0 48 48" fill="none" xmlns="http://www.w3.org/2000/svg">
<g clip-path="url(#clip0_569_10940)">
<path d="M0.657528 47.9996C0.493144 47.8588 0.246569 47.7414 0.187861 47.5653C0.0939272 47.2836 0.0117354 46.8845 0.140894 46.6614C0.281794 46.4149 0.645786 46.1919 0.939328 46.1449C1.45596 46.0627 1.98434 46.1214 2.55968 46.1214C2.55968 44.9358 2.55968 43.7971 2.55968 42.6585C2.55968 42.4589 2.54794 42.2476 2.55968 42.0481C2.59491 41.4142 2.82974 41.1207 3.45205 40.9564C4.70841 40.6394 5.95303 40.3225 7.20939 40.0172C7.50293 39.9468 7.67906 39.8177 7.79647 39.5242C8.19569 38.4912 8.65361 37.4817 9.05283 36.4487C9.12328 36.2843 9.0998 36.0143 9.00586 35.8617C8.36007 34.7465 7.67905 33.6431 7.02152 32.5279C6.61056 31.847 6.65753 31.5184 7.22113 30.9549C8.31311 29.8632 9.40508 28.7715 10.4971 27.6798C11.0137 27.1633 11.3777 27.1163 12 27.4919C13.1155 28.1493 14.2074 28.8419 15.3346 29.4758C15.5108 29.5814 15.816 29.5932 16.0039 29.5228C17.0372 29.1236 18.0587 28.701 19.0685 28.255C19.2446 28.1728 19.4325 27.9615 19.4794 27.7737C19.8082 26.5411 20.1135 25.2968 20.4188 24.0642C20.6184 23.2777 20.8884 23.0664 21.6986 23.0664C23.225 23.0664 24.7632 23.0664 26.2896 23.0664C27.0646 23.0664 27.3464 23.3012 27.5342 24.0525C27.8395 25.2733 28.1566 26.4941 28.4501 27.7267C28.5205 28.0202 28.638 28.1845 28.9198 28.2902C29.9295 28.6893 30.9393 29.1119 31.9374 29.5462C32.2192 29.6636 32.4188 29.6401 32.6654 29.4875C33.7456 28.8302 34.8258 28.1845 35.9178 27.5389C36.5988 27.128 36.9393 27.1633 37.4912 27.7267C38.5832 28.8184 39.6751 29.9101 40.7671 31.0018C41.3072 31.5418 41.3425 31.8705 40.9432 32.5396C40.3092 33.5961 39.6869 34.6644 39.0294 35.7091C38.8297 36.0261 38.7828 36.2843 38.9472 36.6482C39.3816 37.5991 39.7691 38.5616 40.1448 39.536C40.2622 39.8294 40.4266 39.9703 40.7319 40.0407C41.9765 40.3342 43.2094 40.6511 44.454 40.9681C45.182 41.1559 45.4051 41.4376 45.4051 42.1889C45.4168 43.3159 45.4051 44.4428 45.4051 45.558C45.4051 45.7223 45.4051 45.8984 45.4051 46.1214C45.8513 46.1214 46.274 46.1449 46.6849 46.1097C47.2603 46.0627 47.683 46.2506 47.9648 46.7671C47.9648 47.1779 47.9648 47.577 47.9648 47.9879C32.2192 47.9996 16.4384 47.9996 0.657528 47.9996ZM32.0196 46.098C32.5245 43.5154 31.8434 41.0033 30.1409 39.0664C29.2603 38.0569 28.18 37.3408 26.9589 36.8243C26.3836 36.5778 26.1839 36.0495 26.407 35.5565C26.6301 35.0635 27.1468 34.8639 27.7104 35.0987C31.3385 36.6717 33.4755 39.4068 34.0039 43.3393C34.1213 44.2315 34.0157 45.1589 34.0157 46.0862C37.1742 46.0862 40.3209 46.0862 43.5147 46.0862C43.5147 45.0532 43.5029 44.0437 43.5264 43.0224C43.5382 42.6937 43.3973 42.5998 43.1155 42.5294C41.9648 42.2594 40.8141 41.9542 39.6634 41.6842C39.182 41.5668 38.8767 41.3085 38.6888 40.839C38.137 39.4538 37.5616 38.0686 36.9628 36.6952C36.7397 36.1904 36.7867 35.7561 37.0802 35.2865C37.7612 34.1948 38.4188 33.0796 39.0998 31.9409C38.2779 31.131 37.4795 30.321 36.6575 29.5345C36.5753 29.4641 36.317 29.4993 36.1879 29.5697C35.1311 30.1801 34.0978 30.814 33.0528 31.4479C32.6536 31.6944 32.2779 31.7179 31.8552 31.5301C30.4344 30.9314 29.0137 30.3445 27.5812 29.7575C27.1585 29.5814 26.9002 29.3115 26.7945 28.8536C26.5245 27.6915 26.2074 26.5294 25.9374 25.3555C25.8669 25.0268 25.7378 24.8977 25.3855 24.9094C24.4697 24.9329 23.5421 24.9446 22.6262 24.9094C22.2387 24.8977 22.1213 25.0503 22.0391 25.379C21.7691 26.5176 21.4638 27.6445 21.2055 28.7832C21.0881 29.2997 20.818 29.5932 20.3366 29.781C18.9746 30.321 17.6243 30.8727 16.274 31.4714C15.7338 31.7062 15.2759 31.671 14.7828 31.3657C13.7025 30.6849 12.5988 30.0393 11.5303 29.4054C10.6497 30.2975 9.79256 31.1544 8.92367 32.0349C9.58121 33.1266 10.2505 34.2535 10.9315 35.3687C11.1898 35.7913 11.225 36.1904 11.0372 36.6482C10.4501 38.0334 9.86301 39.4303 9.29941 40.839C9.11154 41.3203 8.79451 41.5902 8.28962 41.7076C7.13894 41.9776 5.98825 42.2711 4.83757 42.5646C4.69667 42.5998 4.47358 42.7289 4.47358 42.8228C4.45009 43.9145 4.46183 44.9945 4.46183 46.0862C7.66731 46.0862 10.8258 46.0862 13.9961 46.0862C13.9609 45.5932 13.8904 45.1236 13.8904 44.6658C13.8904 41.8955 14.818 39.4773 16.7436 37.4582C17.7652 36.39 18.9628 35.6035 20.3366 35.0635C21.0293 34.7935 21.7221 35.2396 21.6869 35.9321C21.6634 36.5073 21.229 36.7304 20.771 36.9299C17.1663 38.5029 15.229 42.1889 15.9687 46.0862C21.3229 46.098 26.6771 46.098 32.0196 46.098Z" fill="#183266"/>
<path d="M46.722 0C41.9784 0.0117388 37.223 0.0117388 32.4794 0.0117388C32.3502 0.0117388 32.2328 0.0117388 32.1037 0.0117388C31.3757 0.0704329 30.9999 0.856933 31.4109 1.46735C31.5166 1.61996 31.6457 1.74908 31.7866 1.88995C32.8551 2.95818 33.9236 4.02641 34.9569 5.05943L29.8375 10.1775C29.4383 10.5767 29.4383 11.2223 29.8375 11.6214C30.2367 12.0205 30.8825 12.0205 31.2817 11.6214C32.9725 9.93103 34.6516 8.25238 36.3189 6.59721C38.0215 8.29934 39.7475 10.0249 41.5205 11.7975C41.4266 11.8797 41.2857 11.9736 41.1682 12.1027C38.2328 15.0374 35.2857 17.9721 32.3502 20.9186C31.7162 21.5525 31.6222 22.0924 32.0684 22.5385C32.5029 22.9846 33.0665 22.8907 33.6888 22.2685C36.6242 19.3338 39.5714 16.3991 42.5068 13.4527C42.6359 13.3235 42.7299 13.1592 42.859 12.9714C44.0332 14.1453 45.1134 15.237 46.1937 16.3169C46.9099 17.033 47.4618 16.9743 48.0254 16.1643V0.669112C47.7318 0.152605 47.2974 0 46.722 0ZM46.0997 13.4762L34.5459 1.92516H46.0997V13.4762ZM27.2778 12.7249C25.8923 14.1101 24.5068 15.4952 23.1213 16.8804C23.0391 16.7748 22.9451 16.6339 22.816 16.5165C19.4109 13.1123 16.0175 9.708 12.6125 6.31548C11.8492 5.55246 11.4383 5.55246 10.6868 6.30374C7.30522 9.68452 3.92361 13.0653 0.542009 16.4461C0.401108 16.5869 0.2015 16.7278 0.154533 16.9039C0.084083 17.1974 0.0253745 17.5847 0.154533 17.8195C0.283692 18.0543 0.671167 18.2773 0.929484 18.2656C1.22303 18.2539 1.57528 18.0426 1.79837 17.8195C4.95688 14.6853 8.10365 11.5393 11.2504 8.38151C11.3678 8.26412 11.4265 8.0763 11.5087 7.9237C11.5792 7.94717 11.6496 7.97065 11.7201 8.00587C11.8375 8.15847 11.9314 8.31108 12.0723 8.45194C16.1819 12.5605 20.2915 16.6691 24.4011 20.7777C24.542 20.9186 24.6829 21.0829 24.859 21.1651C25.0586 21.259 25.3052 21.3294 25.5166 21.2942C26.3033 21.1768 26.5498 20.3081 25.9745 19.686C25.5166 19.193 25.0117 18.7469 24.5655 18.3125C25.951 16.9274 27.3365 15.5422 28.7103 14.1687C29.1095 13.7696 29.1095 13.124 28.7103 12.7249C28.3228 12.3258 27.677 12.3258 27.2778 12.7249Z" fill="#183266"/>
<path d="M12.8817 19.851C13.1048 20.0154 13.2927 20.1093 13.4336 20.2502C14.913 21.7175 16.3807 23.1731 17.8367 24.664C18.0363 24.8635 18.2007 25.1335 18.2829 25.4035C18.4003 25.7791 18.2242 26.1078 17.8954 26.3191C17.5666 26.5304 17.2144 26.5304 16.8856 26.3191C16.7212 26.2135 16.5686 26.0609 16.4277 25.92C14.866 24.3705 13.3044 22.8092 11.7545 21.248C11.731 21.2245 11.7075 21.2127 11.5197 21.0367C11.4257 21.201 11.3788 21.4006 11.2496 21.5297C8.11458 24.6757 4.97955 27.81 1.83278 30.9325C1.60969 31.1438 1.3044 31.3199 1.01086 31.3903C0.64687 31.4842 0.353328 31.2729 0.153719 30.956C-0.0341476 30.6273 -0.0341476 30.2986 0.177203 29.9816C0.282878 29.829 0.412036 29.6882 0.541195 29.559C4.66253 25.4387 8.78386 21.3184 12.9052 17.1981C12.9756 17.1276 13.0343 17.0689 13.1048 16.9985C13.5627 16.5877 14.1146 16.5759 14.4903 16.9516C14.8543 17.3272 14.8426 17.9024 14.4316 18.3367C13.9502 18.8298 13.4688 19.2876 12.8817 19.851Z" fill="#183266"/>
</g>
<defs>
<clipPath id="clip0_569_10940">
<rect width="48" height="48" fill="white"/>
</clipPath>
</defs>
</svg>
