<svg width="49" height="48" viewBox="0 0 49 48" fill="none" xmlns="http://www.w3.org/2000/svg">
<g clip-path="url(#clip0_496_32716)">
<path d="M1.15753 47.9996C0.993144 47.8588 0.746569 47.7414 0.687861 47.5653C0.593927 47.2836 0.511735 46.8845 0.640894 46.6614C0.781794 46.4149 1.14579 46.1919 1.43933 46.1449C1.95596 46.0627 2.48434 46.1214 3.05968 46.1214C3.05968 44.9358 3.05968 43.7971 3.05968 42.6585C3.05968 42.4589 3.04794 42.2476 3.05968 42.0481C3.09491 41.4142 3.32974 41.1207 3.95205 40.9564C5.20841 40.6394 6.45303 40.3225 7.70939 40.0173C8.00293 39.9468 8.17906 39.8177 8.29647 39.5242C8.69569 38.4912 9.15361 37.4817 9.55283 36.4487C9.62328 36.2843 9.5998 36.0143 9.50587 35.8617C8.86007 34.7465 8.17905 33.6431 7.52152 32.5279C7.11056 31.847 7.15753 31.5184 7.72113 30.9549C8.81311 29.8632 9.90508 28.7715 10.9971 27.6798C11.5137 27.1633 11.8777 27.1163 12.5 27.4919C13.6155 28.1493 14.7074 28.8419 15.8346 29.4758C16.0108 29.5814 16.316 29.5932 16.5039 29.5228C17.5372 29.1236 18.5587 28.701 19.5685 28.255C19.7446 28.1728 19.9325 27.9615 19.9794 27.7737C20.3082 26.5411 20.6135 25.2968 20.9188 24.0642C21.1184 23.2777 21.3884 23.0664 22.1986 23.0664C23.725 23.0664 25.2632 23.0664 26.7896 23.0664C27.5646 23.0664 27.8464 23.3012 28.0342 24.0525C28.3395 25.2733 28.6566 26.4941 28.9501 27.7267C29.0205 28.0202 29.138 28.1845 29.4198 28.2902C30.4295 28.6893 31.4393 29.1119 32.4374 29.5462C32.7192 29.6636 32.9188 29.6401 33.1654 29.4875C34.2456 28.8302 35.3258 28.1845 36.4178 27.5389C37.0988 27.128 37.4393 27.1633 37.9912 27.7267C39.0832 28.8184 40.1751 29.9101 41.2671 31.0018C41.8072 31.5418 41.8425 31.8705 41.4432 32.5396C40.8092 33.5961 40.1869 34.6644 39.5294 35.7091C39.3297 36.0261 39.2828 36.2843 39.4472 36.6482C39.8816 37.5991 40.2691 38.5616 40.6448 39.536C40.7622 39.8294 40.9266 39.9703 41.2319 40.0407C42.4765 40.3342 43.7094 40.6511 44.954 40.9681C45.682 41.1559 45.9051 41.4376 45.9051 42.1889C45.9168 43.3159 45.9051 44.4428 45.9051 45.558C45.9051 45.7223 45.9051 45.8984 45.9051 46.1214C46.3513 46.1214 46.774 46.1449 47.1849 46.1097C47.7603 46.0627 48.183 46.2506 48.4648 46.7671C48.4648 47.1779 48.4648 47.577 48.4648 47.9879C32.7192 47.9996 16.9384 47.9996 1.15753 47.9996ZM32.5196 46.098C33.0245 43.5154 32.3434 41.0033 30.6409 39.0664C29.7603 38.0569 28.68 37.3408 27.4589 36.8243C26.8836 36.5778 26.6839 36.0495 26.907 35.5565C27.1301 35.0635 27.6468 34.8639 28.2104 35.0987C31.8385 36.6717 33.9755 39.4068 34.5039 43.3393C34.6213 44.2315 34.5157 45.1588 34.5157 46.0862C37.6742 46.0862 40.8209 46.0862 44.0147 46.0862C44.0147 45.0532 44.0029 44.0437 44.0264 43.0224C44.0382 42.6937 43.8973 42.5998 43.6155 42.5294C42.4648 42.2594 41.3141 41.9542 40.1634 41.6842C39.682 41.5668 39.3767 41.3085 39.1888 40.839C38.637 39.4538 38.0616 38.0686 37.4628 36.6952C37.2397 36.1904 37.2867 35.7561 37.5802 35.2865C38.2612 34.1948 38.9188 33.0796 39.5998 31.9409C38.7779 31.131 37.9795 30.321 37.1575 29.5345C37.0753 29.4641 36.817 29.4993 36.6879 29.5697C35.6311 30.1801 34.5978 30.814 33.5528 31.4479C33.1536 31.6944 32.7779 31.7179 32.3552 31.5301C30.9344 30.9314 29.5137 30.3445 28.0812 29.7575C27.6585 29.5814 27.4002 29.3115 27.2945 28.8536C27.0245 27.6915 26.7074 26.5294 26.4374 25.3555C26.3669 25.0268 26.2378 24.8977 25.8855 24.9094C24.9697 24.9329 24.0421 24.9446 23.1262 24.9094C22.7387 24.8977 22.6213 25.0503 22.5391 25.379C22.2691 26.5176 21.9638 27.6445 21.7055 28.7832C21.5881 29.2997 21.318 29.5932 20.8366 29.781C19.4746 30.321 18.1243 30.8727 16.774 31.4714C16.2338 31.7062 15.7759 31.671 15.2828 31.3657C14.2025 30.6849 13.0988 30.0393 12.0303 29.4054C11.1497 30.2975 10.2926 31.1544 9.42367 32.0349C10.0812 33.1266 10.7505 34.2535 11.4315 35.3687C11.6898 35.7913 11.725 36.1904 11.5372 36.6482C10.9501 38.0334 10.363 39.4303 9.79941 40.839C9.61154 41.3203 9.29451 41.5903 8.78962 41.7076C7.63894 41.9776 6.48825 42.2711 5.33757 42.5646C5.19667 42.5998 4.97358 42.7289 4.97358 42.8228C4.95009 43.9145 4.96183 44.9945 4.96183 46.0862C8.16731 46.0862 11.3258 46.0862 14.4961 46.0862C14.4609 45.5932 14.3904 45.1236 14.3904 44.6658C14.3904 41.8955 15.318 39.4773 17.2436 37.4582C18.2652 36.39 19.4628 35.6035 20.8366 35.0635C21.5293 34.7935 22.2221 35.2396 22.1869 35.9321C22.1634 36.5073 21.729 36.7304 21.271 36.9299C17.6663 38.5029 15.729 42.1889 16.4687 46.0862C21.8229 46.098 27.1771 46.098 32.5196 46.098Z" fill="white"/>
<path d="M47.222 0C42.4784 0.0117388 37.723 0.0117388 32.9794 0.0117388C32.8502 0.0117388 32.7328 0.0117388 32.6037 0.0117388C31.8757 0.0704329 31.4999 0.856933 31.9109 1.46735C32.0166 1.61996 32.1457 1.74908 32.2866 1.88995C33.3551 2.95818 34.4236 4.02641 35.4569 5.05943L30.3375 10.1775C29.9383 10.5767 29.9383 11.2223 30.3375 11.6214C30.7367 12.0205 31.3825 12.0205 31.7817 11.6214C33.4725 9.93103 35.1516 8.25238 36.8189 6.59721C38.5215 8.29934 40.2475 10.0249 42.0205 11.7975C41.9266 11.8797 41.7857 11.9736 41.6682 12.1027C38.7328 15.0374 35.7856 17.9721 32.8502 20.9186C32.2162 21.5525 32.1222 22.0924 32.5684 22.5385C33.0029 22.9846 33.5665 22.8907 34.1888 22.2685C37.1242 19.3338 40.0714 16.3991 43.0068 13.4527C43.1359 13.3236 43.2299 13.1592 43.359 12.9714C44.5332 14.1453 45.6134 15.237 46.6937 16.3169C47.4099 17.033 47.9618 16.9743 48.5254 16.1643V0.669112C48.2318 0.152605 47.7974 0 47.222 0ZM46.5997 13.4762L35.0459 1.92516H46.5997V13.4762ZM27.7778 12.7249C26.3923 14.1101 25.0068 15.4952 23.6213 16.8804C23.5391 16.7748 23.4451 16.6339 23.316 16.5165C19.9109 13.1123 16.5175 9.708 13.1125 6.31548C12.3492 5.55246 11.9383 5.55246 11.1868 6.30374C7.80522 9.68452 4.42361 13.0653 1.04201 16.4461C0.901108 16.5869 0.7015 16.7278 0.654533 16.9039C0.584083 17.1974 0.525375 17.5847 0.654533 17.8195C0.783692 18.0543 1.17117 18.2773 1.42948 18.2656C1.72303 18.2539 2.07528 18.0426 2.29837 17.8195C5.45688 14.6853 8.60365 11.5393 11.7504 8.38151C11.8678 8.26412 11.9265 8.0763 12.0087 7.9237C12.0792 7.94718 12.1496 7.97065 12.2201 8.00587C12.3375 8.15847 12.4314 8.31108 12.5723 8.45194C16.6819 12.5605 20.7915 16.6691 24.9011 20.7777C25.042 20.9186 25.1829 21.0829 25.359 21.1651C25.5586 21.259 25.8052 21.3294 26.0166 21.2942C26.8033 21.1768 27.0498 20.3081 26.4745 19.686C26.0166 19.193 25.5117 18.7469 25.0655 18.3125C26.451 16.9274 27.8365 15.5422 29.2103 14.1687C29.6095 13.7696 29.6095 13.124 29.2103 12.7249C28.8228 12.3258 28.177 12.3258 27.7778 12.7249Z" fill="white"/>
<path d="M13.3817 19.851C13.6048 20.0154 13.7927 20.1093 13.9336 20.2502C15.413 21.7175 16.8807 23.1731 18.3367 24.664C18.5363 24.8635 18.7007 25.1335 18.7829 25.4035C18.9003 25.7791 18.7242 26.1078 18.3954 26.3191C18.0666 26.5304 17.7144 26.5304 17.3856 26.3191C17.2212 26.2135 17.0686 26.0609 16.9277 25.92C15.366 24.3705 13.8044 22.8092 12.2545 21.248C12.231 21.2245 12.2075 21.2127 12.0197 21.0367C11.9257 21.201 11.8788 21.4006 11.7496 21.5297C8.61458 24.6757 5.47955 27.81 2.33278 30.9325C2.10969 31.1438 1.8044 31.3199 1.51086 31.3903C1.14687 31.4842 0.853328 31.2729 0.653719 30.956C0.465852 30.6273 0.465852 30.2986 0.677203 29.9816C0.782878 29.829 0.912036 29.6882 1.04119 29.559C5.16253 25.4387 9.28386 21.3184 13.4052 17.1981C13.4756 17.1276 13.5343 17.0689 13.6048 16.9985C14.0627 16.5877 14.6146 16.5759 14.9903 16.9516C15.3543 17.3272 15.3426 17.9024 14.9316 18.3367C14.4502 18.8298 13.9688 19.2876 13.3817 19.851Z" fill="white"/>
</g>
<defs>
<clipPath id="clip0_496_32716">
<rect width="48" height="48" fill="white" transform="translate(0.5)"/>
</clipPath>
</defs>
</svg>
