<svg width="48" height="49" viewBox="0 0 48 49" fill="none" xmlns="http://www.w3.org/2000/svg">
<path d="M47.9958 24.4696C47.8455 24.7827 47.7454 25.1083 47.5451 25.3838C47.0443 26.1101 46.3056 26.4106 45.4543 26.4106C44.7156 26.4232 43.9895 26.4232 43.2509 26.4106C42.7626 26.3981 42.4621 26.611 42.2868 27.0618C42.0365 27.7005 41.7861 28.3392 41.4981 28.9653C41.2853 29.4286 41.3729 29.8043 41.7235 30.1424C42.2243 30.6308 42.725 31.1317 43.2133 31.6327C44.3526 32.7973 44.3776 34.1623 43.2383 35.3144C42.1992 36.3663 41.1476 37.4182 40.0834 38.4576C38.9441 39.5721 37.567 39.5721 36.4402 38.4451C35.6139 37.6311 34.8002 36.8171 33.9864 35.9906C33.6984 35.7026 33.6108 35.3394 33.8111 34.9637C33.9989 34.6256 34.3244 34.5004 34.6875 34.6006C34.9003 34.6632 35.0881 34.826 35.2509 34.9888C36.0146 35.7276 36.7532 36.4915 37.5044 37.2304C38.0552 37.7688 38.4433 37.7814 38.9817 37.2429C39.9958 36.2285 41.0224 35.2142 42.0239 34.1998C42.5623 33.6614 42.5623 33.2857 42.0114 32.7221C41.4981 32.1962 40.9723 31.6828 40.459 31.1568C39.6828 30.3553 39.5075 29.4286 39.9457 28.4018C40.2211 27.7506 40.4966 27.1119 40.7595 26.4607C41.2102 25.3462 41.9739 24.7952 43.2008 24.7702C43.9394 24.7576 44.6656 24.7702 45.4042 24.7702C46.0678 24.7576 46.3682 24.4821 46.3682 23.8435C46.3807 22.3407 46.3807 20.838 46.3682 19.3478C46.3682 18.7091 46.0552 18.4211 45.4042 18.4086C44.6906 18.396 43.9645 18.4086 43.2509 18.4086C41.9363 18.396 41.2102 17.8701 40.7344 16.6428C40.4966 16.0167 40.2211 15.4031 39.9582 14.7895C39.5325 13.7751 39.6828 12.8609 40.4465 12.072C40.9598 11.5335 41.5106 11.0076 42.0365 10.4816C42.5873 9.91808 42.5873 9.55492 42.049 9.00391C41.0224 7.97704 39.9958 6.95017 38.9692 5.9233C38.4559 5.42238 38.0803 5.42238 37.567 5.9233C37.0537 6.42421 36.5529 6.93765 36.0396 7.43856C35.1632 8.30263 34.2618 8.46543 33.1351 7.98956C32.5091 7.71406 31.8706 7.4636 31.2321 7.21315C30.1804 6.78737 29.6171 6.02348 29.592 4.8839C29.5795 4.14506 29.592 3.41873 29.5795 2.67988C29.567 1.89095 29.2915 1.61544 28.5028 1.61544C27.1006 1.61544 25.6859 1.61544 24.2837 1.61544C23.4825 1.61544 23.2196 1.89095 23.207 2.67988C23.1945 3.54396 23.2196 4.39551 23.1444 5.25959C23.0693 6.16123 22.5435 6.78737 21.7297 7.13801C20.9911 7.4636 20.2399 7.77668 19.4887 8.07722C18.5122 8.46543 17.6233 8.29011 16.8596 7.56379C16.3088 7.03783 15.7704 6.48682 15.2321 5.94834C14.7063 5.42238 14.3182 5.43491 13.7923 5.96087C12.7657 6.96269 11.7391 7.97704 10.7125 9.01644C10.2117 9.51735 10.2117 9.91808 10.7125 10.4315C11.4512 11.1829 12.1898 11.9092 12.9285 12.6606C13.0412 12.7733 13.1413 12.886 13.2415 13.0112C13.5044 13.3619 13.4543 13.7125 13.1789 14.0381C12.9285 14.3261 12.4778 14.3637 12.1648 14.1257C11.8768 13.9129 11.639 13.6374 11.3761 13.3869C10.7501 12.7733 10.1366 12.1597 9.52316 11.5335C8.459 10.4315 8.44648 9.054 9.51064 7.952C10.5623 6.86251 11.639 5.79807 12.7282 4.73363C13.8549 3.64414 15.2196 3.65667 16.3463 4.75867C16.8596 5.25959 17.3729 5.7605 17.8737 6.28646C18.2243 6.64962 18.5873 6.73728 19.0505 6.51187C19.6765 6.22385 20.315 5.97339 20.9535 5.72293C21.4042 5.54761 21.6171 5.25959 21.6045 4.75867C21.5795 4.04487 21.592 3.31855 21.6045 2.60475C21.592 1.30237 22.1804 0.500913 23.4074 0.075137C23.4449 0.0626141 23.4825 0.0250457 23.52 0C25.4606 0 27.3886 0 29.3291 0C29.3667 0.0250457 29.3917 0.075137 29.4293 0.0876598C30.6687 0.551004 31.1945 1.3149 31.207 2.64232C31.207 3.34359 31.2196 4.04487 31.207 4.74615C31.1945 5.24706 31.4199 5.53509 31.8581 5.71041C32.4966 5.96087 33.1351 6.21132 33.7485 6.49935C34.2117 6.71224 34.5748 6.62458 34.9253 6.27394C35.4136 5.77302 35.9144 5.27211 36.4152 4.78372C37.567 3.64414 38.9441 3.63162 40.0959 4.75867C41.1476 5.79807 42.1992 6.84999 43.2383 7.9019C44.3526 9.02896 44.3526 10.419 43.2383 11.546C42.725 12.072 42.2117 12.5854 41.6859 13.0989C41.3604 13.4245 41.2853 13.7751 41.4731 14.2009C41.761 14.8521 42.0239 15.5158 42.2994 16.1795C42.4746 16.6053 42.7751 16.8056 43.2383 16.7931C44.002 16.7806 44.7657 16.7806 45.5294 16.7931C46.4058 16.8056 47.0944 17.1688 47.5951 17.8826C47.7579 18.1205 47.8581 18.396 47.9958 18.659C47.9958 20.5875 47.9958 22.5286 47.9958 24.4696Z" fill="#183266"/>
<path d="M15.9844 47.9988C15.4585 47.9988 14.9202 48.0113 14.3944 47.9988C13.0548 47.9738 12.0282 46.9594 12.0031 45.6195C12.0031 45.5569 12.0031 45.4942 12.0031 45.4316C12.0407 44.1293 11.9656 44.1293 10.5759 43.6534C10.3631 43.5783 10.0125 43.7536 9.78717 43.9039C9.4867 44.1042 9.27387 44.4048 8.99844 44.6302C8.10955 45.344 6.87011 45.369 6.0313 44.6177C5.11737 43.7911 4.22848 42.9271 3.41471 42.0004C2.62598 41.1113 2.67606 39.8715 3.42723 38.9573C3.51487 38.8446 3.61502 38.7444 3.71518 38.6443C4.57903 37.7677 4.56651 37.7677 4.06573 36.6156C3.87793 36.1898 3.56495 36.0145 3.11424 36.0019C2.67606 35.9894 2.22535 36.0145 1.81221 35.9143C0.735524 35.6513 0.0219092 34.7371 0.00938967 33.6351C-0.00312989 32.5331 -0.00312989 31.4311 0.00938967 30.3416C0.0219092 29.1144 0.935837 28.1376 2.15023 28.0249C2.47574 27.9999 2.80125 27.9873 3.12676 27.9873C3.57746 27.9873 3.90297 27.812 4.06573 27.3612C4.11581 27.1984 4.19092 27.0356 4.26604 26.8853C4.52895 26.4095 4.39124 26.0338 4.01565 25.6706C3.7277 25.3951 3.42723 25.0946 3.2144 24.7564C2.62598 23.8548 2.73865 22.6777 3.50235 21.8637C4.25352 21.0497 5.04225 20.2608 5.85602 19.5094C6.83255 18.5952 8.15962 18.6077 9.16119 19.4969C9.34898 19.6597 9.52426 19.835 9.69953 20.0228C10.0376 20.3985 10.4257 20.4361 10.8889 20.2608C11.9656 19.8225 12.0031 19.7849 12.0031 18.6203C12.0031 17.3054 12.6541 16.3912 13.7809 16.0781C13.9562 16.028 14.144 16.003 14.3318 16.003C15.5211 16.003 16.7105 15.9779 17.8873 16.0406C18.9765 16.0907 19.8529 17.0299 19.9531 18.1068C19.9906 18.4825 19.9906 18.8582 20.0031 19.2339C20.0157 19.6221 20.1909 19.8851 20.554 20.0353C20.7418 20.1105 20.9296 20.1856 21.1174 20.2733C21.5681 20.4862 21.9562 20.411 22.2942 20.0479C22.5196 19.8099 22.7574 19.572 23.0078 19.3716C23.9343 18.6578 25.1487 18.6578 26.0125 19.4342C26.8889 20.2357 27.7277 21.0747 28.529 21.9513C29.3552 22.853 29.3302 24.1428 28.554 25.0695C28.3537 25.3075 28.1283 25.5329 27.903 25.7458C27.5775 26.0588 27.5274 26.4095 27.6901 26.8102C27.7152 26.8728 27.7277 26.9229 27.7527 26.9855C28.1534 27.9498 28.1909 27.9372 29.23 27.9999C29.7559 28.0249 30.3318 28.1251 30.795 28.363C31.4836 28.7011 31.9092 29.3398 31.9343 30.1287C31.9718 31.381 31.9844 32.6333 31.9343 33.8731C31.8842 35.0377 30.8576 35.9519 29.7058 35.9894C29.5931 35.9894 29.493 36.0019 29.3803 35.9894C28.1033 35.9519 28.1033 36.1021 27.6651 37.3168C27.5775 37.5548 27.7152 37.9179 27.8529 38.1684C27.9906 38.4189 28.266 38.5942 28.4538 38.8071C29.3552 39.7964 29.3928 41.1238 28.4789 42.1131C27.7152 42.9396 26.9139 43.7285 26.0876 44.4924C25.1487 45.3565 23.8842 45.3565 22.8951 44.5425C22.7324 44.4048 22.5696 44.2545 22.4194 44.0917C21.8185 43.4906 21.7058 43.4656 20.9421 43.7911C20.0282 44.1668 20.0031 44.2169 19.9906 45.2688C19.9781 47.0471 19.0391 47.9863 17.2739 47.9988C16.8607 47.9988 16.4225 47.9988 15.9844 47.9988ZM24.5227 43.5908C24.748 43.453 24.9859 43.3403 25.1737 43.165C25.7246 42.639 26.2629 42.088 26.8013 41.5496C27.8028 40.5477 27.8028 40.4225 26.8013 39.4082C26.7762 39.3831 26.7512 39.3581 26.7387 39.3455C25.374 37.9179 26.1502 35.0627 28.0532 34.4992C28.241 34.4491 28.4538 34.4241 28.6541 34.4115C28.9546 34.399 29.2426 34.4241 29.543 34.399C30.1064 34.3615 30.3944 34.0609 30.3944 33.4974C30.4069 32.721 30.3944 31.932 30.3944 31.1556C30.3944 29.703 30.3318 29.6404 28.867 29.6278C27.9405 29.6153 27.1768 29.2772 26.7011 28.4632C26.4382 28.0124 26.2379 27.5115 26.0876 27.0106C25.8372 26.1966 26.0626 25.4703 26.6009 24.8316C26.7637 24.6437 26.939 24.4684 27.1142 24.2931C27.6776 23.7171 27.6776 23.3414 27.1268 22.7778C26.5383 22.1893 25.9624 21.6007 25.374 21.0246C24.6604 20.3108 24.3474 20.3108 23.6213 21.0246C22.507 22.1392 21.7559 22.2895 20.2911 21.6758C20.1534 21.6132 20.0031 21.5631 19.8654 21.488C18.9264 21.0497 18.4507 20.2983 18.4006 19.2715C18.3881 19.021 18.4006 18.7705 18.4006 18.5201C18.3881 17.919 18.1002 17.6184 17.5117 17.6184C16.5102 17.6059 15.5086 17.6059 14.507 17.6184C13.9437 17.6184 13.6557 17.919 13.6182 18.4825C13.6056 18.758 13.6182 19.046 13.6056 19.3215C13.5806 20.1856 13.205 20.8744 12.4664 21.3002C12.0031 21.5631 11.4773 21.7635 10.964 21.9263C10.1753 22.1642 9.46166 21.9263 8.82316 21.4129C8.68545 21.3001 8.57277 21.1749 8.44757 21.0622C7.64632 20.2608 7.38341 20.2608 6.56964 21.0747C6.04382 21.6007 5.50548 22.1392 4.97966 22.6651C4.29108 23.3539 4.31612 23.6294 4.96714 24.3557C5.3302 24.769 5.69327 25.2198 5.89358 25.7207C6.25665 26.5973 5.83099 27.3988 5.46792 28.1752C5.04225 29.0768 4.3036 29.5276 3.32707 29.6028C3.06416 29.6153 2.80125 29.6028 2.52582 29.6153C1.9374 29.6278 1.61189 29.9033 1.59937 30.5044C1.57434 31.5063 1.57434 32.5081 1.59937 33.4974C1.61189 34.086 1.92488 34.3615 2.52582 34.399C2.78873 34.4116 3.05164 34.399 3.32707 34.4115C4.29108 34.4491 4.99218 34.8999 5.43036 35.739C6.25665 37.3669 6.33177 38.4439 4.84194 39.7964C4.31612 40.2722 4.35368 40.6855 4.85446 41.1989C5.4554 41.8125 6.06886 42.4136 6.68232 43.0273C7.37089 43.716 7.64632 43.691 8.37246 43.0398C8.7856 42.6766 9.24883 42.351 9.73709 42.1006C10.6761 41.6372 12.9546 42.6015 13.3302 43.6033C13.4554 43.9289 13.5305 44.2795 13.5931 44.6302C13.6307 44.8681 13.6056 45.1311 13.6056 45.3815C13.6182 46.0828 13.9186 46.3834 14.6072 46.3959C15.3584 46.4084 16.1095 46.3834 16.8607 46.3959C18.0501 46.4209 18.4507 46.3333 18.4006 44.8932C18.3631 43.7285 18.9139 42.902 20.0031 42.4512C20.1784 42.3761 20.3412 42.3009 20.5164 42.2258C21.6182 41.7625 22.5822 41.9503 23.4335 42.8018C23.5962 42.9646 23.759 43.1525 23.9343 43.2902C24.0845 43.4029 24.2848 43.4781 24.5227 43.5908Z" fill="#183266"/>
<path d="M26.3877 11.1954C31.3329 11.1704 35.7398 14.7644 36.6037 19.6609C37.2296 23.1547 36.2907 26.2354 33.8494 28.8401C33.4738 29.2408 32.998 29.2909 32.6475 28.9904C32.2719 28.6648 32.2594 28.1889 32.6725 27.7506C33.9871 26.3856 34.8009 24.7702 35.1138 22.9043C35.9527 18.058 32.2469 13.2492 27.3642 12.8234C24.6725 12.5855 22.3564 13.3619 20.3658 15.1902C20.3157 15.2278 20.2782 15.2779 20.2281 15.3155C19.8024 15.6661 19.3392 15.6786 19.0137 15.328C18.7007 14.9773 18.7132 14.4764 19.1389 14.1383C19.9151 13.5247 20.7038 12.886 21.5552 12.3976C23.0575 11.5586 24.6851 11.208 26.3877 11.1954Z" fill="#183266"/>
<path d="M15.9352 39.1959C11.8037 39.0957 8.69889 35.8648 8.81157 31.6947C8.91172 28.1383 11.8163 24.7571 16.0228 24.8072C20.1668 24.8573 23.2341 28.0506 23.1965 32.0203C23.159 36.6287 19.7787 39.1083 15.9352 39.1959ZM16.0228 26.4226C12.943 26.4101 10.4141 28.8896 10.4015 31.9452C10.389 35.0759 12.8554 37.568 15.9853 37.593C18.9774 37.618 21.5565 35.101 21.569 32.133C21.5815 28.9272 19.1527 26.4352 16.0228 26.4226Z" fill="#183266"/>
</svg>
