<svg width="48" height="48" viewBox="0 0 48 48" fill="none" xmlns="http://www.w3.org/2000/svg">
<g clip-path="url(#clip0_496_32721)">
<path d="M47.9997 24.4696C47.8494 24.7827 47.7493 25.1083 47.549 25.3838C47.0482 26.1101 46.3095 26.4106 45.4582 26.4106C44.7196 26.4232 43.9934 26.4232 43.2548 26.4106C42.7665 26.3981 42.466 26.611 42.2908 27.0618C42.0404 27.7005 41.79 28.3392 41.502 28.9653C41.2892 29.4286 41.3768 29.8043 41.7274 30.1424C42.2282 30.6308 42.7289 31.1317 43.2172 31.6327C44.3565 32.7973 44.3815 34.1623 43.2422 35.3144C42.2031 36.3663 41.1515 37.4182 40.0873 38.4576C38.948 39.5721 37.5709 39.5721 36.4441 38.4451C35.6178 37.6311 34.8041 36.8171 33.9903 35.9906C33.7023 35.7026 33.6147 35.3394 33.815 34.9637C34.0028 34.6256 34.3283 34.5004 34.6914 34.6006C34.9042 34.6632 35.092 34.826 35.2548 34.9888C36.0185 35.7276 36.7571 36.4915 37.5083 37.2304C38.0591 37.7688 38.4473 37.7814 38.9856 37.2429C39.9997 36.2285 41.0263 35.2142 42.0278 34.1998C42.5662 33.6614 42.5662 33.2857 42.0153 32.7221C41.502 32.1962 40.9762 31.6828 40.4629 31.1568C39.6867 30.3553 39.5114 29.4286 39.9496 28.4018C40.225 27.7506 40.5005 27.1119 40.7634 26.4607C41.2141 25.3462 41.9778 24.7952 43.2047 24.7702C43.9433 24.7576 44.6695 24.7702 45.4081 24.7702C46.0717 24.7576 46.3721 24.4821 46.3721 23.8435C46.3847 22.3407 46.3847 20.838 46.3721 19.3478C46.3721 18.7091 46.0591 18.4211 45.4081 18.4086C44.6945 18.396 43.9684 18.4086 43.2548 18.4086C41.9402 18.396 41.2141 17.8701 40.7383 16.6428C40.5005 16.0167 40.225 15.4031 39.9621 14.7895C39.5365 13.7751 39.6867 12.8609 40.4504 12.072C40.9637 11.5335 41.5145 11.0076 42.0404 10.4816C42.5912 9.91808 42.5912 9.55492 42.0529 9.00391C41.0263 7.97704 39.9997 6.95017 38.9731 5.9233C38.4598 5.42238 38.0842 5.42238 37.5709 5.9233C37.0576 6.42421 36.5568 6.93765 36.0435 7.43856C35.1671 8.30263 34.2657 8.46543 33.139 7.98956C32.513 7.71406 31.8745 7.4636 31.236 7.21315C30.1843 6.78737 29.621 6.02348 29.5959 4.8839C29.5834 4.14506 29.5959 3.41873 29.5834 2.67988C29.5709 1.89095 29.2955 1.61544 28.5067 1.61544C27.1045 1.61544 25.6898 1.61544 24.2876 1.61544C23.4864 1.61544 23.2235 1.89095 23.2109 2.67988C23.1984 3.54396 23.2235 4.39551 23.1483 5.25959C23.0732 6.16123 22.5474 6.78737 21.7336 7.13801C20.995 7.4636 20.2438 7.77668 19.4926 8.07722C18.5161 8.46543 17.6272 8.29011 16.8635 7.56379C16.3127 7.03783 15.7743 6.48682 15.236 5.94834C14.7102 5.42238 14.3221 5.43491 13.7962 5.96087C12.7696 6.96269 11.743 7.97704 10.7164 9.01644C10.2156 9.51735 10.2156 9.91808 10.7164 10.4315C11.4551 11.1829 12.1937 11.9092 12.9324 12.6606C13.0451 12.7733 13.1452 12.886 13.2454 13.0112C13.5083 13.3619 13.4582 13.7125 13.1828 14.0381C12.9324 14.3261 12.4817 14.3637 12.1687 14.1257C11.8807 13.9129 11.6429 13.6374 11.38 13.3869C10.754 12.7733 10.1405 12.1597 9.52707 11.5335C8.4629 10.4315 8.45038 9.054 9.51455 7.952C10.5662 6.86251 11.6429 5.79807 12.7321 4.73363C13.8588 3.64414 15.2235 3.65667 16.3502 4.75867C16.8635 5.25959 17.3768 5.7605 17.8776 6.28646C18.2282 6.64962 18.5912 6.73728 19.0545 6.51187C19.6804 6.22385 20.3189 5.97339 20.9574 5.72293C21.4081 5.54761 21.621 5.25959 21.6084 4.75867C21.5834 4.04487 21.5959 3.31855 21.6084 2.60475C21.5959 1.30237 22.1843 0.500913 23.4113 0.075137C23.4488 0.0626141 23.4864 0.0250457 23.5239 0C25.4645 0 27.3925 0 29.333 0C29.3706 0.0250457 29.3956 0.075137 29.4332 0.0876598C30.6726 0.551004 31.1984 1.3149 31.2109 2.64232C31.2109 3.34359 31.2235 4.04487 31.2109 4.74615C31.1984 5.24706 31.4238 5.53509 31.862 5.71041C32.5005 5.96087 33.139 6.21132 33.7524 6.49935C34.2156 6.71224 34.5787 6.62458 34.9293 6.27394C35.4175 5.77302 35.9183 5.27211 36.4191 4.78372C37.5709 3.64414 38.948 3.63162 40.0998 4.75867C41.1515 5.79807 42.2031 6.84999 43.2422 7.9019C44.3565 9.02896 44.3565 10.419 43.2422 11.546C42.7289 12.072 42.2156 12.5854 41.6898 13.0989C41.3643 13.4245 41.2892 13.7751 41.477 14.2009C41.7649 14.8521 42.0278 15.5158 42.3033 16.1795C42.4785 16.6053 42.779 16.8056 43.2422 16.7931C44.0059 16.7806 44.7696 16.7806 45.5333 16.7931C46.4097 16.8056 47.0983 17.1688 47.5991 17.8826C47.7618 18.1205 47.862 18.396 47.9997 18.659C47.9997 20.5875 47.9997 22.5286 47.9997 24.4696Z" fill="white"/>
<path d="M15.9883 47.9988C15.4624 47.9988 14.9241 48.0113 14.3983 47.9988C13.0587 47.9738 12.0321 46.9594 12.007 45.6195C12.007 45.5569 12.007 45.4942 12.007 45.4316C12.0446 44.1293 11.9695 44.1293 10.5798 43.6534C10.367 43.5783 10.0164 43.7536 9.79107 43.9039C9.4906 44.1042 9.27777 44.4048 9.00234 44.6302C8.11345 45.344 6.87402 45.369 6.03521 44.6177C5.12128 43.7911 4.23239 42.9271 3.41862 42.0004C2.62988 41.1113 2.67996 39.8715 3.43114 38.9573C3.51877 38.8446 3.61893 38.7444 3.71909 38.6443C4.58294 37.7677 4.57042 37.7677 4.06963 36.6156C3.88184 36.1898 3.56885 36.0145 3.11815 36.0019C2.67996 35.9894 2.22926 36.0145 1.81611 35.9143C0.739431 35.6513 0.0258155 34.7371 0.0132959 33.6351C0.00077636 32.5331 0.00077636 31.4311 0.0132959 30.3416C0.0258155 29.1144 0.939744 28.1376 2.15414 28.0249C2.47965 27.9999 2.80516 27.9873 3.13067 27.9873C3.58137 27.9873 3.90688 27.812 4.06963 27.3612C4.11971 27.1984 4.19483 27.0356 4.26995 26.8853C4.53286 26.4095 4.39514 26.0338 4.01956 25.6706C3.73161 25.3951 3.43114 25.0946 3.2183 24.7564C2.62988 23.8548 2.74256 22.6777 3.50625 21.8637C4.25743 21.0497 5.04616 20.2608 5.85993 19.5094C6.83646 18.5952 8.16353 18.6077 9.1651 19.4969C9.35289 19.6597 9.52816 19.835 9.70344 20.0228C10.0415 20.3985 10.4296 20.4361 10.8928 20.2608C11.9695 19.8225 12.007 19.7849 12.007 18.6203C12.007 17.3054 12.6581 16.3912 13.7848 16.0781C13.9601 16.028 14.1479 16.003 14.3357 16.003C15.525 16.003 16.7144 15.9779 17.8912 16.0406C18.9804 16.0907 19.8568 17.0299 19.957 18.1068C19.9945 18.4825 19.9945 18.8582 20.007 19.2339C20.0196 19.6221 20.1948 19.8851 20.5579 20.0353C20.7457 20.1105 20.9335 20.1856 21.1213 20.2733C21.572 20.4862 21.9601 20.411 22.2981 20.0479C22.5235 19.8099 22.7613 19.572 23.0117 19.3716C23.9382 18.6578 25.1526 18.6578 26.0164 19.4342C26.8928 20.2357 27.7316 21.0747 28.5329 21.9513C29.3591 22.853 29.3341 24.1428 28.5579 25.0695C28.3576 25.3075 28.1322 25.5329 27.9069 25.7458C27.5814 26.0588 27.5313 26.4095 27.694 26.8102C27.7191 26.8728 27.7316 26.9229 27.7566 26.9855C28.1573 27.9498 28.1948 27.9372 29.234 27.9999C29.7598 28.0249 30.3357 28.1251 30.7989 28.363C31.4875 28.7011 31.9131 29.3398 31.9382 30.1287C31.9757 31.381 31.9883 32.6333 31.9382 33.8731C31.8881 35.0377 30.8615 35.9519 29.7097 35.9894C29.597 35.9894 29.4969 36.0019 29.3842 35.9894C28.1072 35.9519 28.1072 36.1021 27.669 37.3168C27.5814 37.5548 27.7191 37.9179 27.8568 38.1684C27.9945 38.4189 28.2699 38.5942 28.4577 38.8071C29.3592 39.7964 29.3967 41.1238 28.4828 42.1131C27.7191 42.9396 26.9178 43.7285 26.0915 44.4924C25.1526 45.3565 23.8881 45.3565 22.8991 44.5425C22.7363 44.4048 22.5735 44.2545 22.4233 44.0917C21.8224 43.4906 21.7097 43.4656 20.946 43.7911C20.0321 44.1668 20.007 44.2169 19.9945 45.2688C19.982 47.0471 19.043 47.9863 17.2778 47.9988C16.8646 47.9988 16.4264 47.9988 15.9883 47.9988ZM24.5266 43.5908C24.752 43.453 24.9898 43.3403 25.1776 43.165C25.7285 42.639 26.2668 42.088 26.8052 41.5496C27.8067 40.5477 27.8067 40.4225 26.8052 39.4082C26.7801 39.3831 26.7551 39.3581 26.7426 39.3455C25.3779 37.9179 26.1541 35.0627 28.0571 34.4992C28.2449 34.4491 28.4577 34.4241 28.6581 34.4115C28.9585 34.399 29.2465 34.4241 29.5469 34.399C30.1103 34.3615 30.3983 34.0609 30.3983 33.4974C30.4108 32.721 30.3983 31.932 30.3983 31.1556C30.3983 29.703 30.3357 29.6404 28.8709 29.6278C27.9444 29.6153 27.1807 29.2772 26.705 28.4632C26.4421 28.0124 26.2418 27.5115 26.0915 27.0106C25.8412 26.1966 26.0665 25.4703 26.6048 24.8316C26.7676 24.6437 26.9429 24.4684 27.1181 24.2931C27.6815 23.7171 27.6815 23.3414 27.1307 22.7778C26.5422 22.1893 25.9663 21.6007 25.3779 21.0246C24.6643 20.3108 24.3513 20.3108 23.6252 21.0246C22.511 22.1392 21.7598 22.2895 20.295 21.6758C20.1573 21.6132 20.007 21.5631 19.8693 21.488C18.9304 21.0497 18.4546 20.2983 18.4045 19.2715C18.392 19.021 18.4045 18.7705 18.4045 18.5201C18.392 17.919 18.1041 17.6184 17.5156 17.6184C16.5141 17.6059 15.5125 17.6059 14.5109 17.6184C13.9476 17.6184 13.6596 17.919 13.6221 18.4825C13.6095 18.758 13.6221 19.046 13.6095 19.3215C13.5845 20.1856 13.2089 20.8744 12.4703 21.3002C12.007 21.5631 11.4812 21.7635 10.9679 21.9263C10.1792 22.1642 9.46557 21.9263 8.82707 21.4129C8.68935 21.3001 8.57668 21.1749 8.45148 21.0622C7.65023 20.2608 7.38732 20.2608 6.57355 21.0747C6.04772 21.6007 5.50938 22.1392 4.98356 22.6651C4.29499 23.3539 4.32003 23.6294 4.97104 24.3557C5.33411 24.769 5.69718 25.2198 5.89749 25.7207C6.26056 26.5973 5.83489 27.3988 5.47183 28.1752C5.04616 29.0768 4.30751 29.5276 3.33098 29.6028C3.06807 29.6153 2.80516 29.6028 2.52973 29.6153C1.94131 29.6278 1.6158 29.9033 1.60328 30.5044C1.57824 31.5063 1.57824 32.5081 1.60328 33.4974C1.6158 34.086 1.92879 34.3615 2.52973 34.399C2.79264 34.4116 3.05555 34.399 3.33098 34.4115C4.29499 34.4491 4.99608 34.8999 5.43427 35.739C6.26056 37.3669 6.33567 38.4439 4.84585 39.7964C4.32003 40.2722 4.35758 40.6855 4.85837 41.1989C5.45931 41.8125 6.07276 42.4136 6.68622 43.0273C7.3748 43.716 7.65023 43.691 8.37636 43.0398C8.78951 42.6766 9.25273 42.351 9.741 42.1006C10.68 41.6372 12.9585 42.6015 13.3341 43.6033C13.4593 43.9289 13.5344 44.2795 13.597 44.6302C13.6346 44.8681 13.6095 45.1311 13.6095 45.3815C13.6221 46.0828 13.9225 46.3834 14.6111 46.3959C15.3623 46.4084 16.1135 46.3834 16.8646 46.3959C18.054 46.4209 18.4546 46.3333 18.4045 44.8932C18.367 43.7285 18.9178 42.902 20.007 42.4512C20.1823 42.3761 20.3451 42.3009 20.5203 42.2258C21.6221 41.7625 22.5861 41.9503 23.4374 42.8018C23.6002 42.9646 23.7629 43.1525 23.9382 43.2902C24.0884 43.4029 24.2887 43.4781 24.5266 43.5908Z" fill="white"/>
<path d="M26.3916 11.1954C31.3368 11.1704 35.7437 14.7644 36.6076 19.6609C37.2336 23.1547 36.2946 26.2354 33.8533 28.8401C33.4777 29.2408 33.0019 29.2909 32.6514 28.9904C32.2758 28.6648 32.2633 28.1889 32.6764 27.7506C33.991 26.3856 34.8048 24.7702 35.1178 22.9043C35.9566 18.058 32.2508 13.2492 27.3681 12.8234C24.6764 12.5855 22.3603 13.3619 20.3697 15.1902C20.3196 15.2278 20.2821 15.2779 20.232 15.3155C19.8063 15.6661 19.3431 15.6786 19.0176 15.328C18.7046 14.9773 18.7171 14.4764 19.1428 14.1383C19.919 13.5247 20.7077 12.886 21.5591 12.3976C23.0614 11.5586 24.689 11.208 26.3916 11.1954Z" fill="white"/>
<path d="M15.9391 39.1959C11.8076 39.0957 8.7028 35.8648 8.81547 31.6947C8.91563 28.1383 11.8202 24.7571 16.0267 24.8072C20.1707 24.8573 23.238 28.0506 23.2004 32.0203C23.1629 36.6287 19.7826 39.1083 15.9391 39.1959ZM16.0267 26.4226C12.9469 26.4101 10.418 28.8896 10.4055 31.9452C10.3929 35.0759 12.8593 37.568 15.9892 37.593C18.9814 37.618 21.5604 35.101 21.5729 32.133C21.5854 28.9272 19.1566 26.4352 16.0267 26.4226Z" fill="white"/>
</g>
<defs>
<clipPath id="clip0_496_32721">
<rect width="48" height="48" fill="white"/>
</clipPath>
</defs>
</svg>
