<svg width="39" height="48" viewBox="0 0 39 48" fill="none" xmlns="http://www.w3.org/2000/svg">
<path d="M19.7328 0C20.1642 0.262979 20.2911 0.66371 20.2784 1.1521C20.2657 1.99113 20.2784 2.84268 20.2657 3.68171C20.2657 3.88208 20.253 4.09497 20.1769 4.28281C20.05 4.62092 19.7708 4.85886 19.4155 4.7712C19.149 4.70858 18.8826 4.4957 18.6922 4.27028C18.578 4.14506 18.6034 3.88208 18.6034 3.68171C18.5907 2.84268 18.6161 1.99113 18.5907 1.1521C18.578 0.66371 18.7049 0.262979 19.1363 0C19.3521 0 19.5424 0 19.7328 0Z" fill="#183266"/>
<path d="M14.3765 40.7995C13.6278 39.7727 13.5263 38.7708 14.275 37.744C14.3257 37.6688 14.313 37.4935 14.2496 37.4184C13.8181 36.8423 13.7293 36.1911 13.7674 35.5024C13.7801 35.2143 13.7166 35.0265 13.4248 34.8762C12.5872 34.4379 12.1812 33.6991 12.1431 32.7724C12.1304 32.259 12.1177 31.7455 12.1431 31.2321C12.1812 30.343 11.8513 29.6292 11.166 29.0406C10.1382 28.1765 9.2372 27.1872 8.51389 26.0602C6.88963 23.5306 6.22977 20.7505 6.57239 17.7951C7.0419 13.7502 9.05954 10.6195 12.4984 8.39045C14.2369 7.27592 16.153 6.6623 18.2214 6.44941C23.7541 5.91093 29.1725 9.11678 31.3297 14.2136C33.1063 18.4338 32.7256 22.5162 30.1496 26.3231C29.5278 27.2498 28.7157 28.0638 27.8909 28.8277C27.0914 29.5666 26.66 30.368 26.7234 31.4575C26.7615 32.0461 26.7361 32.6472 26.66 33.2357C26.5585 33.9746 26.1143 34.5381 25.4418 34.8637C25.1626 35.0015 25.0992 35.1768 25.1119 35.4523C25.1499 36.1536 25.0611 36.8173 24.617 37.4058C24.5535 37.481 24.6043 37.6939 24.6677 37.8066C25.2514 38.7207 25.2514 39.6224 24.6677 40.5366C24.5916 40.6493 24.5916 40.8997 24.6677 41.0124C25.5052 42.3273 25.0992 43.8426 23.716 44.5439C23.551 44.6315 23.3988 44.8319 23.3353 45.0197C22.8912 46.4849 21.9268 47.4491 20.4421 47.8374C18.932 48.2381 17.5996 47.8123 16.4956 46.7228C16.1276 46.3597 16.1023 45.8838 16.4195 45.5582C16.7367 45.2326 17.2063 45.2076 17.5996 45.5707C18.3864 46.2845 19.262 46.5851 20.2898 46.1969C20.937 45.9589 21.4065 45.5206 21.673 44.7818C20.8608 44.7818 20.0995 44.7818 19.3381 44.7818C19.097 44.7818 18.8686 44.7943 18.6275 44.7818C18.1326 44.7442 17.8154 44.4186 17.8154 43.9803C17.8154 43.5295 18.1199 43.2039 18.6275 43.1914C19.833 43.1663 21.0385 43.1789 22.2313 43.1789C22.4344 43.1789 22.6501 43.1663 22.8404 43.1288C23.2592 43.0411 23.4495 42.7531 23.4368 42.3524C23.4241 41.9266 23.1704 41.6886 22.7643 41.626C22.4978 41.5885 22.2313 41.6135 21.9648 41.601C21.4065 41.5759 21.0512 41.2504 21.0512 40.787C21.0512 40.3362 21.3811 40.0231 21.9268 39.9855C22.2313 39.9605 22.5359 39.973 22.8277 39.9355C23.2338 39.8728 23.4876 39.5472 23.4495 39.134C23.4115 38.7207 23.183 38.4703 22.7643 38.4202C22.4978 38.3951 22.2313 38.4202 21.9522 38.3951C21.3938 38.3576 21.0385 38.0195 21.0512 37.5686C21.0639 37.1303 21.3938 36.8173 21.9395 36.7672C22.1425 36.7547 22.3455 36.7672 22.5613 36.7547C23.1577 36.7296 23.4241 36.4917 23.4749 35.9031C23.4876 35.6902 23.4749 35.4773 23.4749 35.1893C22.98 35.1893 22.5232 35.2394 22.079 35.1768C21.7745 35.1392 21.4065 35.014 21.2288 34.8011C20.7974 34.3002 21.2162 33.6114 21.9395 33.5613C22.447 33.5238 22.9546 33.5488 23.4622 33.5488C23.716 33.5488 23.9698 33.5488 24.2236 33.5488C24.7819 33.5363 25.0738 33.2858 25.1119 32.7223C25.1372 32.2965 25.1499 31.8833 25.1245 31.4575C25.0357 29.8671 25.6321 28.6273 26.863 27.6005C28.6396 26.1228 29.8324 24.2569 30.4034 22.0278C31.3424 18.3586 30.5684 15.0275 28.17 12.1097C26.1016 9.60517 23.3734 8.20261 20.0995 8.02729C14.8206 7.75179 10.1762 10.895 8.66617 15.8791C7.33376 20.2997 8.45045 24.2068 11.8513 27.4126C12.7015 28.2141 13.5517 28.9905 13.7166 30.1927C13.8181 30.894 13.7801 31.6203 13.7928 32.3466C13.8054 33.3359 14.0085 33.5488 15.0236 33.5488C16.4322 33.5488 17.8407 33.5363 19.2493 33.5488C20.0106 33.5488 20.4675 34.0873 20.2137 34.6759C20.036 35.1016 19.6427 35.1893 19.2366 35.1893C18.158 35.1893 17.0794 35.1893 16.0134 35.1893C15.8485 35.1893 15.6708 35.1893 15.4424 35.1893C15.4424 35.4648 15.4297 35.6902 15.4424 35.9281C15.4932 36.4792 15.747 36.7421 16.3307 36.7547C17.2443 36.7672 18.1707 36.7547 19.0843 36.7547C19.8711 36.7547 20.2898 37.0427 20.2898 37.5686C20.2898 38.1071 19.8838 38.3826 19.0843 38.3951C18.1833 38.3951 17.2824 38.3951 16.3814 38.3951C15.785 38.3951 15.4678 38.6832 15.4551 39.1716C15.4551 39.6599 15.7723 39.948 16.3687 39.9605C17.3712 39.973 18.361 39.948 19.3635 39.973C20.1375 39.9981 20.569 40.6618 20.1375 41.1877C19.9599 41.4006 19.5792 41.5509 19.2873 41.5634C18.3102 41.6135 17.3205 41.5759 16.3434 41.5885C15.8231 41.5885 15.5185 41.8389 15.4805 42.2647C15.4424 42.6905 15.6201 42.991 16.0515 43.1037C16.153 43.1288 16.2672 43.1538 16.3687 43.1789C16.8256 43.2916 17.092 43.6297 17.0413 44.0555C16.9905 44.4812 16.6733 44.7818 16.1911 44.7567C15.2901 44.7192 14.5795 44.3184 14.1354 43.542C13.6659 42.728 13.7039 41.9015 14.1861 41.1001C14.1988 41.0249 14.2876 40.9373 14.3765 40.7995Z" fill="#183266"/>
<path d="M16.9941 22.4023C16.4231 22.4023 15.9155 22.4149 15.4079 22.4023C13.6694 22.3773 12.3624 21.1876 12.1594 19.472C11.9817 17.9567 13.0857 16.4665 14.6846 16.0783C16.4992 15.64 18.428 16.9674 18.593 18.8083C18.6564 19.4595 18.6564 20.1107 18.6945 20.7869C19.2021 20.7869 19.6843 20.7869 20.2046 20.7869C20.2426 20.1232 20.2426 19.472 20.3061 18.8333C20.4457 17.2805 21.7527 16.1034 23.3896 16.0282C24.9378 15.9531 26.3717 17.0676 26.6762 18.5829C27.0569 20.574 25.6103 22.3648 23.5546 22.4149C23.0216 22.4274 22.4887 22.4149 21.905 22.4149C21.905 22.6403 21.905 22.8281 21.905 23.016C21.905 25.6207 21.905 28.238 21.905 30.8427C21.905 31.0431 21.8923 31.256 21.8415 31.4438C21.74 31.8195 21.4608 32.0073 21.0674 32.0073C20.6741 32.0073 20.4076 31.807 20.3188 31.4188C20.268 31.2059 20.2553 30.993 20.2553 30.7676C20.2553 28.1879 20.2553 25.6082 20.2553 23.041C20.2553 22.8532 20.2553 22.6653 20.2553 22.4524C19.7223 22.4524 19.2275 22.4524 18.6691 22.4524C18.6691 22.6528 18.6691 22.8406 18.6691 23.016C18.6691 25.6082 18.6691 28.2004 18.6691 30.7926C18.6691 31.0055 18.6564 31.2309 18.6057 31.4438C18.5168 31.807 18.2504 31.9948 17.8824 32.0073C17.489 32.0199 17.2098 31.8445 17.0956 31.4689C17.0322 31.2685 17.0195 31.0431 17.0195 30.8177C17.0195 28.2255 17.0195 25.6332 17.0195 23.041C16.9941 22.8281 16.9941 22.6403 16.9941 22.4023ZM16.9941 20.8245C16.9941 20.1983 17.0068 19.6598 16.9941 19.1088C16.9687 18.2823 16.3089 17.6311 15.4713 17.6061C14.6211 17.581 13.9232 18.1571 13.8217 18.9586C13.7075 19.8226 14.2151 20.5865 15.078 20.7118C15.6744 20.8245 16.2962 20.7994 16.9941 20.8245ZM21.9176 20.8245C22.6156 20.7869 23.2754 20.8119 23.9226 20.6992C24.6967 20.5615 25.1662 19.7976 25.0773 19.0086C24.9885 18.2197 24.3414 17.6311 23.5546 17.6061C22.7552 17.581 22.0065 18.1195 21.9303 18.8834C21.8669 19.497 21.9176 20.1232 21.9176 20.8245Z" fill="#183266"/>
<path d="M10.3188 2.4675C10.433 2.56768 10.7249 2.70543 10.8645 2.93084C11.4101 3.80744 11.9177 4.69656 12.4253 5.58568C12.6791 6.0365 12.5522 6.49985 12.1588 6.72526C11.7527 6.95067 11.2959 6.83796 11.0168 6.38714C10.4711 5.49802 9.93814 4.59638 9.44325 3.68221C9.11332 3.09364 9.51938 2.44245 10.3188 2.4675Z" fill="#183266"/>
<path d="M29.5947 3.31821C29.5313 3.45596 29.4805 3.65632 29.379 3.83164C28.9095 4.64563 28.44 5.45961 27.9578 6.26107C27.6278 6.81208 27.1837 6.97487 26.7523 6.72442C26.3208 6.48648 26.232 5.99809 26.5492 5.45961C27.0441 4.60806 27.539 3.75651 28.0466 2.90495C28.2496 2.56684 28.5669 2.35395 28.9983 2.4917C29.379 2.61693 29.544 2.89243 29.5947 3.31821Z" fill="#183266"/>
<path d="M3.33743 9.17969C3.4897 9.2423 3.69273 9.29239 3.87039 9.39258C4.7079 9.85592 5.54541 10.3318 6.37023 10.8202C6.91589 11.1332 7.06816 11.5966 6.80168 12.0224C6.54789 12.4231 6.07837 12.5108 5.54541 12.2102C4.68252 11.7218 3.81963 11.2334 2.95674 10.7325C2.60143 10.5322 2.41109 10.2191 2.52529 9.79331C2.62681 9.4051 2.90598 9.2423 3.33743 9.17969Z" fill="#183266"/>
<path d="M36.013 9.31725C35.7846 9.19202 35.5181 9.1795 35.277 9.27968C35.2008 9.30472 35.112 9.34229 35.0359 9.39238C34.1984 9.85573 33.3608 10.3316 32.536 10.82C31.9904 11.1331 31.8381 11.5964 32.1046 12.0222C32.3584 12.4229 32.8279 12.5106 33.3608 12.21C34.2237 11.7216 35.0866 11.2332 35.9495 10.7323C36.3048 10.532 36.4952 10.2189 36.381 9.79311C36.3048 9.5677 36.1906 9.41743 36.013 9.31725Z" fill="#183266"/>
<path d="M36.4054 28.2901C36.3801 28.9788 35.7963 29.3921 35.2761 29.1291C34.2609 28.6032 33.2584 28.0146 32.2813 27.426C31.9133 27.2006 31.8753 26.8124 32.0656 26.4242C32.256 26.061 32.6874 25.8857 33.0681 26.0861C34.0833 26.6246 35.073 27.2006 36.0628 27.8017C36.2659 27.9019 36.342 28.1774 36.4054 28.2901Z" fill="#183266"/>
<path d="M5.70875 26.0966C6.00061 25.9589 6.35592 26.0215 6.59702 26.2344C6.69854 26.3221 6.78736 26.4222 6.85081 26.5349C7.02847 26.8856 6.87619 27.2487 6.53357 27.4616C6.03868 27.7622 5.5311 28.0502 5.02351 28.3382C4.61745 28.5762 4.21138 28.8141 3.79262 29.0395C3.31042 29.3025 2.82822 29.1898 2.58711 28.7765C2.3587 28.3883 2.4856 27.925 2.95511 27.662C3.85607 27.136 4.75703 26.6226 5.65799 26.1217C5.68337 26.1092 5.69606 26.1092 5.70875 26.0966Z" fill="#183266"/>
<path d="M2.41135 19.9979C1.90377 19.9979 1.39618 20.0104 0.901289 19.9979C0.342947 19.9728 -0.0123605 19.6347 0.000329029 19.1714C0.0130186 18.708 0.381016 18.3824 0.939357 18.3824C1.92914 18.3699 2.93162 18.3699 3.92141 18.3824C4.49244 18.395 4.84775 18.6955 4.86044 19.1714C4.87312 19.6598 4.53051 19.9854 3.9341 20.0104C3.41382 20.0229 2.90624 19.9979 2.41135 19.9979Z" fill="#183266"/>
<path d="M36.4456 19.9979C35.938 19.9979 35.4304 20.0104 34.9355 19.9979C34.3645 19.9728 34.0345 19.6472 34.0472 19.1714C34.0599 18.708 34.4152 18.395 34.9736 18.3824C35.9634 18.3699 36.9658 18.3699 37.9556 18.3824C38.514 18.395 38.882 18.708 38.8946 19.1714C38.9073 19.6472 38.552 19.9728 37.9556 19.9979C37.4607 20.0229 36.9531 20.0104 36.4456 19.9979Z" fill="#183266"/>
</svg>
