<svg width="48" height="48" viewBox="0 0 48 48" fill="none" xmlns="http://www.w3.org/2000/svg">
<path d="M48.0011 14.0722C46.8239 15.2741 45.6468 16.476 44.4446 17.6654C44.1441 17.9658 43.7433 17.9283 43.4303 17.6278C42.3282 16.5511 41.2262 15.4619 40.1368 14.3602C39.7986 14.0222 39.8362 13.584 40.1743 13.2334C40.4498 12.9455 40.7504 12.6575 41.0384 12.3696C34.3888 7.17397 24.1952 6.96114 17.245 11.994C17.9463 13.6466 17.8336 15.2115 16.5187 16.5261C15.2038 17.8281 13.6385 17.9408 11.9854 17.2397C7.42713 23.4619 6.70081 33.4525 12.3736 41.102C12.6491 40.8015 12.9121 40.4885 13.1876 40.2131C13.5884 39.8125 14.0267 39.8125 14.4149 40.2006C15.4668 41.2522 16.5062 42.3039 17.5456 43.368C17.8962 43.7186 17.9463 44.1442 17.6458 44.4572C16.4561 45.6591 15.2539 46.8234 14.0517 48.0128C13.8639 48.0128 13.676 48.0128 13.4882 48.0128C12.3361 46.8735 11.184 45.7342 10.0444 44.5824C9.63115 44.1568 9.63115 43.7812 10.0444 43.3555C10.4201 42.9674 10.8208 42.5918 11.209 42.2162C6.4253 35.3555 5.53618 28.0691 8.51662 20.2444C8.40391 20.332 8.31625 20.3821 8.25364 20.4572C7.05145 21.6591 5.84925 22.861 4.63454 24.0503C4.4467 24.2381 4.40913 24.3884 4.48427 24.6513C4.89752 26.0159 4.08354 27.3179 2.66846 27.5934C1.44122 27.8312 0.151368 26.9048 0.0136165 25.6779C-0.14918 24.2381 0.840123 23.0613 2.24268 23.0112C2.38043 23.0112 2.54323 22.9987 2.65593 23.0613C3.21946 23.3242 3.54505 23.0237 3.92074 22.6481C6.01205 20.5323 8.11589 18.4416 10.2197 16.3508C10.3449 16.2256 10.4827 16.138 10.5954 16.0503C9.64367 13.7968 9.83151 12.282 11.1715 11.005C12.4363 9.80308 14.0642 9.65284 15.9552 10.5793C16.0554 10.4791 16.1681 10.379 16.2808 10.2788C18.4848 8.06286 20.6888 5.85942 22.9053 3.65597C23.1308 3.43062 23.2059 3.26787 23.0932 2.92984C22.7801 1.91575 23.2309 0.839072 24.1326 0.31325C25.0342 -0.212572 26.1988 -0.0623369 26.9377 0.688837C27.664 1.42749 27.8143 2.55425 27.3009 3.45566C26.7749 4.36959 25.723 4.82029 24.6961 4.51982C24.4081 4.43219 24.2202 4.46974 24.0074 4.6951C22.8553 5.85942 21.6906 7.01122 20.526 8.17554C20.4133 8.28821 20.3131 8.40089 20.1503 8.56364C28.0272 5.55895 35.3155 6.43532 42.2406 11.2428C42.5787 10.8923 42.9419 10.4791 43.3176 10.1035C43.7809 9.64032 44.1566 9.64032 44.6074 10.091C45.747 11.2178 46.874 12.3696 48.0011 13.4963C48.0011 13.6967 48.0011 13.8845 48.0011 14.0722ZM13.8263 16.1505C15.1287 16.1505 16.143 15.1364 16.143 13.8344C16.143 12.5198 15.1036 11.4682 13.8138 11.4682C12.5364 11.4682 11.497 12.5198 11.4845 13.7968C11.4595 15.0989 12.5114 16.1505 13.8263 16.1505ZM11.6974 43.9189C12.3987 44.6325 13.125 45.3586 13.8138 46.0472C14.5151 45.3461 15.2414 44.6325 15.9051 43.969C15.2038 43.2679 14.49 42.5543 13.7762 41.8406C13.1 42.5167 12.3862 43.2303 11.6974 43.9189ZM43.9562 15.8876C44.67 15.174 45.3838 14.4604 46.01 13.8219C45.3212 13.1333 44.6074 12.4197 43.9437 11.7561C43.28 12.4197 42.5662 13.1458 41.8774 13.8219C42.5662 14.4979 43.28 15.2115 43.9562 15.8876ZM25.3223 3.10511C25.748 3.10511 26.0861 2.76708 26.0987 2.34142C26.1112 1.89072 25.7731 1.51513 25.3348 1.51513C24.9215 1.51513 24.5709 1.85316 24.5584 2.27882C24.5333 2.74205 24.884 3.10511 25.3223 3.10511ZM3.10675 25.3273C3.10675 24.9017 2.76864 24.5636 2.33034 24.5511C1.87952 24.5386 1.59149 24.8266 1.59149 25.2647C1.59149 25.7029 1.92961 26.0535 2.34286 26.066C2.74359 26.066 3.09423 25.728 3.10675 25.3273Z" fill="white" stroke="white" stroke-width="0.5"/>
<path d="M47.0765 34.6671C45.7491 33.9911 44.3967 33.3275 43.0692 32.639C42.8438 32.5263 42.6309 32.2884 42.5308 32.0631C41.554 29.5842 40.6022 27.1053 39.6505 24.6139C39.5002 24.2008 39.2623 23.9504 38.8491 23.7751C32.525 21.2587 26.201 18.7423 19.8895 16.2008C19.4136 16.013 19.063 16.0756 18.7123 16.4387C17.986 17.1898 17.2472 17.941 16.4958 18.6546C16.07 19.0552 16.0074 19.4434 16.2203 19.9817C17.3348 22.761 18.4494 25.5279 19.5639 28.3072C19.7142 28.6953 20.1525 28.8831 20.5407 28.7329C20.9414 28.5826 21.1292 28.1319 20.979 27.7438C19.9396 25.1648 18.9127 22.5858 17.8733 20.0067C17.7356 19.6437 17.7481 19.4183 18.1112 19.243C21.3171 22.448 24.5229 25.6531 27.7288 28.8581C26.1634 31.4246 27.278 33.8909 28.8057 34.9676C30.584 36.2321 33.0134 36.0318 34.5412 34.4793C36.0565 32.9394 36.2193 30.5357 34.9545 28.7704C33.8274 27.2055 31.3604 26.1914 28.8809 27.7063L19.2508 18.0787C19.4011 17.7407 19.639 17.7031 20.0398 17.8659C25.9631 20.2571 31.8989 22.6233 37.8347 24.9895C38.1227 25.1022 38.2855 25.2524 38.3982 25.5529C39.2748 27.8565 40.1514 30.1476 41.0531 32.4387C41.1532 32.7016 41.1407 32.8768 40.9278 33.0897C38.3106 35.6937 35.7058 38.2978 33.1136 40.9144C32.9007 41.1272 32.7254 41.1523 32.4624 41.0396C30.1707 40.1507 27.8665 39.2618 25.5749 38.3855C25.2868 38.2728 25.1366 38.11 25.0238 37.8221C24.0471 35.3808 23.0828 32.9394 22.106 30.5106C21.9558 30.1225 21.5175 29.9347 21.1292 30.085C20.7285 30.2352 20.5407 30.6859 20.6909 31.074C21.7178 33.6531 22.7447 36.2196 23.7716 38.7986C23.9469 39.2243 24.1973 39.4872 24.6231 39.6499C27.1026 40.5889 29.5696 41.5404 32.0366 42.4793C32.3497 42.6045 32.5501 42.7798 32.6878 43.0803C33.339 44.4199 34.0152 45.7595 34.6915 47.0865C34.8543 47.3995 35.0672 47.6875 35.255 47.9754H35.9062C39.9385 43.9441 43.9709 39.9128 48.0032 35.8815V35.2305C47.7027 35.0552 47.4021 34.8299 47.0765 34.6671ZM31.423 28.495C33.0134 28.495 34.3158 29.8096 34.3033 31.387C34.3033 32.9645 32.9884 34.279 31.4105 34.2916C29.8201 34.3166 28.4927 32.9895 28.4927 31.3745C28.4927 29.7595 29.7825 28.495 31.423 28.495ZM35.781 45.8847C35.1924 44.6953 34.5788 43.4809 33.9777 42.2916C36.7577 39.5122 39.5128 36.7579 42.3053 33.9786C43.4825 34.567 44.6972 35.1804 45.8994 35.7814C42.5057 39.1491 39.1621 42.5044 35.781 45.8847Z" fill="white" stroke="white" stroke-width="0.5"/>
</svg>
