<svg width="50" height="50" viewBox="0 0 50 50" fill="none" xmlns="http://www.w3.org/2000/svg">
<path d="M49.005 15.0703C47.8278 16.2722 46.6507 17.4741 45.4485 18.6634C45.148 18.9639 44.7472 18.9263 44.4342 18.6259C43.3322 17.5492 42.2301 16.46 41.1407 15.3582C40.8025 15.0202 40.8401 14.582 41.1782 14.2315C41.4537 13.9435 41.7543 13.6556 42.0423 13.3676C35.3927 8.17202 25.1991 7.95918 18.2489 12.992C18.9502 14.6446 18.8375 16.2096 17.5226 17.5241C16.2077 18.8262 14.6424 18.9388 12.9893 18.2377C8.43104 24.46 7.70471 34.4506 13.3776 42.1C13.6531 41.7996 13.916 41.4866 14.1915 41.2111C14.5923 40.8105 15.0306 40.8105 15.4188 41.1986C16.4707 42.2503 17.5101 43.3019 18.5495 44.3661C18.9001 44.7166 18.9502 45.1423 18.6497 45.4553C17.46 46.6572 16.2578 47.8215 15.0556 49.0108C14.8678 49.0108 14.6799 49.0108 14.4921 49.0108C13.34 47.8715 12.1879 46.7323 11.0483 45.5805C10.6351 45.1548 10.6351 44.7792 11.0483 44.3535C11.424 43.9654 11.8247 43.5899 12.2129 43.2143C7.42921 36.3536 6.54009 29.0672 9.52052 21.2424C9.40782 21.3301 9.32016 21.3802 9.25754 21.4553C8.05535 22.6571 6.85316 23.859 5.63845 25.0484C5.4506 25.2362 5.41304 25.3864 5.48817 25.6493C5.90143 27.014 5.08744 28.316 3.67236 28.5914C2.44512 28.8293 1.15527 27.9028 1.01752 26.6759C0.854726 25.2362 1.84403 24.0593 3.24659 24.0093C3.38434 24.0093 3.54713 23.9967 3.65984 24.0593C4.22337 24.3223 4.54896 24.0218 4.92464 23.6462C7.01596 21.5304 9.11979 19.4396 11.2236 17.3489C11.3489 17.2237 11.4866 17.136 11.5993 17.0484C10.6476 14.7949 10.8354 13.28 12.1754 12.003C13.4402 10.8011 15.0681 10.6509 16.9591 11.5773C17.0593 11.4772 17.172 11.377 17.2847 11.2769C19.4887 9.06091 21.6927 6.85746 23.9093 4.65402C24.1347 4.42867 24.2098 4.26591 24.0971 3.92789C23.784 2.9138 24.2348 1.83712 25.1365 1.3113C26.0381 0.785475 27.2028 0.93571 27.9416 1.68688C28.6679 2.42554 28.8182 3.5523 28.3048 4.45371C27.7788 5.36764 26.7269 5.81834 25.7 5.51787C25.412 5.43023 25.2241 5.46779 25.0113 5.69314C23.8592 6.85746 22.6945 8.00926 21.5299 9.17358C21.4172 9.28626 21.317 9.39893 21.1542 9.56169C29.0311 6.55699 36.3194 7.43336 43.2445 12.2409C43.5826 11.8903 43.9458 11.4772 44.3215 11.1016C44.7848 10.6384 45.1605 10.6384 45.6113 11.0891C46.7509 12.2158 47.8779 13.3676 49.005 14.4944C49.005 14.6947 49.005 14.8825 49.005 15.0703ZM14.8302 17.1485C16.1326 17.1485 17.1469 16.1345 17.1469 14.8324C17.1469 13.5179 16.1075 12.4662 14.8177 12.4662C13.5404 12.4662 12.501 13.5179 12.4884 14.7949C12.4634 16.0969 13.5153 17.1485 14.8302 17.1485ZM12.7013 44.9169C13.4026 45.6305 14.1289 46.3567 14.8177 47.0453C15.519 46.3442 16.2453 45.6305 16.909 44.967C16.2077 44.2659 15.4939 43.5523 14.7801 42.8387C14.1039 43.5147 13.3901 44.2284 12.7013 44.9169ZM44.9601 16.8856C45.6739 16.172 46.3877 15.4584 47.0139 14.8199C46.3251 14.1313 45.6113 13.4177 44.9476 12.7542C44.2839 13.4177 43.5701 14.1438 42.8813 14.8199C43.5701 15.496 44.2839 16.2096 44.9601 16.8856ZM26.3262 4.10316C26.7519 4.10316 27.09 3.76513 27.1026 3.33947C27.1151 2.88876 26.777 2.51317 26.3387 2.51317C25.9254 2.51317 25.5748 2.8512 25.5623 3.27687C25.5372 3.74009 25.8879 4.10316 26.3262 4.10316ZM4.11066 26.3254C4.11066 25.8997 3.77254 25.5617 3.33425 25.5492C2.88342 25.5367 2.5954 25.8246 2.5954 26.2628C2.5954 26.701 2.93352 27.0515 3.34677 27.064C3.7475 27.064 4.09814 26.726 4.11066 26.3254Z" fill="#183266" stroke="#183266" stroke-width="0.5"/>
<path d="M48.0805 35.6652C46.753 34.9891 45.4006 34.3256 44.0731 33.637C43.8477 33.5243 43.6349 33.2865 43.5347 33.0611C42.5579 30.5822 41.6062 28.1034 40.6544 25.612C40.5041 25.1988 40.2662 24.9484 39.853 24.7732C33.5289 22.2567 27.2049 19.7403 20.8934 17.1988C20.4175 17.011 20.0669 17.0736 19.7162 17.4367C18.9899 18.1879 18.2511 18.9391 17.4997 19.6527C17.0739 20.0533 17.0113 20.4414 17.2242 20.9797C18.3387 23.7591 19.4533 26.5259 20.5678 29.3053C20.7181 29.6934 21.1564 29.8812 21.5446 29.7309C21.9453 29.5807 22.1332 29.13 21.9829 28.7419C20.9435 26.1628 19.9166 23.5838 18.8772 21.0048C18.7395 20.6417 18.752 20.4164 19.1152 20.2411C22.321 23.4461 25.5268 26.6511 28.7327 29.8561C27.1673 32.4226 28.2819 34.889 29.8096 35.9657C31.5879 37.2301 34.0173 37.0298 35.5451 35.4774C37.0604 33.9375 37.2232 31.5337 35.9584 29.7685C34.8313 28.2035 32.3643 27.1894 29.8848 28.7043L20.2547 19.0768C20.405 18.7387 20.6429 18.7012 21.0437 18.8639C26.967 21.2552 32.9028 23.6214 38.8386 25.9876C39.1266 26.1002 39.2894 26.2505 39.4021 26.5509C40.2787 28.8545 41.1553 31.1456 42.057 33.4367C42.1572 33.6996 42.1446 33.8749 41.9317 34.0877C39.3145 36.6918 36.7097 39.2959 34.1175 41.9124C33.9046 42.1253 33.7293 42.1503 33.4663 42.0376C31.1746 41.1488 28.8704 40.2599 26.5788 39.3835C26.2907 39.2708 26.1405 39.1081 26.0278 38.8201C25.051 36.3788 24.0867 33.9375 23.1099 31.5087C22.9597 31.1206 22.5214 30.9328 22.1332 31.083C21.7324 31.2333 21.5446 31.684 21.6949 32.0721C22.7217 34.6511 23.7486 37.2176 24.7755 39.7966C24.9508 40.2223 25.2012 40.4852 25.627 40.648C28.1065 41.5869 30.5735 42.5384 33.0405 43.4774C33.3536 43.6026 33.554 43.7779 33.6917 44.0783C34.3429 45.4179 35.0191 46.7575 35.6954 48.0846C35.8582 48.3976 36.0711 48.6855 36.2589 48.9735H36.9101C40.9424 44.9422 44.9748 40.9109 49.0071 36.8796V36.2286C48.7066 36.0533 48.406 35.8279 48.0805 35.6652ZM32.4269 29.493C34.0173 29.493 35.3197 30.8076 35.3072 32.3851C35.3072 33.9625 33.9923 35.2771 32.4144 35.2896C30.824 35.3146 29.4966 33.9876 29.4966 32.3725C29.4966 30.7575 30.7864 29.493 32.4269 29.493ZM36.7849 46.8827C36.1963 45.6934 35.5827 44.479 34.9816 43.2896C37.7616 40.5103 40.5167 37.756 43.3093 34.9766C44.4864 35.565 45.7011 36.1785 46.9033 36.7794C43.5096 40.1472 40.166 43.5024 36.7849 46.8827Z" fill="#183266" stroke="#183266" stroke-width="0.5"/>
</svg>
