<svg width="40" height="48" viewBox="0 0 40 48" fill="none" xmlns="http://www.w3.org/2000/svg">
<path d="M20.2874 0C20.7189 0.262979 20.8458 0.66371 20.8331 1.1521C20.8204 1.99113 20.8331 2.84268 20.8204 3.68171C20.8204 3.88208 20.8077 4.09496 20.7316 4.28281C20.6047 4.62092 20.3255 4.85886 19.9702 4.7712C19.7037 4.70858 19.4372 4.4957 19.2469 4.27028C19.1327 4.14506 19.1581 3.88208 19.1581 3.68171C19.1454 2.84268 19.1708 1.99113 19.1454 1.1521C19.1327 0.66371 19.2596 0.262979 19.691 0C19.9068 0 20.0971 0 20.2874 0Z" fill="white"/>
<path d="M14.9312 40.7995C14.1825 39.7727 14.081 38.7708 14.8296 37.744C14.8804 37.6688 14.8677 37.4935 14.8043 37.4184C14.3728 36.8423 14.284 36.1911 14.3221 35.5024C14.3348 35.2143 14.2713 35.0265 13.9794 34.8762C13.1419 34.4379 12.7359 33.6991 12.6978 32.7724C12.6851 32.259 12.6724 31.7455 12.6978 31.2321C12.7359 30.343 12.4059 29.6292 11.7207 29.0406C10.6928 28.1765 9.79189 27.1872 9.06858 26.0602C7.44432 23.5306 6.78446 20.7505 7.12708 17.7951C7.59659 13.7502 9.61423 10.6195 13.0531 8.39045C14.7916 7.27592 16.7077 6.6623 18.7761 6.44941C24.3088 5.91093 29.7272 9.11678 31.8844 14.2136C33.661 18.4338 33.2803 22.5162 30.7043 26.3231C30.0825 27.2498 29.2704 28.0638 28.4456 28.8277C27.6461 29.5666 27.2147 30.368 27.2781 31.4575C27.3162 32.0461 27.2908 32.6472 27.2147 33.2357C27.1132 33.9746 26.669 34.5381 25.9965 34.8637C25.7173 35.0015 25.6539 35.1768 25.6665 35.4523C25.7046 36.1536 25.6158 36.8173 25.1717 37.4058C25.1082 37.481 25.159 37.6939 25.2224 37.8066C25.8061 38.7207 25.8061 39.6224 25.2224 40.5365C25.1463 40.6493 25.1463 40.8997 25.2224 41.0124C26.0599 42.3273 25.6539 43.8426 24.2707 44.5439C24.1057 44.6315 23.9535 44.8319 23.89 45.0197C23.4459 46.4849 22.4815 47.4492 20.9968 47.8374C19.4867 48.2381 18.1543 47.8123 17.0503 46.7228C16.6823 46.3597 16.6569 45.8838 16.9742 45.5582C17.2914 45.2326 17.7609 45.2076 18.1543 45.5707C18.9411 46.2845 19.8167 46.5851 20.8445 46.1969C21.4917 45.9589 21.9612 45.5206 22.2277 44.7818C21.4155 44.7818 20.6542 44.7818 19.8928 44.7818C19.6517 44.7818 19.4233 44.7943 19.1822 44.7818C18.6873 44.7442 18.37 44.4186 18.37 43.9803C18.37 43.5295 18.6746 43.2039 19.1822 43.1914C20.3877 43.1663 21.5932 43.1789 22.786 43.1789C22.989 43.1789 23.2048 43.1663 23.3951 43.1288C23.8139 43.0411 24.0042 42.7531 23.9915 42.3524C23.9788 41.9266 23.725 41.6886 23.319 41.626C23.0525 41.5885 22.786 41.6135 22.5195 41.601C21.9612 41.5759 21.6059 41.2504 21.6059 40.787C21.6059 40.3362 21.9358 40.0231 22.4815 39.9855C22.786 39.9605 23.0906 39.973 23.3824 39.9355C23.7885 39.8728 24.0423 39.5472 24.0042 39.134C23.9661 38.7207 23.7377 38.4703 23.319 38.4202C23.0525 38.3951 22.786 38.4202 22.5068 38.3951C21.9485 38.3576 21.5932 38.0195 21.6059 37.5686C21.6186 37.1303 21.9485 36.8173 22.4942 36.7672C22.6972 36.7547 22.9002 36.7672 23.1159 36.7547C23.7123 36.7296 23.9788 36.4917 24.0296 35.9031C24.0423 35.6902 24.0296 35.4773 24.0296 35.1893C23.5347 35.1893 23.0779 35.2394 22.6337 35.1768C22.3292 35.1392 21.9612 35.014 21.7835 34.8011C21.3521 34.3002 21.7708 33.6114 22.4942 33.5613C23.0017 33.5238 23.5093 33.5488 24.0169 33.5488C24.2707 33.5488 24.5245 33.5488 24.7783 33.5488C25.3366 33.5363 25.6285 33.2858 25.6665 32.7223C25.6919 32.2965 25.7046 31.8833 25.6792 31.4575C25.5904 29.8671 26.1868 28.6273 27.4177 27.6005C29.1942 26.1228 30.3871 24.2569 30.9581 22.0278C31.8971 18.3586 31.1231 15.0275 28.7247 12.1097C26.6563 9.60517 23.9281 8.20261 20.6542 8.02729C15.3753 7.75179 10.7309 10.895 9.22086 15.8791C7.88845 20.2997 9.00513 24.2068 12.4059 27.4126C13.2561 28.2141 14.1063 28.9905 14.2713 30.1927C14.3728 30.894 14.3348 31.6203 14.3474 32.3466C14.3601 33.3359 14.5632 33.5488 15.5783 33.5488C16.9869 33.5488 18.3954 33.5363 19.804 33.5488C20.5653 33.5488 21.0222 34.0873 20.7684 34.6759C20.5907 35.1016 20.1973 35.1893 19.7913 35.1893C18.7127 35.1893 17.634 35.1893 16.5681 35.1893C16.4032 35.1893 16.2255 35.1893 15.9971 35.1893C15.9971 35.4648 15.9844 35.6902 15.9971 35.9281C16.0478 36.4792 16.3016 36.7421 16.8854 36.7547C17.799 36.7672 18.7253 36.7547 19.639 36.7547C20.4258 36.7547 20.8445 37.0427 20.8445 37.5686C20.8445 38.1071 20.4384 38.3826 19.639 38.3951C18.738 38.3951 17.8371 38.3951 16.9361 38.3951C16.3397 38.3951 16.0225 38.6832 16.0098 39.1716C16.0098 39.66 16.327 39.948 16.9234 39.9605C17.9259 39.973 18.9157 39.948 19.9182 39.973C20.6922 39.9981 21.1237 40.6618 20.6922 41.1877C20.5146 41.4006 20.1339 41.5509 19.842 41.5634C18.8649 41.6135 17.8751 41.5759 16.898 41.5885C16.3778 41.5885 16.0732 41.8389 16.0352 42.2647C15.9971 42.6905 16.1747 42.991 16.6062 43.1037C16.7077 43.1288 16.8219 43.1538 16.9234 43.1789C17.3803 43.2916 17.6467 43.6297 17.596 44.0555C17.5452 44.4812 17.228 44.7818 16.7458 44.7567C15.8448 44.7192 15.1342 44.3184 14.6901 43.542C14.2205 42.728 14.2586 41.9015 14.7408 41.1001C14.7535 41.0249 14.8423 40.9373 14.9312 40.7995Z" fill="white"/>
<path d="M17.5488 22.4023C16.9777 22.4023 16.4702 22.4149 15.9626 22.4023C14.2241 22.3773 12.9171 21.1876 12.7141 19.472C12.5364 17.9567 13.6404 16.4665 15.2393 16.0783C17.0539 15.64 18.9827 16.9674 19.1477 18.8083C19.2111 19.4595 19.2111 20.1107 19.2492 20.7869C19.7568 20.7869 20.239 20.7869 20.7592 20.7869C20.7973 20.1232 20.7973 19.472 20.8608 18.8333C21.0003 17.2805 22.3074 16.1034 23.9443 16.0282C25.4925 15.9531 26.9264 17.0676 27.2309 18.5829C27.6116 20.574 26.165 22.3648 24.1093 22.4149C23.5763 22.4274 23.0434 22.4149 22.4596 22.4149C22.4596 22.6403 22.4596 22.8281 22.4596 23.016C22.4596 25.6207 22.4596 28.238 22.4596 30.8427C22.4596 31.0431 22.447 31.256 22.3962 31.4438C22.2947 31.8195 22.0155 32.0073 21.6221 32.0073C21.2288 32.0073 20.9623 31.807 20.8734 31.4188C20.8227 31.2059 20.81 30.993 20.81 30.7676C20.81 28.1879 20.81 25.6082 20.81 23.041C20.81 22.8532 20.81 22.6653 20.81 22.4524C20.277 22.4524 19.7821 22.4524 19.2238 22.4524C19.2238 22.6528 19.2238 22.8406 19.2238 23.016C19.2238 25.6082 19.2238 28.2004 19.2238 30.7926C19.2238 31.0055 19.2111 31.2309 19.1604 31.4438C19.0715 31.807 18.805 31.9948 18.437 32.0073C18.0437 32.0199 17.7645 31.8445 17.6503 31.4689C17.5868 31.2685 17.5742 31.0431 17.5742 30.8177C17.5742 28.2255 17.5742 25.6332 17.5742 23.041C17.5488 22.8281 17.5488 22.6403 17.5488 22.4023ZM17.5488 20.8245C17.5488 20.1983 17.5615 19.6598 17.5488 19.1088C17.5234 18.2823 16.8635 17.6311 16.026 17.6061C15.1758 17.581 14.4779 18.1571 14.3764 18.9586C14.2622 19.8226 14.7698 20.5865 15.6327 20.7118C16.2291 20.8245 16.8509 20.7994 17.5488 20.8245ZM22.4723 20.8245C23.1703 20.7869 23.8301 20.8119 24.4773 20.6992C25.2514 20.5615 25.7209 19.7976 25.632 19.0086C25.5432 18.2197 24.896 17.6311 24.1093 17.6061C23.3098 17.581 22.5612 18.1195 22.485 18.8834C22.4216 19.497 22.4723 20.1232 22.4723 20.8245Z" fill="white"/>
<path d="M10.8735 2.4675C10.9877 2.56768 11.2796 2.70543 11.4192 2.93084C11.9648 3.80744 12.4724 4.69656 12.98 5.58568C13.2338 6.0365 13.1069 6.49985 12.7135 6.72526C12.3074 6.95067 11.8506 6.83796 11.5714 6.38714C11.0258 5.49802 10.4928 4.59638 9.99793 3.68221C9.668 3.09364 10.0741 2.44245 10.8735 2.4675Z" fill="white"/>
<path d="M30.1494 3.31821C30.086 3.45596 30.0352 3.65632 29.9337 3.83164C29.4642 4.64563 28.9947 5.45961 28.5125 6.26107C28.1825 6.81208 27.7384 6.97487 27.3069 6.72442C26.8755 6.48648 26.7867 5.99809 27.1039 5.45961C27.5988 4.60806 28.0937 3.75651 28.6013 2.90495C28.8043 2.56684 29.1216 2.35395 29.553 2.4917C29.9337 2.61693 30.0987 2.89243 30.1494 3.31821Z" fill="white"/>
<path d="M3.89211 9.17969C4.04439 9.2423 4.24742 9.29239 4.42508 9.39258C5.26259 9.85592 6.1001 10.3318 6.92492 10.8202C7.47057 11.1332 7.62285 11.5966 7.35637 12.0224C7.10258 12.4231 6.63306 12.5108 6.1001 12.2102C5.23721 11.7218 4.37432 11.2334 3.51143 10.7325C3.15612 10.5322 2.96577 10.2191 3.07998 9.79331C3.1815 9.4051 3.46067 9.2423 3.89211 9.17969Z" fill="white"/>
<path d="M36.5676 9.31725C36.3392 9.19202 36.0728 9.1795 35.8317 9.27968C35.7555 9.30472 35.6667 9.34229 35.5906 9.39238C34.753 9.85573 33.9155 10.3316 33.0907 10.82C32.5451 11.1331 32.3928 11.5964 32.6593 12.0222C32.9131 12.4229 33.3826 12.5106 33.9155 12.21C34.7784 11.7216 35.6413 11.2332 36.5042 10.7323C36.8595 10.532 37.0499 10.2189 36.9356 9.79311C36.8595 9.5677 36.7453 9.41743 36.5676 9.31725Z" fill="white"/>
<path d="M36.9601 28.2901C36.9348 28.9788 36.351 29.3921 35.8308 29.1291C34.8156 28.6032 33.8131 28.0146 32.836 27.426C32.468 27.2006 32.43 26.8124 32.6203 26.4242C32.8106 26.061 33.2421 25.8857 33.6228 26.0861C34.6379 26.6246 35.6277 27.2006 36.6175 27.8017C36.8205 27.9019 36.8967 28.1774 36.9601 28.2901Z" fill="white"/>
<path d="M6.26344 26.0966C6.5553 25.9589 6.91061 26.0215 7.15171 26.2344C7.25322 26.3221 7.34205 26.4222 7.4055 26.5349C7.58315 26.8856 7.43088 27.2487 7.08826 27.4616C6.59337 27.7622 6.08578 28.0502 5.5782 28.3382C5.17213 28.5762 4.76607 28.8141 4.34731 29.0395C3.86511 29.3025 3.3829 29.1898 3.1418 28.7765C2.91339 28.3883 3.04029 27.925 3.5098 27.662C4.41076 27.136 5.31172 26.6226 6.21268 26.1217C6.23806 26.1092 6.25075 26.1092 6.26344 26.0966Z" fill="white"/>
<path d="M2.96604 19.9979C2.45845 19.9979 1.95087 20.0104 1.45598 19.9979C0.897635 19.9728 0.542327 19.6347 0.555017 19.1714C0.567706 18.708 0.935704 18.3824 1.49404 18.3824C2.48383 18.3699 3.48631 18.3699 4.47609 18.3824C5.04713 18.395 5.40243 18.6955 5.41512 19.1714C5.42781 19.6598 5.08519 19.9854 4.48878 20.0104C3.96851 20.0229 3.46093 19.9979 2.96604 19.9979Z" fill="white"/>
<path d="M37.0002 19.9979C36.4927 19.9979 35.9851 20.0104 35.4902 19.9979C34.9192 19.9728 34.5892 19.6472 34.6019 19.1714C34.6146 18.708 34.9699 18.395 35.5283 18.3824C36.518 18.3699 37.5205 18.3699 38.5103 18.3824C39.0686 18.395 39.4366 18.708 39.4493 19.1714C39.462 19.6472 39.1067 19.9728 38.5103 19.9979C38.0154 20.0229 37.5078 20.0104 37.0002 19.9979Z" fill="white"/>
</svg>
