<svg width="534" height="491" viewBox="0 0 534 491" fill="none" xmlns="http://www.w3.org/2000/svg">
<path d="M533.1 173.287L232.17 9.80664L0 173.287L20.6802 369.287L260.62 490.827L478.46 431.257L533.1 173.287Z" fill="#FEEBDC"/>
<path d="M487.14 444.357L333.27 447.477C333.27 447.477 334.03 388.087 420.27 382.617" fill="#DE011F"/>
<path d="M259.228 29.3857L260.938 75.5056C260.938 75.5056 248.678 103.936 238.938 77.5556L239.938 43.6756C239.938 43.6756 228.188 49.6756 231.768 27.5856C231.878 26.8956 231.998 26.2256 232.108 25.5856C232.358 24.1756 232.608 22.8756 232.858 21.6656C236.178 5.72565 239.768 6.41565 239.768 6.41565C239.768 6.41565 260.188 4.02565 260.878 13.0457C260.938 13.0357 279.828 14.5957 259.228 29.3857Z" fill="#FDAFA2"/>
<path d="M265.021 75.4761C265.021 75.4761 258.23 88.9861 248.46 89.5461C237.4 90.1861 235.23 78.7861 235.23 78.7861C235.23 78.7861 238.04 76.3161 239.23 77.0361C241.09 78.2161 245.011 86.3961 247.531 85.7561C251.531 84.7561 260.981 76.3461 261.531 75.1561C261.781 74.3861 265.021 75.4761 265.021 75.4761Z" fill="#0160FA"/>
<path d="M218.717 147.477C218.717 147.477 288.717 152.247 305.717 141.007L294.987 84.0766L265.037 75.4766C265.037 75.4766 254.137 89.6066 248.357 89.2666C248.357 89.2666 237.417 88.0766 235.247 78.7166C228.868 77.587 222.298 78.9239 216.867 82.4566C207.327 88.4566 193.867 101.517 193.867 101.517C193.867 101.517 206.407 140.997 206.067 144.067C206.067 144.067 217.337 137.757 218.067 137.757C218.797 137.757 218.717 147.477 218.717 147.477Z" fill="white"/>
<path d="M250.457 248.016L259.227 395.476C259.227 395.476 298.037 407.566 310.627 391.906L314.557 243.476C314.557 243.476 271.137 234.836 250.457 248.016Z" fill="#FDAFA2"/>
<path d="M225.188 221.087C225.188 221.087 206.889 218.957 199.529 205.377L204.529 287.197C204.529 287.197 186.348 307.197 153.668 292.997C153.668 292.997 134.938 239.767 138.348 177.807C141.758 115.847 212.898 156.017 212.898 156.017C212.898 156.017 250.208 211.257 225.188 221.087Z" fill="#FDAFA2"/>
<path d="M218.719 147.476C218.719 147.476 284.969 154.536 305.719 141.006C326.469 127.476 316.869 250.796 316.869 250.796C316.869 250.796 277.289 239.226 248.269 250.796L246.989 228.156L222.139 227.646C222.139 227.646 237.289 215.736 212.949 155.986C214.712 156.577 216.522 157.018 218.359 157.306L218.719 147.476Z" fill="#0160FA"/>
<path d="M314.109 120.556L321.109 140.916C321.109 140.916 321.56 142.636 323.99 137.496C326.42 132.356 344.92 103.496 347.99 98.1464C351.06 92.7964 364.459 101.476 364.459 101.476C364.459 101.476 368.32 99.8163 369.91 100.286C374.12 101.516 370.38 105.166 368.72 106.016C368.72 106.016 379.43 107.946 371.29 112.836L368.12 113.776C368.12 113.776 372.969 113.646 373.569 115.726C374.169 117.806 372.21 120.156 370.04 120.576C370.04 120.576 376.039 122.926 369.569 126.116L363.35 130.226C363.35 130.226 336.559 193.766 321.439 197.476C306.319 201.186 285.359 135.476 285.359 135.476L314.109 120.556Z" fill="#FDAFA2"/>
<path d="M362.438 115.476C361.932 115.478 361.426 115.435 360.928 115.346C360.798 115.322 360.682 115.247 360.605 115.139C360.529 115.031 360.497 114.897 360.518 114.766C360.529 114.701 360.552 114.639 360.588 114.584C360.623 114.528 360.669 114.48 360.723 114.443C360.777 114.406 360.838 114.38 360.903 114.367C360.967 114.353 361.033 114.353 361.098 114.366C364.098 114.886 367.898 113.366 367.928 113.366C368.053 113.317 368.192 113.318 368.315 113.371C368.439 113.423 368.537 113.522 368.588 113.646C368.612 113.707 368.624 113.772 368.623 113.838C368.622 113.904 368.609 113.969 368.583 114.029C368.557 114.09 368.519 114.144 368.472 114.19C368.425 114.236 368.369 114.272 368.308 114.296C366.433 115.023 364.448 115.422 362.438 115.476Z" fill="#522C2C"/>
<path d="M364.3 107.547C363.37 107.546 362.444 107.438 361.539 107.227C361.476 107.213 361.416 107.186 361.364 107.149C361.311 107.112 361.266 107.064 361.231 107.009C361.197 106.954 361.174 106.893 361.163 106.829C361.152 106.765 361.154 106.7 361.169 106.637C361.183 106.573 361.21 106.512 361.248 106.457C361.286 106.403 361.334 106.357 361.39 106.322C361.446 106.287 361.508 106.263 361.573 106.252C361.638 106.24 361.705 106.242 361.769 106.257C364.113 106.839 366.585 106.595 368.769 105.567C368.886 105.503 369.023 105.489 369.151 105.526C369.278 105.564 369.386 105.65 369.449 105.767C369.513 105.884 369.528 106.021 369.49 106.148C369.453 106.276 369.366 106.383 369.249 106.447C367.709 107.2 366.013 107.577 364.3 107.547Z" fill="#522C2C"/>
<path d="M365.438 122.346C364.147 122.376 362.892 121.923 361.917 121.076C361.871 121.029 361.833 120.974 361.808 120.913C361.783 120.852 361.77 120.787 361.77 120.721C361.77 120.655 361.783 120.589 361.808 120.528C361.833 120.467 361.871 120.412 361.917 120.366C362.011 120.274 362.137 120.223 362.268 120.223C362.398 120.223 362.524 120.274 362.618 120.366C365.208 122.646 369.317 120.366 369.357 120.306C369.473 120.239 369.61 120.222 369.738 120.256C369.867 120.291 369.976 120.375 370.042 120.491C370.109 120.606 370.126 120.743 370.092 120.871C370.057 121 369.973 121.109 369.857 121.176C368.497 121.908 366.982 122.309 365.438 122.346Z" fill="#522C2C"/>
<path d="M264.848 76.0156L288.848 77.5456C288.848 77.5456 296.508 77.8956 299.738 84.1056C302.968 90.3156 315.058 120.106 315.058 120.106C315.058 120.106 287.828 133.036 285.948 135.766C284.068 138.496 264.848 76.0156 264.848 76.0156Z" fill="white"/>
<path d="M347.23 466.476V3.55615C347.23 3.55615 357.23 -1.33385 364.46 3.55615V466.476C358.932 468.699 352.759 468.699 347.23 466.476Z" fill="#522C2C"/>
<path d="M496.079 50.4073L464.168 84.1073H364.469V16.6973H464.168L496.079 50.4073Z" fill="#522C2C"/>
<path d="M411.999 73.7164C409.197 73.6079 406.47 72.7815 404.079 71.3164C403.406 71.7006 402.687 71.9964 401.939 72.1964C396.349 73.6964 391.229 69.3564 391.019 69.1964C390.969 69.1537 390.928 69.1016 390.898 69.0431C390.868 68.9846 390.85 68.9208 390.845 68.8553C390.84 68.7898 390.848 68.724 390.868 68.6616C390.889 68.5991 390.921 68.5413 390.963 68.4914C391.006 68.4415 391.058 68.4005 391.117 68.3707C391.175 68.341 391.239 68.323 391.305 68.3179C391.37 68.3128 391.436 68.3206 391.499 68.341C391.561 68.3613 391.619 68.3937 391.669 68.4364C391.719 68.4364 396.609 72.6164 401.669 71.2464C402.172 71.1123 402.661 70.928 403.128 70.6964C399.833 68.1164 397.481 64.5202 396.439 60.4664C393.289 49.8164 396.138 36.2864 400.588 29.8464C402.948 26.4364 405.289 26.9464 406.479 27.5464C411.989 30.3564 416.269 46.5464 411.139 61.2464C409.569 65.7364 407.519 68.9164 405.009 70.7364C405.553 71.0508 406.117 71.3281 406.699 71.5664C410.359 73.0764 413.598 73.1164 416.318 71.6764C416.749 71.4493 417.164 71.192 417.559 70.9064C417.379 70.7864 417.209 70.6564 417.049 70.5264C414.269 68.3164 413.459 65.1964 414.659 61.2364C415.859 57.2764 417.329 55.3764 419.189 55.1264C421.689 54.7864 423.829 57.7764 424.639 59.1264C424.8 59.393 424.858 59.7102 424.799 60.0164C424.519 61.3364 423.109 67.1664 419.289 70.7964C421.068 71.6342 423.087 71.8183 424.989 71.3164C426.332 70.9733 427.577 70.3246 428.628 69.4209C429.68 68.5172 430.508 67.3829 431.049 66.1064C431.159 65.8564 431.258 65.6064 431.358 65.3464C426.578 57.6664 427.489 43.8964 429.559 36.6364C430.269 34.1464 431.448 31.2464 433.088 31.2864C434.348 31.3664 435.258 33.2164 435.858 36.9464C437.289 46.4973 436.129 56.2572 432.499 65.2064C433.433 66.6689 434.714 67.8781 436.229 68.7264C437.815 69.8516 439.621 70.6286 441.529 71.0064C440.908 70.5159 440.43 69.8669 440.147 69.1277C439.863 68.3885 439.784 67.5866 439.919 66.8064C440.369 64.0764 443.159 61.3664 445.259 61.6464C446.139 61.7564 447.569 62.4664 447.259 65.9364C446.999 68.7464 446.079 70.6164 444.519 71.4864C445.089 71.6753 445.67 71.829 446.259 71.9464C450.369 72.7664 453.179 71.7164 454.619 68.8464C450.049 64.8464 449.528 60.8464 449.568 59.0364C449.628 56.6164 450.668 54.4764 452.088 53.8364C452.38 53.6868 452.71 53.6269 453.035 53.6643C453.361 53.7017 453.668 53.8346 453.919 54.0464C455.829 55.6364 457.838 63.4564 455.838 68.5664C457.248 69.6861 458.77 70.6579 460.378 71.4664C460.496 71.5274 460.586 71.6328 460.626 71.7594C460.666 71.886 460.655 72.0234 460.594 72.1414C460.533 72.2594 460.427 72.3484 460.301 72.3887C460.174 72.429 460.037 72.4174 459.919 72.3564C458.327 71.5503 456.817 70.5926 455.409 69.4964C454.199 71.7564 451.608 74.0264 446.068 72.9264C445.035 72.7336 444.027 72.418 443.068 71.9864C439.788 72.5164 435.879 69.6964 435.699 69.5664C434.256 68.7719 433.006 67.6691 432.039 66.3364L431.969 66.4964C431.369 67.9145 430.449 69.1749 429.281 70.1792C428.114 71.1835 426.731 71.9046 425.239 72.2864C422.964 72.8814 420.549 72.6031 418.469 71.5064C417.945 71.9288 417.383 72.3004 416.789 72.6164C415.307 73.3715 413.661 73.7493 411.999 73.7164ZM444.999 62.5564C443.539 62.5564 441.319 64.6264 440.949 66.8964C440.679 68.5764 441.479 69.8964 443.249 70.8964C443.444 70.8497 443.634 70.7861 443.818 70.7064C445.218 70.0664 446.049 68.4164 446.289 65.8064C446.399 64.6764 446.389 62.7464 445.179 62.5964L444.999 62.5564ZM419.559 56.0864C419.476 56.0765 419.392 56.0765 419.309 56.0864C417.889 56.2664 416.609 58.1364 415.599 61.4764C414.539 65.0064 415.229 67.7764 417.659 69.7064C417.882 69.8843 418.115 70.048 418.358 70.1964C422.138 66.8064 423.539 61.0064 423.809 59.7164C423.826 59.668 423.826 59.6149 423.809 59.5664C423.419 58.9864 421.559 56.0864 419.559 56.0864ZM404.709 28.0864C403.569 28.0864 402.468 28.8564 401.398 30.3964C397.088 36.6464 394.318 49.7964 397.398 60.1664C398.396 64.1769 400.762 67.7135 404.088 70.1664C406.578 68.5264 408.629 65.4364 410.199 60.9364C415.079 46.9364 411.109 31.0464 406.029 28.4664C405.633 28.2356 405.186 28.1052 404.729 28.0864H404.709ZM452.838 54.5864C452.713 54.5902 452.591 54.6209 452.479 54.6764C451.589 55.0764 450.609 56.7264 450.549 58.9864C450.549 60.6264 450.979 64.1764 455.009 67.7964C456.649 63.0664 454.739 55.9764 453.259 54.7964C453.158 54.677 453.014 54.6016 452.858 54.5864H452.838ZM432.999 32.2164C432.589 32.2164 431.549 33.2164 430.509 36.8364C428.619 43.4964 427.699 56.5164 431.829 64.0564C435.168 55.4724 436.202 46.164 434.829 37.0564C434.079 32.4364 433.089 32.2464 432.979 32.2364L432.999 32.2164Z" fill="white"/>
<path d="M407.79 287.536C410.75 287.536 413.149 285.137 413.149 282.176C413.149 279.216 410.75 276.816 407.79 276.816C404.829 276.816 402.43 279.216 402.43 282.176C402.43 285.137 404.829 287.536 407.79 287.536Z" fill="#522C2C"/>
<path d="M481.318 219.877C486.521 219.877 490.739 215.66 490.739 210.457C490.739 205.255 486.521 201.037 481.318 201.037C476.116 201.037 471.898 205.255 471.898 210.457C471.898 215.66 476.116 219.877 481.318 219.877Z" fill="#522C2C"/>
<path d="M97.5864 215.116C102.016 215.116 105.606 211.525 105.606 207.096C105.606 202.667 102.016 199.076 97.5864 199.076C93.1571 199.076 89.5664 202.667 89.5664 207.096C89.5664 211.525 93.1571 215.116 97.5864 215.116Z" fill="#522C2C"/>
<path d="M42.9888 52.0459C48.6607 52.0459 53.2588 47.4478 53.2588 41.7759C53.2588 36.1039 48.6607 31.5059 42.9888 31.5059C37.3168 31.5059 32.7188 36.1039 32.7188 41.7759C32.7188 47.4478 37.3168 52.0459 42.9888 52.0459Z" fill="#522C2C"/>
<path d="M82.6382 298.996H9.60791C6.55378 298.996 4.07812 301.472 4.07812 304.526C4.07812 307.58 6.55378 310.056 9.60791 310.056H82.6382C85.6923 310.056 88.168 307.58 88.168 304.526C88.168 301.472 85.6923 298.996 82.6382 298.996Z" fill="#522C2C"/>
<path d="M37.0977 455.596C37.0977 455.596 41.7278 345.986 157.948 365.036C280.558 385.126 277.778 463.476 277.778 463.476L37.0977 455.596Z" fill="#FF2B49"/>
<g opacity="0.2">
<path d="M220.457 126.736L217.527 137.976L222.117 138.866L220.457 126.736Z" fill="#522C2C"/>
</g>
<g opacity="0.2">
<path d="M280.617 123.246L281.517 135.486L285.357 136.486L280.617 123.246Z" fill="#522C2C"/>
</g>
<path d="M227.23 107.027C227.098 107.027 226.971 106.974 226.877 106.881C226.783 106.787 226.73 106.66 226.73 106.527C226.73 106.394 226.783 106.267 226.877 106.174C226.971 106.08 227.098 106.027 227.23 106.027L270.121 104.287C270.252 104.287 270.378 104.336 270.475 104.425C270.571 104.514 270.631 104.636 270.641 104.767C270.643 104.833 270.633 104.898 270.61 104.96C270.588 105.022 270.553 105.078 270.508 105.127C270.464 105.175 270.41 105.214 270.351 105.242C270.291 105.269 270.226 105.285 270.161 105.287L227.271 107.027H227.23Z" fill="#522C2C"/>
<path d="M235.787 114.266C235.659 114.266 235.537 114.218 235.444 114.13C235.351 114.043 235.295 113.923 235.287 113.796C235.281 113.731 235.289 113.665 235.309 113.603C235.33 113.541 235.362 113.483 235.405 113.434C235.448 113.385 235.5 113.344 235.559 113.316C235.618 113.287 235.682 113.27 235.747 113.266L259.187 111.526C259.253 111.519 259.32 111.526 259.383 111.545C259.446 111.565 259.505 111.597 259.555 111.64C259.606 111.683 259.647 111.736 259.677 111.796C259.706 111.855 259.723 111.92 259.727 111.986C259.735 112.117 259.692 112.246 259.606 112.345C259.52 112.445 259.398 112.506 259.267 112.516L235.817 114.266H235.787Z" fill="#522C2C"/>
<path d="M248.508 102.657C249.85 102.657 250.938 101.569 250.938 100.227C250.938 98.8848 249.85 97.7969 248.508 97.7969C247.166 97.7969 246.078 98.8848 246.078 100.227C246.078 101.569 247.166 102.657 248.508 102.657Z" fill="#FF2B49"/>
<path d="M190.208 104.667C190.208 104.667 197.869 96.9468 203.489 96.3968C209.109 95.8468 214.718 133.637 209.358 138.867C203.998 144.097 189.188 152.017 189.188 152.017C189.188 152.017 162.628 163.087 159.558 136.477C156.488 109.867 163.649 51.6668 169.009 35.0768C169.009 35.0768 187.898 34.8168 191.478 30.4768C191.478 30.4768 193.258 18.2168 196.068 18.2168C198.878 18.2168 200.068 24.6068 198.748 35.0768C197.428 45.5468 190.199 104.657 190.199 104.657" fill="#FDAFA2"/>
<g opacity="0.2">
<path d="M191.297 95.7969L188.887 104.737L190.207 104.667L191.297 95.7969Z" fill="#522C2C"/>
</g>
<path d="M264.29 23.2458C264.224 23.2433 264.159 23.2263 264.1 23.1958C264.039 23.1717 263.983 23.1356 263.936 23.0896C263.889 23.0436 263.853 22.9886 263.827 22.928C263.802 22.8674 263.789 22.8023 263.79 22.7366C263.79 22.671 263.804 22.6061 263.83 22.5458C265.6 18.4658 265.24 16.7658 264.63 16.0558C263.78 15.0558 261.93 15.5158 261.91 15.5258C261.777 15.559 261.637 15.5381 261.52 15.4677C261.403 15.3974 261.318 15.2834 261.285 15.1508C261.252 15.0182 261.273 14.8778 261.343 14.7606C261.413 14.6434 261.527 14.559 261.66 14.5258C261.75 14.5258 264.12 13.8958 265.39 15.3758C266.66 16.8558 266.33 19.2558 264.75 22.9058C264.717 23.0027 264.655 23.0873 264.573 23.1481C264.491 23.2089 264.392 23.243 264.29 23.2458Z" fill="#522C2C"/>
<path d="M240.479 36.0071C240.414 36.0156 240.347 36.0111 240.283 35.9939C240.219 35.9767 240.159 35.947 240.107 35.9066C240.054 35.8662 240.01 35.8159 239.977 35.7585C239.944 35.7011 239.923 35.6377 239.914 35.5721C239.906 35.5064 239.91 35.4397 239.928 35.3758C239.945 35.3119 239.975 35.252 240.015 35.1995C240.055 35.147 240.106 35.103 240.163 35.07C240.22 35.037 240.284 35.0156 240.349 35.0071C246.459 33.3071 245.97 30.4371 245.95 30.3171C245.922 30.1845 245.948 30.0462 246.022 29.9328C246.096 29.8193 246.212 29.7399 246.345 29.7121C246.477 29.6842 246.615 29.7102 246.729 29.7843C246.842 29.8584 246.922 29.9745 246.95 30.1071C246.95 30.2571 247.729 33.9971 240.629 35.9671C240.584 35.9933 240.532 36.0071 240.479 36.0071Z" fill="#522C2C"/>
<path d="M251.827 19.327C251.747 19.3292 251.667 19.3111 251.595 19.2744C251.524 19.2377 251.462 19.1835 251.417 19.117C250.417 17.747 249.507 17.047 248.697 17.117C247.607 17.207 246.917 18.597 246.907 18.617C246.845 18.7269 246.743 18.809 246.622 18.8468C246.501 18.8847 246.371 18.8754 246.257 18.8209C246.143 18.7664 246.054 18.6707 246.007 18.5531C245.961 18.4355 245.961 18.3046 246.007 18.187C246.251 17.665 246.612 17.2069 247.064 16.8493C247.515 16.4916 248.043 16.2443 248.607 16.127C249.817 16.017 251.027 16.837 252.227 18.537C252.265 18.5907 252.293 18.6515 252.308 18.7159C252.322 18.7802 252.324 18.8469 252.313 18.912C252.302 18.9771 252.278 19.0393 252.243 19.0951C252.207 19.1508 252.161 19.1991 252.107 19.237C252.026 19.2961 251.928 19.3277 251.827 19.327Z" fill="#522C2C"/>
<path d="M247.147 24.7857C247.147 24.7857 248.057 19.7857 251.987 23.1457C255.917 26.5057 246.087 27.8057 247.147 24.7857Z" fill="#FF2B49"/>
<path d="M232.168 25.5767C232.418 24.1667 232.668 22.8667 232.918 21.6567C233.658 21.1767 234.748 21.1867 236.318 22.5167C239.348 25.0867 234.208 26.4767 232.168 25.5767Z" fill="#FF2B49"/>
<path d="M228.438 14.4769L236.498 14.1269C238.258 14.0469 239.108 15.207 239.018 16.967C239.027 17.386 238.933 17.801 238.743 18.1745C238.552 18.5481 238.272 18.8685 237.928 19.107C235.378 20.297 228.438 20.2869 228.438 20.2869V14.4769Z" fill="#522C2C"/>
<path d="M228.438 23.6063L201.498 24.7063L200.828 12.3563L228.438 11.4062V23.6063Z" fill="#DE011F"/>
<path d="M130.023 43.8646C132.482 43.7163 133.962 35.0782 133.328 24.5707C132.695 14.0632 130.188 5.66541 127.729 5.81364C125.27 5.96187 123.791 14.6 124.424 25.1075C125.058 35.615 127.564 44.0128 130.023 43.8646Z" fill="#522C2C"/>
<path d="M128.879 6.5957L164.339 6.99571C164.339 6.99571 167.109 31.7957 165.949 36.1057L131.129 43.4757C131.129 43.4757 138.119 30.6557 128.879 6.5957Z" fill="#FF2B49"/>
<path d="M164.48 8.29688H199.311C199.311 8.29688 202.441 10.4869 201.311 30.2269C201.311 30.2269 179.311 34.5669 165.991 36.1069C165.951 36.1069 166.92 20.8669 164.48 8.29688Z" fill="#FF2B49"/>
<path d="M174.72 4.82668C174.62 5.09428 174.425 5.3157 174.172 5.44855C173.92 5.5814 173.627 5.61634 173.35 5.54668C172.16 5.25668 170.87 3.54667 170.04 9.67667C169.21 15.8067 168.89 19.7667 170.29 20.0167C171.02 20.1865 171.78 20.1865 172.51 20.0167C172.753 19.9502 173.011 19.9714 173.24 20.0767C173.43 20.1684 173.591 20.3097 173.708 20.4858C173.824 20.6618 173.89 20.866 173.899 21.0767C173.989 22.4067 174.39 23.6467 175.66 23.3667C178.21 22.7967 177.83 17.2267 177.83 17.2267C177.83 17.2267 177.7 26.3067 180.06 24.7367C180.835 24.4163 181.456 23.8066 181.79 23.0367C181.886 22.8453 182.035 22.6845 182.217 22.5722C182.4 22.4599 182.61 22.4005 182.825 22.4005C183.039 22.4005 183.249 22.4599 183.432 22.5722C183.615 22.6845 183.763 22.8453 183.859 23.0367C184.499 24.2367 185.32 25.0367 186.25 24.2267C188.46 22.3367 189.36 17.8467 188.83 15.3367C188.821 15.2703 188.821 15.203 188.83 15.1367V5.83667C188.844 5.31661 188.701 4.80434 188.419 4.36711C188.137 3.92989 187.729 3.58813 187.25 3.38668C187.085 3.31718 186.909 3.28149 186.73 3.28176C186.551 3.28202 186.375 3.31823 186.21 3.38822C186.046 3.4582 185.898 3.56055 185.774 3.68914C185.65 3.81772 185.554 3.96993 185.49 4.13668C185.401 4.28271 185.281 4.40684 185.138 4.49974C184.995 4.59264 184.832 4.6519 184.663 4.67307C184.494 4.69424 184.322 4.67676 184.16 4.62197C183.999 4.56717 183.851 4.47647 183.73 4.35668C182.73 3.35668 181.2 2.60667 180.08 4.59667C179.977 4.77087 179.831 4.91531 179.656 5.01566C179.48 5.11601 179.282 5.1688 179.08 5.1688C178.878 5.1688 178.679 5.11601 178.503 5.01566C178.328 4.91531 178.182 4.77087 178.08 4.59667C177.13 3.00667 175.79 1.83668 174.72 4.82668Z" fill="#FDAFA2"/>
<path d="M173.238 20.576H173.118C172.989 20.5451 172.878 20.4647 172.809 20.3523C172.74 20.2399 172.717 20.1046 172.747 19.976C173.997 14.566 173.248 6.736 173.238 6.656C173.224 6.52339 173.264 6.39095 173.349 6.2878C173.433 6.18466 173.555 6.11927 173.687 6.10601C173.82 6.09275 173.952 6.1327 174.056 6.2171C174.159 6.30149 174.224 6.4234 174.238 6.55601C174.238 6.88601 175.008 14.626 173.718 20.196C173.693 20.3044 173.632 20.4011 173.544 20.4702C173.457 20.5393 173.349 20.5766 173.238 20.576Z" fill="#522C2C"/>
<path d="M177.73 19.7558H177.62C177.556 19.7417 177.495 19.7149 177.441 19.6768C177.387 19.6388 177.342 19.5903 177.307 19.5343C177.273 19.4783 177.25 19.4159 177.24 19.3509C177.23 19.2859 177.233 19.2195 177.25 19.1558C178.5 13.7458 177.81 6.73578 177.81 6.66578C177.803 6.60012 177.81 6.53381 177.829 6.47063C177.848 6.40746 177.879 6.34866 177.921 6.29758C177.963 6.24651 178.014 6.20416 178.072 6.17297C178.131 6.14177 178.194 6.12234 178.26 6.11578C178.326 6.10921 178.392 6.11564 178.455 6.1347C178.518 6.15376 178.577 6.18507 178.628 6.22686C178.679 6.26865 178.721 6.32009 178.753 6.37824C178.784 6.43639 178.803 6.50011 178.81 6.56577C179.215 10.8453 179.019 15.1603 178.23 19.3858C178.2 19.4949 178.135 19.5908 178.044 19.658C177.953 19.7252 177.843 19.7596 177.73 19.7558Z" fill="#522C2C"/>
<path d="M183.147 21.1571H183.037C182.973 21.1429 182.911 21.1161 182.857 21.0782C182.803 21.0403 182.757 20.992 182.722 20.9363C182.687 20.8805 182.663 20.8182 182.652 20.7532C182.641 20.6881 182.642 20.6214 182.657 20.5571C183.907 15.1371 183.227 6.73706 183.217 6.64706C183.207 6.51445 183.249 6.38307 183.335 6.2818C183.422 6.18053 183.545 6.11768 183.677 6.10707C183.81 6.09646 183.941 6.13896 184.042 6.22523C184.144 6.3115 184.207 6.43445 184.217 6.56706C184.217 6.91706 184.917 15.2071 183.637 20.7771C183.609 20.8854 183.545 20.9814 183.456 21.0501C183.368 21.1188 183.259 21.1564 183.147 21.1571Z" fill="#522C2C"/>
<path d="M239.999 43.6769C239.999 43.6769 247.729 41.8869 247.999 38.6769C248.269 35.4669 247.999 46.1669 247.999 46.1669C247.999 46.1669 241.919 51.6169 239.879 49.3169L239.999 43.6769Z" fill="#FD8471"/>
<path d="M225.56 4.47588L260.419 13.9159C260.419 13.9159 263.01 1.01588 251.18 0.0858795C239.35 -0.844121 239.06 6.08588 239.06 6.08588L225.23 2.38588C225.23 2.38588 223.05 2.57588 225.56 4.47588Z" fill="#522C2C"/>
<path d="M242.478 18.5469L243.938 27.8069L237.828 28.4469L242.478 18.5469Z" fill="#FF2B49"/>
<path d="M247.558 190.566V228.866H237.488C237.488 228.866 247.558 219.336 247.558 190.566Z" fill="#0043AE"/>
<path d="M311.489 382.877V392.237C311.489 392.237 289.699 399.237 257.949 393.087V385.767C257.949 385.767 295.399 391.727 311.489 382.877Z" fill="white"/>
<path d="M311.49 390.107L309.49 436.697C309.49 436.697 293.32 443.587 261.57 437.457L257.91 393.007C257.91 393.007 295.4 398.957 311.49 390.107Z" fill="#0160FA"/>
<path d="M205.48 281.197L206.06 290.547C206.06 290.547 184.29 298.897 151.54 294.807L151.09 287.507C151.09 287.507 189.63 291.057 205.48 281.197Z" fill="white"/>
<path d="M205.929 288.416L206.849 343.886C206.849 343.886 190.789 342.946 158.049 338.886L151.559 294.726C151.559 294.726 190.079 298.276 205.929 288.416Z" fill="#0160FA"/>
<path d="M312.889 448.316V427.636C312.889 427.636 307.529 419.466 300.629 431.636C293.729 443.806 271.269 434.436 270.249 431.506C270.249 431.506 262.459 418.506 251.829 424.986C241.199 431.466 214.209 441.586 212.419 452.906C210.629 464.226 239.829 461.846 239.829 461.846H310.289C311.976 457.533 312.857 452.947 312.889 448.316Z" fill="#522C2C"/>
<path d="M247.56 427.477L259.3 441.597C259.3 441.597 251.22 443.817 248.41 441.597C245.6 439.377 238.41 431.727 238.41 431.727C238.41 431.727 245.7 427.477 247.56 427.477Z" fill="white"/>
<path d="M235.059 434.977L245.409 447.707C245.409 447.707 237.319 449.927 234.519 447.707C231.515 445.036 228.655 442.209 225.949 439.237C225.949 439.237 233.189 435.067 235.059 434.977Z" fill="white"/>
<path d="M212.078 453.976C212.078 453.976 209.608 466.566 222.078 465.806C234.548 465.046 309.908 465.806 309.908 465.806C309.908 465.806 313.148 465.926 313.148 459.906V449.296C313.148 449.296 307.148 447.296 298.338 456.446C289.528 465.596 270.168 454.996 270.168 454.996C270.168 454.996 259.168 450.826 250.678 456.526C242.188 462.226 215.958 458.826 214.588 455.426C213.218 452.026 212.078 453.976 212.078 453.976Z" fill="white"/>
<path d="M212.999 356.477L216.449 336.077C216.449 336.077 212.519 327.127 203.699 337.937C194.879 348.747 174.289 335.807 173.769 332.747C173.769 332.747 168.259 318.627 156.689 323.247C145.119 327.867 116.829 333.347 113.179 344.247C109.529 355.147 138.709 357.627 138.709 357.627L208.189 369.377C210.568 365.407 212.198 361.035 212.999 356.477Z" fill="#522C2C"/>
<path d="M152.077 324.927L161.297 340.817C161.297 340.817 152.957 341.647 150.557 338.997C148.157 336.347 142.387 327.607 142.387 327.607C142.387 327.607 150.217 324.697 152.077 324.927Z" fill="white"/>
<path d="M138.477 330.286L146.557 344.566C146.557 344.566 138.216 345.406 135.816 342.756C133.313 339.618 130.976 336.351 128.816 332.966C128.816 332.966 136.617 330.056 138.477 330.286Z" fill="white"/>
<path d="M112.658 345.187C112.658 345.187 108.117 357.187 120.587 358.527C133.057 359.867 207.187 373.177 207.187 373.177C207.187 373.177 210.357 373.837 211.357 367.897L213.127 357.437C213.127 357.437 207.597 354.437 197.337 362.017C187.077 369.597 169.798 355.887 169.798 355.887C169.798 355.887 159.668 349.947 150.328 354.147C140.988 358.347 115.708 350.627 114.928 347.037C114.148 343.447 112.658 345.187 112.658 345.187Z" fill="white"/>
<path d="M199.559 205.377L200.159 215.117L212.958 217.357C212.958 217.357 205.139 214.697 199.559 205.377Z" fill="#FD8471"/>
<path d="M176.557 156.326C174.475 156.342 172.412 155.94 170.487 155.146C161.727 151.456 159.707 140.556 159.617 140.086L160.617 139.916C160.617 140.026 162.617 150.756 170.897 154.226C177.167 156.856 185.397 154.746 195.357 147.946L195.917 148.766C188.557 153.796 182.107 156.326 176.557 156.326Z" fill="#FD8471"/>
</svg>
