<svg width="673" height="586" viewBox="0 0 673 586" fill="none" xmlns="http://www.w3.org/2000/svg">
<g clip-path="url(#clip0_444_32290)">
<path d="M416.841 0L669.134 229.022L647.034 434.071L341.642 586L60.4657 512.331L0 184.938L118.16 53.339L416.841 0Z" fill="#FEEBDC"/>
<path d="M293.575 512.332H551.266V425.838H293.575C269.652 425.838 250.25 445.221 250.25 469.121C250.25 492.949 269.652 512.332 293.575 512.332Z" fill="#FFB0A1"/>
<path d="M608.449 54.0684V125.333L579.857 176.923V483.768C579.857 499.507 567.02 512.332 551.265 512.332C535.438 512.332 522.674 499.507 522.674 483.768V425.838H312.977V78.479C312.977 64.9985 323.917 54.1412 337.338 54.1412H608.449V54.0684Z" fill="white"/>
<path d="M374.172 138.159C370.598 138.159 367.388 136.628 364.981 133.714C361.407 129.414 359.949 122.565 361.189 116.225C361.261 115.861 361.626 115.57 362.064 115.642C362.428 115.715 362.72 116.08 362.647 116.517C361.48 122.419 362.866 128.831 366.148 132.766C368.336 135.39 371.181 136.701 374.39 136.628C377.891 136.555 384.82 135.244 389.634 126.645C387.227 123.148 385.404 118.849 384.529 114.914C383.07 108.501 385.769 102.453 388.978 100.049C390.583 98.883 392.26 98.6644 393.573 99.393C395.105 100.34 396.782 102.964 395.907 110.323C395.032 117.391 393.354 122.638 391.312 126.573C393.646 129.706 396.418 131.892 399.189 132.402C402.326 132.985 405.097 131.455 407.577 127.811C407.723 127.52 408.088 127.447 408.38 127.52C408.671 127.593 408.89 127.884 408.89 128.176C409.182 133.714 412.756 135.535 414.433 135.535C415.819 135.535 419.831 133.714 420.852 129.342C420.925 128.977 421.217 128.759 421.581 128.759C421.946 128.759 422.238 129.05 422.311 129.342C422.311 129.342 422.894 132.766 424.864 134.224C425.666 134.807 426.614 135.025 427.708 134.807C429.021 134.588 430.48 133.786 431.939 132.693C431.063 131.528 430.553 130.143 430.261 128.613C429.532 123.877 431.866 118.849 433.835 117.829C434.564 117.464 435.294 117.464 435.804 117.974L435.877 118.047C438.795 121.545 438.43 125.115 437.555 127.447C436.825 129.487 435.512 131.382 433.981 132.839C435.148 133.932 436.898 134.879 439.378 135.39C445.505 136.555 450.829 133.641 454.258 130.945C457.467 128.467 460.311 125.115 462.5 121.545C460.749 116.736 459.655 111.635 459.874 107.773C460.166 102.599 462.645 99.6116 464.907 99.7574C465.855 99.8302 468.918 100.632 468.408 108.866C468.189 112.946 466.584 117.464 464.031 121.763C466.219 127.593 469.429 132.766 472.273 134.151C477.087 136.483 482.776 134.442 485.548 129.414C485.767 129.05 486.204 128.904 486.569 129.123C486.934 129.342 487.08 129.779 486.861 130.143C483.725 135.9 477.16 138.159 471.617 135.462C468.699 134.005 465.417 129.05 463.083 123.294C460.895 126.718 458.123 129.779 455.06 132.183C449.808 136.264 444.265 137.867 439.014 136.92C436.388 136.41 434.273 135.39 432.814 133.932C431.136 135.244 429.386 136.118 427.927 136.41C426.468 136.701 425.155 136.41 423.988 135.535C422.748 134.588 421.946 133.204 421.435 131.965C419.685 135.39 416.257 137.066 414.36 137.066C412.829 137.066 408.671 135.754 407.65 130.216C404.441 134.005 401.159 134.369 398.898 133.932C395.761 133.349 392.917 131.09 390.51 128.03C385.331 136.701 378.037 138.086 374.317 138.159C374.317 138.159 374.244 138.159 374.172 138.159ZM434.783 119.14C434.71 119.14 434.637 119.14 434.564 119.213C433.178 119.942 431.063 124.314 431.793 128.54C431.939 129.56 432.303 130.799 433.106 131.819C434.418 130.507 435.585 128.831 436.242 127.083C436.898 125.042 437.263 122.055 434.783 119.14C434.783 119.14 434.856 119.14 434.783 119.14ZM391.968 100.486C391.166 100.486 390.364 100.923 389.926 101.288C387.009 103.401 384.675 108.793 385.987 114.622C386.863 118.557 388.467 122.273 390.437 125.261C392.26 121.545 393.792 116.663 394.521 110.177C395.397 102.964 393.646 101.142 392.917 100.705C392.625 100.559 392.26 100.486 391.968 100.486ZM464.834 101.215C463.594 101.215 461.624 103.546 461.405 107.919C461.187 111.27 462.062 115.715 463.521 119.942C465.563 116.225 466.876 112.291 467.095 108.793C467.386 103.692 466.146 101.288 464.834 101.215C464.834 101.215 464.907 101.215 464.834 101.215Z" fill="#522C2C"/>
<path d="M428.512 210.952C422.604 210.952 419.686 205.633 418.592 202.937C416.987 205.633 413.195 210.952 408.964 210.952C406.192 210.952 404.296 210.223 403.202 208.766C402.181 207.454 401.816 205.706 402.108 203.301C396.419 208.11 386.791 208.329 380.226 203.447C376.871 201.115 374.027 197.909 371.693 194.265C364.982 203.447 355.938 208.256 348.717 209.641C348.353 209.713 347.915 209.422 347.842 209.058C347.769 208.693 347.988 208.256 348.425 208.183C355.5 206.799 364.326 202.062 370.817 192.881C366.952 186.396 364.691 178.818 364.326 172.624C364.034 168.106 364.764 164.754 366.441 163.151C368.921 160.819 373.224 159.581 376.507 161.621C378.914 163.078 382.342 167.305 378.841 179.328C377.309 184.574 375.121 189.019 372.568 192.808C374.902 196.524 377.747 199.876 381.029 202.135C387.593 207.017 397.95 206.216 402.691 200.459C402.91 200.168 403.275 200.095 403.567 200.241C403.858 200.386 404.004 200.751 403.931 201.042C403.129 204.103 403.275 206.289 404.296 207.6C405.171 208.693 406.63 209.203 408.964 209.203C412.83 209.203 416.914 202.937 418.081 200.532C418.227 200.241 418.519 200.095 418.811 200.168C419.102 200.168 419.394 200.386 419.467 200.751C419.54 201.115 421.728 209.568 428.876 209.276C432.815 209.13 435.295 206.872 437.045 203.738C434.857 198.929 435.076 191.934 437.556 188.655C439.817 185.594 441.349 185.813 442.078 186.177C443.683 186.979 443.756 190.185 442.224 194.63L441.932 195.431C440.984 198.346 439.963 201.261 438.65 203.811C439.744 205.924 441.786 208.256 445.433 208.475C454.696 208.985 462.136 195.796 462.209 195.65C462.355 195.358 462.719 195.213 463.011 195.286C463.303 195.358 463.522 195.65 463.595 195.941C463.595 196.087 464.032 208.329 470.597 209.349C470.961 209.422 471.253 209.786 471.18 210.151C471.107 210.515 470.743 210.806 470.378 210.734C464.47 209.859 462.719 202.135 462.282 198.2C459.729 202.062 453.238 210.296 445.36 209.859C442.151 209.713 439.525 208.11 437.775 205.196C435.805 208.329 433.107 210.515 428.876 210.734C428.803 210.952 428.657 210.952 428.512 210.952ZM441.276 187.635C440.838 187.635 439.963 188.145 438.796 189.748C437.045 192.152 436.389 197.69 437.993 202.281C439.015 200.168 439.817 197.69 440.619 195.213L440.911 194.411C442.443 189.893 441.932 187.926 441.422 187.707C441.422 187.635 441.349 187.635 441.276 187.635ZM372.714 162.204C370.89 162.204 368.921 162.932 367.389 164.317C366.076 165.556 365.42 168.543 365.712 172.551C366.076 178.235 368.192 185.376 371.693 191.569C374.027 187.999 375.996 183.845 377.382 179.036C379.716 170.948 379.132 165.119 375.704 163.005C374.902 162.495 373.808 162.204 372.714 162.204Z" fill="#522C2C"/>
<path d="M493.497 211.171C490.434 211.171 487.881 210.297 485.766 208.475C481.9 205.05 479.858 198.419 480.003 189.311C480.003 188.874 480.295 188.582 480.733 188.582C481.17 188.582 481.462 188.947 481.462 189.311C481.389 198.055 483.213 204.249 486.787 207.382C489.048 209.35 492.111 210.078 495.904 209.568C501.739 208.694 505.969 204.759 508.814 199.804C505.313 194.193 503.854 186.469 504 181.587C504.146 177.142 507.647 173.717 510.71 173.645C511.732 173.645 514.941 174.009 515.233 179.401C515.524 184.648 514.138 192.954 510.492 199.731C512.315 202.427 514.868 204.759 518.369 205.269C525.079 206.216 526.246 200.387 526.246 200.168C526.319 199.804 526.611 199.585 526.976 199.585C527.34 199.585 527.632 199.804 527.705 200.168C528.143 202.354 530.039 208.038 533.102 208.111C536.749 208.257 539.156 207.309 539.813 202.136C539.886 201.771 540.25 201.48 540.615 201.48C540.98 201.553 541.271 201.917 541.271 202.281C540.542 207.528 538.062 209.714 533.029 209.495C529.674 209.35 527.778 205.196 526.903 202.573C525.809 204.686 523.329 207.382 518.15 206.653C514.576 206.071 511.804 203.957 509.689 201.043C506.626 206.071 502.177 210.078 496.123 210.953C495.175 211.098 494.299 211.171 493.497 211.171ZM510.71 175.102C508.303 175.175 505.459 178.017 505.386 181.587C505.313 185.012 506.115 190.623 508.158 195.505C508.522 196.452 509.033 197.399 509.543 198.347C512.826 192.007 513.993 184.356 513.701 179.547C513.555 176.705 512.461 175.102 510.71 175.102Z" fill="#522C2C"/>
<path d="M464.614 281.706C458.779 281.488 454.257 278.209 451.777 272.452C449.88 273.181 447.328 273.618 443.827 273.399C440.836 273.254 438.356 271.869 436.387 269.829C435.439 271.359 434.199 272.598 432.521 273.327C429.531 274.711 426.686 274.784 424.06 273.691C420.341 272.015 418.079 268.226 416.912 265.821C416.11 268.08 414.141 271.068 409.546 271.068C407.649 271.068 406.118 269.975 405.096 268.007C403.711 269.756 401.887 271.286 399.48 272.161C396.781 273.181 394.375 273.181 392.478 272.234C390.946 271.505 390.071 270.339 389.561 269.465C387.081 272.379 384.09 273.618 380.808 273.181C378.109 272.817 375.411 271.286 372.931 268.882C372.785 269.1 372.639 269.246 372.493 269.465C368.117 274.565 362.136 277.844 356.811 277.844C356.447 277.844 356.082 277.553 356.082 277.116C356.082 276.678 356.374 276.387 356.811 276.387C361.698 276.314 367.242 273.327 371.399 268.517C371.545 268.299 371.764 268.08 371.983 267.862C368.992 264.583 366.293 259.992 364.178 254.527C361.115 246.293 363.741 237.257 367.825 232.958C369.794 230.918 371.983 230.116 373.879 230.699C375.848 231.355 378.401 233.687 379.568 241.338C381.027 251.394 379.058 260.721 373.879 267.716C376.213 269.975 378.693 271.432 381.1 271.724C384.163 272.161 386.935 270.776 389.196 267.643C389.342 267.424 389.634 267.279 389.925 267.351C390.217 267.424 390.436 267.57 390.509 267.862C390.509 267.862 391.165 269.975 393.208 270.995C394.739 271.724 396.709 271.724 399.043 270.849C401.45 269.975 403.273 268.299 404.513 266.477C404.513 266.404 404.44 266.258 404.44 266.186C403.346 262.615 403.492 257.077 405.242 255.911C405.753 255.547 406.409 255.62 406.92 256.057C408.087 257.004 408.525 259.045 408.087 261.595C407.795 263.125 407.212 264.947 406.191 266.623C406.847 268.153 407.868 269.61 409.692 269.61C415.672 269.61 416.183 263.635 416.183 263.344C416.183 262.979 416.475 262.688 416.839 262.688C417.204 262.615 417.496 262.834 417.642 263.198C417.642 263.271 419.903 270.193 424.863 272.379C427.051 273.327 429.458 273.254 432.084 272.015C433.542 271.359 434.636 270.193 435.512 268.663C430.917 262.907 429.312 253.069 429.531 246.074C429.604 243.159 430.114 238.204 432.448 238.204C435.512 238.204 437.554 246.949 437.919 248.697C439.377 255.255 439.669 263.198 437.262 268.444C438.94 270.339 441.201 271.724 444.045 271.869C447.036 272.015 449.516 271.724 451.339 270.995C451.12 270.412 450.902 269.756 450.756 269.1C449.443 263.927 449.88 258.389 451.704 257.296C451.996 257.077 452.871 256.786 453.819 257.66C456.299 259.992 457.904 264.583 456.299 268.226C455.788 269.392 454.84 270.703 453.163 271.724C454.767 275.585 458.122 279.958 464.687 280.103C465.124 280.103 465.416 280.468 465.416 280.832C465.343 281.415 464.979 281.706 464.614 281.706ZM452.433 258.68C451.485 259.19 450.756 263.781 452.069 268.882C452.214 269.392 452.36 269.902 452.579 270.485C453.673 269.829 454.403 268.955 454.913 267.789C456.226 264.728 454.84 260.793 452.798 258.826C452.725 258.753 452.506 258.68 452.433 258.68ZM432.302 239.735C432.011 239.735 430.989 241.265 430.844 246.22C430.698 250.519 431.354 257.077 433.542 262.615C434.126 264.145 435.001 265.821 436.022 267.279C437.846 262.615 437.7 255.547 436.241 249.135C434.928 242.577 432.959 239.735 432.302 239.735ZM372.566 231.865C371.034 231.865 369.649 233.031 368.846 233.832C364.98 237.84 362.719 246.511 365.491 253.944C367.46 259.117 370.013 263.489 372.785 266.623C376.067 262.032 379.86 253.798 378.036 241.484C377.234 236.091 375.556 232.667 373.368 232.011C373.15 231.938 372.858 231.865 372.566 231.865ZM405.899 257.15C405.315 257.733 404.732 261.231 405.461 264.655C405.972 263.489 406.336 262.396 406.555 261.303C406.92 259.409 406.628 257.806 405.899 257.15Z" fill="#522C2C"/>
<path d="M485.038 283.747C484.965 283.747 484.82 283.747 484.747 283.747C475.411 283.674 472.639 274.493 470.815 268.518C470.524 267.57 470.232 266.623 469.94 265.822C469.794 265.457 470.013 265.02 470.378 264.874C470.743 264.729 471.18 264.947 471.326 265.311C471.618 266.113 471.91 267.06 472.201 268.08C474.025 274.056 476.505 282.217 484.747 282.29C498.532 282.435 506.701 270.777 509.837 259.701C510.786 253.143 508.962 248.479 506.774 247.386C505.899 246.949 505.096 247.167 504.294 247.969C504.002 248.26 503.565 248.26 503.273 247.969C502.981 247.678 502.981 247.24 503.273 246.949C504.513 245.637 505.972 245.346 507.43 246.002C510.202 247.313 512.39 252.487 511.296 259.846V259.919C508.087 271.578 499.48 283.747 485.038 283.747Z" fill="#522C2C"/>
<path d="M637.039 82.705V212.19H579.855V82.705C579.855 66.8927 592.693 54.1409 608.447 54.1409C624.275 54.0681 637.039 66.8927 637.039 82.705Z" fill="#FFB0A1"/>
<path d="M594.301 54.7972H439.526C439.089 54.7972 438.797 54.5057 438.797 54.0685C438.797 53.6313 439.089 53.3398 439.526 53.3398H594.301C594.739 53.3398 595.03 53.6313 595.03 54.0685C595.03 54.5057 594.739 54.7972 594.301 54.7972Z" fill="#522C2C"/>
<path d="M551.266 513.061V511.603C566.656 511.603 579.128 499.143 579.128 483.768V440.922C579.128 440.485 579.42 440.193 579.857 440.193C580.295 440.193 580.587 440.485 580.587 440.922V483.768C580.587 499.945 567.458 513.061 551.266 513.061Z" fill="#522C2C"/>
<path d="M210.281 76.4379C206.852 75.7821 202.476 77.3123 200.944 79.134C199.413 80.8828 197.443 80.6642 195.693 80.0812C193.942 79.4983 193.869 81.32 194.453 82.4859C195.037 83.6517 194.891 84.3804 193.651 84.7448C192.411 85.1091 190.952 85.8378 191.973 87.1494C193.067 88.461 194.234 89.0439 192.994 89.9912C191.754 90.9385 190.441 91.5943 190.441 92.9059C190.441 94.2175 194.307 95.6749 198.61 95.0191C202.914 94.3633 209.77 91.23 212.25 86.4207C214.73 81.5386 213.709 77.0937 210.281 76.4379Z" fill="#522C2C"/>
<path d="M225.088 127.519C225.088 131.527 221.878 134.806 217.794 134.806H209.26C204.884 134.806 201.456 130.871 202.112 126.499L207.874 86.4944C208.239 83.9441 210.719 82.2681 213.272 82.9239L217.429 84.0169L221.659 85.11C223.556 85.62 224.869 87.296 224.869 89.2634L225.015 110.249L225.088 127.519Z" fill="#FDAFA2"/>
<path d="M224.94 110.322C222.606 108.938 216.917 105.44 215.312 103.473C215.823 97.7889 216.917 87.9518 217.355 84.0898L221.585 85.1829C223.482 85.6929 224.794 87.3689 224.794 89.3363L224.94 110.322Z" fill="#FD8471"/>
<path d="M234.35 68.8607C236.975 76.6575 239.164 96.7689 228.004 98.372C216.845 99.9751 208.019 85.4016 207.727 83.3613C207.436 81.321 207.071 77.1676 207.727 73.9614C208.384 70.7552 213.708 61.9383 220.419 60.7724C227.129 59.6065 231.797 65.3631 234.35 68.8607Z" fill="#FDAFA2"/>
<path d="M226.618 86.3492C228.794 86.3492 230.557 85.1421 230.557 83.6531C230.557 82.1641 228.794 80.957 226.618 80.957C224.443 80.957 222.68 82.1641 222.68 83.6531C222.68 85.1421 224.443 86.3492 226.618 86.3492Z" fill="#FF2B49"/>
<path d="M228.221 94.5831C228.148 94.5831 228.075 94.5831 228.002 94.5831C222.969 93.7087 221.438 89.2638 221.365 89.1181C221.073 88.3894 221.511 87.515 222.24 87.2964C222.969 87.0049 223.845 87.4421 224.064 88.1708C224.136 88.3165 225.158 91.1584 228.44 91.7413C229.242 91.887 229.753 92.6157 229.607 93.4172C229.607 94.073 228.95 94.5831 228.221 94.5831Z" fill="#522C2C"/>
<path d="M236.755 80.4459C238.568 80.4459 240.037 78.2601 240.037 75.5638C240.037 72.8674 238.568 70.6816 236.755 70.6816C234.942 70.6816 233.473 72.8674 233.473 75.5638C233.473 78.2601 234.942 80.4459 236.755 80.4459Z" fill="#0043AE"/>
<path d="M234.201 74.9805H232.523V76.1463H234.201V74.9805Z" fill="#0043AE"/>
<path d="M237.338 80.4459C238.869 80.4459 240.11 78.2601 240.11 75.5638C240.11 72.8674 238.869 70.6816 237.338 70.6816C235.807 70.6816 234.566 72.8674 234.566 75.5638C234.566 78.2601 235.807 80.4459 237.338 80.4459Z" fill="#0160FA"/>
<path d="M227.567 82.4866C230.628 82.4866 233.11 79.7788 233.11 76.4386C233.11 73.0984 230.628 70.3906 227.567 70.3906C224.505 70.3906 222.023 73.0984 222.023 76.4386C222.023 79.7788 224.505 82.4866 227.567 82.4866Z" fill="#0043AE"/>
<path d="M228.733 82.4866C231.11 82.4866 233.036 79.7788 233.036 76.4386C233.036 73.0984 231.11 70.3906 228.733 70.3906C226.356 70.3906 224.43 73.0984 224.43 76.4386C224.43 79.7788 226.356 82.4866 228.733 82.4866Z" fill="#0160FA"/>
<path d="M222.531 75.5645H217.863V77.7505H222.531V75.5645Z" fill="#0043AE"/>
<path d="M233.547 76.0742L241.643 86.7857L232.672 87.1501L233.547 76.0742Z" fill="#FF2B49"/>
<path d="M234.35 68.8606L224.358 69.5892C222.461 69.735 220.857 71.1195 220.492 73.014L219.325 79.062C219.033 80.6651 217.647 81.7581 215.97 81.7581C214.073 81.7581 212.542 80.2279 212.542 78.3333V77.3132C212.542 76.2931 211.885 75.3458 210.937 75.0543L207.801 74.0342C208.02 70.0993 211.812 60.4808 220.419 59.2421C229.026 58.0033 233.475 65.5087 234.35 68.8606Z" fill="#FF2B49"/>
<path d="M212.54 77.3132C212.54 75.8559 211.592 73.597 207.872 73.3055C204.225 73.0869 200.214 78.2605 202.621 83.6527C205.028 89.0449 210.644 88.8263 212.176 86.3488C213.78 83.9442 212.54 77.3132 212.54 77.3132Z" fill="#FDAFA2"/>
<path d="M205.392 82.4875C205.246 82.4875 205.027 82.4146 204.881 82.2689C203.86 81.3216 203.422 80.01 203.787 78.6984C204.152 77.241 205.392 76.0751 206.778 75.7837C207.945 75.5651 208.966 75.9294 209.768 76.9495C209.987 77.241 209.987 77.7511 209.695 77.9697C209.403 78.1883 208.893 78.1883 208.674 77.8968C208.236 77.3868 207.726 77.1681 207.142 77.241C206.34 77.3867 205.538 78.1883 205.246 79.1356C205.1 79.7185 205.1 80.52 205.902 81.2487C206.194 81.5402 206.194 81.9774 205.975 82.2689C205.757 82.4146 205.611 82.4875 205.392 82.4875Z" fill="#522C2C"/>
<path d="M451.852 437.862C453.457 441.505 456.156 444.347 440.912 454.986C429.533 462.928 414.143 466.207 401.89 467.373C397.732 467.81 393.94 467.956 390.876 467.956C380.519 468.029 367.755 468.539 359.294 470.288C357.689 470.652 356.231 471.016 354.918 471.454C347.04 474.15 342.445 468.685 340.914 463.22C339.309 457.755 340.403 435.53 340.257 432.761C339.892 427.15 343.029 421.904 347.989 417.823C358.929 408.788 378.768 405.509 388.396 416.803C395.69 425.474 397.587 429.482 405.901 431.377C411.955 432.761 420.416 433.635 427.199 434C429.679 434.146 431.94 434.146 433.764 434.146C440.547 434 450.248 434.218 451.852 437.862Z" fill="white"/>
<path d="M451.853 437.862C453.458 441.505 456.157 444.347 440.913 454.986C429.534 462.928 414.144 466.207 401.891 467.373C403.204 456.079 414.217 440.704 427.127 434C429.607 434.146 431.868 434.146 433.692 434.146C440.548 434 450.249 434.219 451.853 437.862Z" fill="#0160FA"/>
<path d="M372.788 444.639C372.933 451.197 360.169 460.232 359.294 470.361C357.689 470.725 356.231 471.09 354.918 471.527C347.04 474.223 342.445 468.758 340.914 463.293C339.309 457.828 340.403 435.603 340.257 432.834C339.892 427.224 343.029 421.977 347.989 417.896C349.885 420.01 352.365 422.341 355.72 424.455C367.098 431.741 372.642 438.081 372.788 444.639Z" fill="#0160FA"/>
<path d="M445.435 440.048C440.913 444.493 433.109 445.951 426.982 446.388C421.439 446.752 416.552 453.383 415.166 458.047C415.02 458.557 414.51 458.775 413.999 458.63C413.488 458.484 413.27 457.974 413.415 457.464C414.874 452.509 420.126 445.003 426.836 444.493C433.473 443.983 442.08 442.307 445.654 436.769C445.946 436.332 446.456 436.259 446.894 436.478C447.332 436.769 447.405 437.279 447.186 437.717C446.748 438.737 446.165 439.392 445.435 440.048Z" fill="#522C2C"/>
<path d="M361.045 458.629C360.899 458.775 360.754 458.848 360.608 458.848C353.314 460.305 344.853 456.443 342.081 454.476C341.644 454.185 341.571 453.602 341.863 453.237C342.154 452.8 342.738 452.727 343.102 453.019C345.291 454.622 353.46 458.484 360.243 457.099C360.754 457.026 361.191 457.318 361.337 457.828C361.337 458.119 361.264 458.411 361.045 458.629Z" fill="#522C2C"/>
<path d="M393.941 436.987C393.649 437.206 393.285 437.279 392.993 437.06C392.701 436.842 392.628 436.331 392.92 436.04C394.671 433.927 395.327 431.012 395.108 429.336C395.035 428.972 395.327 428.607 395.765 428.535C396.129 428.462 396.567 428.753 396.567 429.19C396.786 431.085 395.983 434.437 393.941 436.987C393.941 436.987 393.941 436.914 393.941 436.987Z" fill="#522C2C"/>
<path d="M399.849 439.465C399.558 439.756 399.12 439.756 398.828 439.465C398.536 439.173 398.536 438.736 398.828 438.445C401.089 436.186 401.089 431.887 401.089 431.814C401.089 431.376 401.381 431.085 401.819 431.085C402.256 431.085 402.548 431.376 402.548 431.814C402.548 431.959 402.548 436.769 399.849 439.465Z" fill="#522C2C"/>
<path d="M406.339 441.287C406.12 441.506 405.683 441.578 405.391 441.36C405.099 441.141 404.953 440.704 405.245 440.34C406.923 438.008 407.214 432.98 407.214 432.907C407.214 432.47 407.579 432.179 408.017 432.251C408.454 432.251 408.746 432.616 408.673 433.053C408.673 433.272 408.308 438.591 406.412 441.214C406.412 441.214 406.412 441.214 406.339 441.287Z" fill="#522C2C"/>
<path d="M452.729 443.837C430.41 460.742 412.322 462.491 405.393 463.22C398.391 463.948 372.133 464.969 363.818 465.406C355.43 465.843 344.416 469.413 344.416 469.413L340.988 482.675C352.658 486.683 365.131 483.987 376.801 479.833C388.471 475.68 407.727 472.037 416.771 469.195C425.742 466.426 449.812 459.649 452.729 443.837Z" fill="#522C2C"/>
<path d="M398.167 424.38C356.447 448.572 341.494 446.459 329.022 446.459C333.69 438.298 321.509 422.996 324.062 416.219C326.542 409.443 322.968 406.236 319.102 402.666C315.164 399.095 322.676 378.838 312.319 372.79C310.277 371.552 308.599 368.855 306.849 364.411C303.275 355.448 299.409 339.563 291.313 314.934C287.52 303.421 287.593 293.511 290.073 285.568C295.543 268.153 312.611 260.137 326.177 264.582C335.586 267.643 340.984 272.088 344.558 277.771C348.497 284.038 350.32 291.835 352.946 301.162C352.946 301.162 353.31 302.4 354.04 304.514C356.666 313.039 363.668 335.628 366.512 347.068C370.086 361.277 378.985 365.941 380.079 378.401C381.173 390.861 386.133 392.975 389.707 398.367C393.208 403.759 391.384 414.033 398.167 424.38Z" fill="#FF2B49"/>
<path d="M151.566 229.023C152.077 231.864 162.288 235.435 196.205 232.374C230.121 229.314 228.881 224.286 225.015 217.218C221.149 210.077 174.542 211.753 165.425 214.595C156.307 217.437 151.785 220.497 151.566 229.023Z" fill="#0043AE"/>
<path d="M353.967 304.587L327.636 309.542C327.636 309.542 322.531 345.465 306.849 364.411C303.275 355.448 299.409 339.563 291.313 314.934C287.52 303.421 287.593 293.511 290.073 285.568L344.631 277.771C348.569 284.038 350.393 291.835 353.019 301.162C352.946 301.235 353.31 302.474 353.967 304.587Z" fill="#DE011F"/>
<path d="M244.927 222.174C249.887 241.046 308.019 259.19 321.512 262.761C335.079 266.331 342.519 284.111 330.411 304.077C318.303 324.042 297.297 311.582 273.738 305.825C250.179 300.069 173.959 277.699 180.742 212.919C186.139 179.255 236.394 180.858 244.927 222.174Z" fill="#FF2B49"/>
<path d="M463.229 281.488L162.068 331.62C160.244 331.912 158.494 330.673 158.202 328.851L151.054 286.078C150.763 284.257 152.002 282.508 153.826 282.216L454.987 232.084C456.811 231.792 458.561 233.031 458.853 234.852L466.001 277.626C466.293 279.447 465.053 281.196 463.229 281.488Z" fill="#522C2C"/>
<path d="M149.304 333.733L130.34 336.866C116.701 339.125 103.79 329.944 101.529 316.318C99.2683 302.692 108.459 289.794 122.098 287.535L141.062 284.402C142.885 284.11 144.636 285.349 144.928 287.171L152.076 329.944C152.294 331.693 151.127 333.442 149.304 333.733Z" fill="#0160FA"/>
<path d="M157.77 276.975L134.531 280.845L144.268 339.208L167.507 335.339L157.77 276.975Z" fill="white"/>
<path d="M507.576 248.842L495.249 258.096L464.542 280.977C456.3 274.637 449.371 248.915 456.738 232.229L492.405 243.887L507.576 248.842Z" fill="#FEEBDC"/>
<path d="M507.576 248.844L495.25 258.098C493.207 252.997 492.551 246.876 492.332 243.889L507.576 248.844Z" fill="#522C2C"/>
<path d="M109.334 321.128C109.334 321.128 109.334 321.201 109.334 321.128C108.751 329.872 101.238 342.187 60.8304 353.408C60.8304 353.408 66.5196 341.822 73.8863 338.47C73.1569 338.689 42.9605 347.652 21.1521 342.697C21.1521 342.697 37.4902 330.819 57.694 326.301C56.3812 326.447 21.4438 331.184 0 325.136C0 325.136 21.8814 314.278 46.8263 311.364C46.8263 311.364 29.2482 309.178 21.3709 303.057C21.3709 303.057 89.2762 283.965 106.052 308.012C106.927 309.323 107.73 310.781 108.313 312.384C108.605 314.497 109.553 317.557 109.334 321.128Z" fill="#FF2B49"/>
<path d="M109.333 321.128C109.333 321.128 109.333 321.201 109.333 321.128C101.091 332.277 83.6586 337.742 83.6586 337.742C84.6068 333.734 90.0772 326.374 90.0772 326.374C79.3553 331.839 59.1514 332.277 59.1514 332.277C61.4854 329.216 79.5011 320.472 80.0117 320.181C67.6852 323.241 44.6367 320.181 44.6367 320.181C52.9517 314.205 75.5625 312.384 75.5625 312.384C67.4663 310.999 61.0478 306.409 61.0478 306.409C84.3151 301.454 106.051 308.085 106.051 308.085C106.926 309.396 107.728 310.854 108.312 312.457C108.603 314.497 109.552 317.557 109.333 321.128Z" fill="white"/>
<path d="M174.614 198.419C166.153 218.968 161.339 237.841 170.092 259.919C178.844 281.998 222.607 299.341 259.66 310.271C296.712 321.201 306.705 307.866 311.227 300.798C315.749 293.73 320.709 278.938 308.382 272.088C296.056 265.239 250.397 243.597 244.926 222.247C239.456 200.897 236.611 182.753 211.885 179.328C187.232 175.903 175.708 195.723 174.614 198.419Z" fill="#FF2B49"/>
<path d="M291.827 500.381C290.442 504.097 290.442 508.032 272.061 504.972C258.349 502.713 245.074 494.333 235.446 486.609C232.164 483.986 229.392 481.508 227.131 479.322C219.692 472.181 210.21 463.583 202.916 458.92C201.53 458.045 200.217 457.244 198.977 456.734C191.465 453.163 192.048 446.022 194.674 441.067C197.373 436.112 213.711 420.956 215.534 418.843C219.181 414.616 225.162 413.013 231.508 413.596C245.658 414.835 262.142 426.275 261.121 441.14C260.245 452.434 258.787 456.588 263.455 463.729C266.81 468.975 272.207 475.533 276.875 480.415C278.553 482.237 280.157 483.84 281.47 485.079C286.503 489.743 293.213 496.665 291.827 500.381Z" fill="white"/>
<path d="M291.826 500.381C290.441 504.097 290.441 508.032 272.06 504.972C258.348 502.713 245.073 494.333 235.445 486.609C244.271 479.468 262.943 476.116 276.874 480.342C278.552 482.164 280.156 483.767 281.469 485.006C286.502 489.742 293.212 496.665 291.826 500.381Z" fill="#0160FA"/>
<path d="M230.485 450.03C226.036 454.839 210.5 452.362 202.842 458.993C201.456 458.118 200.143 457.317 198.903 456.807C191.39 453.236 191.974 446.095 194.6 441.14C197.298 436.185 213.637 421.029 215.46 418.916C219.107 414.689 225.088 413.086 231.433 413.669C231.288 416.511 231.506 419.863 232.382 423.725C235.518 436.841 234.934 445.221 230.485 450.03Z" fill="#0160FA"/>
<path d="M285.7 497.467C279.354 497.467 272.789 493.095 268.048 489.16C263.745 485.517 255.649 486.901 251.419 489.233C250.981 489.452 250.397 489.306 250.179 488.869C249.96 488.431 250.106 487.848 250.543 487.63C255.066 485.079 264.11 483.404 269.216 487.703C274.248 492.002 281.688 496.811 288.034 495.354C288.544 495.281 288.982 495.572 289.128 496.01C289.273 496.52 288.909 496.957 288.471 497.103C287.523 497.394 286.648 497.467 285.7 497.467Z" fill="#522C2C"/>
<path d="M212.323 451.852C212.177 451.852 211.958 451.779 211.812 451.706C205.613 447.699 202.184 438.954 201.601 435.602C201.528 435.092 201.82 434.655 202.33 434.582C202.841 434.51 203.279 434.801 203.351 435.311C203.789 437.934 206.925 446.387 212.76 450.176C213.198 450.467 213.271 450.978 213.052 451.415C212.906 451.706 212.615 451.852 212.323 451.852Z" fill="#522C2C"/>
<path d="M250.983 459.284C250.618 459.284 250.326 458.992 250.253 458.628C250.18 458.264 250.472 457.899 250.91 457.826C253.609 457.535 256.161 455.932 257.182 454.547C257.401 454.256 257.912 454.183 258.204 454.402C258.495 454.62 258.568 455.13 258.349 455.422C257.11 457.025 254.265 458.919 251.056 459.284C251.056 459.284 251.056 459.284 250.983 459.284Z" fill="#522C2C"/>
<path d="M253.534 465.186C253.096 465.186 252.805 464.895 252.805 464.458C252.805 464.02 253.096 463.729 253.534 463.729C256.743 463.729 259.734 460.596 259.807 460.596C260.099 460.304 260.536 460.304 260.828 460.596C261.12 460.887 261.12 461.324 260.828 461.616C260.682 461.689 257.327 465.186 253.534 465.186Z" fill="#522C2C"/>
<path d="M256.889 471.015C256.524 471.015 256.233 470.797 256.16 470.432C256.087 470.068 256.378 469.631 256.743 469.558C259.515 469.048 263.308 465.696 263.308 465.623C263.599 465.332 264.037 465.404 264.329 465.696C264.62 465.987 264.548 466.425 264.256 466.716C264.11 466.862 260.171 470.432 256.962 471.015C256.962 471.015 256.962 471.015 256.889 471.015Z" fill="#522C2C"/>
<path d="M288.253 505.263C260.39 501.766 246.313 490.398 240.843 486.026C235.3 481.727 215.825 464.093 209.553 458.555C203.28 453.017 192.923 447.844 192.923 447.844L181.18 454.985C186.723 465.988 197.591 472.764 208.823 477.938C220.056 483.112 236.467 493.969 244.782 498.268C253.17 502.567 275.124 514.517 288.253 505.263Z" fill="#522C2C"/>
<path d="M259.66 310.197C253.752 315.444 255.94 324.916 253.096 329.434C250.178 333.952 238.8 345.538 238.289 350.347C237.779 355.083 240.404 364.119 235.226 368.418C229.974 372.717 223.337 378.838 222.899 383.137C222.462 387.437 223.118 392.392 218.596 394.796C214.074 397.201 211.01 400.99 210.062 404.05C209.114 407.111 204.3 419.935 198.246 421.393C205.54 430.428 222.389 441.067 230.922 442.962C239.456 444.856 262.286 453.163 262.286 453.163C262.286 453.163 264.182 443.399 269.653 438.007C275.123 432.614 276.29 427.586 276.29 420.445C276.29 413.304 286.064 407.184 287.96 398.367C289.856 389.55 289.856 383.21 296.056 372.717C302.256 362.297 318.156 339.49 323.627 317.192C329.097 294.895 325.961 285.131 311.957 274.711C297.953 264.291 274.466 280.759 259.66 310.197Z" fill="#FF2B49"/>
<path d="M174.834 157.613C183.149 139.833 195.403 122.855 207.875 121.325C220.348 119.795 227.131 125.697 231.07 131.672C235.008 137.575 245.439 192.662 245.001 222.247C235.008 220.935 201.967 218.822 175.856 218.457C167.03 218.239 152.005 220.352 151.64 229.169C151.64 229.169 150.838 222.611 154.266 218.166C157.694 213.648 158.205 212.337 157.329 206.799C156.527 201.188 160.393 196.816 162.435 194.338C164.477 191.861 165.134 186.979 165.061 182.679C164.769 174.008 174.834 157.613 174.834 157.613Z" fill="#0160FA"/>
<path d="M215.312 201.188C216.114 202.864 224.648 200.823 235.589 195.577C246.53 190.33 254.918 182.825 252.802 180.056C250.687 177.287 236.172 182.169 230.046 186.395C223.919 190.622 214.875 196.16 215.312 201.188Z" fill="#0043AE"/>
<path d="M256.96 178.162C258.564 182.17 260.534 187.052 262.43 191.716C267.244 203.666 275.778 213.794 286.646 220.717L336.171 251.977C336.171 251.977 350.685 256.276 350.904 260.357C351.123 264.364 340.547 262.397 340.547 262.397C340.547 262.397 357.906 275.367 356.593 282.071C356.229 285.132 354.113 285.496 354.113 285.496C354.113 285.496 355.572 291.908 350.466 291.69C350.466 291.69 349.737 295.479 343.683 294.531C343.683 294.531 343.902 298.466 337.411 295.624C330.919 292.783 281.905 263.563 272.277 258.462C269.068 256.786 264.837 254.673 260.68 252.633C249.52 247.168 240.403 238.351 234.641 227.348L218.813 197.399C218.813 197.399 209.331 175.539 223.335 167.596C237.339 159.508 250.031 165.192 256.96 178.162Z" fill="#FDAFA2"/>
<path d="M337.63 261.376C337.484 261.376 337.411 261.376 337.266 261.303L329.315 256.64C328.951 256.421 328.878 255.984 329.024 255.62C329.242 255.255 329.68 255.182 330.045 255.328L337.995 259.992C338.36 260.21 338.433 260.648 338.287 261.012C338.068 261.23 337.849 261.376 337.63 261.376Z" fill="#522C2C"/>
<path d="M354.114 286.152C353.822 286.152 353.53 286.006 353.457 285.715C352.071 282.508 345.288 275.149 335.004 269.465C334.639 269.246 334.493 268.809 334.712 268.445C334.931 268.081 335.369 267.935 335.733 268.153C346.309 274.056 353.311 281.78 354.77 285.132C354.916 285.496 354.77 285.933 354.405 286.079C354.333 286.152 354.187 286.152 354.114 286.152Z" fill="#522C2C"/>
<path d="M350.469 292.346C350.177 292.346 349.885 292.127 349.812 291.835C347.405 285.132 330.921 275.222 330.775 275.149C330.411 274.93 330.338 274.493 330.557 274.129C330.775 273.764 331.213 273.691 331.578 273.91C332.307 274.347 348.645 284.184 351.271 291.398C351.417 291.763 351.198 292.2 350.833 292.346C350.615 292.273 350.542 292.346 350.469 292.346Z" fill="#522C2C"/>
<path d="M343.684 295.186C343.392 295.186 343.173 295.04 343.027 294.749C341.495 291.324 335.587 286.369 326.835 281.196C326.47 280.977 326.397 280.54 326.543 280.176C326.762 279.811 327.2 279.738 327.564 279.957C332.889 283.09 342.152 289.138 344.34 294.166C344.486 294.53 344.34 294.968 343.975 295.113C343.829 295.113 343.756 295.186 343.684 295.186Z" fill="#522C2C"/>
<path d="M256.961 178.161C249.375 156.884 239.821 135.534 227.713 126.79C215.605 118.046 200.653 124.531 198.465 134.149C196.349 143.768 207.947 181.003 215.24 201.187C215.24 201.187 214.949 198.564 225.889 193.026C236.903 187.415 256.961 178.161 256.961 178.161Z" fill="#0160FA"/>
<path d="M215.314 202.28C214.876 202.28 214.438 201.988 214.293 201.551L203.717 169.052C203.498 168.469 203.862 167.886 204.446 167.668C205.029 167.449 205.613 167.813 205.832 168.396L216.408 200.895C216.627 201.478 216.262 202.061 215.678 202.28C215.533 202.207 215.387 202.28 215.314 202.28Z" fill="#522C2C"/>
<path d="M114.367 446.532H19.5476C15.7548 446.532 12.6914 443.472 12.6914 439.683C12.6914 435.893 15.7548 432.833 19.5476 432.833H114.367C118.16 432.833 121.223 435.893 121.223 439.683C121.223 443.472 118.16 446.532 114.367 446.532Z" fill="#522C2C"/>
<path d="M121.224 531.787C124.608 531.787 127.351 529.046 127.351 525.666C127.351 522.285 124.608 519.545 121.224 519.545C117.841 519.545 115.098 522.285 115.098 525.666C115.098 529.046 117.841 531.787 121.224 531.787Z" fill="#522C2C"/>
<path d="M60.8312 230.189C66.6319 230.189 71.3343 225.491 71.3343 219.696C71.3343 213.901 66.6319 209.203 60.8312 209.203C55.0305 209.203 50.3281 213.901 50.3281 219.696C50.3281 225.491 55.0305 230.189 60.8312 230.189Z" fill="#522C2C"/>
<path d="M151.056 59.4591C157.662 59.4591 163.017 54.1088 163.017 47.5089C163.017 40.9089 157.662 35.5586 151.056 35.5586C144.449 35.5586 139.094 40.9089 139.094 47.5089C139.094 54.1088 144.449 59.4591 151.056 59.4591Z" fill="#522C2C"/>
<path d="M447.402 33.8101C451.833 33.8101 455.425 30.2215 455.425 25.7947C455.425 21.3679 451.833 17.7793 447.402 17.7793C442.971 17.7793 439.379 21.3679 439.379 25.7947C439.379 30.2215 442.971 33.8101 447.402 33.8101Z" fill="#522C2C"/>
<path d="M405.097 39.1293C407.071 39.1293 408.671 37.5307 408.671 35.5588C408.671 33.5868 407.071 31.9883 405.097 31.9883C403.124 31.9883 401.523 33.5868 401.523 35.5588C401.523 37.5307 403.124 39.1293 405.097 39.1293Z" fill="#522C2C"/>
<path d="M661.477 311.435C667.842 311.435 673.002 306.281 673.002 299.922C673.002 293.564 667.842 288.409 661.477 288.409C655.113 288.409 649.953 293.564 649.953 299.922C649.953 306.281 655.113 311.435 661.477 311.435Z" fill="#522C2C"/>
<path d="M637.04 447.917C640.585 447.917 643.458 445.046 643.458 441.504C643.458 437.963 640.585 435.092 637.04 435.092C633.495 435.092 630.621 437.963 630.621 441.504C630.621 445.046 633.495 447.917 637.04 447.917Z" fill="#522C2C"/>
<path d="M665.34 380.296C664.611 380.296 663.954 379.713 663.954 378.984C663.954 378.693 661.401 351.367 645.938 351.367C645.792 351.367 645.647 351.367 645.501 351.367C637.988 351.659 633.977 356.322 632.007 360.257C631.715 360.84 631.424 361.496 631.132 362.152C634.56 364.119 636.675 367.835 636.967 372.426C637.186 376.725 635.362 379.713 632.226 379.931C632.153 379.931 632.007 379.931 631.934 379.931C630.476 379.931 629.308 379.203 628.36 377.818C626.391 374.903 626.099 369.147 627.631 363.755C627.193 363.682 626.683 363.609 626.245 363.609C626.172 363.609 626.026 363.609 625.953 363.609C617.201 363.9 616.326 378.401 616.326 378.547L616.253 379.931H542.658C541.856 379.931 541.199 379.275 541.199 378.474C541.199 377.672 541.856 377.017 542.658 377.017H613.481C613.7 375.341 614.137 372.717 615.086 369.948C617.201 364.119 620.921 360.913 625.662 360.767C625.735 360.767 625.88 360.767 625.953 360.767C626.756 360.767 627.558 360.84 628.287 361.059C628.579 360.33 628.871 359.601 629.236 358.945C632.591 352.46 638.207 348.744 645.209 348.525C645.428 348.525 645.574 348.525 645.72 348.525C653.305 348.525 659.286 353.772 663.079 363.682C665.923 371.114 666.58 378.474 666.58 378.765C666.58 379.13 666.507 379.494 666.215 379.786C665.996 380.077 665.632 380.223 665.267 380.296H665.34ZM630.621 376.288C630.986 376.798 631.351 377.089 631.788 377.089H631.861C634.195 376.871 634.049 373.009 633.977 372.572C633.831 370.021 632.591 366.669 630.111 364.921C628.871 369.876 629.381 374.466 630.621 376.288Z" fill="#522C2C"/>
</g>
<defs>
<clipPath id="clip0_444_32290">
<rect width="673" height="586" fill="white"/>
</clipPath>
</defs>
</svg>
