<svg width="539" height="469" viewBox="0 0 539 469" fill="none" xmlns="http://www.w3.org/2000/svg">
<g clip-path="url(#clip0_461_32214)">
<path d="M324.875 0L32.762 103.647L0 327.647L121.785 462.588L470.674 464.765L539 184.706L324.875 0Z" fill="#FEEBDC"/>
<path d="M509.039 171.646H371.645V88.6463C371.645 80.9404 377.705 74.7051 385.195 74.7051H495.488C502.978 74.7051 509.039 80.9404 509.039 88.6463V171.646ZM372.788 170.47H507.895V88.6463C507.895 81.5874 502.349 75.8815 495.488 75.8815H385.195C378.334 75.8815 372.788 81.5874 372.788 88.6463V170.47Z" fill="#C29C9C"/>
<path d="M496.634 102.882H384.111C383.768 102.882 383.539 102.646 383.539 102.293C383.539 101.94 383.768 101.705 384.111 101.705H496.634C496.977 101.705 497.205 101.94 497.205 102.293C497.205 102.646 496.919 102.882 496.634 102.882Z" fill="#522C2C"/>
<path d="M496.631 93.7047C496.46 93.7047 496.345 93.6459 496.231 93.5283L488.226 85.293C487.998 85.0577 487.998 84.7047 488.226 84.4694C488.455 84.2341 488.798 84.2341 489.027 84.4694L497.031 92.7047C497.26 92.94 497.26 93.293 497.031 93.5283C496.917 93.6459 496.745 93.7047 496.631 93.7047Z" fill="#522C2C"/>
<path d="M488.626 93.7047C488.455 93.7047 488.341 93.6459 488.226 93.5283C487.998 93.293 487.998 92.94 488.226 92.7047L496.231 84.4694C496.46 84.2341 496.803 84.2341 497.031 84.4694C497.26 84.7047 497.26 85.0577 497.031 85.293L489.027 93.5283C488.912 93.6459 488.741 93.7047 488.626 93.7047Z" fill="#522C2C"/>
<path d="M413.556 93.7642C410.983 93.7642 408.867 91.5878 408.867 88.9407C408.867 86.2937 410.983 84.1172 413.556 84.1172C416.129 84.1172 418.244 86.2937 418.244 88.9407C418.244 91.5878 416.129 93.7642 413.556 93.7642ZM413.556 85.3525C411.612 85.3525 410.011 86.9995 410.011 88.9995C410.011 90.9995 411.612 92.6466 413.556 92.6466C415.5 92.6466 417.101 90.9995 417.101 88.9995C417.101 86.9995 415.5 85.3525 413.556 85.3525Z" fill="#522C2C"/>
<path d="M400.919 93.7642C398.346 93.7642 396.23 91.5878 396.23 88.9407C396.23 86.2937 398.346 84.1172 400.919 84.1172C403.492 84.1172 405.607 86.2937 405.607 88.9407C405.607 91.5878 403.492 93.7642 400.919 93.7642ZM400.919 85.3525C398.975 85.3525 397.374 86.9995 397.374 88.9995C397.374 90.9995 398.975 92.6466 400.919 92.6466C402.863 92.6466 404.464 90.9995 404.464 88.9995C404.464 86.9995 402.863 85.3525 400.919 85.3525Z" fill="#522C2C"/>
<path d="M388.228 93.7642C385.655 93.7642 383.539 91.5878 383.539 88.9407C383.539 86.2937 385.655 84.1172 388.228 84.1172C390.8 84.1172 392.916 86.2937 392.916 88.9407C392.916 91.5878 390.8 93.7642 388.228 93.7642ZM388.228 85.3525C386.284 85.3525 384.683 86.9995 384.683 88.9995C384.683 90.9995 386.284 92.6466 388.228 92.6466C390.172 92.6466 391.772 90.9995 391.772 88.9995C391.772 86.9995 390.172 85.3525 388.228 85.3525Z" fill="#522C2C"/>
<path d="M152.09 235.764H14.6953V90.5291C14.6953 82.8232 20.756 76.5879 28.2461 76.5879H138.539C146.029 76.5879 152.09 82.8232 152.09 90.5291V235.764ZM15.8388 234.588H150.946V90.5291C150.946 83.4702 145.4 77.7644 138.539 77.7644H28.2461C21.3849 77.7644 15.8388 83.4702 15.8388 90.5291V234.588Z" fill="#C29C9C"/>
<path d="M139.626 104.823H27.103C26.76 104.823 26.5312 104.588 26.5312 104.235C26.5312 103.882 26.76 103.646 27.103 103.646H139.626C139.969 103.646 140.198 103.882 140.198 104.235C140.198 104.588 139.969 104.823 139.626 104.823Z" fill="#522C2C"/>
<path d="M139.627 95.5875C139.456 95.5875 139.341 95.5287 139.227 95.4111L131.222 87.1758C130.994 86.9405 130.994 86.5875 131.222 86.3523C131.451 86.117 131.794 86.117 132.023 86.3523L140.027 94.5875C140.256 94.8228 140.256 95.1758 140.027 95.4111C139.913 95.5287 139.799 95.5875 139.627 95.5875Z" fill="#522C2C"/>
<path d="M131.623 95.5875C131.451 95.5875 131.337 95.5287 131.222 95.4111C130.994 95.1758 130.994 94.8228 131.222 94.5875L139.227 86.3523C139.456 86.117 139.799 86.117 140.027 86.3523C140.256 86.5875 140.256 86.9405 140.027 87.1758L132.023 95.4111C131.908 95.5287 131.794 95.5875 131.623 95.5875Z" fill="#522C2C"/>
<path d="M56.6064 95.7056C54.0335 95.7056 51.918 93.5292 51.918 90.8821C51.918 88.2351 54.0335 86.0586 56.6064 86.0586C59.1793 86.0586 61.2949 88.2351 61.2949 90.8821C61.2949 93.5292 59.1793 95.7056 56.6064 95.7056ZM56.6064 87.2939C54.6624 87.2939 53.0615 88.9409 53.0615 90.9409C53.0615 92.9409 54.6624 94.588 56.6064 94.588C58.5504 94.588 60.1513 92.9409 60.1513 90.9409C60.1513 88.9409 58.5504 87.2939 56.6064 87.2939Z" fill="#522C2C"/>
<path d="M43.9111 95.7056C41.3382 95.7056 39.2227 93.5292 39.2227 90.8821C39.2227 88.2351 41.3382 86.0586 43.9111 86.0586C46.484 86.0586 48.5996 88.2351 48.5996 90.8821C48.5996 93.5292 46.484 95.7056 43.9111 95.7056ZM43.9111 87.2939C41.9671 87.2939 40.3662 88.9409 40.3662 90.9409C40.3662 92.9409 41.9671 94.588 43.9111 94.588C45.8551 94.588 47.456 92.9409 47.456 90.9409C47.456 88.9409 45.8551 87.2939 43.9111 87.2939Z" fill="#522C2C"/>
<path d="M31.2783 95.7056C28.7054 95.7056 26.5898 93.5292 26.5898 90.8821C26.5898 88.2351 28.7054 86.0586 31.2783 86.0586C33.8512 86.0586 35.9667 88.2351 35.9667 90.8821C35.9667 93.5292 33.8512 95.7056 31.2783 95.7056ZM31.2783 87.2939C29.3343 87.2939 27.7334 88.9409 27.7334 90.9409C27.7334 92.9409 29.3343 94.588 31.2783 94.588C33.2223 94.588 34.8232 92.9409 34.8232 90.9409C34.8232 88.9409 33.2223 87.2939 31.2783 87.2939Z" fill="#522C2C"/>
<path d="M452.666 415.588H109.895V136.47C109.895 128.765 115.955 122.529 123.445 122.529H439.115C446.605 122.529 452.666 128.765 452.666 136.47V415.588Z" fill="#522C2C"/>
<path d="M443.518 415.588H109.895V144.117C109.895 136.411 115.955 130.176 123.445 130.176H429.967C437.457 130.176 443.518 136.411 443.518 144.117V415.588Z" fill="white"/>
<path d="M539.002 375.059H380.566V238.47C380.566 230.765 386.627 224.529 394.117 224.529H525.451C532.941 224.529 539.002 230.765 539.002 238.47V375.059ZM381.71 373.882H537.858V238.47C537.858 231.412 532.312 225.706 525.451 225.706H394.117C387.256 225.706 381.71 231.412 381.71 238.47V373.882Z" fill="#C29C9C"/>
<path d="M526.539 252.706H393.033C392.69 252.706 392.461 252.47 392.461 252.118C392.461 251.765 392.69 251.529 393.033 251.529H526.596C526.939 251.529 527.168 251.765 527.168 252.118C527.168 252.47 526.882 252.706 526.539 252.706Z" fill="#522C2C"/>
<path d="M526.537 243.529C526.366 243.529 526.252 243.47 526.137 243.352L518.132 235.117C517.904 234.882 517.904 234.529 518.132 234.294C518.361 234.058 518.704 234.058 518.933 234.294L526.938 242.529C527.166 242.764 527.166 243.117 526.938 243.352C526.88 243.47 526.709 243.529 526.537 243.529Z" fill="#522C2C"/>
<path d="M518.533 243.529C518.361 243.529 518.247 243.47 518.132 243.352C517.904 243.117 517.904 242.764 518.132 242.529L526.137 234.294C526.366 234.058 526.709 234.058 526.938 234.294C527.166 234.529 527.166 234.882 526.938 235.117L518.933 243.352C518.876 243.47 518.704 243.529 518.533 243.529Z" fill="#522C2C"/>
<path d="M422.478 243.588C419.905 243.588 417.789 241.412 417.789 238.765C417.789 236.118 419.905 233.941 422.478 233.941C425.05 233.941 427.166 236.118 427.166 238.765C427.166 241.412 425.05 243.588 422.478 243.588ZM422.478 235.177C420.534 235.177 418.933 236.824 418.933 238.824C418.933 240.824 420.534 242.471 422.478 242.471C424.421 242.471 426.022 240.824 426.022 238.824C426.022 236.824 424.421 235.177 422.478 235.177Z" fill="#522C2C"/>
<path d="M409.841 243.588C407.268 243.588 405.152 241.412 405.152 238.765C405.152 236.118 407.268 233.941 409.841 233.941C412.414 233.941 414.529 236.118 414.529 238.765C414.529 241.412 412.414 243.588 409.841 243.588ZM409.841 235.177C407.897 235.177 406.296 236.824 406.296 238.824C406.296 240.824 407.897 242.471 409.841 242.471C411.785 242.471 413.386 240.824 413.386 238.824C413.386 236.824 411.785 235.177 409.841 235.177Z" fill="#522C2C"/>
<path d="M397.149 243.588C394.576 243.588 392.461 241.412 392.461 238.765C392.461 236.118 394.576 233.941 397.149 233.941C399.722 233.941 401.838 236.118 401.838 238.765C401.838 241.412 399.722 243.588 397.149 243.588ZM397.149 235.177C395.205 235.177 393.604 236.824 393.604 238.824C393.604 240.824 395.205 242.471 397.149 242.471C399.093 242.471 400.694 240.824 400.694 238.824C400.694 236.824 399.093 235.177 397.149 235.177Z" fill="#522C2C"/>
<path d="M443.518 415.588H109.895V144.117C109.895 136.411 115.955 130.176 123.445 130.176H429.967C437.457 130.176 443.518 136.411 443.518 144.117V415.588ZM111.038 414.411H442.374V144.117C442.374 137.058 436.828 131.352 429.967 131.352H123.445C116.584 131.352 111.038 137.058 111.038 144.117V414.411Z" fill="#522C2C"/>
<path d="M431.055 158.411H122.361C122.018 158.411 121.789 158.176 121.789 157.823C121.789 157.47 122.018 157.234 122.361 157.234H431.112C431.455 157.234 431.684 157.47 431.684 157.823C431.684 158.176 431.398 158.411 431.055 158.411Z" fill="#522C2C"/>
<path d="M431.053 149.175C430.881 149.175 430.767 149.117 430.653 148.999L422.648 140.764C422.419 140.528 422.419 140.175 422.648 139.94C422.877 139.705 423.22 139.705 423.449 139.94L431.453 148.175C431.682 148.411 431.682 148.764 431.453 148.999C431.339 149.117 431.225 149.175 431.053 149.175Z" fill="#522C2C"/>
<path d="M423.048 149.175C422.877 149.175 422.762 149.117 422.648 148.999C422.419 148.764 422.419 148.411 422.648 148.175L430.653 139.94C430.881 139.705 431.224 139.705 431.453 139.94C431.682 140.175 431.682 140.528 431.453 140.764L423.449 148.999C423.334 149.117 423.22 149.175 423.048 149.175Z" fill="#522C2C"/>
<path d="M151.806 149.294C149.233 149.294 147.117 147.117 147.117 144.47C147.117 141.823 149.233 139.646 151.806 139.646C154.379 139.646 156.494 141.823 156.494 144.47C156.494 147.117 154.379 149.294 151.806 149.294ZM151.806 140.882C149.862 140.882 148.261 142.529 148.261 144.529C148.261 146.529 149.862 148.176 151.806 148.176C153.75 148.176 155.351 146.529 155.351 144.529C155.351 142.529 153.75 140.882 151.806 140.882Z" fill="#522C2C"/>
<path d="M139.169 149.294C136.596 149.294 134.48 147.117 134.48 144.47C134.48 141.823 136.596 139.646 139.169 139.646C141.742 139.646 143.857 141.823 143.857 144.47C143.857 147.117 141.742 149.294 139.169 149.294ZM139.169 140.882C137.225 140.882 135.624 142.529 135.624 144.529C135.624 146.529 137.225 148.176 139.169 148.176C141.113 148.176 142.714 146.529 142.714 144.529C142.714 142.529 141.113 140.882 139.169 140.882Z" fill="#522C2C"/>
<path d="M126.478 149.294C123.905 149.294 121.789 147.117 121.789 144.47C121.789 141.823 123.905 139.646 126.478 139.646C129.05 139.646 131.166 141.823 131.166 144.47C131.166 147.117 129.05 149.294 126.478 149.294ZM126.478 140.882C124.534 140.882 122.933 142.529 122.933 144.529C122.933 146.529 124.534 148.176 126.478 148.176C128.421 148.176 130.022 146.529 130.022 144.529C130.022 142.529 128.421 140.882 126.478 140.882Z" fill="#522C2C"/>
<path d="M183.478 358.117H0V283.058C0 275.352 6.06068 269.117 13.5508 269.117H169.928C177.418 269.117 183.478 275.352 183.478 283.058V358.117ZM1.14352 356.941H182.335V283.058C182.335 276 176.789 270.294 169.928 270.294H13.5508C6.68962 270.294 1.14352 276 1.14352 283.058V356.941Z" fill="#C29C9C"/>
<path d="M171.016 297.352H12.4663C12.1232 297.352 11.8945 297.117 11.8945 296.764C11.8945 296.411 12.1232 296.176 12.4663 296.176H171.016C171.359 296.176 171.588 296.411 171.588 296.764C171.588 297.117 171.302 297.352 171.016 297.352Z" fill="#522C2C"/>
<path d="M171.014 288.117C170.842 288.117 170.728 288.058 170.614 287.94L162.609 279.705C162.38 279.47 162.38 279.117 162.609 278.882C162.838 278.646 163.181 278.646 163.409 278.882L171.414 287.117C171.643 287.352 171.643 287.705 171.414 287.94C171.3 288.058 171.128 288.117 171.014 288.117Z" fill="#522C2C"/>
<path d="M163.009 288.117C162.838 288.117 162.723 288.058 162.609 287.94C162.38 287.705 162.38 287.352 162.609 287.117L170.614 278.882C170.842 278.646 171.185 278.646 171.414 278.882C171.643 279.117 171.643 279.47 171.414 279.705L163.409 287.94C163.295 288.058 163.181 288.117 163.009 288.117Z" fill="#522C2C"/>
<path d="M41.9111 288.235C39.3382 288.235 37.2227 286.058 37.2227 283.411C37.2227 280.764 39.3382 278.588 41.9111 278.588C44.484 278.588 46.5996 280.764 46.5996 283.411C46.5996 286.058 44.484 288.235 41.9111 288.235ZM41.9111 279.823C39.9671 279.823 38.3662 281.47 38.3662 283.47C38.3662 285.47 39.9671 287.117 41.9111 287.117C43.8551 287.117 45.456 285.47 45.456 283.47C45.456 281.47 43.8551 279.823 41.9111 279.823Z" fill="#522C2C"/>
<path d="M29.2744 288.235C26.7015 288.235 24.5859 286.058 24.5859 283.411C24.5859 280.764 26.7015 278.588 29.2744 278.588C31.8473 278.588 33.9628 280.764 33.9628 283.411C33.9628 286.058 31.8473 288.235 29.2744 288.235ZM29.2744 279.823C27.3304 279.823 25.7295 281.47 25.7295 283.47C25.7295 285.47 27.3304 287.117 29.2744 287.117C31.2184 287.117 32.8193 285.47 32.8193 283.47C32.8193 281.47 31.2184 279.823 29.2744 279.823Z" fill="#522C2C"/>
<path d="M16.583 288.235C14.0101 288.235 11.8945 286.058 11.8945 283.411C11.8945 280.764 14.0101 278.588 16.583 278.588C19.1559 278.588 21.2714 280.764 21.2714 283.411C21.2714 286.058 19.1559 288.235 16.583 288.235ZM16.583 279.823C14.639 279.823 13.0381 281.47 13.0381 283.47C13.0381 285.47 14.639 287.117 16.583 287.117C18.527 287.117 20.1279 285.47 20.1279 283.47C20.1279 281.47 18.527 279.823 16.583 279.823Z" fill="#522C2C"/>
<path d="M226.074 120.881C224.873 119.999 220.07 119.469 220.07 124.528C220.07 128.763 224.93 133.94 227.217 132.469C229.504 130.999 230.419 123.175 226.074 120.881Z" fill="#FD8471"/>
<path d="M261.751 125.764C261.751 125.764 260.379 136.882 255.347 141.882L253.289 120.882C253.289 120.882 258.892 120.411 261.751 125.764Z" fill="#FF2B49"/>
<path d="M248.833 213.469C238.598 213.469 232.423 208.41 233.738 199.763L237.111 162.175L238.655 144.646C241.057 125.94 243.973 122.41 250.319 122.352C250.605 122.352 250.891 122.352 251.177 122.352C256.723 122.705 256.952 127.352 256.952 127.352C256.952 127.352 262.269 192.881 262.726 199.528C263.184 206.175 259.067 213.469 248.833 213.469Z" fill="#FDAFA2"/>
<path d="M251.461 154.646C247.401 158.528 240.311 161.116 237.109 162.175L238.653 144.646C241.055 125.94 243.971 122.41 250.317 122.352C250.603 122.352 250.889 122.352 251.175 122.352C251.403 131.587 251.746 148.234 251.461 154.646Z" fill="#FD8471"/>
<path d="M221.215 189.646C221.215 189.646 223.33 187.823 226.532 187.058C232.421 185.646 241.855 183.646 248.145 183.646C253.862 183.646 263.64 184.47 270.672 185.176C275.532 185.646 278.848 186.999 278.848 186.999C278.848 186.999 274.732 213.411 248.831 213.411C222.93 213.411 221.215 189.646 221.215 189.646Z" fill="#FDAFA2"/>
<path d="M227.505 111.353C226.018 118.059 222.759 143.294 230.421 148.647C238.083 154 252.205 146.353 255.579 137.882C256.951 134.117 258.38 117.47 253.463 110.117C248.546 102.764 229.849 101.941 227.505 111.353Z" fill="#FDAFA2"/>
<path d="M235.392 124.529L238.651 133.176L231.047 135.823L235.392 124.529Z" fill="#FF2B49"/>
<path d="M223.385 99.6465C222.013 108.823 225.901 123.882 248.314 112.352C252.316 113.882 256.09 121.235 256.833 127.352C256.833 127.352 263.123 116.764 255.747 105.705C252.545 100.941 246.256 99.1759 241.167 100.058C234.535 101.235 229.56 106.235 223.385 99.6465Z" fill="#FF2B49"/>
<path d="M238.196 140.706C237.853 140.706 237.51 140.411 237.51 140C237.453 139.588 237.796 139.235 238.196 139.235C242.542 138.882 243.685 134.353 243.685 134.353C243.8 133.941 244.143 133.706 244.543 133.823C244.943 133.941 245.172 134.294 245.057 134.706C245 134.764 243.628 140.294 238.196 140.706C238.253 140.706 238.196 140.706 238.196 140.706Z" fill="#522C2C"/>
<path d="M243.226 126.529C243.857 126.529 244.369 125.897 244.369 125.117C244.369 124.337 243.857 123.705 243.226 123.705C242.594 123.705 242.082 124.337 242.082 125.117C242.082 125.897 242.594 126.529 243.226 126.529Z" fill="#522C2C"/>
<path d="M230.019 127.412C230.461 127.412 230.82 126.859 230.82 126.177C230.82 125.494 230.461 124.941 230.019 124.941C229.577 124.941 229.219 125.494 229.219 126.177C229.219 126.859 229.577 127.412 230.019 127.412Z" fill="#522C2C"/>
<path d="M252.147 118.529C253.291 115.177 257.808 112.235 259.981 112.412C262.153 112.588 265.755 114.412 266.041 119.412C266.327 124.412 262.21 128.706 257.922 129.353C253.634 130 249.86 123.588 252.147 118.529Z" fill="#FDAFA2"/>
<path d="M262.037 122.587C261.98 122.587 261.923 122.587 261.866 122.587C261.466 122.469 261.237 122.057 261.351 121.705C261.809 119.94 261.694 118.528 261.008 117.705C260.322 116.881 259.179 116.705 258.378 116.822C257.978 116.881 257.635 116.587 257.578 116.175C257.52 115.763 257.806 115.41 258.207 115.352C259.407 115.175 261.008 115.469 262.095 116.705C262.838 117.528 263.524 119.175 262.781 122.057C262.666 122.352 262.323 122.587 262.037 122.587Z" fill="#522C2C"/>
<path d="M222.013 245.294C222.013 245.294 208.691 286.823 206.69 292.941C204.689 299.059 192.568 307.882 182.676 304.647C172.785 301.412 162.55 295.647 165.523 278.764C167.067 269.941 171.069 257.412 174.5 247.412C177.645 238.353 180.332 231.412 180.332 231.412C180.332 231.412 192.739 214.764 206.804 219.706C220.87 224.764 223.729 240 222.013 245.294Z" fill="#FDAFA2"/>
<path d="M183.478 252.118L174.559 247.412C177.703 238.353 180.391 231.412 180.391 231.412L183.478 252.118Z" fill="#FD8471"/>
<path d="M180.391 231.47C180.391 231.47 191.483 203.764 200.402 195.176C205.034 191.294 213.438 189.941 218.985 195.176C226.246 202.941 228.476 215 226.818 226.352C225.16 237.705 222.072 245.294 222.072 245.294L180.391 231.47Z" fill="#FF2B49"/>
<path d="M131.219 214.294C139.053 232.117 149.916 262.294 153.004 270.764C156.091 279.235 164.61 299.353 169.756 304.235C174.902 309.117 181.763 315 192.226 311.411C202.69 307.823 207.149 294.294 206.749 291.176C206.349 288 207.893 269.353 196.972 260.117C186.051 250.941 171.529 226.47 165.125 214.294C158.721 202.058 154.776 195.882 154.776 195.882C154.776 195.882 149.745 189.588 139.281 192.588C128.875 195.588 127.274 204.882 131.219 214.294Z" fill="#FDAFA2"/>
<path d="M131.218 214.294C131.218 214.294 116.295 212.706 112.235 212C108.176 211.294 102.973 208.529 98.6847 204.411C96.2833 202 97.0838 198.882 97.0838 198.882C97.0838 198.882 93.1958 195.647 92.1666 194.117C91.1375 192.588 90.8516 190 92.7956 188.823C92.7956 188.823 89.5365 185.176 91.3662 183.176C93.1958 181.176 95.7687 182.411 95.7687 182.411C95.7687 182.411 96.0546 178.411 99.1993 178.647C102.344 178.941 112.807 186.411 115.151 187.529C117.496 188.706 118.525 190.588 131.218 188.47C127.559 187.529 123.042 185.117 123.328 182.529C123.614 179.941 131.447 179.764 140.08 183.176C148.714 186.588 152.659 190.941 154.775 195.882C156.89 200.823 154.775 216.411 131.218 214.294Z" fill="#FDAFA2"/>
<path d="M115.611 194.117C112.58 194.117 108.921 191.235 105.319 188.47C102.231 186.117 99.0866 183.646 97.257 183.882C96.8567 183.941 96.5137 183.646 96.4565 183.235C96.3993 182.823 96.6852 182.47 97.0854 182.411C99.4297 182.117 102.574 184.529 106.176 187.293C109.607 189.94 113.495 192.94 116.011 192.588C116.411 192.529 116.754 192.823 116.811 193.235C116.868 193.646 116.583 193.999 116.182 194.058C116.011 194.117 115.782 194.117 115.611 194.117Z" fill="#522C2C"/>
<path d="M115.036 199.295C109.261 199.059 104.516 195.706 100.685 192.942C97.9976 191 95.6534 189.353 93.9952 189.589C93.595 189.647 93.252 189.353 93.1948 188.942C93.1376 188.53 93.4235 188.177 93.8237 188.118C95.9964 187.824 98.455 189.589 101.485 191.765C105.145 194.412 109.719 197.647 115.036 197.824C115.436 197.824 115.722 198.177 115.722 198.589C115.722 198.942 115.436 199.295 115.036 199.295Z" fill="#522C2C"/>
<path d="M113.38 204.059C109.32 204.059 106.061 202.354 103.488 201.001C101.601 200.001 100 199.177 98.6281 199.295C98.2278 199.354 97.8848 199.059 97.8276 198.648C97.7704 198.236 98.0563 197.883 98.4565 197.824C100.172 197.648 102.001 198.589 104.06 199.706C106.861 201.177 110.006 202.824 114.123 202.589C114.523 202.589 114.866 202.883 114.866 203.295C114.866 203.706 114.58 204.059 114.18 204.059C113.951 204.001 113.665 204.059 113.38 204.059Z" fill="#522C2C"/>
<path d="M226.531 187.058C229.161 193.999 235.05 203.999 248.887 201.764C262.724 199.529 268.27 193.293 270.671 185.176C279.076 186.058 289.997 185.999 294.628 186.176C299.259 186.293 310.18 199.764 307.435 236.411C304.634 273.058 304.233 291.176 304.233 291.176H212.408C212.408 291.176 211.036 247.94 211.151 238.999C211.265 230.117 204.118 217.588 203.832 214.646C203.546 211.646 199.773 193.823 207.777 191.705C212.065 190.588 226.531 187.058 226.531 187.058Z" fill="#FF2B49"/>
<path d="M249.456 237.94L231.961 185.41C231.846 184.999 232.018 184.587 232.418 184.469C232.818 184.352 233.218 184.528 233.333 184.94L249.342 233.116L263.636 183.469C263.751 183.057 264.151 182.881 264.551 182.999C264.951 183.116 265.123 183.528 265.008 183.94L249.456 237.94Z" fill="#522C2C"/>
<path d="M249.459 242.823C252.017 242.823 254.091 240.69 254.091 238.059C254.091 235.427 252.017 233.294 249.459 233.294C246.902 233.294 244.828 235.427 244.828 238.059C244.828 240.69 246.902 242.823 249.459 242.823Z" fill="#522C2C"/>
<path d="M212.352 288.823L304.348 286.529C304.348 286.529 319.957 337.706 320.529 415.588C254.891 415.588 203.833 415.588 203.833 415.588C203.833 415.588 200.23 330.765 212.352 288.823Z" fill="#0160FA"/>
<path d="M252.09 412.882C251.747 412.882 251.404 412.587 251.404 412.234C248.66 389.999 249.346 343.587 249.346 343.176C249.346 342.764 249.689 342.47 250.089 342.47C250.489 342.47 250.775 342.823 250.775 343.234C250.775 343.705 250.089 389.999 252.834 412.117C252.891 412.529 252.605 412.881 252.205 412.94C252.147 412.881 252.09 412.882 252.09 412.882Z" fill="#522C2C"/>
<path d="M347.746 283.235C339.513 300.176 316.757 297.882 312.297 289.294C304.292 273.411 291.599 243 291.599 243C287.711 233.823 288.912 217.352 300.805 212.764C317.557 206.705 324.704 219.352 324.704 219.352C324.704 219.352 326.191 221.647 328.364 225C332.023 230.647 337.569 239.352 341.285 245.058C342.143 246.352 342.886 247.529 343.458 248.411C348.147 255.823 355.98 266.294 347.746 283.235Z" fill="#FDAFA2"/>
<path d="M292.113 248.528L328.991 225.528C328.991 225.528 316.356 201.41 306.464 190.646C302.004 185.469 294.171 185.999 291.026 186.351C287.825 186.704 272.501 196.469 277.533 211.234C282.507 225.999 292.113 248.528 292.113 248.528Z" fill="#FF2B49"/>
<path d="M341.228 245.176L326.648 252.647C326.648 252.235 327.62 236.176 328.307 225.117C331.966 230.764 337.569 239.47 341.228 245.176Z" fill="#FD8471"/>
<path d="M373.875 201.647C370.502 220.059 365.642 245.647 363.412 260.117C361.182 274.588 355.293 299.647 341.628 305.647C327.963 311.647 317.156 301.588 312.353 289.294C307.551 277.059 321.788 257.765 324.303 251.294C326.819 244.823 343.972 197.706 346.373 193.235C348.775 188.765 359.81 183.294 368.329 188.765C376.791 194.294 373.875 201.647 373.875 201.647Z" fill="#FDAFA2"/>
<path d="M370.158 220.705C367.699 220.705 364.211 219.646 359.694 217.587C348.202 212.293 342.884 201.764 342.827 195.94C342.77 193.705 343.513 192.117 344.886 191.47C345.229 191.293 345.686 191.47 345.858 191.823C346.029 192.176 345.858 192.646 345.515 192.823C344.428 193.352 344.257 194.999 344.314 195.94C344.371 201.234 349.517 211.352 360.323 216.293C369.471 220.528 371.93 219.234 372.502 218.528C373.188 217.705 372.788 216.175 372.159 215.175C371.93 214.823 372.044 214.352 372.387 214.176C372.73 213.94 373.188 214.058 373.359 214.411C374.331 215.94 374.732 218.117 373.588 219.528C372.845 220.293 371.758 220.705 370.158 220.705Z" fill="#522C2C"/>
<path d="M371.244 176.47C371.244 176.47 381.135 177.058 382.679 176.47C384.223 175.882 395.258 166.411 398.174 163.941C401.09 161.47 405.55 161.235 405.321 165.293C407.837 164.117 412.468 164.588 409.438 171.058C411.667 171.764 412.354 175.47 406.579 181.705C407.322 184.235 405.95 188.176 402.119 191.352C398.288 194.529 395.83 196.293 388.225 198.411C380.621 200.529 375.361 201.764 372.044 202.411C368.671 203.058 362.61 209.235 355.635 207.646C348.659 206.058 343.685 200.705 347.001 190.999C350.26 181.293 353.062 178.235 356.378 176.352C359.637 174.47 368.385 168.823 373.417 167.941C378.448 167.058 378.734 169.882 377.133 172.176C375.532 174.47 371.244 176.47 371.244 176.47Z" fill="#FDAFA2"/>
<path d="M386.625 180C386.281 180 385.996 179.764 385.938 179.411C385.881 179 386.11 178.647 386.51 178.529C389.426 177.941 392.399 174.823 395.258 171.823C398.003 168.882 400.633 166.117 403.377 165.353C403.777 165.235 404.178 165.47 404.235 165.882C404.349 166.294 404.12 166.705 403.72 166.764C401.319 167.47 398.86 170.058 396.23 172.882C393.2 176.058 390.112 179.353 386.682 180C386.739 180 386.682 180 386.625 180Z" fill="#522C2C"/>
<path d="M388.969 184.705C388.626 184.705 388.341 184.469 388.283 184.117C388.169 183.705 388.398 183.352 388.798 183.234C394.744 181.705 398.747 177.94 401.891 174.881C404.064 172.822 405.894 170.999 407.838 170.528C408.238 170.411 408.581 170.705 408.695 171.058C408.81 171.469 408.524 171.822 408.181 171.94C406.637 172.352 404.864 173.999 402.863 175.94C399.547 179.117 395.43 183.058 389.141 184.646C389.084 184.646 389.027 184.705 388.969 184.705Z" fill="#522C2C"/>
<path d="M390.224 189.411C390.11 189.411 389.996 189.411 389.881 189.411C389.481 189.411 389.195 189.058 389.195 188.646C389.195 188.234 389.538 187.94 389.939 187.94C393.369 188.058 395.885 186.175 398.286 184.293C400.402 182.646 402.403 181.117 404.976 180.94C405.376 180.881 405.719 181.234 405.719 181.646C405.719 182.058 405.433 182.411 405.033 182.411C402.86 182.587 401.031 183.94 399.087 185.469C396.743 187.352 394.055 189.411 390.224 189.411Z" fill="#522C2C"/>
<path d="M499.148 212.53C501.863 212.53 504.065 210.265 504.065 207.471C504.065 204.677 501.863 202.412 499.148 202.412C496.432 202.412 494.23 204.677 494.23 207.471C494.23 210.265 496.432 212.53 499.148 212.53Z" fill="#522C2C"/>
<path d="M254.663 469C257.379 469 259.58 466.736 259.58 463.942C259.58 461.148 257.379 458.883 254.663 458.883C251.948 458.883 249.746 461.148 249.746 463.942C249.746 466.736 251.948 469 254.663 469Z" fill="#522C2C"/>
<path d="M41.9093 410.647C44.625 410.647 46.8265 408.382 46.8265 405.588C46.8265 402.794 44.625 400.529 41.9093 400.529C39.1937 400.529 36.9922 402.794 36.9922 405.588C36.9922 408.382 39.1937 410.647 41.9093 410.647Z" fill="#522C2C"/>
<path d="M317.386 105C320.102 105 322.303 102.736 322.303 99.9416C322.303 97.1477 320.102 94.8828 317.386 94.8828C314.67 94.8828 312.469 97.1477 312.469 99.9416C312.469 102.736 314.67 105 317.386 105Z" fill="#522C2C"/>
<path d="M48.0846 253.765C49.5056 253.765 50.6576 252.58 50.6576 251.118C50.6576 249.656 49.5056 248.471 48.0846 248.471C46.6637 248.471 45.5117 249.656 45.5117 251.118C45.5117 252.58 46.6637 253.765 48.0846 253.765Z" fill="#522C2C"/>
<path d="M182.907 64.2932C188.023 64.2932 192.17 60.0267 192.17 54.7638C192.17 49.5008 188.023 45.2344 182.907 45.2344C177.792 45.2344 173.645 49.5008 173.645 54.7638C173.645 60.0267 177.792 64.2932 182.907 64.2932Z" fill="#522C2C"/>
<path d="M472.848 453.823C477.964 453.823 482.111 449.557 482.111 444.294C482.111 439.031 477.964 434.765 472.848 434.765C467.733 434.765 463.586 439.031 463.586 444.294C463.586 449.557 467.733 453.823 472.848 453.823Z" fill="#522C2C"/>
<path d="M397.031 48.1174H290.855C287.882 48.1174 285.48 45.6468 285.48 42.588C285.48 39.5292 287.882 37.0586 290.855 37.0586H397.031C400.004 37.0586 402.406 39.5292 402.406 42.588C402.406 45.6468 399.947 48.1174 397.031 48.1174Z" fill="#522C2C"/>
<path d="M161.065 451.059H83.8771C80.8467 451.059 78.4453 448.53 78.4453 445.471C78.4453 442.353 80.9039 439.883 83.8771 439.883H161.065C164.095 439.883 166.497 442.412 166.497 445.471C166.497 448.53 164.038 451.059 161.065 451.059Z" fill="#522C2C"/>
</g>
<defs>
<clipPath id="clip0_461_32214">
<rect width="539" height="469" fill="white"/>
</clipPath>
</defs>
</svg>
