<svg width="577" height="497" viewBox="0 0 577 497" fill="none" xmlns="http://www.w3.org/2000/svg">
<path d="M346.98 4L572.6 191.16L529.96 460.51L143.24 496.51L0 344.08L36 107.4L346.98 4Z" fill="#FEEBDC"/>
<path d="M369.379 435.008C369.068 435.008 368.758 434.775 368.758 434.483C368.758 434.249 366.522 411.245 352.426 411.245C352.301 411.245 352.115 411.245 351.991 411.245C345.098 411.479 341.496 415.507 339.695 418.836C339.322 419.536 339.012 420.237 338.701 420.937C341.434 422.222 343.669 424.966 343.918 429.111C344.104 432.323 342.738 434.483 340.378 434.658C339.26 434.717 338.267 434.249 337.583 433.198C336.031 430.98 335.658 426.192 337.211 421.521C336.528 421.346 335.783 421.229 334.975 421.229C326.778 421.521 326.033 433.899 325.971 434.074V434.658H313.621C313.248 434.658 313 434.425 313 434.074C313 433.724 313.248 433.49 313.621 433.49H324.791C324.915 432.381 325.225 429.87 326.219 427.301C328.02 422.747 331.001 420.237 334.913 420.12C335.783 420.12 336.714 420.237 337.583 420.47C337.894 419.711 338.204 419.011 338.577 418.31C341.372 413.172 346.153 410.253 351.929 410.078C358.449 409.902 363.666 414.048 366.957 422.164C369.379 428.177 369.938 434.133 370 434.366C370 434.717 369.752 435.008 369.379 435.008ZM338.329 422.047C336.962 426.309 337.211 430.688 338.577 432.615C339.074 433.257 339.633 433.607 340.254 433.549C342.241 433.374 342.8 431.097 342.676 429.228C342.552 426.834 341.185 423.506 338.329 422.047Z" fill="#522C2C"/>
<path d="M471.619 75.5698C476.86 75.5698 481.109 71.321 481.109 66.0798C481.109 60.8387 476.86 56.5898 471.619 56.5898C466.378 56.5898 462.129 60.8387 462.129 66.0798C462.129 71.321 466.378 75.5698 471.619 75.5698Z" fill="#522C2C"/>
<path d="M166.98 446.971C174.099 446.971 179.87 441.2 179.87 434.081C179.87 426.962 174.099 421.191 166.98 421.191C159.861 421.191 154.09 426.962 154.09 434.081C154.09 441.2 159.861 446.971 166.98 446.971Z" fill="#522C2C"/>
<path d="M536.879 334.3C542.578 334.3 547.199 329.68 547.199 323.98C547.199 318.281 542.578 313.66 536.879 313.66C531.179 313.66 526.559 318.281 526.559 323.98C526.559 329.68 531.179 334.3 536.879 334.3Z" fill="#522C2C"/>
<path d="M428.637 159.741C431.824 159.741 434.407 157.158 434.407 153.971C434.407 150.784 431.824 148.201 428.637 148.201C425.451 148.201 422.867 150.784 422.867 153.971C422.867 157.158 425.451 159.741 428.637 159.741Z" fill="#522C2C"/>
<path d="M100.037 61.2915C104.875 61.2915 108.797 57.3695 108.797 52.5315C108.797 47.6935 104.875 43.7715 100.037 43.7715C95.1993 43.7715 91.2773 47.6935 91.2773 52.5315C91.2773 57.3695 95.1993 61.2915 100.037 61.2915Z" fill="#522C2C"/>
<path d="M537.04 259.66L448.7 264.17C448.7 264.17 447.85 270.64 452.79 271.57C457.73 272.5 535.26 266.57 535.26 266.57C535.26 266.57 539.17 267.17 543 257.3C546.83 247.43 576.36 183 576.36 183C576.36 183 576.62 178.66 573.04 181.47C569.46 184.28 537.04 259.66 537.04 259.66Z" fill="#522C2C"/>
<path d="M518.351 263.33L511.968 263.64C511.405 263.667 510.971 264.146 510.999 264.708C511.026 265.271 511.504 265.705 512.067 265.678L518.449 265.368C519.012 265.34 519.446 264.862 519.419 264.299C519.392 263.737 518.913 263.303 518.351 263.33Z" fill="#FEEBDC"/>
<path d="M529.632 262.795L523.249 263.105C522.687 263.132 522.253 263.61 522.28 264.173C522.307 264.736 522.786 265.17 523.348 265.142L529.731 264.832C530.293 264.805 530.727 264.327 530.7 263.764C530.673 263.202 530.194 262.768 529.632 262.795Z" fill="#FEEBDC"/>
<path d="M107.66 206.21C133.794 206.21 154.98 185.024 154.98 158.89C154.98 132.756 133.794 111.57 107.66 111.57C81.5257 111.57 60.3398 132.756 60.3398 158.89C60.3398 185.024 81.5257 206.21 107.66 206.21Z" fill="#FF2B49"/>
<path d="M189.37 129.31C186.77 121.89 167.94 121.21 142 126.31C143.551 127.945 144.981 129.689 146.28 131.53C159.28 130.03 168.14 131.22 169.62 135.45C171.1 139.68 165.22 145.84 154.62 152.63C144.02 159.42 128.32 166.82 110.44 173.08C94.6195 178.63 79.6695 182.38 67.6795 184.08C52.6795 186.24 42.3195 185.24 40.6795 180.63C39.0395 176.02 46.8395 168.47 60.4095 160.63C60.4095 160.04 60.4095 159.45 60.4095 158.86C60.4095 157.29 60.4895 155.74 60.6295 154.2C34.7795 167.05 18.6795 180.32 21.4295 188.2C24.1795 196.08 44.6395 196.35 72.4295 190.41C86.0236 187.453 99.417 183.639 112.53 178.99C127.104 173.952 141.3 167.88 155.009 160.82C177.979 148.75 191.94 136.63 189.37 129.31Z" fill="#0160FA"/>
<path d="M517.319 174.4C533.816 174.4 547.189 161.027 547.189 144.53C547.189 128.033 533.816 114.66 517.319 114.66C500.822 114.66 487.449 128.033 487.449 144.53C487.449 161.027 500.822 174.4 517.319 174.4Z" fill="#FF2B49"/>
<path d="M519.79 149.68C522.259 149.68 524.26 147.679 524.26 145.21C524.26 142.742 522.259 140.74 519.79 140.74C517.322 140.74 515.32 142.742 515.32 145.21C515.32 147.679 517.322 149.68 519.79 149.68Z" fill="#DE011F"/>
<path d="M503.762 152.753C505.211 151.916 505.385 149.504 504.151 147.366C502.917 145.229 500.741 144.174 499.292 145.01C497.843 145.847 497.669 148.259 498.903 150.397C500.137 152.534 502.313 153.589 503.762 152.753Z" fill="#DE011F"/>
<path d="M532.697 163.927C533.679 161.662 533.23 159.286 531.694 158.621C530.159 157.956 528.118 159.252 527.137 161.518C526.155 163.783 526.604 166.159 528.14 166.824C529.675 167.489 531.716 166.192 532.697 163.927Z" fill="#DE011F"/>
<path d="M507.84 133.036C508.313 131.094 507.63 129.259 506.315 128.939C505.001 128.619 503.552 129.935 503.079 131.877C502.606 133.82 503.288 135.654 504.603 135.974C505.918 136.294 507.367 134.979 507.84 133.036Z" fill="#DE011F"/>
<path d="M509.673 166.318C510.579 165.314 510.111 163.414 508.626 162.074C507.142 160.735 505.204 160.464 504.297 161.468C503.391 162.473 503.86 164.373 505.344 165.712C506.828 167.052 508.766 167.323 509.673 166.318Z" fill="#DE011F"/>
<path d="M512.672 156.94C513.382 156.016 513.368 154.814 512.641 154.256C511.914 153.697 510.749 153.994 510.039 154.918C509.329 155.842 509.343 157.044 510.071 157.603C510.798 158.161 511.963 157.864 512.672 156.94Z" fill="#DE011F"/>
<path d="M530.973 130.612C531.93 129.655 531.559 127.733 530.146 126.32C528.732 124.906 526.81 124.535 525.853 125.492C524.897 126.449 525.267 128.371 526.681 129.784C528.095 131.198 530.016 131.568 530.973 130.612Z" fill="#DE011F"/>
<path d="M538.431 142.35C539.083 141.698 538.836 140.394 537.879 139.437C536.923 138.48 535.618 138.233 534.966 138.886C534.314 139.538 534.561 140.842 535.518 141.799C536.474 142.756 537.779 143.003 538.431 142.35Z" fill="#DE011F"/>
<path d="M542.525 146.448C543.177 145.796 543.338 144.9 542.885 144.447C542.432 143.994 541.536 144.155 540.884 144.807C540.232 145.46 540.07 146.356 540.523 146.809C540.976 147.262 541.872 147.1 542.525 146.448Z" fill="#DE011F"/>
<path d="M510.071 121.69C511.087 121.69 511.911 120.866 511.911 119.85C511.911 118.834 511.087 118.01 510.071 118.01C509.054 118.01 508.23 118.834 508.23 119.85C508.23 120.866 509.054 121.69 510.071 121.69Z" fill="#DE011F"/>
<path d="M458.639 407.751C483.647 407.751 503.919 387.479 503.919 362.471C503.919 337.464 483.647 317.191 458.639 317.191C433.632 317.191 413.359 337.464 413.359 362.471C413.359 387.479 433.632 407.751 458.639 407.751Z" fill="#0160FA"/>
<mask id="mask0_1408_10039" style="mask-type:luminance" maskUnits="userSpaceOnUse" x="413" y="317" width="91" height="91">
<path d="M458.639 407.751C483.647 407.751 503.919 387.479 503.919 362.471C503.919 337.464 483.647 317.191 458.639 317.191C433.632 317.191 413.359 337.464 413.359 362.471C413.359 387.479 433.632 407.751 458.639 407.751Z" fill="white"/>
</mask>
<g mask="url(#mask0_1408_10039)">
<path d="M461.879 318.552C461.879 318.552 454.979 335.742 427.279 334.302C399.579 332.862 423.709 338.982 423.709 338.982C423.709 338.982 441.939 348.332 464.169 333.742C476.429 325.742 497.749 334.302 497.749 334.302C497.749 334.302 484.219 304.892 461.879 318.552Z" fill="#FF2B49"/>
<path d="M486.786 372.24C504.218 371.024 517.92 363.884 517.39 356.292C516.861 348.7 502.3 343.531 484.868 344.747C467.436 345.963 453.734 353.103 454.264 360.695C454.793 368.287 469.354 373.456 486.786 372.24Z" fill="#FF2B49"/>
<path d="M412.552 374.376C429.984 373.16 443.711 366.381 443.213 359.236C442.714 352.09 428.179 347.283 410.747 348.499C393.315 349.715 379.588 356.493 380.086 363.639C380.585 370.785 395.12 375.592 412.552 374.376Z" fill="#FF2B49"/>
<path d="M440.642 423.902C458.074 422.686 471.801 415.908 471.302 408.762C470.804 401.616 456.269 396.809 438.837 398.025C421.405 399.241 407.677 406.019 408.176 413.165C408.674 420.311 423.21 425.118 440.642 423.902Z" fill="#FF2B49"/>
<path d="M419.487 382.382C419.487 382.382 436.087 373.832 450.127 377.792C464.167 381.752 482.297 389.282 497.747 382.382C513.197 375.482 496.417 396.542 481.537 398.502C472.977 399.632 453.957 385.452 441.067 388.642C431.917 390.902 425.207 390.152 422.067 389.522C421.279 389.375 420.535 389.049 419.894 388.569C419.252 388.089 418.73 387.467 418.367 386.752C417.939 386.023 417.816 385.155 418.026 384.336C418.236 383.517 418.761 382.815 419.487 382.382Z" fill="#FF2B49"/>
</g>
<path d="M229.959 304.431L212.899 322.521L102.899 270.791C102.899 270.791 20.3288 303.161 10.2388 313.541C0.148769 323.921 41.1288 335.151 83.0388 323.451C83.0388 323.451 248.039 386.831 266.039 385.111C266.039 385.111 286.129 377.881 298.719 362.471C311.309 347.061 275.909 296.451 229.959 304.431Z" fill="#FDAFA2"/>
<path d="M301.968 359.061C301.968 359.061 281.228 391.841 246.058 385.131C245.765 385.074 245.496 384.933 245.283 384.725C245.07 384.517 244.922 384.252 244.858 383.961C243.598 378.221 239.688 348.211 289.988 327.961C290.038 327.971 306.038 350.721 301.968 359.061Z" fill="#FD8471"/>
<path d="M80.5278 280L71.1978 300.67C71.1978 300.67 72.0179 316.1 82.4279 324.77C82.4279 324.77 72.0679 331.18 63.4279 328.03L54.8179 310.31L40.3179 315.14L44.9379 330.14C44.9379 330.14 33.8278 330.55 29.0278 327.14C29.0278 327.14 20.3678 311.96 22.0278 308.42C22.0378 308.38 69.5878 281.25 80.5278 280Z" fill="#FF2B49"/>
<path d="M103.808 269.361C103.808 269.361 22.3183 306.181 6.03829 316.411C6.03829 316.411 -2.96173 311.631 7.38827 303.551C17.7383 295.471 95.0883 261.121 100.498 261.221C105.908 261.321 106.438 268.171 103.808 269.361Z" fill="#522C2C"/>
<path d="M221.621 306.981L207.621 324.341L84.0506 322.981C84.0506 322.981 24.4706 388.681 20.0506 402.471C15.6306 416.261 57.3306 408.081 89.6706 378.981C89.6706 378.981 236.051 391.231 251.371 381.701C251.371 381.701 289.161 364.511 293.581 345.111C298.001 325.711 259.241 279.401 221.621 306.981Z" fill="#FDAFA2"/>
<path d="M67.2399 342.211V364.001C67.2399 364.001 74.5599 377.621 87.6599 381.001C87.6599 381.001 81.0199 391.211 71.8299 392.061L56.5099 379.641L45.4499 390.211L56.0399 401.791C56.0399 401.791 46.1699 406.891 40.3799 405.871C40.3799 405.871 26.0899 395.871 26.0899 391.871C26.0399 391.911 57.8799 348.001 67.2399 342.211Z" fill="#FF2B49"/>
<path d="M84.091 322.981C84.091 322.981 25.371 389.801 14.981 405.981C14.981 405.981 4.77097 405.501 10.731 393.761C16.691 382.021 72.001 318.011 76.941 315.761C81.881 313.511 85.961 320.781 84.091 322.981Z" fill="#522C2C"/>
<path d="M83.5773 323.151C84.9373 323.151 207.827 322.811 207.827 324.511C207.827 324.511 212.937 318.941 203.997 319.451C195.057 319.961 94.9973 313.451 85.1473 317.661C82.4273 318.831 83.5773 323.151 83.5773 323.151Z" fill="#FD8471"/>
<path d="M267.409 233.961C267.409 233.961 223.829 300.681 221.109 306.471C221.109 306.471 262.429 325.471 294.769 358.131L297.959 354.131C297.959 354.131 301.279 353.131 303.579 358.131L355.409 274.311C355.409 274.311 299.579 239.741 267.409 233.961Z" fill="#0160FA"/>
<path d="M256.848 315.481C256.726 315.479 256.608 315.433 256.518 315.351C256.426 315.258 256.375 315.132 256.375 315.001C256.375 314.87 256.426 314.744 256.518 314.651C270.878 298.531 299.328 251.871 299.618 251.401C299.651 251.345 299.695 251.295 299.747 251.256C299.799 251.217 299.859 251.189 299.922 251.173C299.985 251.157 300.051 251.154 300.116 251.164C300.18 251.174 300.242 251.197 300.298 251.231C300.355 251.265 300.404 251.31 300.443 251.363C300.483 251.416 300.511 251.476 300.527 251.541C300.543 251.605 300.546 251.671 300.535 251.737C300.525 251.802 300.502 251.865 300.468 251.921C300.178 252.391 271.678 299.121 257.268 315.311C257.215 315.369 257.15 315.415 257.077 315.444C257.005 315.474 256.926 315.486 256.848 315.481Z" fill="#522C2C"/>
<path d="M283.4 278.441C283.278 278.439 283.16 278.394 283.069 278.313C282.977 278.233 282.917 278.122 282.9 278.001C282.889 277.869 282.928 277.737 283.01 277.633C283.091 277.529 283.21 277.46 283.341 277.441C312.661 273.951 315.341 259.891 315.341 259.751C315.362 259.618 315.435 259.499 315.544 259.42C315.652 259.342 315.788 259.309 315.92 259.331C316.053 259.352 316.172 259.425 316.251 259.534C316.329 259.642 316.362 259.778 316.341 259.911C316.241 260.521 313.621 274.841 283.471 278.441H283.4Z" fill="#522C2C"/>
<path d="M358.739 94.471C365.009 91.831 373.569 91.471 380.969 102.381C382.105 104.054 382.582 106.087 382.309 108.091V108.171C379.839 125.411 366.989 189.711 320.799 196.771C267.329 204.941 272.439 200.601 269.119 186.041C265.799 171.481 265.029 170.721 257.889 168.941C250.749 167.161 250.989 149.531 260.439 142.891C269.889 136.251 252.249 111.741 283.439 110.211C314.629 108.681 309.439 105.871 312.889 100.771C315.289 97.251 329.679 95.921 339.889 97.171C346.3 97.931 352.799 97.0001 358.739 94.471Z" fill="#522C2C"/>
<path d="M376.04 137.311C374.801 137.612 373.504 137.569 372.288 137.186C371.072 136.804 369.984 136.097 369.14 135.141C366.7 132.621 366.67 134.031 366.67 134.031L356.2 165.821C355.27 169.661 353.55 168.741 349.6 168.611C344.06 168.421 337.6 166.361 340.12 157.211L359.7 122.161C359.7 122.161 347.27 115.531 355.44 107.361C363.61 99.191 364.63 111.611 364.63 111.611C365.32 111.665 366.008 111.472 366.57 111.068C367.132 110.663 367.532 110.073 367.7 109.401C368.21 107.021 382.33 108.211 382.33 108.211C382.33 108.211 382.69 110.601 382.84 114.041C382.84 114.551 382.84 115.091 382.84 115.651C383.04 122.841 382.1 133.311 376.04 137.311Z" fill="#FDAFA2"/>
<path d="M363.77 128.85L360.18 137.62C360.621 138.389 361.215 139.06 361.925 139.592C362.635 140.123 363.447 140.504 364.31 140.71L366.92 133.2C366.043 132.837 365.285 132.239 364.729 131.471C364.172 130.703 363.84 129.795 363.77 128.85Z" fill="#FD8471"/>
<path d="M361.041 173.391C360.621 172.681 360.181 171.981 359.761 171.271C356.981 166.571 340.151 141.621 312.091 172.001C281.271 205.361 267.391 234.001 267.391 234.001C267.391 234.001 285.081 234.001 354.921 274.341C368.671 282.281 380.491 229.911 370.331 200.981C370.351 200.941 368.161 185.191 361.041 173.391Z" fill="#FF2B49"/>
<path d="M297.961 354.17L322.561 315.41L301.841 355.52C301.841 355.52 299.921 353.62 297.961 354.17Z" fill="#0160FA"/>
<path d="M370.561 201.452C361.729 197.874 351.885 197.691 342.927 200.939C333.968 204.187 326.528 210.635 322.041 219.042L321.711 219.661C321.711 219.661 348.261 297.791 356.431 302.551C364.601 307.311 374.301 312.432 396.771 295.232C419.241 278.032 453.771 256.771 470.471 258.131C487.171 259.491 497.201 263.231 499.241 259.831C499.241 259.831 500.001 256.831 497.621 256.341C497.621 256.341 506.221 257.621 501.541 252.431C501.541 252.431 507.071 249.871 498.731 245.111C498.731 245.111 504.511 241.361 493.111 239.061C493.111 239.061 470.821 231.821 462.481 234.061C443.761 239.061 386.171 256.542 386.171 256.542L370.561 201.452Z" fill="#FDAFA2"/>
<path d="M497.619 256.84H497.469C482.909 252.33 475.289 252.01 475.219 252.01C475.153 252.007 475.089 251.992 475.029 251.964C474.969 251.937 474.915 251.898 474.871 251.849C474.826 251.801 474.792 251.744 474.769 251.683C474.746 251.621 474.736 251.556 474.739 251.49C474.746 251.358 474.805 251.235 474.902 251.145C474.999 251.056 475.127 251.007 475.259 251.01C475.329 251.01 483.079 251.34 497.769 255.88C497.895 255.921 498 256.01 498.062 256.128C498.123 256.246 498.137 256.383 498.099 256.51C498.062 256.607 497.996 256.691 497.91 256.75C497.825 256.809 497.723 256.84 497.619 256.84Z" fill="#522C2C"/>
<path d="M501.54 252.93H501.39C492.858 250.254 484.087 248.409 475.2 247.42C475.134 247.415 475.07 247.397 475.011 247.367C474.953 247.337 474.9 247.296 474.858 247.245C474.815 247.195 474.783 247.137 474.762 247.074C474.742 247.011 474.735 246.945 474.74 246.88C474.744 246.814 474.761 246.749 474.79 246.69C474.82 246.631 474.861 246.579 474.912 246.537C474.963 246.495 475.022 246.463 475.085 246.445C475.148 246.427 475.215 246.421 475.28 246.43C484.24 247.414 493.082 249.273 501.68 251.98C501.744 251.997 501.803 252.027 501.855 252.068C501.906 252.109 501.949 252.16 501.98 252.218C502.011 252.276 502.029 252.34 502.035 252.406C502.04 252.471 502.031 252.537 502.01 252.6C501.976 252.697 501.913 252.781 501.829 252.841C501.744 252.9 501.643 252.931 501.54 252.93Z" fill="#522C2C"/>
<path d="M498.729 245.61C498.68 245.619 498.629 245.619 498.579 245.61C484.059 241.12 475.349 241.46 475.259 241.47C475.128 241.47 475.001 241.421 474.905 241.332C474.809 241.243 474.749 241.12 474.739 240.99C474.735 240.924 474.744 240.859 474.766 240.797C474.787 240.736 474.821 240.679 474.865 240.631C474.909 240.582 474.962 240.543 475.021 240.515C475.08 240.488 475.144 240.472 475.209 240.47C475.299 240.47 484.209 240.11 498.869 244.66C498.933 244.677 498.992 244.707 499.044 244.748C499.096 244.788 499.138 244.84 499.169 244.898C499.2 244.956 499.219 245.02 499.224 245.086C499.229 245.151 499.221 245.217 499.199 245.28C499.166 245.377 499.102 245.461 499.018 245.521C498.933 245.58 498.832 245.611 498.729 245.61Z" fill="#522C2C"/>
<path d="M371.038 201.441C371.038 201.441 340.568 217.271 321.678 219.661C321.678 219.661 317.338 199.851 315.808 194.481C314.608 190.301 311.728 177.971 313.258 171.001C340.908 142.171 357.478 166.621 360.258 171.271C360.688 171.981 361.128 172.681 361.548 173.381C365.668 180.201 368.148 188.331 369.548 193.981C369.708 197.581 370.178 200.211 371.038 201.441Z" fill="#FF2B49"/>
<g opacity="0.1">
<path d="M315.828 194.48C315.828 194.48 317.108 303.4 330.388 313.66L346.968 286.31L321.708 219.67L315.828 194.48Z" fill="#522C2C"/>
</g>
<path d="M358.3 119.05C358.214 119.05 358.129 119.027 358.054 118.985C357.979 118.944 357.915 118.883 357.87 118.81C355.66 115.06 355.11 112.31 356.25 110.63C357.67 108.52 361.13 109.02 361.25 109.04C361.315 109.05 361.377 109.072 361.434 109.106C361.49 109.14 361.539 109.185 361.578 109.238C361.617 109.291 361.645 109.351 361.661 109.415C361.677 109.479 361.68 109.545 361.67 109.61C361.648 109.74 361.576 109.857 361.47 109.935C361.363 110.014 361.231 110.048 361.1 110.03C361.1 110.03 358.1 109.6 357.04 111.2C356.16 112.51 356.73 114.96 358.7 118.3C358.766 118.413 358.786 118.548 358.754 118.675C358.722 118.802 358.642 118.912 358.53 118.98C358.46 119.023 358.381 119.047 358.3 119.05Z" fill="#522C2C"/>
<path d="M367.039 117.111C367.039 117.111 370.869 112.511 373.299 116.601Z" fill="#522C2C"/>
<path d="M382.86 115.611L378.07 116.001C378.07 116.001 380.57 113.001 382.81 114.001C382.83 114.511 382.85 115.051 382.86 115.611Z" fill="#522C2C"/>
<path d="M371.008 124.571C372.262 124.571 373.278 123.555 373.278 122.301C373.278 121.048 372.262 120.031 371.008 120.031C369.755 120.031 368.738 121.048 368.738 122.301C368.738 123.555 369.755 124.571 371.008 124.571Z" fill="#FF2B49"/>
<path d="M375.828 116.51V124L380.458 124.57L375.828 116.51Z" fill="#FF2B49"/>
<path d="M376.681 132.622C374.111 132.552 372.301 131.922 371.321 130.742C371.053 130.436 370.85 130.078 370.724 129.691C370.599 129.305 370.554 128.896 370.591 128.492C370.609 128.359 370.68 128.239 370.787 128.158C370.894 128.078 371.028 128.043 371.161 128.062C371.293 128.08 371.413 128.151 371.494 128.257C371.574 128.364 371.609 128.499 371.591 128.632C371.573 128.903 371.611 129.175 371.702 129.431C371.793 129.687 371.936 129.922 372.121 130.122C372.901 131.042 374.491 131.562 376.721 131.622C376.852 131.627 376.975 131.683 377.065 131.778C377.155 131.874 377.203 132.001 377.201 132.132C377.201 132.198 377.187 132.265 377.161 132.326C377.134 132.388 377.095 132.443 377.047 132.489C376.998 132.535 376.94 132.57 376.877 132.593C376.814 132.616 376.747 132.626 376.681 132.622Z" fill="#522C2C"/>
<path d="M201.144 39.9861C201.054 39.9861 200.964 39.9861 200.875 39.9861C197.013 39.7148 194.857 36.4603 195.127 31.3977C195.306 27.7816 196.833 23.9846 198.989 21.0917C199.976 19.8261 201.144 18.7412 202.401 17.9276C202.042 17.114 201.683 16.21 201.234 15.3963C198.899 10.6049 193.241 2.55903 182.553 1.92621C177.614 1.655 173.303 3.19186 169.8 6.35598C178.063 12.413 182.823 22.3574 182.643 29.4089C182.463 35.5563 178.961 39.2628 172.943 39.534C168.633 39.7148 165.22 37.8164 162.974 34.0194C159.292 27.7816 160.011 17.3852 164.501 9.88171C165.22 8.61606 166.028 7.53122 166.926 6.53678C163.693 4.54791 160.011 3.10145 155.879 2.73984C138.007 1.20298 131.81 38.9012 131.72 39.2628C131.63 39.7148 131.181 40.0765 130.732 39.9861C130.283 39.8957 129.924 39.4436 130.014 38.9916C130.014 38.9012 131.63 29.0472 135.582 19.5549C140.791 6.71759 147.886 0.298948 156.059 0.931772C160.639 1.29339 164.681 2.92064 168.183 5.18073C172.045 1.47419 176.985 -0.243473 182.553 0.0277375C191.175 0.570158 198.36 5.63275 202.761 14.4923C203.12 15.3059 203.569 16.1195 203.838 16.9332C205.365 16.2099 206.982 15.9387 208.688 16.0291C214.077 16.3004 218.388 20.2781 221.172 27.6008C222.788 31.7593 223.507 35.8275 223.687 37.5452L316.102 37.5452C316.641 37.5452 317 37.9068 317 38.4492C317 38.9916 316.641 39.3532 316.102 39.3532L222.25 39.3532L222.16 38.5396C222.16 38.3588 220.004 18.47 208.688 17.9276C207.161 17.8372 205.814 18.1988 204.557 18.7412C207.072 26.0639 207.341 34.0194 204.826 37.8164C203.838 39.2628 202.581 39.9861 201.144 39.9861ZM203.03 19.6453C199.348 22.267 197.103 27.5104 196.923 31.4881C196.833 33.025 196.833 37.9068 200.964 38.178C201.952 38.2684 202.671 37.8164 203.389 36.8219C205.275 33.8386 205.455 26.7872 203.03 19.6453ZM168.543 7.53122C167.645 8.52566 166.836 9.6105 166.118 10.7857C161.897 17.7468 161.268 27.3296 164.591 33.025C165.848 35.1947 168.363 37.8164 172.943 37.6356C179.679 37.3644 180.847 32.3018 180.937 29.3185C181.026 22.6286 176.356 13.2266 168.543 7.53122Z" fill="#522C2C"/>
</svg>
