<svg width="15" height="16" viewBox="0 0 15 16" fill="none" xmlns="http://www.w3.org/2000/svg">
<path fill-rule="evenodd" clip-rule="evenodd" d="M1.94885 6.2138C3.43828 9.45704 6.08868 12.0355 9.38348 13.4327L9.39388 13.4371L10.0304 13.7208C10.8409 14.0819 11.7936 13.8254 12.3133 13.1062L13.3753 11.6364C13.4401 11.5466 13.4234 11.4218 13.3372 11.3523L11.4833 9.85659C11.3911 9.78224 11.2556 9.79956 11.1851 9.8947L10.4635 10.8684C10.2883 11.1048 9.97181 11.187 9.70368 11.0656C7.24001 9.95069 5.26025 7.97093 4.14531 5.50726C4.02396 5.23913 4.10613 4.92267 4.34259 4.74743L5.31623 4.02588C5.41137 3.95538 5.42869 3.81985 5.35434 3.72769L3.85847 1.87349C3.78895 1.78731 3.66416 1.77057 3.57438 1.83538L2.09664 2.90218C1.37265 3.42484 1.11768 4.38554 1.48723 5.19842L1.94835 6.21272C1.94852 6.21308 1.94868 6.21344 1.94885 6.2138ZM8.89023 14.5813C5.31021 13.0616 2.43074 10.2591 0.812367 6.73429L0.811392 6.73217L0.349307 5.71574C-0.266609 4.36095 0.158331 2.75978 1.36498 1.88868L2.84273 0.821882C3.47116 0.368209 4.34468 0.48538 4.83135 1.08862L6.32722 2.94283C6.84768 3.58797 6.72645 4.53663 6.06049 5.03017L5.50257 5.44363C6.445 7.27229 7.93865 8.76594 9.76731 9.70837L10.1808 9.15044C10.6743 8.48448 11.623 8.36325 12.2681 8.88372L14.1221 10.3794C14.7255 10.8662 14.8425 11.7401 14.3885 12.3685L13.3265 13.8383C12.4604 15.037 10.8726 15.4645 9.52168 14.8626L8.89023 14.5813Z" fill="black"/>
</svg>

