<svg width="628" height="488" viewBox="0 0 628 488" fill="none" xmlns="http://www.w3.org/2000/svg">
<g clip-path="url(#clip0_366_28048)">
<path d="M328.708 0L9.53674e-07 146.839L78.671 474.227L497.885 488L628 344.93L589.212 77.9758L328.708 0Z" fill="#FEEBDC"/>
<path d="M22.302 401.323C22.644 401.323 22.9861 401.049 22.9861 400.706C22.9861 400.432 25.4489 373.435 40.9778 373.435C41.1147 373.435 41.3198 373.435 41.4567 373.435C49.0501 373.709 53.0179 378.437 55.0018 382.343C55.4123 383.165 55.7543 383.987 56.0963 384.81C53.0863 386.317 50.6235 389.537 50.3499 394.402C50.1447 398.171 51.6497 400.706 54.2493 400.912C55.4806 400.98 56.5752 400.432 57.3277 399.199C59.0379 396.595 59.4484 390.976 57.7382 385.495C58.4907 385.289 59.3116 385.152 60.2009 385.152C69.231 385.495 70.0519 400.021 70.1203 400.227V400.912H126.421C126.832 400.912 127.105 400.638 127.105 400.227C127.105 399.815 126.832 399.541 126.421 399.541H71.4201C71.2833 398.24 70.9412 395.293 69.8466 392.278C67.8628 386.934 64.5791 383.987 60.2693 383.85C59.3116 383.85 58.2854 383.987 57.3277 384.261C56.9856 383.371 56.6436 382.548 56.2332 381.726C53.1547 375.696 47.8872 372.27 41.5251 372.065C34.3421 371.859 28.5957 376.724 24.97 386.249C22.302 393.306 21.6863 400.295 21.6179 400.569C21.6179 400.98 21.8915 401.323 22.302 401.323ZM56.5068 386.111C58.0118 391.113 57.7382 396.252 56.2332 398.514C55.6859 399.267 55.0702 399.678 54.3861 399.61C52.197 399.404 51.5813 396.732 51.7181 394.539C51.8549 391.73 53.3599 387.824 56.5068 386.111Z" fill="#522C2C"/>
<path d="M573.75 86.0608C573.819 86.0608 573.887 86.0608 573.956 86.0608C576.897 85.8552 578.539 83.3885 578.334 79.5514C578.197 76.8106 577.034 73.9327 575.392 71.7401C574.64 70.7808 573.75 69.9586 572.793 69.3419C573.066 68.7252 573.34 68.04 573.682 67.4233C575.461 63.7918 579.771 57.6935 587.911 57.2139C591.674 57.0083 594.957 58.1731 597.625 60.5713C591.332 65.1622 587.706 72.6994 587.843 78.044C587.98 82.7033 590.648 85.5126 595.231 85.7182C598.515 85.8552 601.114 84.4163 602.825 81.5385C605.629 76.8106 605.082 68.9308 601.662 63.2436C601.114 62.2843 600.499 61.4621 599.815 60.7084C602.277 59.2009 605.082 58.1046 608.229 57.8305C621.842 56.6657 626.563 85.2386 626.631 85.5126C626.699 85.8552 627.042 86.1293 627.384 86.0608C627.726 85.9923 627.999 85.6497 627.931 85.3071C627.931 85.2386 626.699 77.7699 623.689 70.5753C619.722 60.8454 614.317 55.9805 608.092 56.4601C604.603 56.7342 601.525 57.9676 598.857 59.6806C595.915 56.8712 592.153 55.5694 587.911 55.7749C581.344 56.186 575.871 60.0232 572.519 66.7381C572.245 67.3548 571.903 67.9715 571.698 68.5882C570.535 68.04 569.304 67.8345 568.004 67.903C563.899 68.1085 560.616 71.1234 558.495 76.6736C557.264 79.8255 556.716 82.9089 556.58 84.2108H486.186C485.776 84.2108 485.502 84.4848 485.502 84.896C485.502 85.3071 485.776 85.5812 486.186 85.5812H557.674L557.743 84.9645C557.743 84.8274 559.384 69.753 568.004 69.3419C569.167 69.2734 570.193 69.5475 571.151 69.9586C569.235 75.5087 569.03 81.5385 570.946 84.4163C571.698 85.5126 572.656 86.0608 573.75 86.0608ZM572.314 70.6438C575.119 72.6309 576.829 76.605 576.966 79.6199C577.034 80.7848 577.034 84.4848 573.887 84.6904C573.135 84.7589 572.587 84.4163 572.04 83.6626C570.604 81.4014 570.467 76.0569 572.314 70.6438ZM598.583 61.4621C599.267 62.2158 599.883 63.0381 600.43 63.9288C603.645 69.2049 604.124 76.468 601.593 80.7848C600.635 82.4292 598.72 84.4163 595.231 84.2793C590.1 84.0737 589.211 80.2366 589.143 77.9754C589.074 72.905 592.632 65.7789 598.583 61.4621Z" fill="#522C2C"/>
<path d="M372.285 15.418H25.9271C16.8971 15.418 9.50883 22.7496 9.50883 31.8628V331.638H388.703V31.8628C388.703 22.7496 381.315 15.418 372.285 15.418Z" fill="#522C2C"/>
<path d="M370.713 24.2578H37.1475C28.1174 24.2578 20.7292 31.5895 20.7292 40.7026V329.857H387.062V40.7026C387.062 31.5895 379.743 24.2578 370.713 24.2578Z" fill="white"/>
<path d="M369.822 43.5104C372.901 43.5104 375.363 41.0437 375.363 37.9603C375.363 34.8769 372.901 32.4102 369.822 32.4102C366.744 32.4102 364.281 34.8769 364.281 37.9603C364.281 41.0437 366.812 43.5104 369.822 43.5104ZM369.822 33.7806C372.148 33.7806 373.995 35.6306 373.995 37.9603C373.995 40.29 372.148 42.14 369.822 42.14C367.496 42.14 365.649 40.29 365.649 37.9603C365.649 35.6306 367.565 33.7806 369.822 33.7806Z" fill="#522C2C"/>
<path d="M355.799 43.5104C358.877 43.5104 361.34 41.0437 361.34 37.9603C361.34 34.8769 358.877 32.4102 355.799 32.4102C352.72 32.4102 350.257 34.8769 350.257 37.9603C350.257 41.0437 352.789 43.5104 355.799 43.5104ZM355.799 33.7806C358.125 33.7806 359.972 35.6306 359.972 37.9603C359.972 40.29 358.125 42.14 355.799 42.14C353.473 42.14 351.626 40.29 351.626 37.9603C351.626 35.6306 353.541 33.7806 355.799 33.7806Z" fill="#522C2C"/>
<path d="M341.775 43.5104C344.854 43.5104 347.316 41.0437 347.316 37.9603C347.316 34.8769 344.854 32.4102 341.775 32.4102C338.697 32.4102 336.234 34.8769 336.234 37.9603C336.234 41.0437 338.765 43.5104 341.775 43.5104ZM341.775 33.7806C344.101 33.7806 345.948 35.6306 345.948 37.9603C345.948 40.29 344.101 42.14 341.775 42.14C339.449 42.14 337.602 40.29 337.602 37.9603C337.602 35.6306 339.518 33.7806 341.775 33.7806Z" fill="#522C2C"/>
<path d="M33.1101 52.6927H374.679C375.09 52.6927 375.363 52.4186 375.363 52.0075C375.363 51.5963 375.09 51.3223 374.679 51.3223H33.1101C32.6997 51.3223 32.426 51.5963 32.426 52.0075C32.426 52.4186 32.6997 52.6927 33.1101 52.6927Z" fill="#522C2C"/>
<path d="M32.9717 43.4432C33.1769 43.4432 33.3138 43.3747 33.4506 43.2377L42.0018 34.6727C42.2754 34.3986 42.2754 33.9875 42.0018 33.7134C41.7282 33.4393 41.3177 33.4393 41.044 33.7134L32.4928 42.2784C32.2192 42.5525 32.2192 42.9636 32.4928 43.2377C32.6296 43.3747 32.7665 43.4432 32.9717 43.4432Z" fill="#522C2C"/>
<path d="M41.5229 43.4432C41.7282 43.4432 41.865 43.3747 42.0018 43.2377C42.2754 42.9636 42.2754 42.5525 42.0018 42.2784L33.4506 33.7134C33.1769 33.4393 32.7665 33.4393 32.4928 33.7134C32.2192 33.9875 32.2192 34.3986 32.4928 34.6727L41.044 43.2377C41.1809 43.3747 41.3177 43.4432 41.5229 43.4432Z" fill="#522C2C"/>
<path d="M250.104 176.44C270.217 176.44 277.879 156.021 284.104 139.439C285.677 135.328 287.114 131.491 288.619 128.133C292.587 119.706 297.581 110.798 304.9 109.222C310.031 108.126 315.983 110.455 323.097 116.485C332.401 124.365 339.174 123.817 343.21 121.967C350.803 118.404 355.387 107.372 355.387 92.4345C355.387 92.0234 355.113 91.7493 354.703 91.7493C354.292 91.7493 354.019 92.0234 354.019 92.4345C354.019 106.618 349.64 117.444 342.663 120.665C337.395 123.132 330.965 121.281 324.055 115.389C316.598 109.085 310.236 106.55 304.695 107.783C296.828 109.496 291.561 118.678 287.524 127.448C285.951 130.806 284.514 134.711 282.941 138.823C276.716 155.404 268.917 176.029 248.463 174.864C226.161 173.562 217.883 147.662 210.564 124.776C209.537 121.487 208.511 118.335 207.485 115.32C199.276 91.2012 193.94 77.5657 179.369 77.3601C164.661 77.2231 153.578 96.2716 148.516 112.648C147.764 114.978 147.148 117.307 146.464 119.5C142.428 133.204 139.212 144.03 131.961 144.647C119.853 145.675 110.138 137.589 103.092 120.596C99.3296 111.483 92.3519 106.001 83.9375 105.453C72.7867 104.7 60.8835 112.785 52.948 126.489C52.7427 126.832 52.8795 127.243 53.2216 127.448C53.5636 127.654 53.9741 127.517 54.1793 127.174C61.8412 113.95 73.2656 106.139 83.8691 106.824C91.8046 107.372 98.2351 112.442 101.861 121.144C109.181 138.754 119.374 147.114 132.166 146.017C140.375 145.332 143.727 134.095 147.9 119.911C148.585 117.718 149.2 115.389 149.953 113.059C157.751 87.7066 170.544 78.7305 179.3 78.7305C179.369 78.7305 179.437 78.7305 179.506 78.7305C192.435 78.9361 197.634 90.1734 206.391 115.731C207.417 118.746 208.443 121.898 209.469 125.187C216.926 148.484 225.409 174.864 248.599 176.235C248.941 176.44 249.557 176.44 250.104 176.44Z" fill="#522C2C"/>
<path d="M215.216 304.778H349.846C352.309 304.778 354.293 302.791 354.293 300.324V215.565C354.293 213.098 352.309 211.111 349.846 211.111H215.216C212.754 211.111 210.77 213.098 210.77 215.565V300.324C210.77 302.791 212.754 304.778 215.216 304.778Z" fill="#FEEBDC"/>
<path d="M295.801 245.028C300.453 245.028 303.121 242.767 304.489 241.054C304.558 240.986 304.626 240.849 304.694 240.78C305.242 241.602 306.199 242.425 307.978 242.699C308.457 242.767 309.004 242.767 309.415 242.63C310.509 243.932 312.22 244.754 314.409 244.48C315.435 244.343 316.324 243.932 317.008 243.315C318.513 244.412 320.429 244.823 322.481 244.343C323.712 244.069 324.944 243.521 325.97 242.767C326.586 243.178 327.27 243.521 328.022 243.795C333.563 246.056 338.626 244.823 342.935 240.3C343.209 240.026 343.209 239.615 342.935 239.341C342.662 239.067 342.251 239.067 341.978 239.341C338.078 243.452 333.563 244.549 328.569 242.493C328.091 242.287 327.543 242.082 327.133 241.808C327.817 241.123 328.433 240.3 328.775 239.41C332.332 229.68 327.27 224.678 325.696 223.856C324.875 223.444 323.37 223.376 321.934 224.198C320.771 224.883 319.334 226.459 319.266 229.817C319.197 234.819 321.25 239.136 324.807 241.876C323.986 242.356 323.097 242.767 322.207 242.973C320.565 243.315 319.06 243.041 317.829 242.219C318.034 241.876 318.24 241.465 318.376 240.986C319.129 238.313 318.103 234.956 316.803 233.86C316.256 233.448 315.64 233.311 315.093 233.585C314.135 234.065 313.519 234.956 313.382 236.189C313.109 238.176 314.067 240.437 315.982 242.356C315.572 242.699 314.956 242.973 314.203 243.11C312.63 243.315 311.467 242.836 310.646 242.013C310.988 241.739 311.262 241.465 311.467 241.054C312.425 239.478 312.493 236.874 311.535 235.573C311.057 234.887 310.372 234.613 309.62 234.75C308.183 235.024 307.499 236.943 307.91 239.273C308.047 240.026 308.252 240.712 308.594 241.328C308.457 241.328 308.32 241.328 308.183 241.328C306.747 241.123 305.926 240.506 305.584 239.41C306.336 237.971 306.678 236.6 306.268 236.052C306.063 235.778 305.721 235.641 305.379 235.778C304.421 236.121 304.01 237.697 304.147 239.067C304.147 239.136 304.147 239.204 304.147 239.273C303.668 240.095 302.916 241.054 301.89 241.808C299.632 243.521 295.391 244.96 288.071 241.945C287.729 241.808 287.318 241.945 287.182 242.288C287.045 242.63 287.182 243.041 287.524 243.178C290.807 244.48 293.544 245.028 295.801 245.028ZM315.708 234.819C316.05 234.819 317.077 236.258 317.213 238.519C317.282 239.204 317.282 240.3 316.803 241.328C315.024 239.478 314.545 237.628 314.751 236.395C314.819 235.641 315.161 235.093 315.708 234.819ZM324.26 224.952C324.602 224.952 324.875 225.02 325.081 225.089C326.38 225.774 330.69 230.159 327.543 238.93C327.201 239.684 326.654 240.437 325.97 241.054C322.549 238.587 320.634 234.613 320.702 229.885C320.771 227.145 321.797 225.98 322.686 225.432C323.233 225.089 323.781 224.952 324.26 224.952ZM310.03 236.121C310.167 236.121 310.304 236.189 310.441 236.395C310.988 237.217 311.057 239.136 310.304 240.369C310.167 240.574 310.03 240.78 309.825 240.917C309.483 240.369 309.278 239.684 309.209 239.067C308.936 237.491 309.346 236.189 309.894 236.121C309.962 236.121 309.962 236.121 310.03 236.121Z" fill="#522C2C"/>
<path d="M222.401 264.83H342.528C343.486 264.83 344.238 264.077 344.238 263.117C344.238 262.158 343.486 261.404 342.528 261.404H222.401C221.443 261.404 220.691 262.158 220.691 263.117C220.691 264.077 221.443 264.83 222.401 264.83Z" fill="#522C2C"/>
<path d="M222.401 274.561H342.528C343.486 274.561 344.238 273.807 344.238 272.848C344.238 271.888 343.486 271.135 342.528 271.135H222.401C221.443 271.135 220.691 271.888 220.691 272.848C220.691 273.807 221.443 274.561 222.401 274.561Z" fill="#522C2C"/>
<path d="M270.287 286.278H342.528C343.486 286.278 344.238 285.524 344.238 284.565C344.238 283.605 343.486 282.852 342.528 282.852H270.287C269.33 282.852 268.577 283.605 268.577 284.565C268.577 285.524 269.398 286.278 270.287 286.278Z" fill="#522C2C"/>
<path d="M58.0796 304.778H192.71C195.172 304.778 197.156 302.791 197.156 300.324V215.565C197.156 213.098 195.172 211.111 192.71 211.111H58.0796C55.6168 211.111 53.6329 213.098 53.6329 215.565V300.324C53.6329 302.791 55.6168 304.778 58.0796 304.778Z" fill="#FEEBDC"/>
<path d="M92.0123 257.979C92.0123 268.051 96.3221 277.096 103.231 283.331C109.32 288.813 117.324 292.239 126.217 292.239C145.098 292.239 160.422 276.89 160.422 257.979C160.422 241.671 148.997 228.036 133.742 224.61C131.348 224.061 128.817 223.787 126.217 223.787C107.268 223.719 92.0123 239.067 92.0123 257.979Z" fill="#FF2B49"/>
<path d="M92.0123 257.979C92.0123 260.583 92.2859 263.049 92.8332 265.516C94.4066 272.505 98.1008 278.672 103.231 283.331L126.217 257.979L133.742 224.61C131.348 224.061 128.817 223.787 126.217 223.787C107.268 223.719 92.0123 239.067 92.0123 257.979Z" fill="#0160FA"/>
<path d="M92.8309 265.447C94.4044 272.436 98.0985 278.603 103.229 283.263L126.215 257.91L92.8309 265.447Z" fill="#522C2C"/>
<path d="M608.434 293.129V349.384H571.629V458.673H378.03V378.985H279.52V293.129H608.434Z" fill="#FD8471"/>
<path d="M578.335 349.453L579.703 349.179C578.472 342.396 578.267 333.282 578.951 321.977C579.772 308.889 579.361 299.365 577.651 292.855L576.351 293.198C578.061 299.57 578.472 308.958 577.651 321.839C576.83 333.351 577.104 342.601 578.335 349.453Z" fill="white"/>
<path d="M589.826 349.452C591.673 334.858 592.905 307.518 592.357 293.129L590.989 293.197C591.536 307.518 590.237 334.789 588.458 349.315L589.826 349.452Z" fill="white"/>
<path d="M486.32 333.625C487.415 333.625 488.852 332.802 490.015 329.376C491.451 325.334 491.383 316.152 491.314 306.354C491.314 301.9 491.246 297.24 491.383 293.198L490.015 293.129C489.878 297.24 489.946 301.9 489.946 306.354C490.015 315.604 490.083 325.128 488.715 328.897C487.894 331.158 486.936 332.391 486.115 332.254C483.584 331.706 480.574 321.497 481.669 308.546C482.148 302.791 481.942 297.515 480.985 292.992L479.616 293.266C480.574 297.652 480.779 302.791 480.3 308.409C479.274 320.743 481.874 332.665 485.842 333.556C485.978 333.625 486.184 333.625 486.32 333.625Z" fill="white"/>
<path d="M429.064 367.336C430.364 367.336 431.459 366.857 432.416 365.829C437.752 360.21 436.726 339.517 435.768 319.441C435.426 312.383 435.084 305.805 435.084 300.324C435.084 297.583 435.221 295.253 435.563 293.198L434.195 292.992C433.853 295.048 433.716 297.515 433.716 300.324C433.716 305.805 434.058 312.452 434.4 319.509C435.29 338.352 436.384 359.662 431.459 364.87C430.775 365.623 430.022 365.966 429.133 365.966C427.012 365.966 425.37 365.281 424.139 363.979C419.624 359.046 420.581 345.273 422.634 323.141C424.002 308.752 422.771 298.816 421.539 293.061L420.171 293.335C421.402 299.022 422.565 308.82 421.266 323.004C419.145 345.41 418.119 359.388 423.113 364.87C424.549 366.514 426.602 367.336 429.064 367.336Z" fill="white"/>
<path d="M312.083 341.367C313.861 341.367 315.366 340.751 316.734 339.586C322.139 334.721 323.439 320.674 323.917 299.638C323.986 297.377 324.191 295.253 324.602 293.335L323.233 293.061C322.823 295.116 322.618 297.309 322.549 299.638C322.139 319.715 320.839 334.036 315.845 338.558C314.614 339.654 313.246 340.134 311.604 339.997C303.737 339.38 301.137 332.185 301.821 293.198H300.453C299.769 331.158 301.89 340.613 311.467 341.367C311.604 341.299 311.809 341.367 312.083 341.367Z" fill="white"/>
<path d="M403.616 458.674L404.984 458.605C404.437 449.56 403.206 437.569 400.948 420.85C397.528 395.292 397.323 348.288 397.186 317.248C397.186 311.287 397.117 306.011 397.117 301.626C397.117 298.474 397.186 295.664 397.459 293.198L396.091 293.061C395.817 295.527 395.681 298.405 395.749 301.626C395.817 306.011 395.817 311.287 395.817 317.248C395.954 348.356 396.16 395.43 399.58 421.056C401.838 437.706 403.137 449.697 403.616 458.674Z" fill="white"/>
<path d="M351.077 379.122L352.445 378.848C351.556 375.011 351.146 369.803 351.146 363.294V356.647C351.146 333.624 351.146 307.518 349.914 293.061L348.546 293.198C349.777 307.655 349.777 333.693 349.777 356.716V363.362C349.709 369.872 350.188 375.216 351.077 379.122Z" fill="white"/>
<path d="M387.54 458.673L388.908 458.536C388.703 455.727 388.634 452.849 388.771 449.971C389.797 424.139 388.019 345.615 387.266 334.926C386.65 326.978 384.94 317.933 376.389 318.207C369.822 318.481 369.958 330.472 370.095 347.191C370.095 349.864 370.164 352.673 370.164 355.619C370.164 367.268 369.685 374.394 368.59 378.779L369.89 379.122C370.985 374.668 371.463 367.405 371.463 355.619C371.463 352.673 371.463 349.864 371.395 347.191C371.258 331.911 371.121 319.783 376.389 319.578C382.204 319.372 385.009 323.963 385.829 334.995C386.65 345.684 388.361 424.071 387.334 449.903C387.266 452.918 387.334 455.864 387.54 458.673Z" fill="white"/>
<path d="M462.448 393.511C465.527 393.511 469.289 391.113 469.905 387.619C470.315 385.289 470.589 376.656 470.999 365.624C471.478 350.96 472.094 332.666 473.257 322.525C474.283 313.891 472.641 303.75 471.273 295.665C471.136 294.774 470.999 293.815 470.863 292.993L469.494 293.198C469.631 294.089 469.768 294.98 469.905 295.87C471.205 303.956 472.846 313.96 471.889 322.388C470.726 332.529 470.11 350.892 469.563 365.555C469.221 376.039 468.879 385.152 468.468 387.345C467.921 390.223 464.432 392.347 461.969 392.073C460.122 391.867 459.165 390.497 459.233 388.03C459.37 384.398 460.259 374.463 461.217 363.911C462.311 351.851 463.543 338.216 463.816 331.638C464.227 321.771 463.611 303.271 460.191 292.855L458.891 293.267C462.243 303.545 462.859 321.771 462.448 331.569C462.175 338.079 460.943 351.714 459.849 363.774C458.891 374.326 458.002 384.261 457.865 387.961C457.796 391.113 459.233 393.169 461.833 393.443C462.106 393.511 462.243 393.511 462.448 393.511Z" fill="white"/>
<path d="M544.95 458.811L546.25 458.468C543.24 445.518 541.872 429.347 542.487 414.067C543.172 396.32 541.325 385.7 536.946 382.548C535.304 381.383 533.389 381.178 531.131 382C526.616 383.713 523.059 394.265 525.385 410.504C526.753 420.165 524.838 441.612 522.58 458.468L523.948 458.674C526.206 441.749 528.121 420.165 526.753 410.299C525.453 401.117 526.206 394.813 527.027 391.181C528.053 386.933 529.763 383.918 531.679 383.233C533.457 382.548 534.962 382.685 536.194 383.576C538.93 385.563 542.009 392.415 541.188 413.93C540.572 429.416 541.94 445.792 544.95 458.811Z" fill="white"/>
<path d="M558.905 458.742C560.957 436.336 560.341 397.417 557.468 370.146C554.185 338.764 553.979 308.615 557.058 293.266L555.69 292.992C552.68 308.409 552.816 338.764 556.1 370.283C558.973 397.485 559.589 436.268 557.468 458.605L558.905 458.742Z" fill="white"/>
<path d="M503.219 458.674L504.587 458.605C503.972 447.231 504.314 432.568 505.613 415.095C510.949 344.588 510.676 311.424 504.587 292.924L503.288 293.335C509.308 311.698 509.581 344.656 504.245 415.027C502.946 432.568 502.535 447.231 503.219 458.674Z" fill="white"/>
<path d="M221.922 388.304C217.426 388.304 213.781 384.653 213.781 380.15C213.781 375.647 217.426 371.996 221.922 371.996C226.418 371.996 230.062 375.647 230.062 380.15C230.062 384.653 226.418 388.304 221.922 388.304Z" fill="#522C2C"/>
<path d="M74.3622 460.729C72.0575 460.729 70.1892 458.857 70.1892 456.549C70.1892 454.24 72.0575 452.369 74.3622 452.369C76.6669 452.369 78.5352 454.24 78.5352 456.549C78.5352 458.857 76.6669 460.729 74.3622 460.729Z" fill="#522C2C"/>
<path d="M124.299 445.655H248.052C251.336 445.655 254.004 442.983 254.004 439.694C254.004 436.405 251.336 433.732 248.052 433.732H124.368C121.084 433.732 118.416 436.405 118.416 439.694C118.348 442.983 121.016 445.655 124.299 445.655Z" fill="#522C2C"/>
<path d="M417.639 255.444C417.434 261.953 422.496 267.366 428.995 267.641L433.647 267.846L459.916 268.942L521.074 271.478C523.058 271.546 524.905 271.135 526.547 270.381C531.678 267.983 534.756 262.022 532.909 256.061L532.772 255.581L518.611 210.221L516.491 200.902L508.008 200.833L437.478 200.354L420.17 200.217L419.144 210.221L417.639 255.444Z" fill="#0160FA"/>
<path opacity="0.3" d="M417.64 255.444C417.435 261.953 422.497 267.366 428.996 267.64L433.648 267.846L437.41 200.422L420.103 200.285L419.076 210.289L417.64 255.444Z" fill="#522C2C"/>
<path d="M419.008 210.221H518.544V142.934C518.544 142.934 519.433 134.301 512.593 131.971C505.683 129.71 473.394 123.475 473.394 123.475C473.394 123.475 468.4 131.766 460.259 131.217C452.118 130.738 448.219 125.804 448.219 125.804C448.219 125.804 432.69 128.202 427.081 129.847C421.471 131.491 420.24 142.729 419.966 152.938C419.624 163.079 419.008 210.221 419.008 210.221Z" fill="#FF2B49"/>
<path d="M447.328 131.764C447.328 131.764 449.038 140.261 461.215 140.261C473.392 140.261 474.281 127.174 474.281 127.174C466.277 93.2562 469.151 77.9762 469.151 77.9762C469.629 68.726 454.716 69.4112 454.1 79.8262C453.553 84.6911 452.937 89.3505 452.39 93.8043C451.706 99.423 451.022 104.63 450.406 109.29C448.559 123.199 447.328 131.764 447.328 131.764Z" fill="#FDAFA2"/>
<path d="M450.336 109.359C453.072 108.674 457.861 106.687 463.539 101.342C463.539 90.8584 463.539 86.2676 463.539 86.2676C463.539 86.2676 457.451 91.4751 452.32 93.8048C451.567 99.5605 450.952 104.699 450.336 109.359Z" fill="#FD8471"/>
<path d="M446.989 98.5324C455.814 101.205 468.949 89.7619 470.249 70.6448C470.249 70.6448 470.796 59.7501 463.408 56.187C456.02 52.624 450.752 57.0093 446.989 64.0668C445.416 67.4928 443.979 71.7411 443.022 76.0579C442.748 77.3597 442.474 78.6616 442.269 79.9635C440.833 88.7341 441.585 96.888 446.989 98.5324Z" fill="#FDAFA2"/>
<path d="M452.733 71.6035L454.375 85.0335L445.687 86.3353L452.733 71.6035Z" fill="#FF2B49"/>
<path d="M459.713 80.4429C458.05 80.4429 456.703 79.3692 456.703 78.0447C456.703 76.7202 458.05 75.6465 459.713 75.6465C461.375 75.6465 462.723 76.7202 462.723 78.0447C462.723 79.3692 461.375 80.4429 459.713 80.4429Z" fill="#FF2B49"/>
<path d="M442.268 79.9628C442.815 80.3739 443.568 80.648 444.388 80.648C446.03 80.648 447.398 79.5516 447.398 78.2498C447.398 76.8794 446.03 75.8516 444.388 75.8516C443.91 75.8516 443.431 75.9201 443.02 76.1256C442.678 77.359 442.473 78.7294 442.268 79.9628Z" fill="#FF2B49"/>
<path d="M448.357 72.6318C447.79 72.6318 447.331 72.1716 447.331 71.604C447.331 71.0363 447.79 70.5762 448.357 70.5762C448.923 70.5762 449.383 71.0363 449.383 71.604C449.383 72.1716 448.923 72.6318 448.357 72.6318Z" fill="#522C2C"/>
<path d="M458.411 73.0419C457.845 73.0419 457.385 72.5818 457.385 72.0141C457.385 71.4465 457.845 70.9863 458.411 70.9863C458.978 70.9863 459.438 71.4465 459.438 72.0141C459.438 72.5818 458.978 73.0419 458.411 73.0419Z" fill="#522C2C"/>
<path d="M434.537 59.9555C434.537 60.2981 434.742 60.6407 435.084 60.7093L446.235 63.8612L470.247 70.6447C470.452 70.0965 470.589 69.6169 470.726 69.0687C472.094 63.1075 468.879 56.9407 463.064 54.748C461.559 54.1999 460.054 53.9258 458.617 53.9258C453.623 53.9258 448.903 56.9407 446.988 61.8741L446.782 62.3538L435.495 59.1333C435.084 58.9963 434.606 59.2703 434.469 59.6815C434.537 59.8185 434.537 59.887 434.537 59.9555Z" fill="#0160FA"/>
<path d="M466.006 81.4699C468.195 83.0459 471.205 82.4977 472.779 80.3736L476.747 74.8235C478.32 72.6308 477.773 69.6159 475.652 68.04C473.463 66.464 470.453 67.0122 468.88 69.1363L464.912 74.6864C463.338 76.8105 463.817 79.8939 466.006 81.4699Z" fill="#FDAFA2"/>
<path d="M455.47 89.146C458.206 89.146 459.574 86.8163 459.916 85.9941C460.053 85.6515 459.916 85.2403 459.574 85.1033C459.232 84.9663 458.822 85.1033 458.685 85.4459C458.138 86.6107 456.838 88.4608 454.102 87.57C453.759 87.433 453.349 87.6385 453.212 88.0497C453.075 88.3923 453.281 88.8034 453.691 88.9404C454.375 89.0089 454.922 89.146 455.47 89.146Z" fill="#522C2C"/>
<path d="M474.899 73.7283C475.172 73.7283 475.446 73.5228 475.583 73.2487C475.925 72.2209 475.856 70.782 474.967 69.6856C474.42 69.069 473.462 68.3838 471.683 68.6578C471.341 68.7264 471.068 69.069 471.068 69.4116C471.136 69.7542 471.478 70.0282 471.82 70.0282C472.778 69.8912 473.462 70.0968 473.872 70.5764C474.351 71.1931 474.42 72.1524 474.215 72.8376C474.078 73.1802 474.283 73.5913 474.625 73.7283C474.762 73.7283 474.83 73.7283 474.899 73.7283Z" fill="#522C2C"/>
<path d="M323.028 194.666C321.113 193.913 321.729 189.664 324.533 185.073C327.338 180.483 332.401 172.945 338.557 176.166C344.646 179.386 334.453 198.229 323.028 194.666Z" fill="#DE011F"/>
<path d="M347.316 190.212C351.968 184.046 350.531 175.207 344.238 170.821L340.817 168.423C340.817 168.423 323.167 157.117 317.558 154.582C311.948 152.047 308.528 150.471 300.729 152.047C292.999 153.554 290.673 158.008 292.315 163.147C293.957 168.286 299.087 175.275 300.729 175.412C302.371 175.549 303.808 175.138 302.987 171.438C307.433 175.481 318.926 185.142 327.614 192.474C333.634 197.476 342.596 196.448 347.316 190.212Z" fill="#FDAFA2"/>
<path d="M320.634 171.712C321.113 171.712 321.592 171.644 322.071 171.644C322.413 171.575 322.687 171.233 322.618 170.89C322.55 170.547 322.208 170.273 321.866 170.342C318.582 170.822 313.041 169.177 311.331 164.792L311.194 164.381L310.783 164.312C310.715 164.312 303.806 163.284 302.301 158.899C303.464 158.008 312.289 157.803 320.292 159.79C320.634 159.858 321.045 159.653 321.113 159.31C321.182 158.968 320.977 158.556 320.634 158.488C313.315 156.706 302.711 156.227 301.138 158.145C300.864 158.488 300.796 158.968 301.001 159.379C302.574 163.901 308.594 165.271 310.168 165.614C312.083 169.999 317.077 171.712 320.634 171.712Z" fill="#522C2C"/>
<path d="M304.627 172.465C304.832 172.465 305.106 172.396 305.311 172.328C305.927 172.122 306.405 171.642 306.611 171.026C307.432 168.696 305.037 164.448 304.764 163.968C304.558 163.625 304.148 163.557 303.806 163.694C303.464 163.9 303.395 164.311 303.532 164.653C304.49 166.229 305.721 169.313 305.311 170.615C305.242 170.889 305.037 171.026 304.832 171.094C304.49 171.231 304.011 171.026 303.737 170.82C301.206 169.107 298.196 162.872 298.128 161.022C298.128 160.611 297.786 160.337 297.444 160.405C297.033 160.405 296.76 160.748 296.828 161.09C296.965 163.283 300.112 169.998 303.053 171.985C303.532 172.259 304.08 172.465 304.627 172.465Z" fill="#522C2C"/>
<path d="M323.029 194.665L357.029 222.484C363.802 228.034 373.653 227.692 380.015 221.73C388.155 214.125 387.198 200.9 378.099 194.528L340.748 168.49C340.748 168.49 330.828 195.967 323.029 194.665Z" fill="#FF2B49"/>
<path d="M428.038 176.85L380.288 221.456C373.789 227.554 363.801 227.897 356.892 222.21C348.614 215.495 348.067 203.024 355.729 195.556L415.861 136.971C421.813 131.626 424.686 130.256 427.08 129.639C433.647 128.269 458.549 152.594 428.038 176.85Z" fill="#FF2B49"/>
<path opacity="0.6" d="M198.25 131.353C198.661 131.49 199.071 131.627 199.482 131.696C202.081 131.97 205.023 129.777 206.528 126.283C208.101 122.514 207.417 118.608 205.023 117.101C204.818 116.964 204.681 116.895 204.475 116.827C201.602 115.593 197.908 117.855 196.198 121.897C194.488 125.94 195.377 130.12 198.25 131.353Z" fill="#FF2B49"/>
<path opacity="0.3" d="M199.483 131.696L278.291 155.953L281.164 148.621L204.956 117.033C207.419 118.541 208.103 122.515 206.461 126.215C205.024 129.778 202.083 131.902 199.483 131.696Z" fill="#FF2B49"/>
<path d="M281.027 148.551L302.371 157.39C302.371 157.39 301.414 160.199 304.766 163.899C298.404 162.255 277.949 155.814 277.949 155.814L281.027 148.551Z" fill="#522C2C"/>
<path d="M277.928 155.839C277.163 155.514 277.236 153.613 278.091 151.592C278.946 149.571 280.259 148.196 281.024 148.521C281.79 148.846 281.717 150.748 280.862 152.768C280.007 154.789 278.693 156.164 277.928 155.839Z" fill="#FF2B49"/>
<path d="M357.437 194.46C357.437 199.393 358.874 204.258 361.678 208.506L382.475 240.094L396.567 261.541L402.861 271.065C409.36 280.932 418.732 287.715 429.13 291.004C438.092 293.882 447.874 294.156 457.11 291.621C462.377 290.182 467.44 287.853 472.228 284.564C477.564 280.863 478.659 273.326 474.554 268.256L469.081 261.472L464.772 256.059L402.519 178.563C390.616 163.763 367.288 166.846 359.558 184.182C358.189 187.402 357.437 190.897 357.437 194.46Z" fill="#0160FA"/>
<path d="M340.748 247.631L336.849 259.69C335.344 264.349 332.06 268.324 327.75 270.653L305.859 282.439C303.054 283.398 303.944 287.578 306.885 287.372L358.808 283.398C366.265 282.85 371.669 276.066 370.506 268.666L367.633 249.892C366.607 242.971 360.587 237.969 353.609 238.106C347.726 238.106 342.527 242.012 340.748 247.631Z" fill="#FDAFA2"/>
<path d="M306.952 293.127C306.952 293.127 364.895 293.538 367.289 293.127C369.684 292.579 371.12 290.249 371.873 287.097C373.72 279.355 371.599 266.953 370.71 264.76C345.809 267.706 343.072 265.719 341.978 264.76C340.815 263.801 335.068 259.689 335.068 259.689C332.195 263.527 328.364 266.884 326.038 267.706C323.644 268.597 313.04 272.845 306.952 276.477C302.027 279.355 297.854 281.821 296.28 284.151C295.87 284.768 295.664 285.316 295.596 285.933C294.912 292.853 306.952 293.127 306.952 293.127Z" fill="#FF2B49"/>
<path d="M339.652 274.284L349.434 291.277H351.897L353.676 290.181L343.209 272.092L339.652 274.284Z" fill="white"/>
<path d="M334.043 277.779L341.911 291.483L346.699 291.346L337.601 275.586L334.043 277.779Z" fill="white"/>
<path d="M328.432 281.275L334.383 291.69L339.172 291.553L331.989 279.082L328.432 281.275Z" fill="white"/>
<path d="M306.95 293.128C306.95 293.128 364.893 293.539 367.288 293.128C369.682 292.58 371.119 290.25 371.871 287.099C350.596 291.415 314.133 290.045 306.403 289.839C299.152 289.565 297.715 287.03 296.21 284.221C295.8 284.837 295.594 285.386 295.526 286.002C294.91 292.854 306.95 293.128 306.95 293.128Z" fill="#522C2C"/>
<path d="M312.768 289.016C313.179 289.016 313.452 288.674 313.452 288.263C312.768 279.972 324.056 274.696 332.333 270.79C336.438 268.871 339.653 267.364 340.884 265.788C341.158 265.514 341.09 265.034 340.816 264.829C340.542 264.555 340.063 264.623 339.858 264.897C338.764 266.199 335.48 267.775 331.718 269.488C323.098 273.531 311.331 279.081 312.084 288.331C312.084 288.742 312.426 289.016 312.768 289.016Z" fill="#522C2C"/>
<path d="M321.59 280.178C321.863 280.178 322.137 280.041 322.205 279.767C322.342 279.425 322.205 279.014 321.863 278.876C318.032 277.232 314.954 271.819 314.954 271.75C314.749 271.408 314.338 271.339 313.996 271.476C313.654 271.682 313.517 272.093 313.723 272.436C313.859 272.641 317.075 278.328 321.316 280.178C321.384 280.178 321.521 280.178 321.59 280.178Z" fill="#522C2C"/>
<path d="M328.431 276.477C328.705 276.477 328.979 276.272 329.047 275.998C329.184 275.655 328.979 275.244 328.637 275.107C323.437 273.257 322.274 269.146 322.274 268.94C322.206 268.597 321.796 268.392 321.454 268.46C321.111 268.529 320.838 268.94 320.975 269.283C321.043 269.488 322.343 274.285 328.226 276.34C328.294 276.477 328.363 276.477 328.431 276.477Z" fill="#522C2C"/>
<path d="M334.933 272.778C335.207 272.778 335.48 272.572 335.617 272.298C335.754 271.955 335.549 271.544 335.207 271.407C331.034 270.105 328.776 266.2 328.776 266.131C328.571 265.789 328.161 265.72 327.819 265.857C327.477 266.063 327.408 266.474 327.545 266.816C327.682 267.022 330.145 271.202 334.796 272.709C334.796 272.778 334.865 272.778 334.933 272.778Z" fill="#522C2C"/>
<path opacity="0.3" d="M429.199 291.004C438.161 293.882 447.943 294.156 457.179 291.621L469.15 261.403L477.086 249.344L468.808 252.016L464.772 255.99L429.199 291.004Z" fill="#522C2C"/>
<path opacity="0.3" d="M382.474 240.095L396.566 261.542V206.246L389.452 228.515L382.474 240.095Z" fill="#522C2C"/>
<path d="M376.454 266.954L406.212 207.342C410.795 198.229 409.564 187.266 403.202 179.317C390.956 164.106 367.082 167.258 359.146 185.073L331.645 247.152L376.454 266.954Z" fill="#0160FA"/>
<path d="M464.571 428.866L465.529 439.144C465.871 442.707 463.682 446.065 460.33 447.23L433.719 456.343C430.914 457.302 431.803 461.482 434.745 461.276L486.668 457.302C494.124 456.754 499.529 449.971 498.366 442.57L495.698 425.098C494.535 417.423 487.967 411.736 480.169 411.736C470.933 411.736 463.682 419.685 464.571 428.866Z" fill="#FDAFA2"/>
<path d="M434.811 467.168C434.811 467.168 492.754 467.579 495.149 467.168C497.543 466.62 498.98 464.29 499.732 461.139C501.579 453.396 499.458 440.994 498.569 438.801C473.668 441.747 470.932 439.76 469.837 438.801C468.674 437.842 462.928 433.73 462.928 433.73C460.055 437.568 456.224 440.925 453.898 441.747C451.503 442.638 440.9 446.886 434.811 450.518C429.886 453.396 425.713 455.862 424.139 458.192C423.729 458.809 423.524 459.357 423.455 459.974C422.771 466.826 434.811 467.168 434.811 467.168Z" fill="#FF2B49"/>
<path d="M467.511 448.257L477.362 465.319L479.757 465.25L481.535 464.222L471.069 446.064L467.511 448.257Z" fill="white"/>
<path d="M461.903 451.82L469.838 465.524L474.559 465.387L465.46 449.559L461.903 451.82Z" fill="white"/>
<path d="M456.291 455.316L462.311 465.662L467.031 465.594L459.848 453.055L456.291 455.316Z" fill="white"/>
<path d="M434.81 467.169C434.81 467.169 492.753 467.58 495.147 467.169C497.541 466.621 498.978 464.291 499.73 461.14C478.455 465.456 441.993 464.086 434.262 463.88C427.011 463.606 425.574 461.071 424.069 458.262C423.659 458.878 423.454 459.427 423.385 460.043C422.77 466.827 434.81 467.169 434.81 467.169Z" fill="#522C2C"/>
<path d="M440.627 462.989C440.627 462.989 440.696 462.989 440.627 462.989C441.038 462.989 441.312 462.646 441.312 462.235C440.627 453.944 451.915 448.668 460.193 444.763C464.297 442.844 467.512 441.337 468.744 439.761C469.017 439.487 468.949 439.007 468.675 438.801C468.402 438.527 467.923 438.596 467.718 438.87C466.623 440.172 463.339 441.748 459.577 443.461C450.957 447.503 439.191 453.054 439.943 462.304C439.943 462.715 440.285 462.989 440.627 462.989Z" fill="#522C2C"/>
<path d="M449.449 454.219C449.723 454.219 449.996 454.082 450.065 453.808C450.202 453.466 450.065 453.055 449.723 452.917C445.892 451.273 442.813 445.86 442.813 445.791C442.608 445.449 442.198 445.38 441.856 445.517C441.514 445.723 441.377 446.134 441.582 446.477C441.719 446.682 444.934 452.369 449.175 454.219C449.312 454.151 449.381 454.219 449.449 454.219Z" fill="#522C2C"/>
<path d="M456.291 450.45C456.564 450.45 456.838 450.244 456.906 449.97C457.043 449.628 456.838 449.217 456.496 449.079C451.297 447.229 450.134 443.118 450.134 442.913C450.065 442.57 449.655 442.365 449.313 442.433C448.971 442.502 448.697 442.913 448.834 443.255C448.902 443.461 450.202 448.257 456.085 450.313C456.154 450.45 456.222 450.45 456.291 450.45Z" fill="#522C2C"/>
<path d="M462.859 446.75C463.133 446.75 463.406 446.545 463.543 446.271C463.68 445.928 463.475 445.517 463.133 445.38C458.96 444.078 456.702 440.172 456.702 440.104C456.497 439.761 456.086 439.693 455.744 439.83C455.402 440.035 455.334 440.447 455.471 440.789C455.608 440.995 458.07 445.174 462.722 446.682C462.722 446.75 462.791 446.75 462.859 446.75Z" fill="#522C2C"/>
<path d="M450.817 431.883L427.626 347.329C425.574 339.792 426.463 331.775 430.089 324.923C443.36 299.913 480.575 304.983 486.732 332.597L508.828 431.883H450.817Z" fill="#0160FA"/>
<path d="M427.491 346.917C433.99 370.625 464.98 376.312 479.414 356.441L528.395 289.36C529.353 287.99 530.242 286.619 530.995 285.249C533.8 280.041 535.168 274.286 535.168 268.599C535.168 264.145 534.347 259.691 532.705 255.511C530.242 249.344 526.001 243.726 520.186 239.615C519.023 238.792 517.792 238.039 516.561 237.353C499.663 228.309 478.114 234.476 468.879 251.948L459.917 268.804L429.954 325.265C426.397 331.98 425.507 339.654 427.491 346.917Z" fill="#0160FA"/>
<path opacity="0.3" d="M506.981 181.168L507.939 200.833L508.418 210.22V210.632L516.559 237.423L526.546 270.313L531.061 285.181C533.866 279.974 535.234 274.218 535.234 268.531C535.234 264.077 534.413 259.623 532.772 255.444L518.611 210.083V198.161L516.011 189.939L506.981 181.168Z" fill="#522C2C"/>
<path d="M531.336 268.873C530.857 271.134 533.32 273.738 540.708 271.339C548.096 268.941 564.856 257.772 558.768 252.154C552.679 246.535 531.404 262.226 531.336 268.873Z" fill="#DE011F"/>
<path d="M536.946 248.318C532.842 249.757 530.789 254.416 532.636 258.39L545.361 286.072C545.361 286.072 547.413 291.417 557.674 293.335C567.936 295.254 576.624 295.871 578.676 293.335C586.954 295.734 594.821 296.145 595.71 293.952C598.104 294.98 599.883 293.472 598.994 291.143C599.609 289.224 598.994 286.072 582.302 277.987C575.803 274.766 572.656 273.807 568.688 265.722C566.362 260.994 563.352 253.114 561.3 247.495C559.932 243.727 555.759 241.74 551.928 243.042L536.946 248.318Z" fill="#FDAFA2"/>
<path d="M566.09 251.88L547.277 186.581C547.277 186.581 544.062 164.654 525.386 140.261C521.213 136.698 517.998 132.861 506.847 130.394C495.696 127.928 490.429 148.963 499.185 161.914C507.942 174.932 531.269 268.805 531.269 268.805C531.269 268.805 532.022 266.612 534.827 265.173C537.631 263.734 566.09 251.88 566.09 251.88Z" fill="#FF2B49"/>
<path d="M577.445 292.513C577.65 292.513 577.787 292.444 577.923 292.307C578.197 292.033 578.129 291.622 577.855 291.348C577.718 291.211 573.819 287.648 565.815 284.633C565.473 284.496 565.062 284.701 564.926 285.044C564.789 285.386 564.994 285.798 565.336 285.935C572.998 288.812 576.897 292.307 576.897 292.376C577.103 292.444 577.308 292.513 577.445 292.513Z" fill="#522C2C"/>
<path d="M594.136 293.267C594.341 293.267 594.614 293.13 594.751 292.925C594.956 292.582 594.82 292.171 594.478 291.965C589.005 288.813 578.88 284.771 578.47 284.565C578.128 284.428 577.717 284.565 577.58 284.976C577.444 285.387 577.58 285.73 577.991 285.867C578.128 285.935 588.458 290.047 593.793 293.13C593.862 293.199 593.999 293.267 594.136 293.267Z" fill="#522C2C"/>
<path d="M597.148 291.212C597.353 291.212 597.49 291.143 597.627 291.006C597.9 290.732 597.832 290.321 597.558 290.047C593.043 285.936 583.124 281.824 582.713 281.619C582.371 281.482 581.961 281.619 581.824 281.962C581.687 282.304 581.824 282.715 582.166 282.852C582.234 282.921 592.291 287.032 596.6 291.006C596.874 291.143 597.011 291.212 597.148 291.212Z" fill="#522C2C"/>
</g>
<defs>
<clipPath id="clip0_366_28048">
<rect width="628" height="488" fill="white" transform="matrix(-1 0 0 1 628 0)"/>
</clipPath>
</defs>
</svg>
