<svg width="16" height="18" viewBox="0 0 16 18" fill="none" xmlns="http://www.w3.org/2000/svg">
<path fill-rule="evenodd" clip-rule="evenodd" d="M4.1238 7.33366C4.1238 5.14753 5.89601 3.37533 8.08213 3.37533C10.2683 3.37533 12.0405 5.14753 12.0405 7.33366C12.0405 9.51979 10.2683 11.292 8.08213 11.292C5.89601 11.292 4.1238 9.51979 4.1238 7.33366ZM8.08213 4.62533C6.58636 4.62533 5.3738 5.83789 5.3738 7.33366C5.3738 8.82943 6.58636 10.042 8.08213 10.042C9.5779 10.042 10.7905 8.82943 10.7905 7.33366C10.7905 5.83789 9.5779 4.62533 8.08213 4.62533Z" fill="black"/>
<path fill-rule="evenodd" clip-rule="evenodd" d="M1.0191 6.38104C1.31438 2.79886 4.30784 0.0419922 7.90216 0.0419922H8.26211C11.8564 0.0419922 14.8499 2.79886 15.1452 6.38104C15.3038 8.30533 14.7094 10.2161 13.4872 11.7108L9.49295 16.5956C8.76378 17.4874 7.40049 17.4874 6.67132 16.5956L2.6771 11.7108C1.45489 10.2161 0.860487 8.30533 1.0191 6.38104ZM7.90216 1.29199C4.95838 1.29199 2.50671 3.54989 2.26488 6.48372C2.13287 8.08526 2.62757 9.67552 3.64479 10.9196L7.63901 15.8044C7.86803 16.0845 8.29623 16.0845 8.52526 15.8044L12.5195 10.9195C13.5367 9.67552 14.0314 8.08526 13.8994 6.48372C13.6576 3.54989 11.2059 1.29199 8.26211 1.29199H7.90216Z" fill="black"/>
</svg>
