<svg width="149" height="38" viewBox="0 0 149 38" fill="none" xmlns="http://www.w3.org/2000/svg">
<g clip-path="url(#clip0_1908_12089)">
<path d="M24.6496 22.2306V35.4524C24.6496 35.8408 24.4087 36.1821 24.0504 36.3174L20.3729 37.6826C20.1673 37.7591 19.9382 37.7591 19.7325 37.6826L16.055 36.3174C15.6908 36.1821 15.4558 35.8349 15.4558 35.4524V22.2306C15.4558 21.8422 15.6967 21.501 16.055 21.3656L19.7325 20.0005C19.9382 19.924 20.1673 19.924 20.3729 20.0005L24.0504 21.3656C24.4087 21.501 24.6496 21.8481 24.6496 22.2306Z" fill="#00244C"/>
<path d="M24.6501 23.8428V25.1256C24.6031 25.1256 24.5561 25.1197 24.515 25.1079L20.0561 24.1135L15.5973 25.1079C15.5503 25.1197 15.5033 25.1256 15.4622 25.1256V23.8428L20.062 22.819L24.6501 23.8428Z" fill="white"/>
<path d="M24.6499 26.7555V28.0265C24.6322 28.0265 24.6205 28.0265 24.6029 28.0265L20.05 27.6911L15.4972 28.0265C15.4796 28.0265 15.4678 28.0265 15.4502 28.0265V26.7555L20.05 26.4142L24.6499 26.7555Z" fill="white"/>
<path d="M24.6499 29.6624V30.9333L20.05 31.2746L15.4502 30.9333V29.6624C15.4678 29.6624 15.4796 29.6624 15.4972 29.6624L20.05 29.9978L24.6029 29.6624C24.6146 29.6624 24.6322 29.6624 24.6499 29.6624Z" fill="white"/>
<path d="M24.6499 32.5632V33.846L20.05 34.8698L15.4502 33.846V32.5632C15.4972 32.5632 15.5442 32.5691 15.5853 32.5809L20.0442 33.5753L24.503 32.5809C24.5559 32.5691 24.6029 32.5632 24.6499 32.5632Z" fill="white"/>
<path d="M39.8946 23.5251L38.749 25.2315C38.5728 25.4963 38.2967 25.6787 37.9853 25.7493L30.1955 27.3792C30.1133 27.3969 30.0311 27.4028 29.9488 27.4028C29.9194 27.4028 29.8901 27.4028 29.8607 27.3969C29.8724 27.4439 29.8783 27.4851 29.8842 27.5322L30.3072 31.3334C30.36 31.7924 30.1427 32.2513 29.7491 32.4985L27.4051 33.9931C27.2112 34.1166 26.9821 34.1814 26.7471 34.1814C26.5709 34.1814 26.4005 34.1461 26.2419 34.0696L22.6643 32.4338C22.2707 32.2572 22.0004 31.8748 21.9593 31.4452L21.084 22.866C21.0429 22.4718 21.1956 22.0834 21.4952 21.8245L21.9476 21.4303C22.1708 21.2361 22.4528 21.1302 22.7524 21.1302C22.7876 21.1302 22.817 21.1302 22.8523 21.1361C22.7935 20.8595 22.8288 20.5594 22.9697 20.2946L23.6277 19.0707C23.8392 18.6706 24.2504 18.4293 24.7028 18.4293H35.7001C36.029 18.4293 36.3345 18.5588 36.5636 18.7883L39.7477 21.9775C40.153 22.3953 40.2177 23.0425 39.8946 23.5251Z" fill="white"/>
<path d="M23.4809 20.583L24.1388 19.3591C24.2504 19.1531 24.4619 19.0237 24.6969 19.0237H35.6942C35.8646 19.0237 36.0232 19.0884 36.1407 19.212L39.3247 22.4012C39.5362 22.6131 39.5715 22.9543 39.4011 23.2015L38.2555 24.9079C38.1616 25.0432 38.0206 25.1433 37.8619 25.1727L30.0781 26.8085C29.8783 26.8497 29.6786 26.7967 29.5258 26.6614L23.616 21.3538C23.3986 21.1597 23.3399 20.8419 23.4809 20.583Z" fill="#FFB800"/>
<path d="M21.8771 22.2835L22.3294 21.8892C22.5703 21.6774 22.9286 21.6774 23.1695 21.8951L29.0911 27.2086C29.2086 27.3145 29.2791 27.4557 29.2967 27.6087L29.7197 31.4099C29.7491 31.6511 29.6316 31.8865 29.4318 32.016L27.0879 33.5106C26.9058 33.6282 26.6825 33.64 26.4828 33.5517L22.9051 31.9159C22.6995 31.8218 22.5585 31.6276 22.5409 31.404L21.6656 22.8248C21.6421 22.6189 21.7243 22.4188 21.8771 22.2835Z" fill="#FFB800"/>
<path d="M23.4809 20.583L24.1388 19.3591C24.2504 19.1531 24.4619 19.0237 24.6969 19.0237H35.6942C35.8646 19.0237 36.0232 19.0884 36.1407 19.212L39.3247 22.4012C39.5362 22.6131 39.5715 22.9543 39.4011 23.2015L38.2555 24.9079C38.1616 25.0432 38.0206 25.1433 37.8619 25.1727L30.0781 26.8085C29.8783 26.8497 29.6786 26.7967 29.5258 26.6614L23.616 21.3538C23.3986 21.1597 23.3399 20.8419 23.4809 20.583Z" fill="url(#paint0_linear_1908_12089)"/>
<path d="M21.8771 22.2835L22.3294 21.8892C22.5703 21.6774 22.9286 21.6774 23.1695 21.8951L29.0911 27.2086C29.2086 27.3145 29.2791 27.4557 29.2967 27.6087L29.7197 31.4099C29.7491 31.6511 29.6316 31.8865 29.4318 32.016L27.0879 33.5106C26.9058 33.6282 26.6825 33.64 26.4828 33.5517L22.9051 31.9159C22.6995 31.8218 22.5585 31.6276 22.5409 31.404L21.6656 22.8248C21.6421 22.6189 21.7243 22.4188 21.8771 22.2835Z" fill="url(#paint1_linear_1908_12089)"/>
<path d="M19.0162 22.8837L18.1409 31.4629C18.0998 31.8924 17.8237 32.269 17.4359 32.4514L13.8583 34.0872C13.6997 34.1578 13.5293 34.199 13.3531 34.199C13.1181 34.199 12.8948 34.1343 12.6951 34.0107L10.3511 32.5161C9.9634 32.269 9.74016 31.81 9.79304 31.3511L10.216 27.5499C10.2219 27.5028 10.2278 27.4557 10.2395 27.4145C10.2101 27.4145 10.1808 27.4204 10.1514 27.4204C10.0691 27.4204 9.98102 27.4086 9.90465 27.3969L2.1149 25.7493C1.80354 25.6846 1.52743 25.5022 1.35119 25.2315L0.205642 23.5251C-0.117463 23.0425 -0.0587167 22.3894 0.358382 21.9775L3.54243 18.7883C3.77154 18.5588 4.07702 18.4293 4.406 18.4293H15.4033C15.8557 18.4293 16.2669 18.6765 16.4784 19.0707L17.1363 20.2946C17.2773 20.5594 17.3126 20.8595 17.2538 21.1361C17.2891 21.1302 17.3184 21.1302 17.3537 21.1302C17.6474 21.1302 17.9353 21.2361 18.1585 21.4303L18.6109 21.8245C18.9046 22.1011 19.0573 22.4894 19.0162 22.8837Z" fill="white"/>
<path d="M16.6194 20.583L15.9614 19.3591C15.8498 19.1531 15.6383 19.0237 15.4033 19.0237H4.40601C4.23565 19.0237 4.07703 19.0884 3.95954 19.212L0.775491 22.4012C0.564004 22.6131 0.528757 22.9543 0.699121 23.2015L1.84467 24.9079C1.93867 25.0432 2.07966 25.1433 2.23827 25.1727L10.0222 26.8026C10.2219 26.8438 10.4216 26.7909 10.5744 26.6555L16.4842 21.3538C16.7016 21.1597 16.7604 20.8419 16.6194 20.583Z" fill="#FFB800"/>
<path d="M18.2231 22.2835L17.7707 21.8892C17.5299 21.6774 17.1715 21.6774 16.9307 21.8951L11.009 27.2086C10.8915 27.3145 10.821 27.4557 10.8034 27.6087L10.3804 31.4099C10.3511 31.6511 10.4686 31.8865 10.6683 32.016L13.0123 33.5106C13.1944 33.6282 13.4176 33.64 13.6174 33.5517L17.195 31.9159C17.4006 31.8218 17.5416 31.6276 17.5592 31.404L18.4346 22.8248C18.4581 22.6189 18.3758 22.4188 18.2231 22.2835Z" fill="#FFB800"/>
<path d="M16.6194 20.583L15.9614 19.3591C15.8498 19.1531 15.6383 19.0237 15.4033 19.0237H4.40601C4.23565 19.0237 4.07703 19.0884 3.95954 19.212L0.775491 22.4012C0.564004 22.6131 0.528757 22.9543 0.699121 23.2015L1.84467 24.9079C1.93867 25.0432 2.07966 25.1433 2.23827 25.1727L10.0222 26.8026C10.2219 26.8438 10.4216 26.7909 10.5744 26.6555L16.4842 21.3538C16.7016 21.1597 16.7604 20.8419 16.6194 20.583Z" fill="url(#paint2_linear_1908_12089)"/>
<path d="M18.2231 22.2835L17.7707 21.8892C17.5299 21.6774 17.1715 21.6774 16.9307 21.8951L11.009 27.2086C10.8915 27.3145 10.821 27.4557 10.8034 27.6087L10.3804 31.4099C10.3511 31.6511 10.4686 31.8865 10.6683 32.016L13.0123 33.5106C13.1944 33.6282 13.4176 33.64 13.6174 33.5517L17.195 31.9159C17.4006 31.8218 17.5416 31.6276 17.5592 31.404L18.4346 22.8248C18.4581 22.6189 18.3758 22.4188 18.2231 22.2835Z" fill="url(#paint3_linear_1908_12089)"/>
<path d="M29.9843 0L23.5398 12.7688H22.2768L20.0503 7.67302L23.4047 0H29.9843Z" fill="url(#paint4_linear_1908_12089)"/>
<path d="M20.0502 7.67302L17.8237 12.7688H16.5607L10.1162 0H16.6958L20.0502 7.67302Z" fill="url(#paint5_linear_1908_12089)"/>
<path d="M23.4046 0L20.0502 7.67302L16.6958 0H23.4046Z" fill="url(#paint6_linear_1908_12089)"/>
<path d="M24.6498 13.5043V17.535C24.6498 17.9233 24.409 18.2646 24.0506 18.4L20.3731 19.7651C20.1675 19.8416 19.9384 19.8416 19.7328 19.7651L16.0553 18.4C15.691 18.2646 15.4561 17.9233 15.4561 17.535V13.5043C15.4561 13.1159 15.6969 12.7746 16.0553 12.6393L19.7328 11.2742C19.9384 11.1977 20.1675 11.1977 20.3731 11.2742L21.0546 11.5272L21.5245 11.7037L23.9919 12.6217L24.0448 12.6393C24.1681 12.6864 24.2739 12.757 24.3679 12.8394C24.5441 13.01 24.6498 13.2454 24.6498 13.5043Z" fill="#00244C"/>
<path d="M23.9918 12.6158L23.8273 12.7511C23.6804 12.8747 23.4748 12.91 23.2927 12.8453L21.9063 12.3333C21.7242 12.2686 21.5949 12.1097 21.5597 11.9156L21.5244 11.7037L23.9918 12.6158Z" fill="#FFB800"/>
<path d="M16.1082 12.6158L16.2726 12.7511C16.4195 12.8747 16.6251 12.91 16.8072 12.8453L18.1936 12.3333C18.3758 12.2686 18.505 12.1097 18.5402 11.9156L18.5755 11.7037L16.1082 12.6158Z" fill="#FFB800"/>
</g>
<g clip-path="url(#clip1_1908_12089)">
<path d="M51.9686 33.4169H45.2114V18.3906C45.2114 17.1391 46.2386 16.1188 47.4986 16.1188H51.9686C55.9009 16.1188 59.0949 19.2914 59.0949 23.1975V26.3462C59.0949 30.2443 55.9009 33.4169 51.9686 33.4169ZM48.4215 30.2283H51.9686C54.1273 30.2283 55.8848 28.4826 55.8848 26.3382V23.1975C55.8848 21.0531 54.1273 19.3074 51.9686 19.3074H48.4215V30.2283Z" fill="#00244C"/>
<path d="M63.5006 33.4169H60.2905V26.3302C60.2905 23.0699 62.9549 20.4233 66.2371 20.4233H67.5693V23.6119H66.2371C64.7284 23.6119 63.5006 24.8316 63.5006 26.3302V33.4169Z" fill="#00244C"/>
<path d="M101.299 33.4169H98.0889V26.3302C98.0889 23.0699 100.753 20.4233 104.035 20.4233H105.368V23.6119H104.035C102.527 23.6119 101.299 24.8316 101.299 26.3302V33.4169Z" fill="#00244C"/>
<path d="M71.8468 20.4233H68.6367V33.4169H71.8468V20.4233Z" fill="#00244C"/>
<path d="M84.2695 20.4233L79.7273 32.2052C79.4785 32.8589 78.8605 33.2813 78.1543 33.2813C77.4481 33.2813 76.8302 32.8589 76.5814 32.2052L73.267 23.6119C72.6732 22.0734 73.8208 20.4233 75.474 20.4233L78.1463 27.3665L80.2409 21.93C80.594 21.0212 81.4687 20.4233 82.4478 20.4233H84.2695Z" fill="#00244C"/>
<path d="M115.768 33.4169H107.422V18.3906C107.422 17.1391 108.449 16.1188 109.717 16.1188H115.439C118.159 16.1188 120.374 18.3189 120.374 21.0212C120.374 22.1691 119.973 23.2214 119.315 24.0584C120.439 25.0389 121.153 26.4737 121.153 28.076C121.145 31.0175 118.737 33.4169 115.768 33.4169ZM110.632 30.2283H115.768C116.964 30.2283 117.935 29.2638 117.935 28.076C117.935 26.8883 116.964 25.9237 115.768 25.9237H110.632V30.2283ZM110.632 22.7351H115.431C116.386 22.7351 117.156 21.9698 117.156 21.0212C117.156 20.0726 116.386 19.3074 115.439 19.3074H110.64V22.7351H110.632Z" fill="#FFB800"/>
<path d="M96.8449 27.9165C96.8931 27.5897 96.9252 27.2629 96.9252 26.9201C96.9252 26.5773 96.9011 26.2505 96.8449 25.9237C96.3634 22.8148 93.6429 20.4233 90.3847 20.4233C86.7814 20.4233 83.8442 23.3409 83.8442 26.9201C83.8442 30.4993 86.7814 33.4169 90.3847 33.4169C93.0169 33.4169 95.2961 31.8624 96.3313 29.6224H92.3027C91.757 30.0051 91.0989 30.2283 90.3847 30.2283C88.9001 30.2283 87.6321 29.2557 87.2068 27.9165H96.8449ZM87.1987 25.9237C87.6241 24.5845 88.884 23.6119 90.3767 23.6119C91.8613 23.6119 93.1293 24.5845 93.5546 25.9237H87.1987Z" fill="#00244C"/>
<path d="M135.069 27.9165C135.117 27.5897 135.149 27.2629 135.149 26.9201C135.149 26.5773 135.125 26.2505 135.069 25.9237C134.587 22.8148 131.867 20.4233 128.608 20.4233C125.005 20.4233 122.068 23.3409 122.068 26.9201C122.068 30.4993 125.005 33.4169 128.608 33.4169C131.241 33.4169 133.52 31.8624 134.555 29.6224H130.518C129.973 30.0051 129.315 30.2283 128.6 30.2283C127.116 30.2283 125.848 29.2557 125.422 27.9165H135.069ZM125.43 25.9237C125.856 24.5845 127.116 23.6119 128.608 23.6119C130.101 23.6119 131.361 24.5845 131.786 25.9237H125.43Z" fill="#FFB800"/>
<path d="M148.92 27.9165C148.968 27.5897 149 27.2629 149 26.9201C149 26.5773 148.976 26.2505 148.92 25.9237C148.439 22.8148 145.718 20.4233 142.46 20.4233C138.857 20.4233 135.919 23.3409 135.919 26.9201C135.919 30.4993 138.857 33.4169 142.46 33.4169C145.092 33.4169 147.371 31.8624 148.406 29.6224H144.378C143.832 30.0051 143.174 30.2283 142.46 30.2283C140.975 30.2283 139.707 29.2557 139.282 27.9165H148.92ZM139.282 25.9237C139.707 24.5845 140.967 23.6119 142.46 23.6119C143.953 23.6119 145.213 24.5845 145.638 25.9237H139.282Z" fill="#FFB800"/>
<path d="M68.6367 19.4508H71.8468V16.2622H71.277C69.8164 16.2622 68.6367 17.434 68.6367 18.8848V19.4508Z" fill="#00244C"/>
</g>
<defs>
<linearGradient id="paint0_linear_1908_12089" x1="49.9989" y1="35.9179" x2="29.5454" y2="20.4921" gradientUnits="userSpaceOnUse">
<stop stop-color="white"/>
<stop offset="1" stop-color="white" stop-opacity="0"/>
</linearGradient>
<linearGradient id="paint1_linear_1908_12089" x1="31.7255" y1="48.1547" x2="23.7325" y2="22.568" gradientUnits="userSpaceOnUse">
<stop stop-color="white"/>
<stop offset="1" stop-color="white" stop-opacity="0"/>
</linearGradient>
<linearGradient id="paint2_linear_1908_12089" x1="-9.89908" y1="35.9179" x2="10.5544" y2="20.4921" gradientUnits="userSpaceOnUse">
<stop stop-color="white"/>
<stop offset="1" stop-color="white" stop-opacity="0"/>
</linearGradient>
<linearGradient id="paint3_linear_1908_12089" x1="8.37427" y1="48.1547" x2="16.3673" y2="22.568" gradientUnits="userSpaceOnUse">
<stop stop-color="white"/>
<stop offset="1" stop-color="white" stop-opacity="0"/>
</linearGradient>
<linearGradient id="paint4_linear_1908_12089" x1="25.0159" y1="0" x2="25.0159" y2="12.7693" gradientUnits="userSpaceOnUse">
<stop stop-color="#F7B000" stop-opacity="0"/>
<stop offset="1" stop-color="#F7B000" stop-opacity="0.7"/>
</linearGradient>
<linearGradient id="paint5_linear_1908_12089" x1="15.0842" y1="0" x2="15.0842" y2="12.7693" gradientUnits="userSpaceOnUse">
<stop stop-color="#F7B000" stop-opacity="0"/>
<stop offset="1" stop-color="#F7B000" stop-opacity="0.7"/>
</linearGradient>
<linearGradient id="paint6_linear_1908_12089" x1="20.05" y1="0" x2="20.05" y2="7.67482" gradientUnits="userSpaceOnUse">
<stop stop-color="#F7B000" stop-opacity="0"/>
<stop offset="1" stop-color="#F7B000" stop-opacity="0.7"/>
</linearGradient>
<clipPath id="clip0_1908_12089">
<rect width="40.1002" height="37.7414" fill="white"/>
</clipPath>
<clipPath id="clip1_1908_12089">
<rect width="103.789" height="17.2981" fill="white" transform="translate(45.2114 16.1188)"/>
</clipPath>
</defs>
</svg>
