<svg width="570" height="496" viewBox="0 0 570 496" fill="none" xmlns="http://www.w3.org/2000/svg">
<g clip-path="url(#clip0_528_40909)">
<path d="M353.045 0L566.726 193.848L548.008 367.405L289.355 496L51.2117 433.645L0 156.534L100.076 45.147L353.045 0Z" fill="#FEEBDC"/>
<path d="M248.646 433.645H466.898V360.436H248.646C228.383 360.436 211.951 376.841 211.951 397.071C211.951 417.239 228.383 433.645 248.646 433.645Z" fill="#FFB0A1"/>
<path d="M515.33 45.7637V106.083L491.114 149.75V409.468C491.114 422.79 480.241 433.645 466.898 433.645C453.493 433.645 442.682 422.79 442.682 409.468V360.436H265.078V66.4252C265.078 55.0151 274.344 45.8254 285.711 45.8254H515.33V45.7637Z" fill="white"/>
<path d="M316.907 116.937C313.88 116.937 311.162 115.642 309.123 113.175C306.096 109.536 304.861 103.738 305.911 98.3726C305.973 98.0642 306.282 97.8175 306.652 97.8792C306.961 97.9408 307.208 98.2492 307.147 98.6193C306.158 103.615 307.332 109.043 310.112 112.373C311.965 114.593 314.374 115.704 317.092 115.642C320.058 115.58 325.926 114.47 330.003 107.192C327.965 104.232 326.42 100.593 325.679 97.2624C324.444 91.8349 326.729 86.7158 329.447 84.6804C330.806 83.6936 332.227 83.5086 333.339 84.1254C334.637 84.9271 336.057 87.1475 335.316 93.3768C334.575 99.3594 333.154 103.8 331.424 107.131C333.401 109.783 335.749 111.633 338.096 112.065C340.752 112.558 343.1 111.263 345.2 108.179C345.324 107.932 345.633 107.871 345.88 107.932C346.127 107.994 346.312 108.241 346.312 108.487C346.559 113.175 349.586 114.717 351.007 114.717C352.181 114.717 355.578 113.175 356.443 109.474C356.505 109.166 356.752 108.981 357.061 108.981C357.37 108.981 357.617 109.228 357.679 109.474C357.679 109.474 358.173 112.373 359.841 113.607C360.52 114.1 361.323 114.285 362.25 114.1C363.362 113.915 364.598 113.237 365.833 112.311C365.092 111.325 364.659 110.153 364.412 108.858C363.794 104.849 365.771 100.593 367.439 99.7294C368.057 99.4211 368.675 99.4211 369.107 99.8528L369.169 99.9145C371.64 102.875 371.331 105.897 370.59 107.871C369.972 109.598 368.86 111.201 367.563 112.435C368.551 113.36 370.034 114.162 372.134 114.593C377.323 115.58 381.833 113.113 384.736 110.831C387.454 108.734 389.864 105.897 391.717 102.875C390.234 98.8043 389.308 94.487 389.493 91.2181C389.74 86.8391 391.84 84.3104 393.755 84.4337C394.559 84.4954 397.153 85.1738 396.721 92.1433C396.535 95.5971 395.176 99.4211 393.014 103.06C394.867 107.994 397.586 112.373 399.995 113.545C404.072 115.519 408.89 113.792 411.238 109.536C411.423 109.228 411.794 109.104 412.103 109.289C412.412 109.474 412.535 109.844 412.35 110.153C409.693 115.025 404.134 116.937 399.439 114.655C396.968 113.422 394.188 109.228 392.211 104.355C390.358 107.254 388.01 109.844 385.416 111.88C380.968 115.334 376.273 116.69 371.825 115.889C369.601 115.457 367.81 114.593 366.574 113.36C365.154 114.47 363.671 115.21 362.435 115.457C361.2 115.704 360.088 115.457 359.1 114.717C358.049 113.915 357.37 112.743 356.937 111.695C355.455 114.593 352.551 116.012 350.945 116.012C349.648 116.012 346.127 114.902 345.262 110.214C342.544 113.422 339.764 113.73 337.849 113.36C335.193 112.866 332.783 110.955 330.745 108.364C326.359 115.704 320.181 116.875 317.031 116.937C317.031 116.937 316.969 116.937 316.907 116.937ZM368.242 100.84C368.18 100.84 368.119 100.84 368.057 100.901C366.883 101.518 365.092 105.219 365.709 108.796C365.833 109.659 366.142 110.708 366.821 111.571C367.933 110.461 368.922 109.043 369.478 107.562C370.034 105.835 370.343 103.307 368.242 100.84C368.304 100.84 368.242 100.84 368.242 100.84ZM331.98 85.0505C331.301 85.0505 330.621 85.4206 330.25 85.7289C327.779 87.5175 325.803 92.0816 326.915 97.0157C327.656 100.346 329.015 103.492 330.683 106.02C332.227 102.875 333.525 98.7426 334.142 93.2534C334.884 87.1475 333.401 85.6056 332.783 85.2355C332.536 85.1122 332.227 85.0505 331.98 85.0505ZM393.694 85.6673C392.643 85.6673 390.976 87.6409 390.79 91.3415C390.605 94.1786 391.346 97.9408 392.582 101.518C394.311 98.3726 395.423 95.042 395.609 92.0816C395.856 87.7643 394.806 85.7289 393.694 85.6673C393.755 85.6673 393.694 85.6673 393.694 85.6673Z" fill="#522C2C"/>
<path d="M362.929 178.551C357.925 178.551 355.454 174.049 354.527 171.767C353.168 174.049 349.956 178.551 346.373 178.551C344.026 178.551 342.419 177.935 341.493 176.701C340.628 175.591 340.319 174.111 340.566 172.075C335.748 176.146 327.593 176.331 322.034 172.199C319.192 170.225 316.783 167.511 314.806 164.427C309.123 172.199 301.463 176.269 295.347 177.441C295.038 177.503 294.667 177.256 294.605 176.948C294.544 176.639 294.729 176.269 295.1 176.208C301.092 175.036 308.567 171.027 314.065 163.256C310.791 157.766 308.876 151.352 308.567 146.11C308.32 142.286 308.937 139.449 310.358 138.092C312.458 136.118 316.103 135.07 318.883 136.797C320.922 138.03 323.825 141.607 320.86 151.784C319.563 156.225 317.709 159.987 315.547 163.194C317.524 166.339 319.933 169.177 322.713 171.088C328.273 175.221 337.045 174.542 341.06 169.67C341.246 169.423 341.555 169.362 341.802 169.485C342.049 169.608 342.172 169.917 342.111 170.163C341.431 172.754 341.555 174.604 342.419 175.714C343.161 176.639 344.396 177.071 346.373 177.071C349.647 177.071 353.107 171.767 354.095 169.732C354.219 169.485 354.466 169.362 354.713 169.423C354.96 169.423 355.207 169.608 355.269 169.917C355.33 170.225 357.184 177.379 363.238 177.133C366.574 177.009 368.674 175.097 370.157 172.445C368.303 168.375 368.489 162.454 370.589 159.678C372.504 157.088 373.801 157.273 374.419 157.581C375.778 158.26 375.84 160.974 374.543 164.736L374.296 165.414C373.492 167.881 372.628 170.348 371.516 172.507C372.442 174.296 374.172 176.269 377.261 176.454C385.106 176.886 391.407 165.723 391.469 165.599C391.593 165.353 391.901 165.229 392.149 165.291C392.396 165.353 392.581 165.599 392.643 165.846C392.643 165.969 393.013 176.331 398.573 177.194C398.882 177.256 399.129 177.564 399.067 177.873C399.006 178.181 398.697 178.428 398.388 178.366C393.384 177.626 391.901 171.088 391.531 167.758C389.369 171.027 383.871 177.996 377.199 177.626C374.481 177.503 372.257 176.146 370.774 173.679C369.106 176.331 366.821 178.181 363.238 178.366C363.176 178.551 363.052 178.551 362.929 178.551ZM373.74 158.815C373.369 158.815 372.628 159.247 371.639 160.604C370.157 162.639 369.601 167.326 370.96 171.212C371.825 169.423 372.504 167.326 373.184 165.229L373.431 164.551C374.728 160.727 374.296 159.062 373.863 158.877C373.863 158.815 373.801 158.815 373.74 158.815ZM315.671 137.29C314.126 137.29 312.459 137.907 311.161 139.079C310.049 140.127 309.493 142.656 309.74 146.048C310.049 150.859 311.841 156.903 314.806 162.145C316.783 159.123 318.451 155.608 319.624 151.537C321.601 144.691 321.107 139.757 318.204 137.968C317.524 137.537 316.597 137.29 315.671 137.29Z" fill="#522C2C"/>
<path d="M417.972 178.738C415.377 178.738 413.215 177.998 411.424 176.456C408.149 173.557 406.42 167.945 406.543 160.235C406.543 159.865 406.79 159.618 407.161 159.618C407.532 159.618 407.779 159.927 407.779 160.235C407.717 167.636 409.261 172.879 412.288 175.531C414.203 177.196 416.798 177.813 420.01 177.381C424.952 176.641 428.535 173.31 430.945 169.116C427.979 164.367 426.744 157.83 426.867 153.697C426.991 149.935 429.956 147.036 432.551 146.975C433.416 146.975 436.134 147.283 436.381 151.847C436.628 156.288 435.454 163.319 432.365 169.055C433.91 171.337 436.072 173.31 439.037 173.742C444.72 174.544 445.709 169.61 445.709 169.425C445.771 169.116 446.018 168.931 446.327 168.931C446.635 168.931 446.883 169.116 446.944 169.425C447.315 171.275 448.921 176.086 451.516 176.147C454.604 176.271 456.643 175.469 457.199 171.09C457.261 170.782 457.57 170.535 457.879 170.535C458.187 170.597 458.434 170.905 458.434 171.213C457.817 175.654 455.716 177.504 451.454 177.319C448.612 177.196 447.006 173.68 446.265 171.46C445.338 173.249 443.238 175.531 438.852 174.914C435.825 174.421 433.477 172.632 431.686 170.165C429.091 174.421 425.323 177.813 420.196 178.553C419.393 178.676 418.651 178.738 417.972 178.738ZM432.551 148.208C430.512 148.27 428.103 150.675 428.041 153.697C427.979 156.596 428.659 161.345 430.389 165.477C430.697 166.279 431.13 167.081 431.562 167.883C434.342 162.517 435.331 156.041 435.083 151.97C434.96 149.565 434.033 148.208 432.551 148.208Z" fill="#522C2C"/>
<path d="M393.509 238.44C388.567 238.255 384.737 235.479 382.637 230.607C381.031 231.224 378.869 231.594 375.903 231.409C373.371 231.285 371.27 230.113 369.602 228.386C368.799 229.682 367.749 230.73 366.328 231.347C363.796 232.519 361.386 232.58 359.162 231.655C356.012 230.237 354.097 227.03 353.108 224.994C352.429 226.906 350.761 229.435 346.869 229.435C345.263 229.435 343.966 228.51 343.101 226.845C341.927 228.325 340.383 229.62 338.344 230.36C336.058 231.224 334.02 231.224 332.414 230.422C331.116 229.805 330.375 228.818 329.943 228.078C327.842 230.545 325.31 231.594 322.53 231.224C320.244 230.915 317.958 229.62 315.858 227.585C315.734 227.77 315.611 227.893 315.487 228.078C311.781 232.395 306.715 235.171 302.206 235.171C301.897 235.171 301.588 234.924 301.588 234.554C301.588 234.184 301.835 233.937 302.206 233.937C306.345 233.876 311.04 231.347 314.561 227.276C314.684 227.091 314.87 226.906 315.055 226.721C312.522 223.946 310.236 220.06 308.445 215.434C305.85 208.465 308.074 200.817 311.534 197.178C313.202 195.451 315.055 194.773 316.661 195.266C318.329 195.821 320.491 197.795 321.48 204.271C322.715 212.782 321.047 220.677 316.661 226.598C318.638 228.51 320.738 229.743 322.777 229.99C325.371 230.36 327.719 229.188 329.634 226.536C329.757 226.351 330.004 226.228 330.252 226.289C330.499 226.351 330.684 226.475 330.746 226.721C330.746 226.721 331.302 228.51 333.031 229.373C334.329 229.99 335.997 229.99 337.973 229.25C340.012 228.51 341.556 227.091 342.607 225.549C342.607 225.488 342.545 225.364 342.545 225.303C341.618 222.281 341.742 217.593 343.224 216.606C343.657 216.298 344.213 216.36 344.645 216.73C345.634 217.531 346.004 219.258 345.634 221.417C345.387 222.712 344.892 224.254 344.027 225.673C344.583 226.968 345.448 228.201 346.993 228.201C352.058 228.201 352.491 223.144 352.491 222.897C352.491 222.589 352.738 222.342 353.047 222.342C353.356 222.281 353.603 222.466 353.726 222.774C353.726 222.836 355.641 228.695 359.842 230.545C361.695 231.347 363.734 231.285 365.958 230.237C367.193 229.682 368.12 228.695 368.861 227.4C364.969 222.527 363.61 214.201 363.796 208.28C363.857 205.813 364.29 201.619 366.267 201.619C368.861 201.619 370.591 209.02 370.9 210.5C372.135 216.051 372.382 222.774 370.344 227.215C371.765 228.818 373.68 229.99 376.089 230.113C378.622 230.237 380.722 229.99 382.266 229.373C382.081 228.88 381.896 228.325 381.772 227.77C380.66 223.391 381.031 218.703 382.575 217.778C382.822 217.593 383.564 217.346 384.367 218.087C386.467 220.06 387.826 223.946 386.467 227.03C386.035 228.016 385.232 229.127 383.811 229.99C385.17 233.259 388.011 236.959 393.571 237.083C393.942 237.083 394.189 237.391 394.189 237.7C394.127 238.193 393.818 238.44 393.509 238.44ZM383.193 218.95C382.39 219.382 381.772 223.267 382.884 227.585C383.008 228.016 383.131 228.448 383.317 228.942C384.243 228.386 384.861 227.646 385.293 226.66C386.405 224.069 385.232 220.739 383.502 219.073C383.44 219.012 383.255 218.95 383.193 218.95ZM366.143 202.914C365.896 202.914 365.031 204.209 364.907 208.403C364.784 212.042 365.34 217.593 367.193 222.281C367.687 223.576 368.429 224.994 369.294 226.228C370.838 222.281 370.714 216.298 369.479 210.87C368.367 205.32 366.699 202.914 366.143 202.914ZM315.549 196.253C314.252 196.253 313.078 197.24 312.399 197.918C309.124 201.311 307.209 208.65 309.557 214.941C311.225 219.32 313.387 223.021 315.734 225.673C318.514 221.787 321.727 214.818 320.182 204.394C319.503 199.83 318.082 196.932 316.229 196.377C316.043 196.315 315.796 196.253 315.549 196.253ZM343.78 217.655C343.286 218.148 342.792 221.109 343.41 224.007C343.842 223.021 344.151 222.096 344.336 221.17C344.645 219.567 344.398 218.21 343.78 217.655Z" fill="#522C2C"/>
<path d="M410.805 240.168C410.743 240.168 410.619 240.168 410.558 240.168C402.65 240.106 400.303 232.335 398.759 227.277C398.511 226.475 398.264 225.674 398.017 224.995C397.894 224.687 398.079 224.317 398.388 224.193C398.697 224.07 399.067 224.255 399.191 224.563C399.438 225.242 399.685 226.044 399.932 226.907C401.477 231.965 403.577 238.872 410.558 238.934C422.233 239.057 429.152 229.189 431.808 219.814C432.611 214.264 431.067 210.316 429.214 209.391C428.472 209.021 427.793 209.206 427.113 209.885C426.866 210.131 426.496 210.131 426.249 209.885C426.001 209.638 426.001 209.268 426.249 209.021C427.299 207.911 428.534 207.664 429.77 208.219C432.117 209.329 433.97 213.708 433.044 219.938V219.999C430.326 229.868 423.036 240.168 410.805 240.168Z" fill="#522C2C"/>
<path d="M539.545 70.0016V179.6H491.113V70.0016C491.113 56.6178 501.986 45.8245 515.329 45.8245C528.734 45.7628 539.545 56.6178 539.545 70.0016Z" fill="#FFB0A1"/>
<path d="M503.345 46.38H372.258C371.888 46.38 371.641 46.1333 371.641 45.7632C371.641 45.3932 371.888 45.1465 372.258 45.1465H503.345C503.716 45.1465 503.963 45.3932 503.963 45.7632C503.963 46.1333 503.716 46.38 503.345 46.38Z" fill="#522C2C"/>
<path d="M466.898 434.261V433.028C479.933 433.028 490.497 422.481 490.497 409.467V373.202C490.497 372.832 490.744 372.585 491.114 372.585C491.485 372.585 491.732 372.832 491.732 373.202V409.467C491.732 423.159 480.613 434.261 466.898 434.261Z" fill="#522C2C"/>
<path d="M178.098 64.6993C175.194 64.1442 171.488 65.4394 170.191 66.9813C168.893 68.4615 167.225 68.2765 165.743 67.7831C164.26 67.2897 164.198 68.8316 164.693 69.8184C165.187 70.8052 165.063 71.422 164.013 71.7304C162.963 72.0387 161.727 72.6555 162.592 73.7657C163.519 74.8758 164.507 75.3693 163.457 76.171C162.407 76.9728 161.295 77.5279 161.295 78.6381C161.295 79.7483 164.569 80.9818 168.214 80.4267C171.858 79.8716 177.665 77.2195 179.766 73.1489C181.866 69.0166 181.001 65.2544 178.098 64.6993Z" fill="#522C2C"/>
<path d="M190.639 107.935C190.639 111.327 187.921 114.103 184.461 114.103H177.234C173.527 114.103 170.624 110.772 171.18 107.071L176.06 73.2113C176.369 71.0526 178.469 69.634 180.631 70.1891L184.153 71.1143L187.736 72.0394C189.342 72.4711 190.454 73.8897 190.454 75.555L190.577 93.3177L190.639 107.935Z" fill="#FDAFA2"/>
<path d="M190.514 93.3792C188.537 92.2074 183.718 89.2469 182.359 87.5817C182.792 82.7709 183.718 74.4446 184.089 71.1758L187.672 72.1009C189.278 72.5327 190.39 73.9512 190.39 75.6165L190.514 93.3792Z" fill="#FD8471"/>
<path d="M198.485 58.2844C200.708 64.8837 202.562 81.9064 193.11 83.2632C183.658 84.6201 176.184 72.2849 175.937 70.5579C175.689 68.831 175.381 65.3155 175.937 62.6017C176.493 59.888 181.002 52.4251 186.685 51.4383C192.369 50.4515 196.322 55.3239 198.485 58.2844Z" fill="#FDAFA2"/>
<path d="M191.937 73.0875C193.78 73.0875 195.273 72.0658 195.273 70.8055C195.273 69.5451 193.78 68.5234 191.937 68.5234C190.095 68.5234 188.602 69.5451 188.602 70.8055C188.602 72.0658 190.095 73.0875 191.937 73.0875Z" fill="#FF2B49"/>
<path d="M193.296 80.0554C193.235 80.0554 193.173 80.0554 193.111 80.0554C188.849 79.3153 187.551 75.5531 187.49 75.4297C187.242 74.813 187.613 74.0729 188.231 73.8878C188.849 73.6411 189.59 74.0112 189.775 74.6279C189.837 74.7513 190.702 77.1567 193.482 77.6501C194.161 77.7734 194.594 78.3902 194.47 79.0686C194.47 79.6237 193.914 80.0554 193.296 80.0554Z" fill="#522C2C"/>
<path d="M200.524 68.0908C202.059 68.0908 203.304 66.2407 203.304 63.9585C203.304 61.6763 202.059 59.8262 200.524 59.8262C198.989 59.8262 197.744 61.6763 197.744 63.9585C197.744 66.2407 198.989 68.0908 200.524 68.0908Z" fill="#0043AE"/>
<path d="M198.36 63.4648H196.939V64.4517H198.36V63.4648Z" fill="#0043AE"/>
<path d="M201.017 68.0908C202.314 68.0908 203.365 66.2407 203.365 63.9585C203.365 61.6763 202.314 59.8262 201.017 59.8262C199.721 59.8262 198.67 61.6763 198.67 63.9585C198.67 66.2407 199.721 68.0908 201.017 68.0908Z" fill="#0160FA"/>
<path d="M192.74 69.8183C195.333 69.8183 197.435 67.5264 197.435 64.6992C197.435 61.872 195.333 59.5801 192.74 59.5801C190.147 59.5801 188.045 61.872 188.045 64.6992C188.045 67.5264 190.147 69.8183 192.74 69.8183Z" fill="#0043AE"/>
<path d="M193.729 69.8183C195.742 69.8183 197.373 67.5264 197.373 64.6992C197.373 61.872 195.742 59.5801 193.729 59.5801C191.716 59.5801 190.084 61.872 190.084 64.6992C190.084 67.5264 191.716 69.8183 193.729 69.8183Z" fill="#0160FA"/>
<path d="M188.477 63.959H184.523V65.8093H188.477V63.959Z" fill="#0043AE"/>
<path d="M197.806 64.3906L204.663 73.457L197.064 73.7654L197.806 64.3906Z" fill="#FF2B49"/>
<path d="M198.484 58.2842L190.021 58.901C188.415 59.0243 187.056 60.1962 186.747 61.7998L185.759 66.9189C185.511 68.2758 184.338 69.2009 182.917 69.2009C181.311 69.2009 180.013 67.9057 180.013 66.3021V65.4387C180.013 64.5752 179.457 63.7734 178.654 63.5267L175.998 62.6632C176.183 59.3327 179.396 51.1915 186.685 50.143C193.975 49.0945 197.743 55.4471 198.484 58.2842Z" fill="#FF2B49"/>
<path d="M180.014 65.4389C180.014 64.2053 179.211 62.2934 176.06 62.0467C172.972 61.8616 169.574 66.2407 171.612 70.8047C173.651 75.3687 178.408 75.1837 179.705 73.0867C181.064 71.0514 180.014 65.4389 180.014 65.4389Z" fill="#FDAFA2"/>
<path d="M173.961 69.8176C173.837 69.8176 173.652 69.756 173.528 69.6326C172.663 68.8308 172.293 67.7207 172.602 66.6105C172.911 65.377 173.961 64.3901 175.135 64.1434C176.123 63.9584 176.988 64.2668 177.667 65.1303C177.853 65.377 177.853 65.8087 177.606 65.9937C177.358 66.1788 176.926 66.1788 176.741 65.932C176.37 65.5003 175.938 65.3153 175.443 65.377C174.764 65.5003 174.084 66.1788 173.837 66.9805C173.714 67.474 173.714 68.1524 174.393 68.7692C174.64 69.0159 174.64 69.3859 174.455 69.6326C174.27 69.756 174.146 69.8176 173.961 69.8176Z" fill="#522C2C"/>
<path d="M382.697 370.613C384.056 373.697 386.342 376.102 373.431 385.107C363.794 391.83 350.759 394.605 340.381 395.592C336.86 395.962 333.648 396.085 331.053 396.085C322.281 396.147 311.47 396.579 304.304 398.059C302.945 398.367 301.71 398.676 300.598 399.046C293.926 401.328 290.034 396.702 288.737 392.076C287.378 387.451 288.305 368.639 288.181 366.296C287.872 361.547 290.528 357.106 294.729 353.652C303.995 346.004 320.798 343.229 328.953 352.788C335.13 360.128 336.736 363.52 343.779 365.124C348.906 366.296 356.072 367.036 361.817 367.344C363.917 367.467 365.832 367.467 367.377 367.467C373.122 367.344 381.338 367.529 382.697 370.613Z" fill="white"/>
<path d="M382.697 370.613C384.056 373.696 386.342 376.102 373.431 385.107C363.794 391.829 350.759 394.605 340.381 395.591C341.493 386.032 350.821 373.018 361.755 367.344C363.855 367.467 365.77 367.467 367.315 367.467C373.122 367.344 381.338 367.529 382.697 370.613Z" fill="#0160FA"/>
<path d="M315.733 376.349C315.856 381.9 305.046 389.548 304.304 398.121C302.945 398.429 301.71 398.737 300.598 399.108C293.926 401.39 290.034 396.764 288.737 392.138C287.378 387.512 288.305 368.701 288.181 366.357C287.872 361.608 290.528 357.168 294.729 353.714C296.335 355.502 298.436 357.476 301.277 359.265C310.914 365.432 315.609 370.798 315.733 376.349Z" fill="#0160FA"/>
<path d="M377.26 372.463C373.43 376.225 366.82 377.459 361.631 377.829C356.936 378.137 352.797 383.75 351.624 387.697C351.5 388.129 351.068 388.314 350.635 388.19C350.203 388.067 350.018 387.635 350.141 387.204C351.377 383.01 355.824 376.657 361.508 376.225C367.129 375.794 374.419 374.375 377.446 369.688C377.693 369.318 378.125 369.256 378.496 369.441C378.867 369.688 378.928 370.119 378.743 370.489C378.372 371.353 377.878 371.908 377.26 372.463Z" fill="#522C2C"/>
<path d="M305.788 388.191C305.664 388.314 305.541 388.376 305.417 388.376C299.24 389.61 292.074 386.341 289.726 384.675C289.356 384.429 289.294 383.935 289.541 383.627C289.788 383.257 290.282 383.195 290.591 383.442C292.444 384.799 299.363 388.068 305.108 386.896C305.541 386.834 305.911 387.081 306.035 387.513C306.035 387.759 305.973 388.006 305.788 388.191Z" fill="#522C2C"/>
<path d="M333.647 369.873C333.4 370.058 333.091 370.12 332.844 369.935C332.597 369.75 332.535 369.318 332.782 369.071C334.265 367.282 334.821 364.815 334.636 363.397C334.574 363.089 334.821 362.78 335.192 362.718C335.5 362.657 335.871 362.903 335.871 363.274C336.056 364.877 335.377 367.714 333.647 369.873C333.647 369.811 333.647 369.873 333.647 369.873Z" fill="#522C2C"/>
<path d="M338.652 371.97C338.405 372.216 338.034 372.216 337.787 371.97C337.54 371.723 337.54 371.353 337.787 371.106C339.702 369.194 339.702 365.555 339.702 365.494C339.702 365.124 339.949 364.877 340.32 364.877C340.69 364.877 340.937 365.124 340.937 365.494C340.937 365.617 340.937 369.688 338.652 371.97Z" fill="#522C2C"/>
<path d="M344.149 373.512C343.964 373.697 343.593 373.758 343.346 373.573C343.099 373.388 342.975 373.018 343.223 372.71C344.643 370.736 344.891 366.481 344.891 366.419C344.891 366.049 345.199 365.802 345.57 365.864C345.941 365.864 346.188 366.172 346.126 366.542C346.126 366.727 345.817 371.23 344.211 373.45C344.211 373.45 344.211 373.45 344.149 373.512Z" fill="#522C2C"/>
<path d="M383.438 375.67C364.535 389.979 349.215 391.459 343.346 392.076C337.416 392.693 315.177 393.556 308.134 393.926C301.03 394.296 291.702 397.318 291.702 397.318L288.799 408.543C298.683 411.936 309.246 409.654 319.13 406.138C329.014 402.622 345.323 399.539 352.983 397.133C360.582 394.79 380.967 389.054 383.438 375.67Z" fill="#522C2C"/>
<path d="M337.231 359.202C301.895 379.678 289.231 377.889 278.668 377.889C282.621 370.982 272.305 358.03 274.467 352.294C276.567 346.558 273.54 343.844 270.266 340.822C266.931 337.8 273.293 320.654 264.521 315.535C262.792 314.486 261.371 312.204 259.888 308.442C256.861 300.856 253.587 287.41 246.73 266.564C243.518 256.819 243.579 248.431 245.68 241.708C250.313 226.968 264.768 220.183 276.259 223.946C284.228 226.536 288.799 230.298 291.826 235.109C295.162 240.413 296.706 247.012 298.93 254.907C298.93 254.907 299.239 255.956 299.857 257.744C302.081 264.96 308.011 284.08 310.42 293.763C313.447 305.79 320.984 309.737 321.91 320.284C322.837 330.83 327.038 332.619 330.065 337.183C333.03 341.747 331.486 350.444 337.231 359.202Z" fill="#FF2B49"/>
<path d="M128.369 193.848C128.802 196.253 137.45 199.275 166.176 196.685C194.901 194.095 193.851 189.839 190.577 183.856C187.303 177.812 147.828 179.231 140.106 181.636C132.385 184.041 128.554 186.632 128.369 193.848Z" fill="#0043AE"/>
<path d="M299.795 257.807L277.494 262.001C277.494 262.001 273.17 292.408 259.888 308.443C256.861 300.857 253.587 287.412 246.73 266.565C243.518 256.82 243.579 248.432 245.68 241.71L291.888 235.11C295.224 240.415 296.768 247.014 298.992 254.908C298.93 254.97 299.239 256.019 299.795 257.807Z" fill="#DE011F"/>
<path d="M207.441 188.052C211.642 204.026 260.877 219.383 272.305 222.405C283.796 225.427 290.097 240.476 279.842 257.376C269.587 274.275 251.796 263.728 231.843 258.856C211.889 253.983 147.334 235.049 153.079 180.219C157.651 151.724 200.214 153.081 207.441 188.052Z" fill="#FF2B49"/>
<path d="M392.334 238.255L137.264 280.688C135.72 280.935 134.237 279.886 133.99 278.344L127.936 242.14C127.689 240.598 128.739 239.118 130.284 238.872L385.354 196.438C386.898 196.192 388.381 197.24 388.628 198.782L394.682 234.986C394.929 236.528 393.879 238.008 392.334 238.255Z" fill="#522C2C"/>
<path d="M126.454 282.476L110.392 285.128C98.84 287.04 87.9058 279.269 85.9907 267.736C84.0757 256.202 91.8594 245.286 103.411 243.374L119.473 240.722C121.017 240.475 122.5 241.523 122.747 243.065L128.801 279.269C128.986 280.749 127.998 282.23 126.454 282.476Z" fill="#0160FA"/>
<path d="M133.623 234.436L113.941 237.711L122.188 287.111L141.87 283.836L133.623 234.436Z" fill="white"/>
<path d="M429.894 210.625L419.454 218.458L393.447 237.824C386.466 232.458 380.597 210.686 386.837 196.562L417.045 206.431L429.894 210.625Z" fill="#FEEBDC"/>
<path d="M429.893 210.624L419.453 218.457C417.724 214.139 417.168 208.958 416.982 206.43L429.893 210.624Z" fill="#522C2C"/>
<path d="M92.6011 271.807C92.6011 271.807 92.6011 271.869 92.6011 271.807C92.1069 279.208 85.744 289.632 51.5205 299.13C51.5205 299.13 56.339 289.323 62.5783 286.486C61.9606 286.671 36.3856 294.257 17.9148 290.063C17.9148 290.063 31.7525 280.01 48.8642 276.186C47.7522 276.309 18.1619 280.318 0 275.199C0 275.199 18.5326 266.01 39.6597 263.542C39.6597 263.542 24.7719 261.692 18.1001 256.511C18.1001 256.511 75.6129 240.352 89.8212 260.705C90.5625 261.816 91.242 263.049 91.7362 264.406C91.9833 266.195 92.7864 268.785 92.6011 271.807Z" fill="#FF2B49"/>
<path d="M92.6013 271.807C92.6013 271.807 92.6013 271.868 92.6013 271.807C85.6207 281.243 70.8564 285.869 70.8564 285.869C71.6595 282.477 76.2926 276.247 76.2926 276.247C67.2116 280.873 50.0999 281.243 50.0999 281.243C52.0767 278.653 67.3352 271.251 67.7676 271.005C57.3276 273.595 37.8066 271.005 37.8066 271.005C44.849 265.947 63.9993 264.405 63.9993 264.405C57.1423 263.234 51.7061 259.348 51.7061 259.348C71.4124 255.154 89.8214 260.767 89.8214 260.767C90.5627 261.877 91.2422 263.11 91.7364 264.467C91.9835 266.194 92.7866 268.784 92.6013 271.807Z" fill="white"/>
<path d="M147.89 167.944C140.724 185.337 136.647 201.311 144.06 219.999C151.473 238.686 188.538 253.365 219.92 262.617C251.302 271.868 259.765 260.582 263.595 254.599C267.425 248.616 271.626 236.096 261.186 230.299C250.746 224.501 212.075 206.183 207.442 188.112C202.809 170.041 200.399 154.683 179.458 151.785C158.578 148.886 148.817 165.662 147.89 167.944Z" fill="#FF2B49"/>
<path d="M247.162 423.531C245.988 426.676 245.988 430.007 230.421 427.416C218.807 425.504 207.564 418.412 199.41 411.874C196.63 409.654 194.283 407.557 192.368 405.706C186.066 399.662 178.036 392.384 171.858 388.437C170.684 387.697 169.572 387.018 168.522 386.587C162.159 383.565 162.654 377.52 164.878 373.326C167.163 369.132 181.001 356.304 182.545 354.515C185.634 350.938 190.7 349.581 196.074 350.074C208.058 351.123 222.02 360.806 221.155 373.388C220.413 382.948 219.178 386.463 223.132 392.508C225.973 396.948 230.545 402.499 234.498 406.631C235.919 408.173 237.278 409.53 238.39 410.579C242.653 414.526 248.336 420.385 247.162 423.531Z" fill="white"/>
<path d="M247.162 423.53C245.989 426.676 245.989 430.006 230.421 427.416C218.808 425.504 207.564 418.411 199.41 411.874C206.885 405.829 222.699 402.992 234.499 406.569C235.919 408.111 237.278 409.468 238.39 410.517C242.653 414.526 248.336 420.385 247.162 423.53Z" fill="#0160FA"/>
<path d="M195.208 380.912C191.44 384.983 178.282 382.886 171.796 388.499C170.622 387.758 169.51 387.08 168.46 386.648C162.097 383.626 162.591 377.582 164.815 373.388C167.101 369.194 180.938 356.365 182.483 354.577C185.572 350.999 190.637 349.642 196.012 350.136C195.888 352.541 196.073 355.378 196.815 358.647C199.471 369.749 198.977 376.842 195.208 380.912Z" fill="#0160FA"/>
<path d="M241.972 421.064C236.598 421.064 231.038 417.363 227.023 414.033C223.378 410.949 216.521 412.121 212.938 414.095C212.567 414.28 212.073 414.156 211.888 413.786C211.703 413.416 211.826 412.923 212.197 412.738C216.027 410.579 223.687 409.16 228.011 412.799C232.274 416.438 238.575 420.509 243.949 419.275C244.382 419.214 244.752 419.46 244.876 419.83C244.999 420.262 244.691 420.632 244.32 420.756C243.517 421.002 242.776 421.064 241.972 421.064Z" fill="#522C2C"/>
<path d="M179.827 382.455C179.703 382.455 179.518 382.393 179.394 382.331C174.143 378.939 171.24 371.538 170.746 368.701C170.684 368.269 170.931 367.899 171.363 367.838C171.796 367.776 172.167 368.023 172.228 368.454C172.599 370.675 175.255 377.829 180.197 381.036C180.568 381.283 180.63 381.715 180.444 382.085C180.321 382.331 180.074 382.455 179.827 382.455Z" fill="#522C2C"/>
<path d="M212.569 388.746C212.26 388.746 212.013 388.499 211.951 388.191C211.889 387.882 212.136 387.574 212.507 387.512C214.793 387.266 216.955 385.909 217.82 384.737C218.005 384.49 218.437 384.428 218.684 384.613C218.931 384.798 218.993 385.23 218.808 385.477C217.758 386.834 215.349 388.437 212.63 388.746C212.63 388.746 212.63 388.746 212.569 388.746Z" fill="#522C2C"/>
<path d="M214.731 393.742C214.36 393.742 214.113 393.495 214.113 393.125C214.113 392.755 214.36 392.508 214.731 392.508C217.449 392.508 219.982 389.856 220.044 389.856C220.291 389.609 220.661 389.609 220.909 389.856C221.156 390.103 221.156 390.473 220.909 390.719C220.785 390.781 217.943 393.742 214.731 393.742Z" fill="#522C2C"/>
<path d="M217.573 398.675C217.264 398.675 217.017 398.49 216.955 398.182C216.893 397.873 217.14 397.503 217.449 397.442C219.796 397.01 223.009 394.173 223.009 394.111C223.256 393.864 223.627 393.926 223.874 394.173C224.121 394.42 224.059 394.79 223.812 395.036C223.688 395.16 220.352 398.182 217.634 398.675C217.634 398.675 217.634 398.675 217.573 398.675Z" fill="#522C2C"/>
<path d="M244.135 427.663C220.537 424.703 208.615 415.081 203.981 411.381C199.286 407.742 182.792 392.816 177.48 388.129C172.167 383.442 163.395 379.062 163.395 379.062L153.449 385.107C158.144 394.42 167.349 400.156 176.862 404.535C186.375 408.914 200.275 418.104 207.317 421.742C214.421 425.381 233.016 435.496 244.135 427.663Z" fill="#522C2C"/>
<path d="M219.919 262.556C214.915 266.997 216.769 275.015 214.359 278.838C211.888 282.662 202.251 292.469 201.819 296.539C201.386 300.548 203.61 308.196 199.224 311.835C194.777 315.474 189.155 320.655 188.784 324.294C188.414 327.933 188.97 332.127 185.14 334.162C181.31 336.197 178.715 339.404 177.912 341.995C177.109 344.585 173.032 355.44 167.904 356.674C174.082 364.322 188.352 373.326 195.58 374.93C202.807 376.534 222.143 383.565 222.143 383.565C222.143 383.565 223.749 375.3 228.382 370.736C233.015 366.172 234.004 361.916 234.004 355.872C234.004 349.828 242.282 344.647 243.888 337.184C245.494 329.721 245.494 324.355 250.745 315.474C255.996 306.654 269.463 287.35 274.096 268.477C278.729 249.604 276.073 241.339 264.212 232.52C252.351 223.7 232.459 237.639 219.919 262.556Z" fill="#FF2B49"/>
<path d="M148.075 133.406C155.117 118.358 165.496 103.987 176.059 102.692C186.623 101.397 192.368 106.392 195.704 111.45C199.039 116.446 207.873 163.073 207.503 188.113C199.039 187.003 171.055 185.215 148.94 184.906C141.465 184.721 128.739 186.51 128.43 193.973C128.43 193.973 127.751 188.422 130.654 184.659C133.558 180.835 133.99 179.725 133.249 175.038C132.569 170.289 135.843 166.588 137.573 164.491C139.303 162.394 139.859 158.262 139.797 154.623C139.55 147.284 148.075 133.406 148.075 133.406Z" fill="#0160FA"/>
<path d="M182.361 170.286C183.04 171.705 190.268 169.978 199.534 165.537C208.8 161.097 215.905 154.744 214.113 152.4C212.322 150.057 200.028 154.189 194.839 157.766C189.65 161.343 181.99 166.031 182.361 170.286Z" fill="#0043AE"/>
<path d="M217.634 150.798C218.993 154.19 220.661 158.322 222.267 162.27C226.344 172.385 233.572 180.958 242.776 186.817L284.722 213.276C284.722 213.276 297.015 216.915 297.2 220.369C297.385 223.761 288.428 222.096 288.428 222.096C288.428 222.096 303.131 233.074 302.019 238.748C301.71 241.339 299.918 241.647 299.918 241.647C299.918 241.647 301.154 247.075 296.829 246.889C296.829 246.889 296.212 250.097 291.084 249.295C291.084 249.295 291.27 252.625 285.772 250.22C280.274 247.815 238.761 223.082 230.606 218.765C227.888 217.347 224.305 215.558 220.784 213.831C211.333 209.205 203.611 201.743 198.73 192.429L185.325 167.08C185.325 167.08 177.294 148.578 189.155 141.855C201.016 135.009 211.765 139.82 217.634 150.798Z" fill="#FDAFA2"/>
<path d="M285.957 221.231C285.833 221.231 285.771 221.231 285.648 221.17L278.914 217.222C278.605 217.037 278.544 216.667 278.667 216.359C278.852 216.051 279.223 215.989 279.532 216.112L286.265 220.06C286.574 220.245 286.636 220.615 286.513 220.923C286.327 221.108 286.142 221.231 285.957 221.231Z" fill="#522C2C"/>
<path d="M299.918 242.202C299.671 242.202 299.424 242.078 299.362 241.832C298.188 239.118 292.443 232.889 283.733 228.078C283.424 227.893 283.3 227.523 283.486 227.214C283.671 226.906 284.041 226.783 284.35 226.968C293.308 231.964 299.238 238.501 300.474 241.338C300.597 241.647 300.474 242.017 300.165 242.14C300.103 242.202 299.98 242.202 299.918 242.202Z" fill="#522C2C"/>
<path d="M296.83 247.445C296.583 247.445 296.336 247.259 296.274 247.013C294.236 241.339 280.274 232.951 280.151 232.889C279.842 232.704 279.78 232.334 279.966 232.025C280.151 231.717 280.522 231.655 280.83 231.84C281.448 232.21 295.286 240.537 297.51 246.643C297.633 246.951 297.448 247.321 297.139 247.445C296.954 247.383 296.892 247.445 296.83 247.445Z" fill="#522C2C"/>
<path d="M291.085 249.85C290.838 249.85 290.652 249.727 290.529 249.48C289.231 246.581 284.228 242.387 276.815 238.008C276.506 237.823 276.444 237.453 276.567 237.145C276.753 236.836 277.123 236.775 277.432 236.96C281.942 239.612 289.787 244.731 291.641 248.986C291.764 249.295 291.641 249.665 291.332 249.788C291.208 249.788 291.146 249.85 291.085 249.85Z" fill="#522C2C"/>
<path d="M217.634 150.798C211.209 132.788 203.116 114.717 192.862 107.316C182.607 99.9147 169.943 105.404 168.09 113.545C166.298 121.686 176.121 153.203 182.298 170.287C182.298 170.287 182.051 168.067 191.317 163.379C200.645 158.63 217.634 150.798 217.634 150.798Z" fill="#0160FA"/>
<path d="M182.359 171.212C181.988 171.212 181.618 170.965 181.494 170.595L172.537 143.087C172.351 142.594 172.66 142.101 173.155 141.916C173.649 141.731 174.143 142.039 174.328 142.532L183.286 170.04C183.471 170.533 183.162 171.027 182.668 171.212C182.544 171.15 182.421 171.212 182.359 171.212Z" fill="#522C2C"/>
<path d="M96.8627 377.952H16.5549C13.3426 377.952 10.748 375.361 10.748 372.154C10.748 368.947 13.3426 366.356 16.5549 366.356H96.8627C100.075 366.356 102.67 368.947 102.67 372.154C102.67 375.361 100.075 377.952 96.8627 377.952Z" fill="#522C2C"/>
<path d="M102.67 450.113C105.535 450.113 107.859 447.793 107.859 444.932C107.859 442.071 105.535 439.751 102.67 439.751C99.8037 439.751 97.4805 442.071 97.4805 444.932C97.4805 447.793 99.8037 450.113 102.67 450.113Z" fill="#522C2C"/>
<path d="M51.5206 194.835C56.4336 194.835 60.4163 190.859 60.4163 185.954C60.4163 181.049 56.4336 177.072 51.5206 177.072C46.6077 177.072 42.625 181.049 42.625 185.954C42.625 190.859 46.6077 194.835 51.5206 194.835Z" fill="#522C2C"/>
<path d="M127.936 50.3275C133.531 50.3275 138.067 45.7989 138.067 40.2126C138.067 34.6262 133.531 30.0977 127.936 30.0977C122.341 30.0977 117.805 34.6262 117.805 40.2126C117.805 45.7989 122.341 50.3275 127.936 50.3275Z" fill="#522C2C"/>
<path d="M378.93 28.6176C382.683 28.6176 385.725 25.5801 385.725 21.8332C385.725 18.0863 382.683 15.0488 378.93 15.0488C375.177 15.0488 372.135 18.0863 372.135 21.8332C372.135 25.5801 375.177 28.6176 378.93 28.6176Z" fill="#522C2C"/>
<path d="M343.099 33.1204C344.771 33.1204 346.126 31.7674 346.126 30.0983C346.126 28.4292 344.771 27.0762 343.099 27.0762C341.428 27.0762 340.072 28.4292 340.072 30.0983C340.072 31.7674 341.428 33.1204 343.099 33.1204Z" fill="#522C2C"/>
<path d="M560.239 263.604C565.63 263.604 570 259.241 570 253.859C570 248.477 565.63 244.114 560.239 244.114C554.848 244.114 550.479 248.477 550.479 253.859C550.479 259.241 554.848 263.604 560.239 263.604Z" fill="#522C2C"/>
<path d="M539.546 379.124C542.548 379.124 544.982 376.694 544.982 373.696C544.982 370.699 542.548 368.269 539.546 368.269C536.543 368.269 534.109 370.699 534.109 373.696C534.109 376.694 536.543 379.124 539.546 379.124Z" fill="#522C2C"/>
<path d="M563.514 321.888C562.897 321.888 562.341 321.394 562.341 320.778C562.341 320.531 560.179 297.402 547.082 297.402C546.959 297.402 546.835 297.402 546.712 297.402C540.349 297.649 536.951 301.596 535.283 304.927C535.036 305.42 534.789 305.975 534.542 306.531C537.445 308.196 539.237 311.341 539.484 315.227C539.669 318.866 538.125 321.395 535.469 321.58C535.407 321.58 535.283 321.58 535.221 321.58C533.986 321.58 532.998 320.963 532.194 319.791C530.527 317.324 530.279 312.451 531.577 307.887C531.206 307.826 530.774 307.764 530.403 307.764C530.341 307.764 530.218 307.764 530.156 307.764C522.743 308.011 522.002 320.284 522.002 320.408L521.94 321.58H459.609C458.929 321.58 458.373 321.024 458.373 320.346C458.373 319.668 458.929 319.112 459.609 319.112H519.592C519.778 317.694 520.148 315.474 520.951 313.13C522.743 308.196 525.893 305.482 529.909 305.359C529.971 305.359 530.094 305.359 530.156 305.359C530.835 305.359 531.515 305.42 532.133 305.605C532.38 304.989 532.627 304.372 532.936 303.817C535.777 298.328 540.534 295.182 546.464 294.997C546.65 294.997 546.773 294.997 546.897 294.997C553.322 294.997 558.387 299.438 561.599 307.826C564.009 314.117 564.565 320.346 564.565 320.593C564.565 320.901 564.503 321.209 564.256 321.456C564.07 321.703 563.762 321.826 563.453 321.888H563.514ZM534.109 318.496C534.418 318.927 534.727 319.174 535.098 319.174H535.16C537.136 318.989 537.013 315.72 536.951 315.35C536.828 313.192 535.777 310.354 533.677 308.874C532.627 313.068 533.059 316.954 534.109 318.496Z" fill="#522C2C"/>
</g>
<defs>
<clipPath id="clip0_528_40909">
<rect width="570" height="496" fill="white"/>
</clipPath>
</defs>
</svg>
