<svg width="551" height="484" viewBox="0 0 551 484" fill="none" xmlns="http://www.w3.org/2000/svg">
<path d="M376.226 16L533.343 223.983L472.93 458.7H53.4752L8.62695 194.465L376.226 16Z" fill="#FEEBDC"/>
<path d="M429.652 65.1641H110.461V458.701H429.652V65.1641Z" fill="white"/>
<path d="M396.605 50.8848H147.731C141.515 50.8848 135.36 52.1092 129.618 54.4883C123.875 56.8673 118.657 60.3543 114.262 64.7501C109.868 69.1459 106.382 74.3643 104.004 80.1075C101.626 85.8506 100.403 92.0059 100.404 98.2218V458.701H114.684V98.2218C114.692 89.4587 118.176 81.0567 124.371 74.8592C130.567 68.6618 138.968 65.1752 147.731 65.1644H181.564C181.918 71.2744 184.598 77.0168 189.054 81.2126C193.51 85.4084 199.402 87.7391 205.523 87.7263H338.854C344.965 87.7264 350.845 85.3916 355.291 81.1995C359.737 77.0074 362.413 71.2749 362.772 65.1746H396.605C405.368 65.1854 413.769 68.672 419.964 74.8694C426.16 81.0668 429.644 89.4689 429.652 98.232V458.701H443.932V98.2218C443.933 92.0059 442.71 85.8506 440.332 80.1075C437.954 74.3643 434.468 69.1459 430.074 64.7501C425.679 60.3543 420.461 56.8673 414.718 54.4883C408.976 52.1092 402.821 50.8848 396.605 50.8848Z" fill="#522C2C"/>
<path d="M299.462 65.1641H244.903C243.574 65.1641 242.496 66.2418 242.496 67.5712V67.5814C242.496 68.9108 243.574 69.9885 244.903 69.9885H299.462C300.791 69.9885 301.869 68.9108 301.869 67.5814V67.5712C301.869 66.2418 300.791 65.1641 299.462 65.1641Z" fill="#FEEBDC"/>
<path d="M97.6211 103.289C107.116 101.527 116.914 102.431 125.926 105.902C134.939 109.373 142.812 115.275 148.672 122.952C154.532 130.628 158.149 139.779 159.121 149.387C160.093 158.996 158.382 168.686 154.179 177.38L160.054 190.895L144.611 191.058C138.885 196.954 131.848 201.415 124.073 204.08C116.298 206.745 108.003 207.537 99.8643 206.393C91.7251 205.249 83.9705 202.201 77.2311 197.496C70.4917 192.792 64.9575 186.563 61.0781 179.317C57.1987 172.071 55.0837 164.012 54.9049 155.795C54.7262 147.578 56.4885 139.434 60.0491 132.027C63.6097 124.619 68.8679 118.155 75.3963 113.162C81.9248 108.169 89.5394 104.786 97.6211 103.289Z" fill="#0160FA"/>
<path d="M96.2646 175.442C95.9606 175.444 95.6593 175.385 95.3783 175.269C95.0973 175.153 94.8422 174.982 94.6278 174.767C94.4133 174.551 94.244 174.295 94.1292 174.014C94.0145 173.733 93.9567 173.431 93.9594 173.127V140.62C93.9516 140.212 94.0524 139.809 94.2515 139.453C94.4506 139.096 94.7409 138.799 95.0927 138.591C95.4444 138.384 95.8452 138.273 96.2536 138.272C96.662 138.27 97.0634 138.376 97.417 138.581L125.813 154.829C126.167 155.031 126.461 155.324 126.666 155.677C126.87 156.03 126.978 156.43 126.978 156.838C126.978 157.246 126.87 157.647 126.666 157.999C126.461 158.352 126.167 158.645 125.813 158.847L97.417 175.106C97.0689 175.317 96.6716 175.433 96.2646 175.442ZM96.2646 140.335C96.2211 140.323 96.1753 140.323 96.1318 140.335C96.0915 140.359 96.0582 140.394 96.035 140.435C96.0117 140.476 95.9995 140.522 95.9994 140.57V173.086C95.9977 173.135 96.0092 173.184 96.0325 173.227C96.0558 173.27 96.09 173.306 96.1318 173.331C96.174 173.354 96.2214 173.366 96.2695 173.366C96.3177 173.366 96.3651 173.354 96.4072 173.331L124.793 157.083C124.838 157.06 124.875 157.025 124.9 156.981C124.925 156.938 124.938 156.888 124.936 156.838C124.938 156.789 124.926 156.741 124.901 156.699C124.875 156.657 124.838 156.624 124.793 156.604L96.4072 140.345C96.3605 140.333 96.3113 140.333 96.2646 140.345V140.335Z" fill="white"/>
<path d="M502.439 161.479C502.441 173.514 499.106 185.315 492.805 195.57C486.504 205.824 477.483 214.131 466.745 219.567C456.007 225.003 443.972 227.356 431.977 226.363C419.983 225.371 408.498 221.073 398.799 213.946L380.909 218.077L384.213 199.116C378.292 190.759 374.425 181.124 372.928 170.992C371.431 160.86 372.345 150.518 375.596 140.806C378.848 131.094 384.345 122.286 391.64 115.097C398.936 107.909 407.825 102.544 417.584 99.437C427.343 96.3301 437.698 95.5695 447.806 97.217C457.915 98.8645 467.492 102.874 475.76 108.919C484.028 114.964 490.753 122.874 495.388 132.007C500.024 141.139 502.439 151.237 502.439 161.479Z" fill="#0160FA"/>
<path d="M437.333 190.406C436.969 190.406 436.609 190.33 436.275 190.185C435.942 190.039 435.642 189.826 435.395 189.559C427.235 180.797 401.215 151.239 410.293 138.662C412.792 135.205 415.913 133.226 419.565 132.808C426.827 131.961 434.13 137.52 436.904 139.947C437.016 140.045 437.159 140.099 437.307 140.099C437.455 140.099 437.599 140.045 437.71 139.947C440.515 137.52 447.828 131.971 455.05 132.808C458.701 133.226 461.822 135.205 464.321 138.662C473.399 151.239 447.4 180.797 439.22 189.559C438.977 189.819 438.686 190.028 438.362 190.173C438.038 190.318 437.688 190.397 437.333 190.406ZM421.095 134.756C420.662 134.754 420.229 134.778 419.799 134.827C418.206 135.053 416.68 135.619 415.325 136.487C413.97 137.354 412.817 138.503 411.945 139.856C405.458 148.862 421.319 171.475 436.884 188.162C436.941 188.225 437.011 188.276 437.089 188.31C437.168 188.345 437.252 188.363 437.338 188.363C437.423 188.363 437.508 188.345 437.586 188.31C437.664 188.276 437.734 188.225 437.792 188.162C453.357 171.505 469.217 148.862 462.73 139.856C461.858 138.503 460.706 137.354 459.35 136.487C457.995 135.619 456.469 135.053 454.876 134.827C448.43 134.083 441.678 139.233 439.067 141.488C438.586 141.901 437.972 142.129 437.338 142.129C436.703 142.129 436.09 141.901 435.609 141.488C433.171 139.386 427.133 134.756 421.095 134.756Z" fill="white"/>
<path d="M458.152 385.342C450.477 385.875 442.804 384.27 435.986 380.706C429.168 377.142 423.472 371.758 419.528 365.152C415.585 358.546 413.549 350.977 413.648 343.284C413.746 335.591 415.975 328.076 420.086 321.573L416.659 310.354L428.899 311.618C433.966 307.47 439.94 304.576 446.336 303.171C452.732 301.767 459.369 301.89 465.708 303.533C472.047 305.176 477.909 308.291 482.817 312.625C487.726 316.959 491.543 322.39 493.958 328.477C496.373 334.564 497.317 341.135 496.715 347.655C496.113 354.176 493.981 360.462 490.492 366.004C487.003 371.545 482.257 376.186 476.637 379.548C471.018 382.91 464.684 384.898 458.152 385.352V385.342Z" fill="#0160FA"/>
<path d="M447.654 356.416C446.485 356.39 445.331 356.137 444.258 355.671C443.832 355.495 443.419 355.287 443.024 355.049C442.648 355.25 442.251 355.407 441.841 355.518C438.475 356.426 435.394 353.825 435.272 353.713C435.169 353.624 435.105 353.499 435.094 353.363C435.082 353.228 435.124 353.094 435.211 352.989C435.301 352.888 435.427 352.826 435.562 352.816C435.698 352.807 435.831 352.85 435.935 352.938C435.935 352.938 438.74 355.304 441.575 354.529C441.741 354.487 441.905 354.436 442.065 354.376C440.26 352.852 438.971 350.807 438.372 348.521C436.516 342.238 438.199 334.242 440.821 330.468C442.289 328.346 443.778 328.673 444.543 329.05C447.817 330.723 450.398 340.27 447.369 348.98C446.761 351.069 445.589 352.95 443.982 354.417L444.645 354.733C445.501 355.157 446.444 355.378 447.399 355.378C448.355 355.378 449.297 355.157 450.153 354.733L450.521 354.509C448.797 353.183 448.266 351.245 449.001 348.807C449.735 346.369 450.653 345.227 451.867 345.094C453.692 344.901 455.161 347.379 455.314 347.665L455.406 347.818V348.001C454.964 350.358 453.909 352.557 452.346 354.376L452.703 354.529C453.786 354.941 454.986 354.919 456.052 354.466C457.119 354.014 457.969 353.166 458.425 352.102C458.548 351.836 458.67 351.551 458.782 351.265C456.028 346.706 456.559 338.668 457.762 334.425C458.395 332.202 459.18 331.131 460.047 331.151C460.914 331.172 461.495 332.314 461.873 334.64C462.709 340.207 462.044 345.898 459.945 351.122C460.464 351.909 461.163 352.559 461.985 353.019C462.699 353.525 463.487 353.917 464.321 354.182C464.098 353.881 463.939 353.538 463.853 353.173C463.767 352.808 463.756 352.43 463.821 352.061C464.096 350.337 465.861 348.705 467.177 348.868C467.656 348.929 468.737 349.317 468.523 351.602C468.521 352.186 468.404 352.764 468.178 353.303C467.952 353.843 467.622 354.332 467.207 354.743L467.768 354.876C469.982 355.325 471.522 354.794 472.327 353.336C471.449 352.645 470.735 351.768 470.236 350.768C469.737 349.768 469.465 348.67 469.441 347.552C469.405 346.923 469.532 346.296 469.811 345.731C470.09 345.166 470.511 344.683 471.032 344.329C471.241 344.224 471.476 344.183 471.708 344.21C471.94 344.237 472.159 344.332 472.338 344.482C473.47 345.421 474.673 349.98 473.572 353.05C474.35 353.651 475.183 354.177 476.06 354.621C476.181 354.682 476.272 354.788 476.314 354.916C476.356 355.044 476.346 355.184 476.285 355.304C476.256 355.365 476.215 355.419 476.164 355.463C476.114 355.507 476.055 355.541 475.991 355.562C475.927 355.583 475.86 355.59 475.793 355.585C475.726 355.579 475.661 355.56 475.602 355.529C474.732 355.089 473.902 354.574 473.123 353.988C472.338 355.294 470.757 356.518 467.574 355.875C466.974 355.77 466.388 355.592 465.83 355.345C463.79 355.61 461.546 353.958 461.444 353.876C460.689 353.469 460.023 352.914 459.486 352.244L459.374 352.52C458.806 353.826 457.756 354.862 456.443 355.413C455.13 355.964 453.656 355.987 452.326 355.478C452.05 355.365 451.785 355.233 451.53 355.1C451.274 355.295 451.004 355.472 450.724 355.631C449.788 356.157 448.729 356.428 447.654 356.416ZM466.891 349.898C466.35 350.055 465.863 350.358 465.483 350.774C465.104 351.189 464.846 351.702 464.739 352.254C464.677 352.675 464.759 353.105 464.969 353.475C465.18 353.844 465.508 354.133 465.902 354.294L466.106 354.223C466.85 353.887 467.289 352.989 467.432 351.541C467.432 351.173 467.534 349.98 466.962 349.909L466.891 349.898ZM452.071 346.124H451.979C451.245 346.206 450.541 347.267 449.939 349.123C449.296 351.235 449.745 352.795 451.306 353.876C452.81 352.229 453.842 350.206 454.294 348.022C453.937 347.399 452.958 346.124 452.071 346.124ZM443.421 329.805C442.83 329.805 442.238 330.223 441.667 331.059C439.168 334.66 437.587 342.279 439.352 348.236C439.06 348.806 438.915 349.441 438.93 350.081C438.944 350.722 439.118 351.349 439.437 351.905C439.755 352.462 440.206 352.93 440.751 353.268C441.296 353.606 441.916 353.803 442.555 353.841C443.195 353.879 443.834 353.757 444.415 353.486C444.996 353.214 445.5 352.803 445.881 352.288C446.263 351.773 446.51 351.171 446.601 350.537C446.691 349.902 446.622 349.255 446.4 348.654C449.164 340.739 446.91 331.416 444.074 329.978C443.875 329.865 443.651 329.802 443.421 329.795V329.805ZM471.501 345.268C471.461 345.256 471.419 345.256 471.379 345.268C471.032 345.541 470.758 345.894 470.58 346.298C470.402 346.702 470.326 347.143 470.359 347.583C470.381 348.49 470.595 349.381 470.987 350.199C471.379 351.016 471.94 351.741 472.633 352.326C473.398 349.603 472.256 345.839 471.614 345.278C471.598 345.266 471.579 345.259 471.56 345.255C471.54 345.251 471.52 345.252 471.501 345.257V345.268ZM459.904 332.212C459.578 332.273 458.66 333.895 458.109 337.312C457.426 341.616 457.62 346.645 459.211 349.97C461.02 345.131 461.564 339.911 460.791 334.803C460.404 332.436 459.914 332.202 459.904 332.202V332.212Z" fill="white"/>
<path d="M11.698 310.945C15.3748 299.238 22.2246 288.779 31.4869 280.73C40.7492 272.681 52.0614 267.357 64.1669 265.35C76.2725 263.342 88.6977 264.729 100.063 269.357C111.427 273.985 121.287 281.672 128.546 291.566L147.212 293.014L138.205 310.445C141.421 320.384 142.247 330.941 140.614 341.258C138.981 351.575 134.937 361.362 128.809 369.821C122.682 378.281 114.644 385.175 105.35 389.944C96.0565 394.712 85.7685 397.219 75.3229 397.262C64.8773 397.305 54.569 394.882 45.2361 390.191C35.9033 385.499 27.8095 378.671 21.6126 370.262C15.4158 361.853 11.2908 352.1 9.57337 341.797C7.85589 331.493 8.59414 320.93 11.7284 310.966L11.698 310.945Z" fill="#0160FA"/>
<path d="M74.9283 325.868C72.2674 325.868 69.6662 325.079 67.4538 323.601C65.2413 322.122 63.5171 320.021 62.4988 317.563C61.4805 315.105 61.214 312.399 61.7331 309.79C62.2522 307.18 63.5336 304.783 65.4151 302.901C67.2966 301.02 69.6939 299.739 72.3036 299.219C74.9133 298.7 77.6184 298.967 80.0767 299.985C82.535 301.003 84.6361 302.728 86.1144 304.94C87.5927 307.152 88.3817 309.754 88.3817 312.414C88.379 315.982 86.9607 319.402 84.4382 321.924C81.9158 324.447 78.4955 325.865 74.9283 325.868ZM74.9283 301.001C72.6709 301.001 70.464 301.67 68.587 302.924C66.7101 304.179 65.2472 305.961 64.3834 308.047C63.5195 310.132 63.2935 312.427 63.7339 314.641C64.1743 316.855 65.2614 318.889 66.8576 320.485C68.4538 322.081 70.4875 323.168 72.7015 323.609C74.9156 324.049 77.2105 323.823 79.296 322.959C81.3816 322.095 83.1639 320.632 84.4181 318.755C85.6722 316.878 86.3417 314.672 86.3417 312.414C86.3363 309.389 85.132 306.489 82.9927 304.35C80.8534 302.21 77.9537 301.006 74.9283 301.001Z" fill="white"/>
<path d="M99.254 354.469H50.591V353.449C50.5248 350.212 51.1051 346.994 52.2981 343.984C53.491 340.974 55.2727 338.232 57.5386 335.919C59.8046 333.606 62.5095 331.769 65.4945 330.515C68.4795 329.26 71.6847 328.614 74.9225 328.614C78.1604 328.614 81.3658 329.26 84.3508 330.515C87.3358 331.769 90.0405 333.606 92.3064 335.919C94.5724 338.232 96.354 340.974 97.547 343.984C98.74 346.994 99.3203 350.212 99.254 353.449V354.469ZM52.6514 352.429H97.1936C96.9197 346.707 94.4537 341.309 90.3071 337.357C86.1604 333.404 80.6514 331.198 74.9225 331.198C69.1936 331.198 63.6846 333.404 59.538 337.357C55.3913 341.309 52.9253 346.707 52.6514 352.429Z" fill="white"/>
<path d="M536.651 271.117H483.051C479.502 271.117 476.625 273.994 476.625 277.543C476.625 281.092 479.502 283.969 483.051 283.969H536.651C540.2 283.969 543.077 281.092 543.077 277.543C543.077 273.994 540.2 271.117 536.651 271.117Z" fill="#522C2C"/>
<path d="M85.8084 234.244H15.0526C11.5037 234.244 8.62695 237.121 8.62695 240.67C8.62695 244.219 11.5037 247.096 15.0526 247.096H85.8084C89.3573 247.096 92.2343 244.219 92.2343 240.67C92.2343 237.121 89.3573 234.244 85.8084 234.244Z" fill="#522C2C"/>
<path d="M529.354 235.264C534.148 235.264 538.034 231.378 538.034 226.584C538.034 221.79 534.148 217.904 529.354 217.904C524.56 217.904 520.674 221.79 520.674 226.584C520.674 231.378 524.56 235.264 529.354 235.264Z" fill="#522C2C"/>
<path d="M185.279 140.285C192.754 140.285 198.814 134.225 198.814 126.75C198.814 119.275 192.754 113.215 185.279 113.215C177.804 113.215 171.744 119.275 171.744 126.75C171.744 134.225 177.804 140.285 185.279 140.285Z" fill="#522C2C"/>
<path d="M87.2892 430.844C90.3086 430.844 92.7564 428.397 92.7564 425.377C92.7564 422.358 90.3086 419.91 87.2892 419.91C84.2698 419.91 81.8223 422.358 81.8223 425.377C81.8223 428.397 84.2698 430.844 87.2892 430.844Z" fill="#522C2C"/>
<path d="M193.387 458.699H360.744C360.744 458.699 353.105 380.733 354.492 371.553H205.575C205.575 371.553 197.232 453.059 193.387 458.699Z" fill="#522C2C"/>
<path d="M514.862 459.211H29.1701C29.0349 459.211 28.9052 459.158 28.8096 459.062C28.7139 458.966 28.6602 458.837 28.6602 458.701C28.6628 458.567 28.7172 458.439 28.8123 458.344C28.9074 458.249 29.0357 458.194 29.1701 458.191H514.862C514.996 458.194 515.124 458.249 515.22 458.344C515.315 458.439 515.369 458.567 515.372 458.701C515.372 458.837 515.318 458.966 515.222 459.062C515.127 459.158 514.997 459.211 514.862 459.211Z" fill="#522C2C"/>
<path d="M238.988 195.26C238.411 195.313 237.83 195.279 237.264 195.158C232.909 194.138 215.498 188.702 231.256 166.517C231.256 166.517 236.418 160.785 231.491 155.583C226.565 150.381 237.305 144.517 241.497 147.597C242.802 148.545 244.628 136.377 244.108 135.439C242.333 132.379 260.02 120.211 274.136 130.237C276.107 131.617 277.997 133.108 279.797 134.704C280.476 135.321 281.296 135.761 282.186 135.986C283.076 136.21 284.007 136.211 284.897 135.99C291.088 134.521 304.664 133.195 299.442 151.758C294.852 168.078 300.309 171.495 304.164 172.015C305.21 172.138 306.197 172.562 307.007 173.236C307.816 173.909 308.413 174.803 308.724 175.809C310.764 183.01 312.548 197.433 292.241 195.342C267.975 192.833 243.618 194.822 238.988 195.26Z" fill="#522C2C"/>
<path d="M299.401 249.901C279.868 281.153 256.654 251.462 256.654 251.462L263.447 198.341C259.568 200.519 254.987 201.08 250.697 199.902C244.72 198.229 242.537 190.559 242.19 181.818C242.129 180.339 242.119 178.819 242.19 177.309C242.477 168.872 243.501 160.477 245.25 152.218C245.29 152.03 245.399 151.865 245.556 151.755C245.714 151.645 245.907 151.599 246.097 151.626C255.98 152.83 270.025 145.119 273.983 142.793C274.096 142.727 274.225 142.69 274.357 142.688C274.489 142.685 274.619 142.717 274.735 142.779C274.851 142.842 274.949 142.933 275.019 143.045C275.089 143.156 275.129 143.284 275.135 143.416C275.217 145.16 275.34 148.597 275.258 152.922C275.125 159.276 279.909 156.93 279.909 156.93C282.388 152.116 285.702 152.116 288.405 153.32C289.98 154.061 291.33 155.207 292.317 156.641C293.304 158.074 293.894 159.744 294.025 161.479C295.045 172.373 287.457 174.515 287.457 174.515L299.401 249.901Z" fill="#FDAFA2"/>
<path d="M276.746 188.824L277.348 196.984C277.348 196.984 264.894 209.112 262.293 208.204L263.507 197.871C263.507 197.871 274.533 193.516 276.746 188.824Z" fill="#FD8471"/>
<path d="M257.218 248.556C257.218 248.556 276.75 271.556 298.363 247.332L344.109 252.881C344.109 252.881 363.723 255.757 372.23 270.169C380.737 284.581 392.721 313.916 392.721 313.916L355.91 326.594V371.555H207.473V339.936L201.425 345.515C201.425 345.515 162.666 325.564 159.229 313.263L181.26 276.544C181.26 276.544 195.326 255.186 225.884 251.188C256.442 247.189 257.218 248.556 257.218 248.556Z" fill="#FF2B49"/>
<path d="M162.685 307.928C162.685 307.928 129.607 355.581 144.193 378.5C144.193 378.5 167.295 404.091 216.815 441.034C216.815 441.034 237.265 422.277 242.029 406.121L194.09 359.406C194.09 359.406 191.132 358.274 202.77 343.821C202.79 343.821 168.59 321.728 162.685 307.928Z" fill="#FDAFA2"/>
<path d="M347.922 448.621C347.748 448.616 347.577 448.571 347.423 448.489C325.82 436.249 314.784 405.823 314.325 404.538C314.28 404.412 314.26 404.277 314.267 404.143C314.274 404.009 314.307 403.878 314.365 403.757C314.423 403.635 314.504 403.527 314.604 403.437C314.703 403.347 314.82 403.277 314.947 403.233C315.073 403.188 315.207 403.168 315.342 403.175C315.476 403.182 315.607 403.215 315.728 403.273C315.849 403.331 315.958 403.412 316.048 403.512C316.138 403.612 316.207 403.728 316.252 403.855C316.354 404.161 327.472 434.882 348.432 446.694C348.55 446.759 348.654 446.848 348.737 446.954C348.82 447.06 348.882 447.182 348.918 447.312C348.954 447.441 348.964 447.577 348.947 447.711C348.93 447.845 348.887 447.974 348.82 448.091C348.732 448.252 348.602 448.386 348.444 448.48C348.286 448.573 348.106 448.622 347.922 448.621Z" fill="white"/>
<path d="M208.337 448.622C208.172 448.62 208.009 448.579 207.864 448.501C207.718 448.422 207.593 448.31 207.501 448.173C207.348 447.95 207.29 447.675 207.34 447.409C207.389 447.143 207.543 446.908 207.766 446.755C235.305 427.743 242.353 402.101 242.445 401.876C242.476 401.743 242.534 401.617 242.614 401.507C242.695 401.396 242.797 401.303 242.915 401.233C243.032 401.162 243.162 401.116 243.298 401.098C243.434 401.079 243.571 401.087 243.704 401.123C243.836 401.159 243.959 401.22 244.067 401.305C244.175 401.389 244.265 401.495 244.331 401.614C244.397 401.734 244.439 401.866 244.453 402.002C244.467 402.138 244.454 402.276 244.414 402.407C244.342 402.672 237.049 429.038 208.939 448.469C208.759 448.581 208.549 448.635 208.337 448.622Z" fill="white"/>
<path d="M281.695 287.784L290.089 292.078C290.089 292.078 287.56 301.931 281.695 299.677C275.83 297.423 269.19 293.088 273.963 290.568C278.737 288.049 280.593 287.223 281.695 287.784Z" fill="#FDAFA2"/>
<path d="M246.924 269.281L241.069 327.623C241.069 327.623 240.049 335.691 244.843 336.079L270.108 338.292C270.108 338.292 276.748 340.506 277.248 333.345C277.748 326.185 285.836 271.627 285.836 271.627C285.836 271.627 287.009 265.252 279.461 264.987C271.913 264.721 253.023 262.947 253.023 262.947C253.023 262.947 247.669 261.866 246.924 269.281Z" fill="#522C2C"/>
<path d="M392.629 314.436C392.629 314.436 413.988 368.086 398.627 395.952C383.266 423.818 339.764 391.525 339.764 391.525C339.764 391.525 285.858 340.996 274.669 337.875C274.669 337.875 225.965 318.954 233.687 309.581C233.687 309.581 234.431 308.234 235.472 308.622C236.512 309.009 227.873 305.235 231.178 299.442C231.178 299.442 232.3 297.463 233.758 297.463C233.758 297.463 229.413 291.496 234.044 289.161C238.674 286.825 239.959 289.742 239.959 289.742C239.959 289.742 237.359 278.869 248.558 285.774C259.757 292.68 277.117 299.636 282.084 297.422C287.052 295.209 284.298 290.854 284.298 290.854C284.298 290.854 287.949 288.763 294.192 295.668C300.434 302.573 354.87 336.814 354.87 336.814L356.176 327.308C356.176 327.308 383.001 305.45 392.629 314.436Z" fill="#FDAFA2"/>
<path d="M272.333 306.786C264.907 306.786 241.682 292.057 240.714 291.425C240.649 291.394 240.591 291.35 240.545 291.295C240.498 291.24 240.464 291.176 240.444 291.106C240.424 291.037 240.419 290.965 240.429 290.893C240.439 290.822 240.464 290.754 240.503 290.693C240.541 290.632 240.592 290.58 240.652 290.54C240.712 290.5 240.779 290.474 240.85 290.462C240.921 290.45 240.994 290.454 241.064 290.472C241.133 290.49 241.198 290.523 241.254 290.568C241.499 290.721 265.213 305.766 272.343 305.766C272.478 305.766 272.608 305.82 272.704 305.915C272.799 306.011 272.853 306.141 272.853 306.276C272.853 306.344 272.84 306.411 272.813 306.473C272.787 306.536 272.748 306.593 272.7 306.64C272.652 306.688 272.594 306.725 272.531 306.75C272.468 306.775 272.401 306.787 272.333 306.786Z" fill="#522C2C"/>
<path d="M266.415 314.425C258.99 314.425 235.816 299.697 234.796 299.064C234.69 298.988 234.617 298.874 234.593 298.746C234.569 298.617 234.594 298.485 234.665 298.375C234.736 298.265 234.846 298.186 234.972 298.155C235.099 298.124 235.233 298.143 235.346 298.208C235.581 298.361 259.296 313.405 266.425 313.405C266.561 313.405 266.69 313.459 266.786 313.555C266.882 313.65 266.935 313.78 266.935 313.915C266.935 313.983 266.922 314.05 266.895 314.113C266.869 314.175 266.831 314.232 266.782 314.279C266.734 314.327 266.676 314.364 266.613 314.389C266.55 314.414 266.483 314.427 266.415 314.425Z" fill="#522C2C"/>
<path d="M264.246 323.279C256.82 323.279 237.145 310.233 236.309 309.672C236.197 309.597 236.119 309.482 236.092 309.35C236.065 309.218 236.092 309.081 236.166 308.968C236.242 308.856 236.36 308.778 236.494 308.751C236.627 308.725 236.766 308.751 236.88 308.826C237.073 308.958 257.126 322.259 264.246 322.259C264.381 322.259 264.511 322.312 264.606 322.408C264.702 322.504 264.756 322.633 264.756 322.769C264.756 322.904 264.702 323.034 264.606 323.129C264.511 323.225 264.381 323.279 264.246 323.279Z" fill="#522C2C"/>
<path d="M254.961 274.892C256.685 274.892 258.082 273.494 258.082 271.771C258.082 270.047 256.685 268.649 254.961 268.649C253.237 268.649 251.84 270.047 251.84 271.771C251.84 273.494 253.237 274.892 254.961 274.892Z" fill="white"/>
<path d="M354.346 307.927L347.736 332.305L354.866 336.833L355.386 307.274L354.346 307.927Z" fill="#DE011F"/>
<path d="M203.043 322.055V342.597L205.909 338.589L203.043 322.055Z" fill="#DE011F"/>
<path d="M289.681 167.722H289.589C289.457 167.697 289.34 167.621 289.263 167.51C289.187 167.399 289.157 167.263 289.181 167.13C290.007 162.622 289.6 159.552 288.008 158.256C286.417 156.961 283.643 157.879 283.622 157.889C283.56 157.914 283.493 157.926 283.426 157.925C283.359 157.924 283.293 157.91 283.232 157.884C283.17 157.857 283.114 157.819 283.068 157.771C283.021 157.723 282.984 157.666 282.96 157.603C282.933 157.541 282.92 157.475 282.92 157.407C282.92 157.34 282.934 157.273 282.961 157.211C282.987 157.149 283.026 157.093 283.075 157.047C283.124 157 283.182 156.964 283.245 156.94C283.368 156.889 286.468 155.676 288.661 157.471C290.579 159.042 291.089 162.346 290.181 167.314C290.159 167.43 290.097 167.534 290.006 167.609C289.914 167.684 289.799 167.724 289.681 167.722Z" fill="#522C2C"/>
<path d="M262.297 188.774C262.161 188.785 262.027 188.741 261.924 188.653C261.821 188.565 261.757 188.44 261.746 188.305C261.735 188.169 261.778 188.035 261.866 187.932C261.954 187.829 262.08 187.765 262.215 187.754C267.743 186.856 267.835 182.266 267.835 182.062C267.84 181.93 267.896 181.804 267.991 181.711C268.085 181.618 268.212 181.565 268.345 181.563C268.411 181.562 268.477 181.576 268.539 181.602C268.6 181.627 268.656 181.665 268.702 181.712C268.749 181.76 268.785 181.816 268.81 181.878C268.834 181.94 268.846 182.006 268.845 182.072C268.845 182.123 268.773 187.723 262.368 188.753L262.297 188.774Z" fill="#522C2C"/>
<path d="M269.189 177.585C271.669 176.744 273.311 174.973 272.856 173.628C272.4 172.284 270.02 171.875 267.539 172.716C265.058 173.557 263.416 175.328 263.872 176.673C264.327 178.017 266.708 178.426 269.189 177.585Z" fill="#FF2B49"/>
<path d="M245.403 181.378C244.364 181.749 243.256 181.882 242.159 181.766C242.098 180.287 242.088 178.767 242.159 177.258C242.673 176.946 243.22 176.693 243.791 176.503C246.27 175.656 248.646 176.075 249.105 177.421C249.564 178.767 247.912 180.542 245.403 181.378Z" fill="#FF2B49"/>
<path d="M257.347 165.609L260.56 178.675L252.094 182.531L257.347 165.609Z" fill="#FF2B49"/>
<path d="M264.591 166.682C264.494 166.68 264.399 166.652 264.316 166.6C264.202 166.527 264.122 166.412 264.094 166.28C264.065 166.148 264.09 166.01 264.163 165.896C264.437 165.465 264.797 165.095 265.22 164.807C265.642 164.519 266.119 164.321 266.621 164.224C267.029 164.212 267.433 164.299 267.801 164.477C268.168 164.654 268.488 164.917 268.732 165.244C268.82 165.346 268.864 165.48 268.853 165.615C268.843 165.75 268.779 165.875 268.676 165.963C268.573 166.051 268.44 166.094 268.305 166.084C268.17 166.073 268.045 166.009 267.957 165.907C267.816 165.699 267.628 165.528 267.408 165.407C267.188 165.287 266.943 165.22 266.692 165.213C266 165.382 265.4 165.813 265.02 166.417C264.979 166.495 264.917 166.562 264.842 166.609C264.767 166.655 264.68 166.681 264.591 166.682Z" fill="#522C2C"/>
<path d="M245.802 169.711C245.705 169.708 245.61 169.68 245.527 169.629C245.413 169.556 245.333 169.441 245.305 169.309C245.276 169.177 245.301 169.039 245.374 168.926C245.648 168.494 246.008 168.124 246.43 167.836C246.853 167.549 247.33 167.35 247.832 167.253C248.239 167.242 248.644 167.329 249.011 167.507C249.378 167.684 249.698 167.947 249.943 168.273C249.987 168.324 250.02 168.383 250.04 168.446C250.061 168.51 250.069 168.577 250.064 168.644C250.059 168.711 250.04 168.776 250.01 168.835C249.98 168.895 249.938 168.948 249.887 168.992C249.836 169.035 249.777 169.068 249.713 169.089C249.65 169.11 249.583 169.118 249.516 169.113C249.449 169.108 249.384 169.089 249.324 169.059C249.265 169.028 249.211 168.987 249.168 168.936C249.03 168.726 248.842 168.553 248.622 168.432C248.401 168.311 248.155 168.246 247.903 168.242C247.21 168.411 246.61 168.842 246.23 169.446C246.19 169.525 246.128 169.591 246.053 169.638C245.977 169.684 245.891 169.71 245.802 169.711Z" fill="#522C2C"/>
<path d="M246.243 173.76C244.294 173.809 242.395 173.143 240.903 171.888C239.411 170.633 238.43 168.875 238.144 166.947C238.025 165.914 238.119 164.868 238.421 163.873C238.722 162.878 239.225 161.956 239.898 161.164C241.298 159.511 243.275 158.453 245.427 158.206C247.539 157.887 249.692 158.418 251.413 159.684C253.133 160.95 254.282 162.847 254.606 164.958C254.729 165.991 254.636 167.038 254.334 168.033C254.032 169.028 253.528 169.951 252.852 170.741C251.454 172.396 249.476 173.454 247.324 173.699C246.965 173.74 246.604 173.761 246.243 173.76ZM246.487 159.165C246.174 159.165 245.86 159.185 245.549 159.226C243.654 159.438 241.913 160.369 240.684 161.827C240.097 162.508 239.657 163.305 239.394 164.165C239.131 165.025 239.049 165.931 239.154 166.825C239.448 168.663 240.456 170.312 241.96 171.41C243.463 172.509 245.34 172.968 247.181 172.689C249.074 172.472 250.814 171.542 252.046 170.089C252.633 169.405 253.072 168.607 253.335 167.745C253.599 166.883 253.681 165.976 253.576 165.08C253.327 163.392 252.469 161.854 251.163 160.757C249.856 159.659 248.193 159.078 246.487 159.124V159.165Z" fill="#0160FA"/>
<path d="M266.713 171.455C264.707 171.515 262.749 170.834 261.213 169.541C259.678 168.248 258.673 166.435 258.39 164.448C258.267 163.387 258.363 162.313 258.674 161.291C258.984 160.27 259.502 159.323 260.195 158.511C261.63 156.804 263.662 155.709 265.877 155.451C268.043 155.129 270.248 155.678 272.011 156.978C273.773 158.278 274.949 160.223 275.281 162.387C275.474 164.561 274.802 166.724 273.409 168.404C272.017 170.085 270.017 171.148 267.845 171.363C267.471 171.421 267.092 171.452 266.713 171.455ZM266.958 156.431C266.642 156.431 266.315 156.431 265.999 156.482C264.045 156.702 262.25 157.662 260.981 159.164C260.374 159.868 259.921 160.69 259.649 161.579C259.376 162.467 259.292 163.402 259.4 164.325C259.756 166.194 260.808 167.858 262.344 168.981C263.88 170.103 265.785 170.601 267.674 170.373C269.563 170.145 271.294 169.208 272.519 167.752C273.744 166.297 274.37 164.43 274.271 162.53C274.016 160.792 273.129 159.208 271.78 158.083C270.431 156.958 268.714 156.369 266.958 156.431Z" fill="#0160FA"/>
<path d="M254.585 165.731L253.729 165.17C254.268 164.423 255.063 163.901 255.962 163.701C256.55 163.61 257.15 163.637 257.726 163.783C258.303 163.928 258.844 164.188 259.318 164.548L258.757 165.394C258.394 165.111 257.977 164.904 257.532 164.784C257.087 164.665 256.623 164.637 256.166 164.701C255.532 164.84 254.97 165.207 254.585 165.731Z" fill="#0160FA"/>
<path d="M274.283 161.162C274.201 161.161 274.121 161.141 274.049 161.104C273.976 161.067 273.913 161.014 273.864 160.948C273.825 160.893 273.797 160.831 273.782 160.766C273.767 160.7 273.766 160.632 273.777 160.566C273.788 160.499 273.813 160.436 273.849 160.379C273.885 160.322 273.932 160.273 273.987 160.234L279.015 156.634C279.125 156.569 279.255 156.547 279.38 156.573C279.505 156.6 279.616 156.672 279.69 156.776C279.764 156.879 279.797 157.007 279.781 157.134C279.766 157.261 279.704 157.377 279.607 157.46L274.578 161.06C274.492 161.123 274.389 161.158 274.283 161.162Z" fill="#0160FA"/>
<path d="M120 484C114.477 484 110 479.523 110 474C110 468.477 114.477 464 120 464C125.523 464 130 468.477 130 474C130 479.523 125.523 484 120 484Z" fill="#522C2C"/>
</svg>
