<svg width="596" height="550" viewBox="0 0 596 550" fill="none" xmlns="http://www.w3.org/2000/svg">
<path d="M26.1719 193.026L43.9919 394.336L288.682 517.656L501.942 457.906L558.622 201.926L256.072 37.3965L26.1719 193.026Z" fill="#FEEBDC"/>
<path d="M506.721 130.717H394.771C391.562 130.717 388.961 133.318 388.961 136.527C388.961 139.736 391.562 142.337 394.771 142.337H506.721C509.93 142.337 512.531 139.736 512.531 136.527C512.531 133.318 509.93 130.717 506.721 130.717Z" fill="#522C2C"/>
<path d="M30.8102 329.656H114.85C118.059 329.656 120.66 327.055 120.66 323.846C120.66 320.637 118.059 318.036 114.85 318.036H30.8102C27.6014 318.036 25.0002 320.637 25.0002 323.846C25.0002 327.055 27.6014 329.656 30.8102 329.656Z" fill="#522C2C"/>
<path d="M52.7805 442.358C57.6406 442.358 61.5805 438.418 61.5805 433.558C61.5805 428.698 57.6406 424.758 52.7805 424.758C47.9204 424.758 43.9805 428.698 43.9805 433.558C43.9805 438.418 47.9204 442.358 52.7805 442.358Z" fill="#522C2C"/>
<path d="M40.1719 266.088C47.9039 266.088 54.1719 259.82 54.1719 252.088C54.1719 244.356 47.9039 238.088 40.1719 238.088C32.4399 238.088 26.1719 244.356 26.1719 252.088C26.1719 259.82 32.4399 266.088 40.1719 266.088Z" fill="#522C2C"/>
<path d="M526.539 217.027C533.166 217.027 538.539 211.655 538.539 205.027C538.539 198.4 533.166 193.027 526.539 193.027C519.912 193.027 514.539 198.4 514.539 205.027C514.539 211.655 519.912 217.027 526.539 217.027Z" fill="#522C2C"/>
<path d="M114.551 245.986C117.312 245.986 119.551 243.748 119.551 240.986C119.551 238.225 117.312 235.986 114.551 235.986C111.789 235.986 109.551 238.225 109.551 240.986C109.551 243.748 111.789 245.986 114.551 245.986Z" fill="#522C2C"/>
<path d="M525.188 447.686C528.877 447.686 531.868 444.695 531.868 441.006C531.868 437.317 528.877 434.326 525.188 434.326C521.499 434.326 518.508 437.317 518.508 441.006C518.508 444.695 521.499 447.686 525.188 447.686Z" fill="#522C2C"/>
<path d="M209.621 87.778C213.311 87.778 216.301 84.7872 216.301 81.098C216.301 77.4087 213.311 74.418 209.621 74.418C205.932 74.418 202.941 77.4087 202.941 81.098C202.941 84.7872 205.932 87.778 209.621 87.778Z" fill="#522C2C"/>
<path d="M277.259 318.826L280.329 437.996L175.129 469.906V484.076L280.329 457.146L339.559 503.606V510.376H355.009V502.586L318.749 467.356L393.689 490.846V474.636L297.559 438.246L299.899 318.826H277.259Z" fill="#522C2C"/>
<path d="M238.391 304.707C238.391 304.707 292.851 316.287 344.901 304.707V314.577C344.901 314.577 291.901 327.347 238.391 314.577V304.707Z" fill="#FF2B49"/>
<path d="M403.389 219.107V230.167H393.719C393.719 230.167 390.419 230.597 388.009 237.567L345.379 304.707L344.899 304.847V304.707C327.658 308.362 310.063 310.086 292.439 309.847H291.649H291.009C273.351 309.708 255.741 307.988 238.389 304.707V304.847L237.909 304.707L195.249 237.567C192.829 230.567 189.529 230.167 189.529 230.167H179.859V219.107C179.859 219.107 195.649 220.637 200.799 220.637C205.949 220.637 201.879 230.107 225.629 255.187C249.209 280.097 291.629 281.187 291.629 281.187C291.629 281.187 333.519 280.597 357.629 255.187C381.369 230.107 377.289 220.637 382.439 220.637C387.589 220.637 403.389 219.107 403.389 219.107Z" fill="#522C2C"/>
<path d="M303.351 118.848L301.521 153.248C301.521 153.248 296.521 162.248 288.751 158.368C280.981 154.488 280.261 159.058 279.621 154.588L282.501 129.448C282.501 129.448 297.771 130.338 303.351 118.848Z" fill="#FDAFA2"/>
<path d="M277.25 150.828C277.25 150.828 278.25 149.678 278.72 150.828C279.19 151.978 284.14 157.588 290.4 156.888C296.66 156.188 301.4 154.078 301.82 153.248C302.24 152.418 303.67 153.558 303.35 154.248C303.03 154.938 298.63 167.038 290.91 166.398C283.19 165.758 275.99 162.128 277.25 150.828Z" fill="#0160FA"/>
<path d="M149.879 65.2266H133.789V89.4866H149.879V65.2266Z" fill="#522C2C"/>
<path d="M145.129 91.5263C145.129 91.5263 148.029 74.5263 152.619 76.5263C157.209 78.5263 154.319 96.2663 154.319 96.2663C154.319 96.2663 154.659 105.456 163.169 107.496C171.679 109.536 181.219 131.496 181.219 131.496C181.219 131.496 171.679 158.906 156.369 146.816C156.369 146.816 150.069 128.946 141.729 121.456C141.729 121.456 124.729 117.036 119.729 102.906C114.729 88.7763 120.239 69.9063 124.499 70.5663C128.759 71.2263 125.499 86.9063 125.499 86.9063C125.499 86.9063 127.709 71.0763 131.279 68.1863C132.619 67.0963 133.589 69.3363 134.279 72.7163C135.359 78.3463 135.579 87.1263 135.279 88.9463C134.189 94.7663 139.529 69.5463 143.109 72.9463C146.689 76.3463 146.149 83.7063 145.129 91.5263Z" fill="#FDAFA2"/>
<path d="M233.18 193.028V231.188C233.18 231.188 286.75 262.508 344.9 231.188V198.508C344.9 198.508 363.3 230.098 382.84 223.338C382.84 223.338 386.2 200.208 411.39 203.278C411.39 203.278 399.13 188.638 381.09 186.588C371.151 181.953 362.335 175.218 355.25 166.848C355.25 166.848 323.25 155.788 303.33 154.248C303.33 154.248 298 167.058 290.63 165.888C289.89 165.768 289.34 166.018 288.63 165.958C285.2 165.678 276.17 162.168 277.27 150.828C277.27 150.828 274.01 149.488 264.44 153.568C254.87 157.648 217.08 161.998 208.91 158.418C200.74 154.838 189.18 122.708 177.43 120.508C177.43 120.508 165.82 131.618 145.01 133.278C145.01 133.278 142.84 186.888 192.37 203.998C192.37 203.998 209.25 209.378 233.18 193.028Z" fill="white"/>
<path d="M295.191 125.316V129.766C295.191 129.766 287.101 132.766 282.191 132.356L282.531 129.446C282.531 129.446 289.621 128.976 295.191 125.316Z" fill="#FD8471"/>
<path d="M278.619 103.707L277.769 115.367C277.769 115.367 271.819 113.667 272.499 109.157C273.179 104.647 278.619 103.707 278.619 103.707Z" fill="#FD8471"/>
<path d="M279.749 95.7578C278.754 97.6268 278.1 99.6588 277.82 101.758C276.82 108.558 274.599 128.118 282.499 129.458C292.069 131.068 299.049 126.518 303.35 118.858C303.35 118.858 314.349 118.188 313.589 107.778C313.53 106.734 313.176 105.729 312.569 104.877C311.962 104.026 311.127 103.364 310.159 102.968C310.159 102.968 309.51 102.388 307.35 103.878C307.35 103.878 308.22 93.1978 306.35 91.1078C304.25 88.7978 286.249 83.8578 279.749 95.7578Z" fill="#FDAFA2"/>
<path d="M278.621 109.017C278.621 109.017 281.521 104.197 284.161 109.017H278.621Z" fill="#522C2C"/>
<path d="M289.648 109.017C289.648 109.017 292.548 104.197 295.188 109.017H289.648Z" fill="#522C2C"/>
<path d="M287.56 106.508V116.038H282.16L287.56 106.508Z" fill="#FF2B49"/>
<path d="M307.62 103.707H277.52C277.52 103.707 281.05 79.1169 297.75 82.8369C298.08 82.9069 298.4 82.9969 298.75 83.0869C297.05 81.6969 296.54 78.6969 297.67 75.7969C299 72.4269 302.05 70.4569 304.49 71.4169C306.93 72.3769 307.83 75.8869 306.49 79.2669C305.35 82.1969 302.91 84.0569 300.69 83.8769C309.94 88.5869 307.62 103.707 307.62 103.707Z" fill="#FF2B49"/>
<path d="M303.362 100.927H303.252C303.187 100.917 303.124 100.895 303.068 100.861C303.012 100.827 302.962 100.782 302.923 100.729C302.884 100.676 302.856 100.616 302.841 100.552C302.825 100.488 302.822 100.422 302.832 100.357C302.832 100.257 304.262 89.7369 301.032 85.6069C300.712 85.169 300.303 84.8029 299.833 84.5325C299.363 84.2621 298.841 84.0933 298.302 84.037C287.642 82.927 282.492 96.7369 282.442 96.8769C282.394 96.998 282.301 97.0958 282.182 97.1493C282.064 97.2029 281.929 97.2081 281.807 97.1638C281.684 97.1196 281.584 97.0293 281.527 96.9123C281.47 96.7952 281.461 96.6606 281.502 96.537C281.502 96.387 286.972 81.8469 298.402 83.0469C299.076 83.1154 299.729 83.3243 300.318 83.6601C300.907 83.996 301.419 84.4513 301.822 84.9969C305.312 89.4569 303.882 100.047 303.822 100.497C303.804 100.61 303.749 100.713 303.666 100.791C303.583 100.869 303.475 100.917 303.362 100.927Z" fill="#522C2C"/>
<path d="M291.08 100.926H290.98C290.915 100.914 290.853 100.889 290.798 100.853C290.743 100.817 290.696 100.769 290.659 100.714C290.623 100.659 290.598 100.597 290.586 100.532C290.574 100.467 290.576 100.401 290.59 100.336C290.68 99.8761 292.91 88.9761 298.01 83.2161C298.105 83.1238 298.233 83.0723 298.365 83.0723C298.498 83.0723 298.625 83.1238 298.72 83.2161C298.767 83.2626 298.804 83.3179 298.83 83.3788C298.855 83.4397 298.868 83.5051 298.868 83.5711C298.868 83.6371 298.855 83.7025 298.83 83.7634C298.804 83.8243 298.767 83.8796 298.72 83.9261C293.8 89.4761 291.55 100.466 291.53 100.576C291.5 100.673 291.44 100.759 291.36 100.822C291.28 100.884 291.182 100.921 291.08 100.926Z" fill="#522C2C"/>
<path d="M287.809 123.866C287.102 123.867 286.399 123.77 285.719 123.576C285.657 123.557 285.6 123.526 285.55 123.484C285.5 123.442 285.459 123.391 285.43 123.333C285.4 123.275 285.382 123.212 285.377 123.148C285.371 123.083 285.379 123.018 285.399 122.956C285.438 122.831 285.525 122.726 285.642 122.664C285.758 122.602 285.893 122.589 286.019 122.626C287.389 123.026 288.857 122.912 290.149 122.306C290.677 121.978 291.129 121.54 291.474 121.023C291.819 120.505 292.049 119.92 292.149 119.306C292.164 119.241 292.191 119.178 292.229 119.123C292.268 119.068 292.317 119.021 292.373 118.985C292.43 118.949 292.493 118.924 292.56 118.912C292.626 118.9 292.694 118.902 292.759 118.916C292.825 118.931 292.887 118.958 292.942 118.996C292.997 119.035 293.044 119.084 293.081 119.14C293.117 119.197 293.141 119.26 293.153 119.327C293.165 119.393 293.164 119.461 293.149 119.526C293.023 120.271 292.739 120.98 292.317 121.606C291.894 122.232 291.343 122.761 290.699 123.156C289.817 123.647 288.819 123.892 287.809 123.866Z" fill="#522C2C"/>
<path d="M309.25 116.118C309.165 116.118 309.081 116.094 309.01 116.048C308.895 115.982 308.81 115.875 308.772 115.748C308.735 115.621 308.748 115.485 308.81 115.368C311.51 110.498 311.09 108.668 310.6 108.008C309.84 107.008 307.99 107.358 307.97 107.368C307.84 107.391 307.706 107.364 307.596 107.291C307.486 107.219 307.409 107.106 307.38 106.978C307.365 106.914 307.363 106.848 307.375 106.783C307.386 106.719 307.41 106.657 307.445 106.602C307.481 106.547 307.527 106.5 307.581 106.463C307.635 106.426 307.696 106.401 307.76 106.388C307.86 106.388 310.25 105.858 311.4 107.388C312.55 108.918 311.99 111.688 309.69 115.838C309.648 115.92 309.586 115.989 309.508 116.038C309.431 116.087 309.341 116.115 309.25 116.118Z" fill="#522C2C"/>
<path d="M135.129 445.317C135.129 445.317 175.779 465.687 223.989 451.447C223.989 451.447 176.909 425.707 135.129 445.317Z" fill="#0043AE"/>
<path d="M194.181 461.378L205.411 420.528L156.141 415.928L151.031 458.808C151.031 458.808 160.991 469.798 194.181 461.378Z" fill="#FDAFA2"/>
<path d="M191.13 474.227C191.13 474.227 171.38 491.587 148.23 475.757L151.66 451.457L153.33 451.707C167.626 453.828 182.147 453.966 196.48 452.117L191.13 474.227Z" fill="#FF2B49"/>
<path d="M201.14 509.627C201.14 509.627 206.63 515.377 195.27 519.717C183.91 524.057 111.65 549.587 104.37 549.337C97.0903 549.087 82.2903 550.337 77.8203 536.337C77.8203 536.337 78.3603 527.787 80.6603 532.127C82.9603 536.467 92.9403 538.957 99.2703 539.657C104.66 540.227 173.62 519.917 201.14 509.627Z" fill="#522C2C"/>
<path d="M191.131 475.418C191.131 475.418 199.551 476.568 201.341 510.018L132.151 532.098C132.151 532.098 122.451 499.928 100.871 503.098C100.871 503.098 143.261 489.098 148.231 475.738C148.251 475.758 167.251 483.338 191.131 475.418Z" fill="#0160FA"/>
<path d="M79.3008 530.907C79.3008 530.907 79.3808 512.907 100.871 503.117C122.361 493.327 132.151 532.117 132.151 532.117C132.151 532.117 90.0208 551.167 79.3008 530.907Z" fill="#FF2B49"/>
<path d="M130.442 510.127C130.349 510.128 130.258 510.104 130.179 510.056C130.099 510.008 130.034 509.939 129.992 509.857C127.235 504.734 122.56 500.912 116.992 499.227C116.859 499.195 116.745 499.112 116.673 498.996C116.602 498.879 116.58 498.74 116.612 498.607C116.644 498.474 116.727 498.36 116.843 498.289C116.959 498.217 117.099 498.195 117.232 498.227C120.128 499.087 122.824 500.517 125.159 502.433C127.495 504.35 129.423 506.714 130.832 509.387C130.863 509.445 130.881 509.509 130.887 509.575C130.892 509.64 130.885 509.706 130.864 509.769C130.844 509.831 130.811 509.889 130.767 509.939C130.724 509.988 130.671 510.028 130.612 510.057C130.561 510.092 130.503 510.116 130.442 510.127Z" fill="#522C2C"/>
<path d="M137.559 504.197C137.468 504.197 137.379 504.171 137.302 504.123C137.224 504.076 137.161 504.008 137.119 503.927C132.879 495.607 125.589 494.857 125.519 494.847C125.454 494.842 125.39 494.824 125.332 494.794C125.274 494.764 125.222 494.723 125.18 494.672C125.138 494.622 125.107 494.564 125.088 494.501C125.069 494.438 125.062 494.372 125.069 494.307C125.082 494.176 125.146 494.056 125.247 493.971C125.348 493.887 125.478 493.846 125.609 493.857C125.929 493.857 133.509 494.647 138.009 503.467C138.068 503.585 138.079 503.722 138.037 503.848C137.996 503.973 137.907 504.077 137.789 504.137C137.719 504.177 137.64 504.198 137.559 504.197Z" fill="#522C2C"/>
<path d="M144.592 498.707C144.503 498.708 144.415 498.686 144.338 498.642C144.26 498.598 144.196 498.534 144.152 498.457C143.279 496.784 142.061 495.316 140.579 494.149C139.096 492.982 137.383 492.143 135.552 491.687C135.419 491.667 135.3 491.596 135.22 491.488C135.14 491.38 135.107 491.245 135.127 491.112C135.147 490.98 135.218 490.86 135.326 490.781C135.434 490.701 135.569 490.667 135.702 490.687C135.932 490.687 141.432 491.607 145.022 497.937C145.055 497.994 145.077 498.057 145.085 498.122C145.094 498.188 145.089 498.254 145.071 498.318C145.054 498.381 145.023 498.44 144.982 498.492C144.941 498.543 144.89 498.586 144.832 498.617C144.762 498.67 144.679 498.702 144.592 498.707Z" fill="#522C2C"/>
<path d="M151.029 493.598C150.942 493.597 150.856 493.574 150.781 493.53C150.705 493.486 150.643 493.423 150.599 493.348C149.726 491.674 148.506 490.206 147.022 489.041C145.537 487.875 143.822 487.039 141.989 486.588C141.924 486.578 141.86 486.555 141.804 486.521C141.747 486.487 141.697 486.442 141.658 486.388C141.618 486.335 141.59 486.274 141.574 486.21C141.558 486.145 141.554 486.078 141.564 486.013C141.574 485.947 141.597 485.884 141.631 485.827C141.665 485.77 141.71 485.72 141.764 485.681C141.817 485.642 141.878 485.613 141.942 485.597C142.007 485.581 142.074 485.578 142.139 485.588C142.369 485.588 147.879 486.508 151.469 492.838C151.532 492.955 151.547 493.092 151.512 493.221C151.476 493.349 151.393 493.459 151.279 493.528C151.203 493.571 151.117 493.595 151.029 493.598Z" fill="#522C2C"/>
<path d="M154.591 485.638C154.507 485.639 154.424 485.618 154.351 485.578C154.277 485.537 154.215 485.479 154.171 485.408C150.821 480.158 146.721 480.088 146.551 480.088C146.419 480.085 146.293 480.032 146.2 479.939C146.107 479.845 146.053 479.72 146.051 479.588C146.051 479.455 146.103 479.328 146.197 479.234C146.291 479.141 146.418 479.088 146.551 479.088C146.801 479.088 151.371 479.168 155.011 484.868C155.082 484.979 155.107 485.115 155.078 485.244C155.05 485.373 154.972 485.486 154.861 485.558C154.782 485.613 154.687 485.641 154.591 485.638Z" fill="#522C2C"/>
<path d="M149.5 480.706C147.7 480.706 145.79 477.476 144.82 474.166C144.293 472.475 144.049 470.707 144.1 468.936C144.22 466.816 144.99 466.156 145.6 465.936C146.21 465.716 147.22 465.936 148.47 467.626C150.409 470.599 151.432 474.077 151.41 477.626C151.29 479.746 150.52 480.406 149.91 480.626C149.778 480.672 149.64 480.699 149.5 480.706ZM146.01 466.916H145.88C145.56 467.016 145.18 467.606 145.1 468.986C145.057 470.643 145.287 472.295 145.78 473.876C146.94 477.876 148.78 479.936 149.63 479.676C149.95 479.586 150.33 478.996 150.41 477.616C150.456 475.959 150.222 474.306 149.72 472.726C149.287 471.126 148.591 469.609 147.66 468.236C146.94 467.236 146.36 466.896 146.01 466.896V466.916Z" fill="#522C2C"/>
<path d="M153.18 481.777C152.725 481.826 152.265 481.754 151.847 481.568C151.428 481.382 151.067 481.088 150.8 480.717C149.89 479.137 151.63 476.547 154.8 474.717C156.107 473.927 157.565 473.416 159.08 473.217C160.52 473.067 161.58 473.427 162.08 474.217C162.58 475.007 162.33 476.117 161.48 477.297C160.544 478.502 159.374 479.506 158.04 480.247C156.573 481.156 154.902 481.682 153.18 481.777ZM159.74 474.147H159.23C157.856 474.338 156.535 474.807 155.35 475.527C152.53 477.147 151.15 479.287 151.67 480.187C152.19 481.087 154.73 480.967 157.55 479.337C158.764 478.67 159.83 477.761 160.68 476.667C161.28 475.837 161.48 475.117 161.22 474.667C160.96 474.217 160.49 474.147 159.74 474.147Z" fill="#522C2C"/>
<path d="M357.09 451.447C357.09 451.447 400.67 466.087 446.28 444.977C446.25 444.977 396.33 430.247 357.09 451.447Z" fill="#0043AE"/>
<path d="M386.252 461.378L375.012 420.528L424.292 415.928L429.402 458.808C429.402 458.808 419.452 469.798 386.252 461.378Z" fill="#FDAFA2"/>
<path d="M389.309 474.227C389.309 474.227 409.049 491.587 432.199 475.757L428.769 451.457L427.109 451.707C412.81 453.828 398.286 453.966 383.949 452.117L389.309 474.227Z" fill="#FF2B49"/>
<path d="M379.299 509.627C379.299 509.627 373.809 515.377 385.169 519.717C396.529 524.057 468.789 549.587 476.059 549.337C483.329 549.087 498.149 550.337 502.619 536.337C502.619 536.337 502.069 527.787 499.779 532.127C497.489 536.467 487.499 538.957 481.169 539.657C475.779 540.227 406.819 519.917 379.299 509.627Z" fill="#522C2C"/>
<path d="M389.312 475.418C389.312 475.418 380.882 476.568 379.102 510.018L448.252 532.098C448.252 532.098 457.952 499.928 479.522 503.098C479.522 503.098 437.142 489.098 432.162 475.738C432.252 475.758 413.182 483.338 389.312 475.418Z" fill="#0160FA"/>
<path d="M501.139 530.907C501.139 530.907 501.049 512.907 479.559 503.117C458.069 493.327 448.289 532.117 448.289 532.117C448.289 532.117 490.409 551.167 501.139 530.907Z" fill="#FF2B49"/>
<path d="M449.999 510.126C449.924 510.145 449.845 510.145 449.769 510.126C449.653 510.065 449.566 509.96 449.527 509.834C449.487 509.709 449.499 509.573 449.559 509.456C450.966 506.782 452.895 504.417 455.23 502.501C457.566 500.584 460.262 499.154 463.159 498.296C463.288 498.269 463.422 498.292 463.533 498.361C463.645 498.43 463.726 498.539 463.759 498.666C463.776 498.73 463.78 498.796 463.77 498.862C463.761 498.927 463.739 498.989 463.706 499.046C463.672 499.103 463.628 499.152 463.575 499.192C463.523 499.231 463.463 499.26 463.399 499.276C457.846 500.967 453.19 504.79 450.449 509.906C450.399 509.979 450.332 510.037 450.253 510.075C450.174 510.114 450.087 510.132 449.999 510.126Z" fill="#522C2C"/>
<path d="M442.872 504.197C442.795 504.196 442.719 504.175 442.652 504.137C442.593 504.109 442.54 504.068 442.496 504.019C442.453 503.969 442.42 503.911 442.399 503.849C442.379 503.786 442.371 503.72 442.377 503.655C442.382 503.589 442.401 503.525 442.432 503.467C446.932 494.647 454.512 493.887 454.832 493.857C454.963 493.846 455.093 493.887 455.194 493.971C455.295 494.056 455.359 494.176 455.372 494.307C455.383 494.438 455.342 494.569 455.258 494.67C455.173 494.771 455.053 494.835 454.922 494.847C454.842 494.847 447.562 495.607 443.322 503.927C443.278 504.009 443.213 504.077 443.134 504.125C443.055 504.172 442.964 504.197 442.872 504.197Z" fill="#522C2C"/>
<path d="M435.849 498.707C435.764 498.708 435.68 498.684 435.609 498.637C435.551 498.605 435.5 498.563 435.459 498.511C435.418 498.46 435.387 498.401 435.37 498.337C435.352 498.274 435.347 498.207 435.356 498.142C435.364 498.076 435.386 498.014 435.419 497.957C439.009 491.627 444.509 490.737 444.739 490.707C444.804 490.695 444.87 490.697 444.934 490.711C444.997 490.726 445.058 490.753 445.111 490.791C445.164 490.83 445.209 490.878 445.243 490.934C445.277 490.99 445.3 491.052 445.309 491.117C445.319 491.182 445.316 491.248 445.3 491.312C445.285 491.376 445.257 491.436 445.218 491.489C445.179 491.542 445.129 491.587 445.073 491.62C445.017 491.654 444.954 491.677 444.889 491.687C443.058 492.142 441.345 492.981 439.862 494.148C438.38 495.315 437.162 496.784 436.289 498.457C436.244 498.533 436.18 498.596 436.102 498.64C436.025 498.684 435.938 498.707 435.849 498.707Z" fill="#522C2C"/>
<path d="M429.401 493.597C429.317 493.596 429.235 493.576 429.161 493.537C429.045 493.47 428.96 493.36 428.925 493.231C428.889 493.102 428.906 492.964 428.971 492.847C432.561 486.517 438.061 485.627 438.291 485.597C438.356 485.586 438.423 485.588 438.487 485.603C438.552 485.618 438.612 485.646 438.666 485.685C438.719 485.725 438.764 485.774 438.797 485.831C438.831 485.888 438.852 485.951 438.861 486.017C438.871 486.082 438.868 486.148 438.852 486.212C438.836 486.276 438.808 486.336 438.769 486.389C438.73 486.442 438.681 486.487 438.625 486.521C438.568 486.555 438.506 486.577 438.441 486.587C436.61 487.039 434.896 487.876 433.413 489.041C431.93 490.207 430.713 491.675 429.841 493.347C429.796 493.424 429.732 493.488 429.655 493.532C429.578 493.576 429.49 493.598 429.401 493.597Z" fill="#522C2C"/>
<path d="M425.851 485.638C425.754 485.642 425.659 485.614 425.581 485.558C425.524 485.523 425.476 485.478 425.438 485.424C425.4 485.37 425.373 485.309 425.359 485.245C425.345 485.18 425.344 485.114 425.356 485.049C425.369 484.984 425.394 484.923 425.431 484.868C429.071 479.168 433.641 479.088 433.881 479.088C434.013 479.088 434.14 479.141 434.234 479.234C434.328 479.328 434.381 479.455 434.381 479.588C434.378 479.72 434.325 479.845 434.231 479.939C434.138 480.032 434.012 480.085 433.881 480.088C433.701 480.088 429.611 480.158 426.261 485.408C426.216 485.476 426.155 485.533 426.084 485.573C426.012 485.613 425.932 485.635 425.851 485.638Z" fill="#522C2C"/>
<path d="M430.94 480.708C430.801 480.707 430.663 480.687 430.53 480.648C429.91 480.468 429.15 479.808 429.03 477.648C428.979 475.876 429.222 474.109 429.75 472.418C430.219 470.706 430.969 469.083 431.97 467.618C433.22 465.898 434.21 465.748 434.83 465.928C435.45 466.108 436.21 466.778 436.34 468.928C436.382 470.699 436.135 472.465 435.61 474.158C434.64 477.458 432.73 480.708 430.94 480.708ZM434.43 466.918C434.08 466.918 433.49 467.258 432.78 468.248C431.847 469.619 431.147 471.137 430.71 472.738C430.216 474.319 429.986 475.971 430.03 477.628C430.11 479.008 430.48 479.628 430.81 479.688C431.63 479.928 433.49 477.838 434.65 473.888C435.146 472.306 435.379 470.654 435.34 468.998C435.26 467.618 434.88 466.998 434.55 466.928L434.43 466.918Z" fill="#522C2C"/>
<path d="M427.251 481.776C427.052 481.79 426.851 481.79 426.651 481.776C425.136 481.577 423.679 481.066 422.371 480.276C421.034 479.535 419.861 478.532 418.921 477.326C418.071 476.146 417.861 475.046 418.331 474.246C419.241 472.666 422.331 472.866 425.571 474.726C426.905 475.467 428.076 476.471 429.011 477.676C429.861 478.856 430.081 479.956 429.611 480.756C429.344 481.121 428.985 481.408 428.57 481.587C428.155 481.766 427.7 481.832 427.251 481.776ZM420.681 474.146C420.415 474.118 420.147 474.155 419.898 474.252C419.649 474.35 419.427 474.505 419.251 474.706C419.001 475.146 419.251 475.866 419.791 476.706C421.56 478.847 424.049 480.269 426.791 480.706C427.791 480.806 428.531 480.616 428.791 480.176C429.051 479.736 428.841 479.016 428.241 478.176C427.389 477.084 426.324 476.176 425.111 475.506C423.777 474.693 422.262 474.226 420.701 474.146H420.681Z" fill="#522C2C"/>
<path d="M357.089 451.446C357.089 451.446 339.389 289.706 331.559 277.826L299.039 280.596C294.117 281.006 289.17 281.006 284.249 280.596L250.539 277.806C250.539 277.806 236.249 345.576 223.989 451.446C223.989 451.446 184.499 428.636 135.129 445.316C135.129 445.316 177.689 261.826 195.729 245.486C195.729 245.486 212.409 222.336 233.519 231.196C254.629 240.056 286.619 257.406 344.159 231.536C344.159 231.536 373.769 220.976 385.689 246.846C397.609 272.716 425.859 339.786 446.249 444.976C446.249 444.976 397.249 430.336 357.089 451.446Z" fill="#0160FA"/>
<path d="M404.481 201.937C397.601 202.177 386.481 205.117 383.291 220.937C382.941 222.697 382.551 224.447 382.031 226.167C380.741 230.447 378.721 238.747 382.281 238.927C382.71 238.932 383.131 238.825 383.505 238.616C383.879 238.407 384.191 238.104 384.411 237.737C386.581 234.337 394.551 222.077 396.751 221.737C399.301 221.357 404.751 227.997 399.301 238.337C397.646 241.221 396.426 244.335 395.681 247.577C395.545 248.245 395.566 248.937 395.744 249.596C395.922 250.255 396.251 250.863 396.706 251.372C397.161 251.881 397.728 252.276 398.362 252.527C398.997 252.778 399.682 252.877 400.361 252.817C402.111 252.607 403.961 251.247 405.051 247.147C405.051 247.147 409.051 254.677 415.521 244.587C415.521 244.587 422.791 247.397 423.181 238.587C423.181 238.587 430.711 241.457 430.071 227.387C429.521 215.217 420.941 208.507 413.511 204.187C410.773 202.602 407.643 201.822 404.481 201.937Z" fill="#FDAFA2"/>
<path d="M405.051 247.647C404.962 247.649 404.876 247.625 404.801 247.577C404.686 247.512 404.601 247.404 404.565 247.277C404.53 247.149 404.546 247.013 404.611 246.897C408.822 239.396 410.323 230.674 408.861 222.197C408.831 222.069 408.853 221.933 408.922 221.821C408.991 221.709 409.102 221.628 409.231 221.597C409.295 221.581 409.361 221.578 409.426 221.588C409.491 221.598 409.553 221.62 409.609 221.655C409.665 221.689 409.714 221.735 409.752 221.789C409.79 221.842 409.817 221.903 409.831 221.967C411.343 230.689 409.807 239.665 405.481 247.387C405.439 247.465 405.377 247.531 405.302 247.577C405.226 247.622 405.139 247.647 405.051 247.647Z" fill="#522C2C"/>
<path d="M415.519 245.088H415.399C415.27 245.057 415.159 244.977 415.09 244.864C415.021 244.752 414.999 244.617 415.029 244.488C415.029 244.348 418.219 230.488 414.509 222.298C414.464 222.179 414.466 222.047 414.515 221.93C414.563 221.812 414.655 221.718 414.771 221.665C414.887 221.613 415.019 221.607 415.139 221.648C415.26 221.69 415.36 221.775 415.419 221.888C419.279 230.368 416.139 244.138 415.999 244.718C415.972 244.825 415.91 244.919 415.823 244.986C415.736 245.053 415.629 245.089 415.519 245.088Z" fill="#522C2C"/>
<path d="M423.182 239.086C423.078 239.086 422.977 239.054 422.892 238.996C422.838 238.959 422.792 238.912 422.757 238.857C422.722 238.802 422.698 238.741 422.687 238.677C422.676 238.612 422.677 238.546 422.692 238.483C422.707 238.419 422.734 238.359 422.772 238.306C422.772 238.236 426.442 232.756 420.572 222.306C420.507 222.191 420.491 222.055 420.526 221.927C420.562 221.8 420.647 221.691 420.762 221.626C420.819 221.593 420.882 221.571 420.947 221.563C421.012 221.554 421.079 221.559 421.142 221.577C421.206 221.594 421.265 221.625 421.316 221.666C421.368 221.707 421.411 221.758 421.442 221.816C427.652 232.816 423.752 238.616 423.592 238.816C423.552 238.892 423.493 238.957 423.421 239.004C423.35 239.051 423.267 239.079 423.182 239.086Z" fill="#522C2C"/>
<path d="M125.251 98.7067C125.124 98.7068 125.003 98.6579 124.911 98.5703C124.82 98.4827 124.766 98.3631 124.761 98.2367C123.911 82.1267 127.701 73.6767 127.861 73.3167C127.889 73.2566 127.928 73.2027 127.977 73.1581C128.026 73.1134 128.083 73.079 128.146 73.0566C128.208 73.0343 128.274 73.0246 128.34 73.028C128.406 73.0315 128.471 73.048 128.531 73.0767C128.59 73.1035 128.644 73.1421 128.689 73.1901C128.733 73.2381 128.768 73.2945 128.79 73.356C128.812 73.4175 128.822 73.4829 128.819 73.5483C128.816 73.6137 128.799 73.6777 128.771 73.7367C128.771 73.8267 124.921 82.3467 125.771 98.1867C125.775 98.2518 125.766 98.3172 125.744 98.3788C125.723 98.4404 125.689 98.4972 125.645 98.5456C125.601 98.594 125.548 98.6332 125.489 98.6609C125.43 98.6886 125.366 98.7041 125.301 98.7067H125.251Z" fill="#522C2C"/>
<path d="M133.809 98.7077C133.682 98.7056 133.561 98.6563 133.468 98.5694C133.376 98.4824 133.319 98.3642 133.309 98.2377C133.29 95.6651 133.668 93.105 134.429 90.6477C134.469 90.5222 134.556 90.4173 134.672 90.3555C134.788 90.2937 134.923 90.2802 135.049 90.3177C135.112 90.336 135.171 90.3666 135.222 90.4079C135.272 90.4492 135.314 90.5002 135.345 90.558C135.376 90.6158 135.395 90.6792 135.401 90.7444C135.407 90.8096 135.399 90.8753 135.379 90.9377C134.667 93.2816 134.307 95.7181 134.309 98.1677C134.318 98.2987 134.274 98.4278 134.188 98.527C134.102 98.6261 133.98 98.6875 133.849 98.6977L133.809 98.7077Z" fill="#522C2C"/>
<path d="M144.17 98.7079C144.044 98.7061 143.924 98.6582 143.832 98.5733C143.74 98.4885 143.682 98.3726 143.67 98.2479C143.616 95.9083 143.954 93.5761 144.67 91.3479C144.713 91.2236 144.803 91.1208 144.92 91.0611C145.038 91.0015 145.174 90.9896 145.3 91.0279C145.363 91.0472 145.421 91.0789 145.472 91.1213C145.522 91.1638 145.564 91.216 145.594 91.2748C145.624 91.3336 145.641 91.3979 145.646 91.4637C145.65 91.5296 145.641 91.5956 145.62 91.6579C144.933 93.7553 144.595 95.9511 144.62 98.1579C144.631 98.289 144.59 98.4193 144.505 98.5204C144.421 98.6214 144.301 98.6853 144.17 98.6979V98.7079Z" fill="#522C2C"/>
<path d="M149.11 65.707C148.99 65.7048 148.874 65.6626 148.78 65.587C148.681 65.4985 148.62 65.3748 148.611 65.2421C148.601 65.1095 148.644 64.9785 148.73 64.877C148.93 64.657 167.9 42.507 164.53 22.717C163.1 14.307 157.83 7.44697 148.86 2.31697C146.905 1.29717 144.712 0.823867 142.51 0.946977C137.81 1.09641 133.29 2.79043 129.65 5.76697C123.21 10.767 119.57 17.207 118.85 24.767C117.01 43.997 134.76 64.707 134.94 64.917C135.026 65.0185 135.069 65.1495 135.059 65.2821C135.05 65.4148 134.989 65.5385 134.89 65.627C134.789 65.7128 134.658 65.7556 134.525 65.7463C134.392 65.737 134.269 65.6762 134.18 65.577C134 65.367 115.98 44.337 117.86 24.677C118.6 16.867 122.36 10.247 129.03 5.01697C132.847 1.91915 137.577 0.16226 142.49 0.0169693C144.874 -0.103376 147.246 0.418096 149.36 1.52698C158.6 6.80698 164.04 13.907 165.52 22.627C168.97 42.877 149.68 65.377 149.52 65.627C149.461 65.6679 149.394 65.6962 149.324 65.7099C149.253 65.7237 149.18 65.7227 149.11 65.707Z" fill="#522C2C"/>
<path d="M191.32 21.0469H171.66C171.528 21.0469 171.4 20.9942 171.307 20.9004C171.213 20.8067 171.16 20.6795 171.16 20.5469C171.16 20.4143 171.213 20.2871 171.307 20.1933C171.4 20.0996 171.528 20.0469 171.66 20.0469H191.32C191.453 20.0469 191.58 20.0996 191.674 20.1933C191.767 20.2871 191.82 20.4143 191.82 20.5469C191.82 20.6795 191.767 20.8067 191.674 20.9004C191.58 20.9942 191.453 21.0469 191.32 21.0469Z" fill="#522C2C"/>
<path d="M170.13 10.3264C170.042 10.3256 169.955 10.3023 169.878 10.2585C169.801 10.2148 169.736 10.1521 169.69 10.0764C169.627 9.95891 169.612 9.82188 169.648 9.69351C169.683 9.56513 169.766 9.4552 169.88 9.38638L185.33 0.586392C185.387 0.554218 185.449 0.533472 185.513 0.525357C185.578 0.517241 185.643 0.521911 185.706 0.53909C185.769 0.556268 185.827 0.585627 185.879 0.625485C185.93 0.665342 185.973 0.714921 186.005 0.771389C186.037 0.827858 186.058 0.890104 186.066 0.954586C186.074 1.01907 186.07 1.08452 186.052 1.1472C186.035 1.20988 186.006 1.26856 185.966 1.3199C185.926 1.37123 185.877 1.41422 185.82 1.44639L170.38 10.2564C170.305 10.3027 170.218 10.327 170.13 10.3264Z" fill="#522C2C"/>
<path d="M110.891 10.3279C110.828 10.342 110.763 10.342 110.701 10.3279L96.0609 3.93788C95.9938 3.91679 95.932 3.88182 95.8794 3.83524C95.8268 3.78865 95.7846 3.7315 95.7556 3.66751C95.7266 3.60353 95.7114 3.53414 95.7109 3.46388C95.7105 3.39362 95.7249 3.32406 95.7532 3.25974C95.7815 3.19541 95.823 3.13778 95.875 3.09058C95.9271 3.04337 95.9885 3.00767 96.0553 2.98579C96.122 2.96392 96.1927 2.95635 96.2626 2.96361C96.3324 2.97086 96.4 2.99277 96.4609 3.02789L111.091 9.40788C111.151 9.43398 111.206 9.4718 111.252 9.51915C111.298 9.5665 111.334 9.62245 111.358 9.68379C111.382 9.74513 111.394 9.81065 111.393 9.87657C111.392 9.94249 111.377 10.0075 111.351 10.0679C111.307 10.1507 111.24 10.2191 111.159 10.2652C111.077 10.3113 110.984 10.333 110.891 10.3279Z" fill="#522C2C"/>
<path d="M89.5781 22.577C89.4455 22.577 89.3183 22.5243 89.2246 22.4305C89.1308 22.3368 89.0781 22.2096 89.0781 22.077C89.0781 21.9444 89.1308 21.8172 89.2246 21.7234C89.3183 21.6297 89.4455 21.577 89.5781 21.577L107.828 20.947C107.894 20.9414 107.961 20.9497 108.024 20.9714C108.087 20.993 108.145 21.0275 108.194 21.0726C108.243 21.1177 108.282 21.1726 108.308 21.2336C108.335 21.2946 108.348 21.3604 108.348 21.427C108.351 21.4922 108.34 21.5572 108.318 21.6183C108.295 21.6794 108.26 21.7354 108.215 21.7829C108.171 21.8304 108.117 21.8685 108.057 21.8949C107.998 21.9214 107.933 21.9357 107.868 21.937L89.6081 22.577H89.5781Z" fill="#522C2C"/>
<path d="M144.88 65.7075C144.769 65.708 144.66 65.6707 144.573 65.6017C144.486 65.5326 144.425 65.4359 144.4 65.3275C143.33 61.0575 145.06 55.7675 150.71 39.6875C152.53 34.4775 152.66 30.9375 151.08 29.4375C149.5 27.9375 146.5 28.7575 145.45 29.1075C146.162 29.789 146.711 30.622 147.057 31.5446C147.403 32.4672 147.538 33.4559 147.45 34.4375C147.378 35.0884 147.054 35.6853 146.547 36.1007C146.041 36.5162 145.393 36.7173 144.74 36.6612C144.088 36.6051 143.483 36.2962 143.055 35.8004C142.627 35.3046 142.41 34.6612 142.45 34.0075C142.559 32.3003 143.092 30.6472 144 29.1975C143.623 28.92 143.204 28.704 142.76 28.5575C142.061 28.3265 141.307 28.3263 140.608 28.5567C139.91 28.7872 139.304 29.2362 138.88 29.8375L139.02 30.0275C140.332 31.638 141.164 33.5858 141.42 35.6475C141.459 36.2915 141.254 36.9267 140.847 37.427C140.439 37.9272 139.858 38.2558 139.22 38.3475C138.566 38.472 137.889 38.3498 137.32 38.0044C136.752 37.659 136.331 37.115 136.14 36.4775C135.895 35.5258 135.847 34.5345 135.996 33.5634C136.146 32.5923 136.491 31.6616 137.01 30.8275C137.2 30.4775 137.39 30.1675 137.58 29.8875C136.931 29.2815 136.123 28.8723 135.25 28.7075C133.9 28.4775 132.08 28.4575 131.04 29.7075C129.69 31.3075 129.89 34.7675 131.63 39.7075C137.27 55.7875 139.01 61.0775 137.94 65.3475C137.907 65.4767 137.824 65.5877 137.71 65.6569C137.596 65.7261 137.46 65.7478 137.33 65.7175C137.266 65.7012 137.206 65.6724 137.154 65.6329C137.101 65.5934 137.057 65.5439 137.023 65.4872C136.99 65.4305 136.968 65.3678 136.959 65.3027C136.949 65.2375 136.953 65.1712 136.97 65.1075C137.97 61.1075 136.13 55.5475 130.68 40.0375C128.79 34.6575 128.68 30.9575 130.28 29.0375C131.34 27.7775 133.11 27.3275 135.42 27.7275C136.465 27.9087 137.435 28.3919 138.21 29.1175C138.768 28.3908 139.54 27.8566 140.416 27.5895C141.293 27.3224 142.231 27.3356 143.1 27.6275C143.629 27.8039 144.128 28.0602 144.58 28.3875L144.69 28.3375C144.88 28.2675 149.35 26.4475 151.77 28.7375C153.69 30.5475 153.65 34.3475 151.65 40.0375C146.2 55.5475 144.37 61.1175 145.37 65.1075C145.4 65.2373 145.378 65.3739 145.309 65.4879C145.24 65.602 145.129 65.6844 145 65.7175L144.88 65.7075ZM138.25 30.7075C137.203 32.3371 136.787 34.2928 137.08 36.2075C137.201 36.6211 137.476 36.9731 137.847 37.1922C138.218 37.4112 138.659 37.4811 139.08 37.3875C139.48 37.3373 139.846 37.1347 140.101 36.8219C140.356 36.509 140.481 36.1099 140.45 35.7075C140.195 33.8689 139.433 32.1377 138.25 30.7075ZM144.76 29.8875C143.989 31.1541 143.537 32.5881 143.44 34.0675C143.429 34.2556 143.456 34.444 143.519 34.6217C143.581 34.7994 143.679 34.9628 143.806 35.1024C143.932 35.2421 144.085 35.3551 144.256 35.4349C144.427 35.5148 144.612 35.5598 144.8 35.5675C144.99 35.5942 145.183 35.583 145.369 35.5344C145.554 35.4859 145.728 35.4011 145.881 35.2848C146.033 35.1686 146.161 35.0232 146.257 34.8572C146.353 34.6911 146.415 34.5077 146.44 34.3175C146.509 33.5015 146.398 32.6803 146.112 31.9126C145.827 31.145 145.375 30.45 144.79 29.8775L144.76 29.8875Z" fill="#522C2C"/>
<path d="M1.09763 186.008C1.64561 186.008 2.1936 185.596 2.1936 185.081C2.1936 184.669 6.13917 144.07 31.0178 144.07C31.237 144.07 31.5657 144.07 31.7849 144.07C43.9502 144.482 50.3071 151.592 53.4854 157.466C54.143 158.702 54.691 159.939 55.239 161.175C50.4167 163.442 46.4711 168.285 46.0327 175.601C45.7039 181.268 48.1151 185.081 52.2798 185.39C54.2526 185.493 56.0062 184.669 57.2117 182.814C59.9517 178.898 60.6093 170.449 57.8693 162.206C59.0749 161.897 60.3901 161.69 61.8148 161.69C76.2817 162.206 77.5969 184.051 77.7065 184.36V185.39H99.5017C100.159 185.39 100.598 184.978 100.598 184.36C100.598 183.741 100.159 183.329 99.5017 183.329H79.7889C79.5697 181.372 79.0216 176.941 77.2681 172.407C74.0897 164.37 68.829 159.939 61.9244 159.733C60.39 159.733 58.7461 159.939 57.2117 160.351C56.6637 159.011 56.1158 157.775 55.4582 156.538C50.5263 147.471 42.0871 142.319 31.8946 142.009C20.3868 141.7 11.1806 149.016 5.37196 163.339C1.09766 173.953 0.111244 184.463 0.00164795 184.875C0.00164795 185.493 0.440041 186.008 1.09763 186.008ZM55.8965 163.133C58.3077 170.655 57.8693 178.383 55.4582 181.784C54.5814 182.917 53.595 183.535 52.499 183.432C48.9919 183.123 48.0055 179.105 48.2247 175.807C48.4439 171.583 50.855 165.709 55.8965 163.133Z" fill="#522C2C"/>
<path d="M518.649 378.014C518.746 378.014 518.843 378.014 518.94 378.014C523.111 378.288 525.44 381.572 525.149 386.679C524.955 390.328 523.305 394.159 520.977 397.078C519.91 398.355 518.649 399.449 517.29 400.27C517.678 401.091 518.066 402.003 518.552 402.824C521.074 407.658 527.186 415.776 538.731 416.415C544.067 416.689 548.723 415.138 552.507 411.945C543.582 405.834 538.44 395.801 538.634 388.686C538.828 382.484 542.611 378.744 549.111 378.47C553.768 378.288 557.455 380.203 559.88 384.034C563.858 390.328 563.082 400.818 558.231 408.388C557.455 409.665 556.582 410.76 555.612 411.763C559.104 413.77 563.082 415.229 567.544 415.594C586.851 417.145 593.545 379.109 593.642 378.744C593.739 378.288 594.224 377.923 594.709 378.014C595.194 378.105 595.582 378.562 595.485 379.018C595.485 379.109 593.739 389.051 589.47 398.628C583.843 411.581 576.179 418.057 567.35 417.418C562.403 417.053 558.037 415.412 554.253 413.131C550.082 416.871 544.746 418.604 538.731 418.33C529.417 417.783 521.656 412.675 516.902 403.736C516.514 402.915 516.029 402.094 515.738 401.274C514.089 402.003 512.343 402.277 510.499 402.186C504.678 401.912 500.022 397.899 497.014 390.51C495.268 386.315 494.492 382.21 494.298 380.477H459.97C459.388 380.477 459 380.112 459 379.565C459 379.018 459.388 378.653 459.97 378.653H495.85L495.947 379.474C495.947 379.656 498.275 399.723 510.499 400.27C512.148 400.361 513.604 399.997 514.962 399.449C512.246 392.061 511.954 384.034 514.671 380.203C515.738 378.744 517.096 378.014 518.649 378.014ZM516.611 398.537C520.589 395.892 523.014 390.602 523.208 386.588C523.305 385.038 523.305 380.112 518.843 379.839C517.775 379.747 516.999 380.203 516.223 381.207C514.186 384.217 513.992 391.331 516.611 398.537ZM553.865 410.76C554.835 409.756 555.709 408.662 556.485 407.476C561.044 400.453 561.724 390.784 558.134 385.038C556.776 382.849 554.059 380.203 549.111 380.386C541.835 380.659 540.574 385.767 540.477 388.777C540.38 395.527 545.425 405.013 553.865 410.76Z" fill="#522C2C"/>
</svg>
