<svg width="29" height="29" viewBox="0 0 29 29" fill="none" xmlns="http://www.w3.org/2000/svg">
<path d="M0.794372 28.1714C0.699305 28.0899 0.556705 28.022 0.522753 27.9202C0.468429 27.7573 0.420896 27.5265 0.495591 27.3975C0.577077 27.2549 0.787581 27.1259 0.957343 27.0988C1.25612 27.0512 1.56169 27.0852 1.89443 27.0852C1.89443 26.3995 1.89443 25.741 1.89443 25.0825C1.89443 24.9671 1.88764 24.8449 1.89443 24.7295C1.9148 24.3629 2.05061 24.1931 2.4105 24.0981C3.13708 23.9148 3.85687 23.7315 4.58345 23.555C4.75322 23.5143 4.85507 23.4396 4.92298 23.2699C5.15385 22.6725 5.41868 22.0886 5.64956 21.4912C5.6903 21.3962 5.67672 21.24 5.6224 21.1518C5.24892 20.5068 4.85507 19.8687 4.47481 19.2237C4.23714 18.83 4.2643 18.6399 4.59025 18.314C5.22176 17.6827 5.85327 17.0513 6.48479 16.42C6.78357 16.1212 6.99407 16.0941 7.35397 16.3113C7.99906 16.6915 8.63058 17.092 9.28246 17.4586C9.38432 17.5197 9.56087 17.5265 9.66952 17.4858C10.2671 17.255 10.8578 17.0106 11.4418 16.7526C11.5437 16.7051 11.6523 16.5829 11.6795 16.4743C11.8696 15.7614 12.0462 15.0418 12.2227 14.329C12.3382 13.8742 12.4944 13.752 12.9629 13.752C13.8457 13.752 14.7352 13.752 15.618 13.752C16.0661 13.752 16.2291 13.8877 16.3378 14.3222C16.5143 15.0282 16.6977 15.7343 16.8674 16.4471C16.9082 16.6168 16.9761 16.7119 17.139 16.773C17.723 17.0038 18.307 17.2482 18.8842 17.4994C19.0472 17.5673 19.1626 17.5537 19.3052 17.4654C19.9299 17.0853 20.5546 16.7119 21.1862 16.3385C21.58 16.1009 21.7769 16.1212 22.0961 16.4471C22.7276 17.0785 23.3591 17.7098 23.9906 18.3412C24.303 18.6535 24.3234 18.8436 24.0925 19.2305C23.7258 19.8415 23.3659 20.4593 22.9856 21.0635C22.8702 21.2468 22.843 21.3962 22.9381 21.6066C23.1893 22.1565 23.4134 22.7132 23.6307 23.2767C23.6986 23.4464 23.7937 23.5278 23.9702 23.5686C24.69 23.7383 25.403 23.9216 26.1228 24.1049C26.5438 24.2135 26.6729 24.3764 26.6729 24.8109C26.6796 25.4627 26.6729 26.1144 26.6729 26.7593C26.6729 26.8544 26.6729 26.9562 26.6729 27.0852C26.9309 27.0852 27.1754 27.0988 27.413 27.0784C27.7458 27.0512 27.9902 27.1599 28.1532 27.4586C28.1532 27.6962 28.1532 27.927 28.1532 28.1646C19.0472 28.1714 9.92076 28.1714 0.794372 28.1714ZM18.9317 27.0716C19.2237 25.5781 18.8299 24.1253 17.8452 23.0051C17.336 22.4213 16.7112 22.0071 16.005 21.7084C15.6723 21.5659 15.5569 21.2604 15.6859 20.9752C15.8149 20.6901 16.1137 20.5747 16.4396 20.7105C18.5379 21.6202 19.7737 23.202 20.0793 25.4762C20.1472 25.9922 20.0861 26.5285 20.0861 27.0648C21.9127 27.0648 23.7326 27.0648 25.5796 27.0648C25.5796 26.4674 25.5728 25.8836 25.5864 25.2929C25.5932 25.1028 25.5117 25.0485 25.3487 25.0078C24.6833 24.8517 24.0178 24.6752 23.3523 24.519C23.0739 24.4511 22.8974 24.3018 22.7887 24.0302C22.4696 23.2291 22.1368 22.4281 21.7905 21.6338C21.6615 21.3418 21.6887 21.0907 21.8584 20.8191C22.2523 20.1877 22.6325 19.5428 23.0264 18.8843C22.551 18.4159 22.0893 17.9474 21.614 17.4926C21.5664 17.4519 21.417 17.4722 21.3423 17.513C20.7312 17.866 20.1336 18.2326 19.5293 18.5992C19.2984 18.7417 19.0811 18.7553 18.8367 18.6467C18.015 18.3005 17.1934 17.961 16.3649 17.6216C16.1205 17.5197 15.9711 17.3636 15.91 17.0988C15.7538 16.4267 15.5704 15.7547 15.4143 15.0758C15.3735 14.8857 15.2988 14.811 15.0951 14.8178C14.5654 14.8314 14.029 14.8382 13.4993 14.8178C13.2753 14.811 13.2074 14.8993 13.1598 15.0893C13.0036 15.7479 12.8271 16.3996 12.6777 17.0581C12.6098 17.3568 12.4536 17.5265 12.1752 17.6352C11.3875 17.9474 10.6066 18.2665 9.8257 18.6127C9.51334 18.7485 9.24851 18.7282 8.96331 18.5516C8.33859 18.1579 7.70028 17.7845 7.08235 17.4179C6.57306 17.9339 6.07736 18.4294 5.57486 18.9386C5.95513 19.57 6.34219 20.2217 6.73603 20.8666C6.88542 21.111 6.9058 21.3418 6.79715 21.6066C6.45762 22.4077 6.1181 23.2156 5.79216 24.0302C5.68351 24.3086 5.50017 24.4647 5.20818 24.5326C4.54271 24.6887 3.87725 24.8584 3.21178 25.0282C3.13029 25.0485 3.00127 25.1232 3.00127 25.1775C2.98769 25.8089 2.99448 26.4335 2.99448 27.0648C4.84828 27.0648 6.67492 27.0648 8.50835 27.0648C8.48798 26.7797 8.44723 26.5081 8.44723 26.2434C8.44723 24.6412 8.98368 23.2427 10.0973 22.075C10.6881 21.4573 11.3807 21.0024 12.1752 20.6901C12.5758 20.534 12.9765 20.792 12.9561 21.1925C12.9425 21.5251 12.6913 21.6541 12.4264 21.7695C10.3418 22.6792 9.22135 24.8109 9.64915 27.0648C12.7456 27.0716 15.8421 27.0716 18.9317 27.0716Z" fill="white"/>
<path d="M27.4322 0.412109C24.6889 0.418898 21.9387 0.418898 19.1954 0.418898C19.1207 0.418898 19.0528 0.418898 18.9781 0.418898C18.5571 0.452842 18.3398 0.907693 18.5775 1.26071C18.6386 1.34897 18.7133 1.42364 18.7948 1.50511C19.4127 2.12289 20.0306 2.74067 20.6282 3.33809L17.6675 6.29801C17.4367 6.52883 17.4367 6.90221 17.6675 7.13303C17.8984 7.36385 18.2719 7.36385 18.5028 7.13303C19.4806 6.15544 20.4516 5.18464 21.4159 4.22742C22.4005 5.2118 23.3987 6.20975 24.424 7.23486C24.3697 7.28239 24.2882 7.3367 24.2203 7.41137C22.5227 9.10857 20.8183 10.8058 19.1207 12.5098C18.754 12.8764 18.6997 13.1887 18.9577 13.4466C19.209 13.7046 19.5349 13.6503 19.8948 13.2905C21.5924 11.5933 23.2968 9.89608 24.9944 8.19209C25.0691 8.11741 25.1235 8.02237 25.1982 7.91374C25.8772 8.59263 26.5019 9.22399 27.1267 9.84856C27.5409 10.2627 27.86 10.2287 28.186 9.7603V0.799072C28.0162 0.500364 27.765 0.412109 27.4322 0.412109ZM27.0723 8.20566L20.3905 1.52547H27.0723V8.20566ZM16.1872 7.77118C15.3859 8.57226 14.5847 9.37334 13.7834 10.1744C13.7358 10.1133 13.6815 10.0319 13.6068 9.96397C11.6376 7.99521 9.67515 6.02646 7.70591 4.06449C7.26453 3.62322 7.02686 3.62322 6.59227 4.0577C4.63662 6.01288 2.68096 7.96806 0.725305 9.92323C0.64382 10.0047 0.528382 10.0862 0.50122 10.188C0.460477 10.3577 0.426525 10.5817 0.50122 10.7175C0.575915 10.8533 0.8 10.9823 0.949391 10.9755C1.11915 10.9687 1.32287 10.8465 1.45189 10.7175C3.27852 8.90491 5.09837 7.08551 6.91821 5.25932C6.98612 5.19143 7.02007 5.08281 7.06761 4.99456C7.10835 5.00813 7.14909 5.02171 7.18983 5.04208C7.25774 5.13033 7.31206 5.21859 7.39355 5.30005C9.77021 7.67614 12.1469 10.0522 14.5235 12.4283C14.605 12.5098 14.6865 12.6048 14.7884 12.6523C14.9038 12.7066 15.0464 12.7474 15.1686 12.727C15.6236 12.6591 15.7662 12.1568 15.4335 11.7969C15.1686 11.5118 14.8766 11.2538 14.6186 11.0027C15.4199 10.2016 16.2212 9.40049 17.0156 8.6062C17.2465 8.37538 17.2465 8.002 17.0156 7.77118C16.7916 7.54036 16.4181 7.54036 16.1872 7.77118Z" fill="white"/>
<path d="M7.86261 11.8927C7.99163 11.9877 8.10028 12.042 8.18176 12.1235C9.03736 12.9721 9.88617 13.8139 10.7282 14.6761C10.8436 14.7915 10.9387 14.9476 10.9862 15.1038C11.0541 15.321 10.9523 15.5111 10.7621 15.6333C10.572 15.7555 10.3683 15.7555 10.1782 15.6333C10.0831 15.5722 9.99482 15.4839 9.91333 15.4025C9.0102 14.5064 8.10707 13.6034 7.21072 12.7005C7.19714 12.6869 7.18356 12.6802 7.07491 12.5783C7.02059 12.6734 6.99343 12.7888 6.91873 12.8635C5.10568 14.6829 3.29262 16.4955 1.47278 18.3013C1.34376 18.4235 1.1672 18.5253 0.997442 18.5661C0.786938 18.6204 0.617176 18.4982 0.501738 18.3149C0.39309 18.1248 0.39309 17.9347 0.515319 17.7514C0.576433 17.6631 0.651128 17.5817 0.725823 17.507C3.10928 15.1241 5.49273 12.7413 7.87619 10.3584C7.91693 10.3177 7.95088 10.2837 7.99163 10.243C8.25646 10.0054 8.57561 9.99858 8.7929 10.2158C9.00341 10.4331 8.99662 10.7657 8.75895 11.0169C8.48054 11.302 8.20213 11.5668 7.86261 11.8927Z" fill="white"/>
</svg>