<svg width="29" height="29" viewBox="0 0 29 29" fill="none" xmlns="http://www.w3.org/2000/svg">
<g clip-path="url(#clip0_1979_25578)">
<path d="M28.1718 14.5634C28.0849 14.7445 28.027 14.9328 27.9111 15.0921C27.6215 15.5121 27.1943 15.686 26.702 15.686C26.2748 15.6932 25.8549 15.6932 25.4277 15.686C25.1453 15.6787 24.9716 15.8018 24.8702 16.0626C24.7254 16.4319 24.5806 16.8013 24.4141 17.1634C24.291 17.4313 24.3417 17.6486 24.5444 17.8441C24.834 18.1266 25.1236 18.4163 25.406 18.706C26.0649 19.3795 26.0793 20.1689 25.4205 20.8352C24.8195 21.4435 24.2113 22.0519 23.5959 22.653C22.937 23.2975 22.1406 23.2975 21.489 22.6457C21.0111 22.175 20.5405 21.7042 20.0699 21.2263C19.9033 21.0597 19.8526 20.8497 19.9685 20.6324C20.0771 20.4369 20.2653 20.3644 20.4753 20.4224C20.5984 20.4586 20.707 20.5527 20.8011 20.6469C21.2428 21.0742 21.67 21.516 22.1044 21.9432C22.423 22.2547 22.6474 22.2619 22.9587 21.9505C23.5452 21.3639 24.1389 20.7772 24.7181 20.1906C25.0295 19.8792 25.0295 19.6619 24.7109 19.336C24.4141 19.0319 24.11 18.7349 23.8131 18.4308C23.3642 17.9673 23.2628 17.4313 23.5163 16.8375C23.6755 16.4609 23.8348 16.0915 23.9869 15.7149C24.2475 15.0704 24.6892 14.7517 25.3987 14.7372C25.8259 14.73 26.2459 14.7372 26.673 14.7372C27.0568 14.73 27.2305 14.5707 27.2305 14.2013C27.2378 13.3322 27.2378 12.4632 27.2305 11.6013C27.2305 11.232 27.0495 11.0654 26.673 11.0582C26.2603 11.0509 25.8404 11.0582 25.4277 11.0582C24.6675 11.0509 24.2475 10.7468 23.9724 10.037C23.8348 9.67491 23.6755 9.32005 23.5235 8.96518C23.2773 8.37856 23.3642 7.84987 23.8059 7.39361C24.1027 7.0822 24.4213 6.77802 24.7254 6.47385C25.044 6.14795 25.044 5.93793 24.7326 5.61927C24.1389 5.02541 23.5452 4.43154 22.9515 3.83768C22.6547 3.54799 22.4374 3.54799 22.1406 3.83768C21.8437 4.12737 21.5541 4.4243 21.2573 4.71399C20.7504 5.2137 20.2291 5.30785 19.5775 5.03265C19.2155 4.87332 18.8462 4.72848 18.477 4.58363C17.8688 4.33739 17.543 3.89562 17.5285 3.23658C17.5213 2.80929 17.5285 2.38924 17.5213 1.96195C17.514 1.50569 17.3547 1.34636 16.8986 1.34636C16.0877 1.34636 15.2695 1.34636 14.4586 1.34636C13.9952 1.34636 13.8432 1.50569 13.8359 1.96195C13.8287 2.46166 13.8432 2.95413 13.7997 3.45384C13.7563 3.97528 13.4522 4.33739 12.9816 4.54018C12.5544 4.72848 12.12 4.90953 11.6855 5.08334C11.1208 5.30785 10.6067 5.20646 10.1651 4.78641C9.8465 4.48224 9.53517 4.16358 9.22383 3.85217C8.91974 3.54799 8.69529 3.55523 8.39119 3.85941C7.79749 4.43879 7.20378 5.02541 6.61007 5.62651C6.32046 5.9162 6.32046 6.14795 6.61007 6.44488C7.03725 6.87942 7.46443 7.29946 7.89161 7.734C7.95677 7.79918 8.0147 7.86436 8.07262 7.93678C8.22467 8.13956 8.1957 8.34234 8.03642 8.53064C7.89161 8.69721 7.63096 8.71894 7.44995 8.58134C7.28342 8.45822 7.14586 8.29889 6.99381 8.15405C6.63179 7.79918 6.27702 7.44431 5.92224 7.0822C5.30681 6.44488 5.29957 5.64824 5.915 5.01092C6.52319 4.38085 7.14586 3.76526 7.77576 3.14967C8.42739 2.5196 9.21659 2.52684 9.86822 3.16415C10.1651 3.45384 10.4619 3.74353 10.7515 4.04771C10.9543 4.25773 11.1642 4.30843 11.4321 4.17807C11.7941 4.01149 12.1634 3.86665 12.5327 3.72181C12.7933 3.62041 12.9164 3.45384 12.9092 3.16415C12.8947 2.75135 12.9019 2.3313 12.9092 1.91849C12.9019 1.1653 13.2422 0.701798 13.9518 0.455563C13.9735 0.44832 13.9952 0.426594 14.0169 0.412109C15.1392 0.412109 16.2542 0.412109 17.3764 0.412109C17.3982 0.426594 17.4127 0.455563 17.4344 0.462805C18.1512 0.730767 18.4553 1.17254 18.4625 1.94022C18.4625 2.34578 18.4697 2.75135 18.4625 3.15691C18.4553 3.4466 18.5856 3.61317 18.839 3.71456C19.2083 3.85941 19.5775 4.00425 19.9323 4.17082C20.2002 4.29394 20.4101 4.24325 20.6129 4.04046C20.8953 3.75077 21.1849 3.46109 21.4745 3.17864C22.1406 2.5196 22.937 2.51235 23.6031 3.16415C24.2113 3.76526 24.8195 4.37361 25.4205 4.98195C26.0648 5.63375 26.0648 6.43764 25.4205 7.08944C25.1236 7.39361 24.8268 7.69054 24.5227 7.98748C24.3344 8.17577 24.291 8.37856 24.3996 8.62479C24.5661 9.00139 24.7181 9.38523 24.8774 9.76906C24.9788 10.0153 25.1526 10.1312 25.4205 10.1239C25.8621 10.1167 26.3038 10.1167 26.7454 10.1239C27.2523 10.1312 27.6505 10.3412 27.9401 10.754C28.0342 10.8916 28.0921 11.0509 28.1718 11.203C28.1718 12.3183 28.1718 13.4409 28.1718 14.5634Z" fill="white"/>
<path d="M9.65816 28.1708C9.35407 28.1708 9.04273 28.178 8.73864 28.1708C7.96392 28.1563 7.37021 27.5697 7.35573 26.7948C7.35573 26.7586 7.35573 26.7224 7.35573 26.6861C7.37746 25.933 7.33401 25.933 6.53034 25.6578C6.40725 25.6143 6.20452 25.7157 6.07419 25.8026C5.90043 25.9185 5.77734 26.0923 5.61805 26.2226C5.10399 26.6355 4.3872 26.6499 3.90209 26.2154C3.37355 25.7374 2.85949 25.2377 2.38886 24.7018C1.93272 24.1876 1.96168 23.4706 2.3961 22.9419C2.44679 22.8767 2.50471 22.8188 2.56263 22.7609C3.06222 22.2539 3.05497 22.2539 2.76536 21.5876C2.65676 21.3414 2.47575 21.24 2.2151 21.2328C1.96168 21.2255 1.70103 21.24 1.4621 21.1821C0.839432 21.03 0.426733 20.5013 0.419493 19.864C0.412252 19.2267 0.412252 18.5893 0.419493 17.9593C0.426733 17.2495 0.955278 16.6846 1.65759 16.6195C1.84584 16.605 2.03409 16.5977 2.22234 16.5977C2.48299 16.5977 2.67124 16.4963 2.76536 16.2356C2.79432 16.1415 2.83776 16.0473 2.88121 15.9604C3.03325 15.6852 2.95361 15.4679 2.7364 15.2579C2.56987 15.0986 2.3961 14.9248 2.27302 14.7292C1.93272 14.2078 1.99789 13.527 2.43955 13.0563C2.87397 12.5855 3.33011 12.1293 3.80073 11.6947C4.36548 11.1661 5.13295 11.1733 5.71218 11.6875C5.82078 11.7817 5.92215 11.883 6.02351 11.9917C6.219 12.2089 6.44345 12.2307 6.71134 12.1293C7.33401 11.8758 7.35573 11.8541 7.35573 11.1805C7.35573 10.4201 7.73223 9.89143 8.38386 9.71038C8.48523 9.68141 8.59383 9.66692 8.70244 9.66692C9.39027 9.66692 10.0781 9.65244 10.7587 9.68865C11.3886 9.71762 11.8954 10.2608 11.9533 10.8836C11.9751 11.1009 11.9751 11.3182 11.9823 11.5354C11.9895 11.7599 12.0909 11.912 12.3009 11.9989C12.4095 12.0424 12.5181 12.0858 12.6267 12.1365C12.8874 12.2596 13.1118 12.2162 13.3073 12.0062C13.4376 11.8686 13.5752 11.731 13.72 11.6151C14.2558 11.2023 14.9581 11.2023 15.4577 11.6513C15.9645 12.1148 16.4496 12.6 16.913 13.107C17.3908 13.6284 17.3764 14.3744 16.9275 14.9103C16.8116 15.0479 16.6813 15.1783 16.551 15.3014C16.3627 15.4824 16.3338 15.6852 16.4279 15.917C16.4424 15.9532 16.4496 15.9821 16.4641 16.0184C16.6958 16.576 16.7175 16.5688 17.3184 16.605C17.6225 16.6195 17.9556 16.6774 18.2235 16.815C18.6217 17.0105 18.8679 17.3799 18.8823 17.8362C18.9041 18.5604 18.9113 19.2846 18.8823 20.0016C18.8534 20.6751 18.2597 21.2038 17.5936 21.2255C17.5284 21.2255 17.4705 21.2328 17.4053 21.2255C16.6668 21.2038 16.6668 21.2907 16.4134 21.9932C16.3627 22.1308 16.4424 22.3408 16.522 22.4857C16.6016 22.6305 16.7609 22.7319 16.8695 22.855C17.3908 23.4271 17.4126 24.1948 16.884 24.767C16.4424 25.2449 15.979 25.7012 15.5011 26.143C14.9581 26.6427 14.2268 26.6427 13.6548 26.172C13.5607 26.0923 13.4666 26.0054 13.3797 25.9112C13.0322 25.5636 12.967 25.5491 12.5253 25.7374C11.9968 25.9547 11.9823 25.9837 11.9751 26.592C11.9678 27.6204 11.4248 28.1636 10.4039 28.1708C10.165 28.1708 9.91157 28.1708 9.65816 28.1708ZM14.5961 25.6215C14.7264 25.5419 14.864 25.4767 14.9726 25.3753C15.2911 25.0711 15.6025 24.7525 15.9138 24.4411C16.493 23.8617 16.493 23.7893 15.9138 23.2026C15.8993 23.1882 15.8849 23.1737 15.8776 23.1664C15.0884 22.3408 15.5373 20.6896 16.6378 20.3637C16.7465 20.3347 16.8695 20.3202 16.9854 20.313C17.1591 20.3057 17.3257 20.3202 17.4994 20.3058C17.8253 20.284 17.9918 20.1102 17.9918 19.7843C17.999 19.3353 17.9918 18.879 17.9918 18.43C17.9918 17.5899 17.9556 17.5537 17.1085 17.5465C16.5727 17.5392 16.131 17.3437 15.8559 16.8729C15.7038 16.6122 15.588 16.3225 15.5011 16.0328C15.3563 15.5621 15.4866 15.142 15.798 14.7727C15.8921 14.6641 15.9935 14.5627 16.0948 14.4613C16.4206 14.1281 16.4206 13.9109 16.1021 13.585C15.7618 13.2446 15.4287 12.9042 15.0884 12.5711C14.6757 12.1582 14.4947 12.1582 14.0748 12.5711C13.4304 13.2156 12.996 13.3025 12.1488 12.9477C12.0692 12.9114 11.9823 12.8825 11.9027 12.839C11.3596 12.5855 11.0845 12.151 11.0555 11.5571C11.0483 11.4123 11.0555 11.2675 11.0555 11.1226C11.0483 10.775 10.8818 10.6012 10.5415 10.6012C9.96226 10.5939 9.38303 10.5939 8.8038 10.6012C8.47799 10.6012 8.31146 10.775 8.28974 11.1009C8.2825 11.2602 8.28974 11.4268 8.2825 11.5861C8.26802 12.0858 8.05081 12.4841 7.62363 12.7304C7.35573 12.8825 7.05164 12.9983 6.75479 13.0925C6.29865 13.2301 5.88595 13.0925 5.51669 12.7956C5.43705 12.7304 5.37188 12.658 5.29948 12.5928C4.8361 12.1293 4.68405 12.1293 4.21343 12.6C3.90933 12.9042 3.598 13.2156 3.29391 13.5198C2.89569 13.9181 2.91017 14.0774 3.28667 14.4975C3.49664 14.7365 3.7066 14.9972 3.82245 15.2869C4.03242 15.7938 3.78625 16.2573 3.57628 16.7064C3.33011 17.2278 2.90293 17.4885 2.33818 17.532C2.18613 17.5392 2.03409 17.532 1.8748 17.5392C1.5345 17.5465 1.34626 17.7058 1.33902 18.0534C1.32453 18.6328 1.32453 19.2122 1.33902 19.7843C1.34626 20.1247 1.52726 20.284 1.8748 20.3058C2.02685 20.313 2.17889 20.3057 2.33818 20.313C2.89569 20.3347 3.30115 20.5954 3.55456 21.0807C4.03242 22.0222 4.07586 22.645 3.21426 23.4271C2.91017 23.7024 2.93189 23.9413 3.2215 24.2383C3.56904 24.5931 3.92382 24.9408 4.27859 25.2956C4.67681 25.694 4.8361 25.6795 5.25604 25.3029C5.49497 25.0929 5.76286 24.9046 6.04523 24.7597C6.58826 24.4918 7.906 25.0494 8.12321 25.6288C8.19561 25.8171 8.23906 26.0199 8.27526 26.2226C8.29698 26.3603 8.2825 26.5123 8.2825 26.6572C8.28974 27.0627 8.46351 27.2366 8.86172 27.2438C9.29614 27.251 9.73057 27.2366 10.165 27.2438C10.8528 27.2583 11.0845 27.2076 11.0555 26.3747C11.0338 25.7012 11.3524 25.2232 11.9823 24.9625C12.0837 24.919 12.1778 24.8756 12.2792 24.8321C12.9163 24.5642 13.4738 24.6728 13.9662 25.1653C14.0603 25.2594 14.1544 25.3681 14.2558 25.4477C14.3427 25.5129 14.4585 25.5564 14.5961 25.6215Z" fill="white"/>
<path d="M15.6751 6.88679C18.535 6.87231 21.0836 8.95083 21.5832 11.7825C21.9452 13.8031 21.4022 15.5847 19.9903 17.0911C19.7731 17.3228 19.498 17.3518 19.2953 17.178C19.0781 16.9897 19.0708 16.7145 19.3097 16.461C20.07 15.6716 20.5406 14.7374 20.7216 13.6583C21.2067 10.8555 19.0636 8.07452 16.2398 7.82828C14.6832 7.69068 13.3437 8.1397 12.1925 9.19706C12.1635 9.21879 12.1418 9.24776 12.1129 9.26949C11.8667 9.47227 11.5988 9.47951 11.4105 9.27673C11.2295 9.07395 11.2368 8.78426 11.4829 8.58872C11.9318 8.23385 12.388 7.86449 12.8803 7.58205C13.7492 7.09682 14.6904 6.89404 15.6751 6.88679Z" fill="white"/>
<path d="M9.62928 23.0794C7.23997 23.0215 5.44437 21.153 5.50953 18.7414C5.56745 16.6846 7.24721 14.7292 9.67996 14.7581C12.0765 14.7871 13.8504 16.6339 13.8287 18.9297C13.807 21.5948 11.8521 23.0288 9.62928 23.0794ZM9.67996 15.6924C7.89884 15.6851 6.43629 17.1191 6.42905 18.8862C6.42181 20.6968 7.84816 22.138 9.65824 22.1524C11.3887 22.1669 12.8802 20.7112 12.8874 18.9948C12.8947 17.1408 11.49 15.6996 9.67996 15.6924Z" fill="white"/>
</g>
<defs>
<clipPath id="clip0_1979_25578">
<rect width="27.7594" height="27.7594" fill="white" transform="translate(0.410156 0.410156)"/>
</clipPath>
</defs>
</svg>