<svg width="29" height="28" viewBox="0 0 29 28" fill="none" xmlns="http://www.w3.org/2000/svg">
<g clip-path="url(#clip0_1979_25587)">
<path d="M28.4381 8.23482C27.7573 8.92989 27.0766 9.62496 26.3813 10.3128C26.2075 10.4866 25.9758 10.4648 25.7947 10.2911C25.1574 9.6684 24.5201 9.03849 23.89 8.40134C23.6945 8.20585 23.7162 7.95244 23.9117 7.74971C24.0711 7.58319 24.2449 7.41666 24.4114 7.25013C20.5658 4.24539 14.6706 4.1223 10.6512 7.03292C11.0568 7.98864 10.9916 8.89369 10.2312 9.65392C9.47073 10.4069 8.56545 10.4721 7.60948 10.0666C4.97331 13.6651 4.55326 19.4429 7.83399 23.8667C7.99332 23.6929 8.14541 23.5119 8.30473 23.3526C8.53649 23.1209 8.78996 23.1209 9.01447 23.3454C9.62282 23.9536 10.2239 24.5618 10.825 25.1772C11.0278 25.3799 11.0568 25.6261 10.883 25.8071C10.195 26.5022 9.4997 27.1755 8.80445 27.8634C8.69581 27.8634 8.58718 27.8634 8.47855 27.8634C7.81226 27.2045 7.14598 26.5456 6.48694 25.8795C6.24794 25.6333 6.24794 25.4161 6.48694 25.17C6.7042 24.9455 6.93595 24.7283 7.16046 24.5111C4.39393 20.5434 3.87974 16.3295 5.60338 11.8043C5.5382 11.855 5.48751 11.8839 5.4513 11.9274C4.75604 12.6225 4.06079 13.3175 3.3583 14.0054C3.24966 14.114 3.22794 14.2009 3.27139 14.3529C3.51038 15.1421 3.03964 15.8951 2.22127 16.0544C1.51153 16.1919 0.76558 15.6562 0.685915 14.9466C0.591766 14.114 1.1639 13.4334 1.97503 13.4044C2.0547 13.4044 2.14884 13.3972 2.21402 13.4334C2.53992 13.5854 2.72822 13.4117 2.94549 13.1944C4.15494 11.9708 5.37163 10.7617 6.58833 9.55256C6.66075 9.48015 6.74041 9.42947 6.80559 9.37879C6.25518 8.07553 6.36382 7.19945 7.13874 6.46093C7.8702 5.76586 8.81169 5.67898 9.90527 6.21476C9.9632 6.15684 10.0284 6.09892 10.0936 6.04099C11.3682 4.75945 12.6428 3.48516 13.9247 2.21086C14.0551 2.08053 14.0985 1.98641 14.0333 1.79092C13.8523 1.20445 14.113 0.58178 14.6344 0.277686C15.1559 -0.0264081 15.8294 0.0604759 16.2567 0.494896C16.6767 0.922076 16.7637 1.57371 16.4667 2.09501C16.1625 2.62356 15.5542 2.88421 14.9603 2.71044C14.7938 2.65976 14.6851 2.68148 14.562 2.8118C13.8957 3.48516 13.2222 4.15127 12.5487 4.82462C12.4835 4.88978 12.4256 4.95494 12.3314 5.04907C16.8868 3.31139 21.1017 3.81821 25.1067 6.5985C25.3022 6.39577 25.5123 6.15684 25.7295 5.93963C25.9975 5.67174 26.2148 5.67174 26.4755 5.93239C27.1345 6.58402 27.7863 7.25013 28.4381 7.90176C28.4381 8.01761 28.4381 8.12621 28.4381 8.23482ZM8.67409 9.43671C9.42728 9.43671 10.0139 8.85024 10.0139 8.09725C10.0139 7.33701 9.4128 6.72883 8.66685 6.72883C7.92814 6.72883 7.32703 7.33701 7.31979 8.07553C7.30531 8.82852 7.91365 9.43671 8.67409 9.43671ZM7.44291 25.4958C7.84847 25.9085 8.26852 26.3284 8.66685 26.7266C9.07241 26.3212 9.49246 25.9085 9.8763 25.5247C9.47073 25.1193 9.05793 24.7066 8.64512 24.2939C8.25404 24.6849 7.84123 25.0976 7.44291 25.4958ZM26.0989 9.28466C26.5117 8.87197 26.9245 8.45927 27.2866 8.09001C26.8883 7.69179 26.4755 7.27909 26.0916 6.89535C25.7078 7.27909 25.295 7.69903 24.8967 8.09001C25.295 8.48099 25.7078 8.89369 26.0989 9.28466ZM15.3224 1.89228C15.5687 1.89228 15.7642 1.69679 15.7715 1.45062C15.7787 1.18997 15.5832 0.972758 15.3297 0.972758C15.0907 0.972758 14.8879 1.16825 14.8807 1.41442C14.8662 1.68231 15.069 1.89228 15.3224 1.89228ZM2.47474 14.7439C2.47474 14.4977 2.2792 14.3022 2.02573 14.295C1.76501 14.2877 1.59844 14.4543 1.59844 14.7077C1.59844 14.9611 1.79398 15.1638 2.03297 15.1711C2.26472 15.1711 2.4675 14.9756 2.47474 14.7439Z" fill="white" stroke="white" stroke-width="0.289161"/>
<path d="M27.9018 20.1454C27.1341 19.7544 26.352 19.3707 25.5843 18.9725C25.4539 18.9073 25.3308 18.7697 25.2729 18.6394C24.708 17.2058 24.1576 15.7722 23.6072 14.3314C23.5202 14.0925 23.3826 13.9477 23.1437 13.8463C19.4863 12.391 15.829 10.9357 12.1789 9.46589C11.9037 9.35729 11.7009 9.39349 11.4982 9.60346C11.0781 10.0379 10.6508 10.4723 10.2163 10.885C9.97004 11.1167 9.93383 11.3411 10.057 11.6525C10.7015 13.2598 11.3461 14.8599 11.9906 16.4673C12.0775 16.6917 12.331 16.8004 12.5555 16.7135C12.7873 16.6266 12.8959 16.3659 12.809 16.1415C12.2079 14.65 11.614 13.1585 11.0129 11.667C10.9333 11.457 10.9405 11.3267 11.1505 11.2253C13.0045 13.0788 14.8585 14.9323 16.7126 16.7859C15.8073 18.2701 16.4518 19.6965 17.3354 20.3192C18.3638 21.0504 19.7688 20.9346 20.6523 20.0368C21.5286 19.1462 21.6228 17.7561 20.8913 16.7352C20.2395 15.8301 18.8128 15.2437 17.3788 16.1198L11.8096 10.5519C11.8965 10.3565 12.0341 10.3347 12.2658 10.4289C15.6914 11.8118 19.1242 13.1802 22.557 14.5486C22.7236 14.6138 22.8177 14.7007 22.8829 14.8744C23.3899 16.2066 23.8968 17.5316 24.4183 18.8566C24.4762 19.0087 24.469 19.11 24.3459 19.2331C22.8322 20.7391 21.3259 22.2451 19.8267 23.7583C19.7036 23.8814 19.6022 23.8959 19.4501 23.8307C18.1248 23.3167 16.7922 22.8026 15.4669 22.2958C15.3003 22.2306 15.2134 22.1365 15.1482 21.97C14.5833 20.5581 14.0257 19.1462 13.4608 17.7416C13.3739 17.5171 13.1204 17.4085 12.8959 17.4954C12.6642 17.5823 12.5555 17.843 12.6424 18.0674C13.2363 19.5589 13.8301 21.0432 14.424 22.5347C14.5254 22.7809 14.6702 22.9329 14.9165 23.027C16.3504 23.5701 17.7772 24.1203 19.2039 24.6634C19.3849 24.7358 19.5008 24.8371 19.5805 25.0109C19.9571 25.7856 20.3482 26.5603 20.7392 27.3278C20.8334 27.5088 20.9565 27.6753 21.0651 27.8419H21.4417C23.7737 25.5105 26.1057 23.1791 28.4377 20.8477V20.4712C28.2639 20.3698 28.0901 20.2395 27.9018 20.1454ZM18.849 16.5759C19.7688 16.5759 20.522 17.3361 20.5147 18.2484C20.5147 19.1607 19.7543 19.9209 18.8418 19.9282C17.922 19.9427 17.1543 19.1752 17.1543 18.2412C17.1543 17.3072 17.9003 16.5759 18.849 16.5759ZM21.3693 26.6327C21.0289 25.9449 20.674 25.2426 20.3264 24.5548C21.9342 22.9474 23.5275 21.3545 25.1425 19.7472C25.8233 20.0875 26.5258 20.4422 27.221 20.7898C25.2584 22.7374 23.3247 24.6778 21.3693 26.6327Z" fill="white" stroke="white" stroke-width="0.289161"/>
</g>
<defs>
<clipPath id="clip0_1979_25587">
<rect width="27.7594" height="27.7594" fill="white" transform="translate(0.671875 0.0957031)"/>
</clipPath>
</defs>
</svg>

