<svg width="29" height="29" viewBox="0 0 29 29" fill="none" xmlns="http://www.w3.org/2000/svg">
<g clip-path="url(#clip0_1979_25518)">
<path d="M14.8758 0.832031C15.1253 0.984118 15.1987 1.21587 15.1914 1.49832C15.184 1.98354 15.1914 2.47602 15.184 2.96125C15.184 3.07712 15.1767 3.20024 15.1327 3.30887C15.0593 3.50441 14.8978 3.64201 14.6923 3.59132C14.5382 3.55511 14.3841 3.43199 14.274 3.30163C14.208 3.22921 14.2227 3.07712 14.2227 2.96125C14.2153 2.47602 14.23 1.98354 14.2153 1.49832C14.208 1.21587 14.2814 0.984118 14.5309 0.832031C14.6557 0.832031 14.7657 0.832031 14.8758 0.832031Z" fill="white"/>
<path d="M11.779 24.4268C11.346 23.8329 11.2873 23.2535 11.7203 22.6597C11.7497 22.6162 11.7423 22.5148 11.7056 22.4714C11.4561 22.1382 11.4047 21.7616 11.4268 21.3633C11.4341 21.1967 11.3974 21.0881 11.2286 21.0012C10.7443 20.7477 10.5094 20.3204 10.4874 19.7845C10.4801 19.4876 10.4727 19.1906 10.4874 18.8937C10.5094 18.3795 10.3186 17.9667 9.92234 17.6263C9.32791 17.1266 8.80686 16.5545 8.38856 15.9027C7.44921 14.4397 7.0676 12.832 7.26574 11.1228C7.53727 8.78356 8.70412 6.973 10.6929 5.68389C11.6983 5.03933 12.8064 4.68446 14.0026 4.56134C17.2023 4.24993 20.3359 6.10394 21.5835 9.05152C22.6109 11.4922 22.3907 13.8531 20.901 16.0548C20.5414 16.5907 20.0717 17.0614 19.5947 17.5032C19.1324 17.9305 18.8828 18.394 18.9195 19.0241C18.9415 19.3644 18.9269 19.7121 18.8828 20.0525C18.8241 20.4797 18.5673 20.8056 18.1783 20.9939C18.0169 21.0736 17.9802 21.175 17.9875 21.3343C18.0095 21.7399 17.9582 22.1237 17.7013 22.4641C17.6646 22.5076 17.694 22.6307 17.7307 22.6959C18.0682 23.2246 18.0682 23.746 17.7307 24.2747C17.6866 24.3399 17.6866 24.4847 17.7307 24.5499C18.215 25.3103 17.9802 26.1866 17.1803 26.5922C17.0849 26.6429 16.9968 26.7588 16.9601 26.8674C16.7033 27.7147 16.1455 28.2724 15.2869 28.4969C14.4136 28.7286 13.643 28.4824 13.0046 27.8523C12.7918 27.6423 12.7771 27.3671 12.9605 27.1788C13.144 26.9905 13.4155 26.976 13.643 27.186C14.098 27.5989 14.6044 27.7727 15.1988 27.5482C15.5731 27.4106 15.8446 27.1571 15.9987 26.7298C15.5291 26.7298 15.0888 26.7298 14.6484 26.7298C14.509 26.7298 14.3769 26.737 14.2375 26.7298C13.9513 26.7081 13.7678 26.5198 13.7678 26.2663C13.7678 26.0056 13.9439 25.8173 14.2375 25.81C14.9346 25.7955 15.6318 25.8028 16.3216 25.8028C16.4391 25.8028 16.5638 25.7955 16.6739 25.7738C16.9161 25.7231 17.0262 25.5565 17.0188 25.3248C17.0115 25.0786 16.8647 24.941 16.6299 24.9047C16.4758 24.883 16.3216 24.8975 16.1675 24.8903C15.8446 24.8758 15.6392 24.6875 15.6392 24.4195C15.6392 24.1588 15.83 23.9777 16.1455 23.956C16.3216 23.9415 16.4978 23.9488 16.6666 23.927C16.9014 23.8908 17.0482 23.7025 17.0262 23.4635C17.0041 23.2246 16.872 23.0797 16.6299 23.0507C16.4758 23.0363 16.3216 23.0507 16.1602 23.0363C15.8373 23.0145 15.6318 22.819 15.6392 22.5583C15.6465 22.3048 15.8373 22.1237 16.1529 22.0948C16.2703 22.0875 16.3877 22.0948 16.5125 22.0875C16.8574 22.073 17.0115 21.9354 17.0408 21.5951C17.0482 21.4719 17.0408 21.3488 17.0408 21.1822C16.7546 21.1822 16.4904 21.2112 16.2336 21.175C16.0575 21.1533 15.8446 21.0809 15.7419 20.9577C15.4924 20.668 15.7346 20.2697 16.1529 20.2408C16.4464 20.219 16.7399 20.2335 17.0335 20.2335C17.1803 20.2335 17.327 20.2335 17.4738 20.2335C17.7967 20.2263 17.9655 20.0814 17.9875 19.7555C18.0022 19.5093 18.0095 19.2703 17.9949 19.0241C17.9435 18.1043 18.2884 17.3873 19.0003 16.7935C20.0277 15.9389 20.7175 14.8598 21.0477 13.5707C21.5908 11.4487 21.1431 9.52227 19.7561 7.83483C18.5599 6.38638 16.9821 5.57525 15.0888 5.47386C12.0359 5.31453 9.34992 7.13233 8.47662 10.0147C7.70606 12.5712 8.35187 14.8308 10.3186 16.6848C10.8103 17.1483 11.302 17.5973 11.3974 18.2926C11.4561 18.6982 11.4341 19.1182 11.4414 19.5383C11.4488 20.1104 11.5662 20.2335 12.1533 20.2335C12.9679 20.2335 13.7825 20.2263 14.5971 20.2335C15.0374 20.2335 15.3016 20.5449 15.1548 20.8853C15.0521 21.1315 14.8246 21.1822 14.5897 21.1822C13.9659 21.1822 13.3422 21.1822 12.7257 21.1822C12.6303 21.1822 12.5276 21.1822 12.3955 21.1822C12.3955 21.3416 12.3881 21.4719 12.3955 21.6095C12.4248 21.9282 12.5716 22.0803 12.9092 22.0875C13.4376 22.0948 13.9733 22.0875 14.5017 22.0875C14.9567 22.0875 15.1988 22.2541 15.1988 22.5583C15.1988 22.8697 14.964 23.029 14.5017 23.0363C13.9806 23.0363 13.4596 23.0363 12.9385 23.0363C12.5936 23.0363 12.4101 23.2028 12.4028 23.4853C12.4028 23.7677 12.5863 23.9343 12.9312 23.9415C13.5109 23.9488 14.0834 23.9343 14.6631 23.9488C15.1108 23.9633 15.3603 24.3471 15.1108 24.6513C15.008 24.7744 14.7879 24.8613 14.6191 24.8685C14.054 24.8975 13.4816 24.8758 12.9165 24.883C12.6156 24.883 12.4395 25.0279 12.4175 25.2741C12.3955 25.5203 12.4982 25.6942 12.7477 25.7593C12.8064 25.7738 12.8725 25.7883 12.9312 25.8028C13.1954 25.868 13.3495 26.0635 13.3201 26.3097C13.2908 26.556 13.1073 26.7298 12.8284 26.7153C12.3074 26.6936 11.8964 26.4618 11.6396 26.0128C11.3681 25.5421 11.3901 25.0641 11.6689 24.6006C11.6763 24.5571 11.7276 24.5064 11.779 24.4268Z" fill="white"/>
<path d="M13.2912 13.788C12.961 13.788 12.6675 13.7953 12.3739 13.788C11.3685 13.7735 10.6126 13.0855 10.4952 12.0933C10.3925 11.217 11.0309 10.3552 11.9556 10.1307C13.005 9.87723 14.1205 10.6449 14.2159 11.7095C14.2526 12.0861 14.2526 12.4627 14.2746 12.8538C14.5682 12.8538 14.847 12.8538 15.1479 12.8538C15.1699 12.4699 15.1699 12.0933 15.2066 11.724C15.2874 10.826 16.0432 10.1452 16.9899 10.1017C17.8852 10.0583 18.7145 10.7028 18.8906 11.5792C19.1108 12.7307 18.2742 13.7663 17.0853 13.7953C16.7771 13.8025 16.4689 13.7953 16.1313 13.7953C16.1313 13.9256 16.1313 14.0343 16.1313 14.1429C16.1313 15.6493 16.1313 17.1629 16.1313 18.6693C16.1313 18.7852 16.124 18.9083 16.0946 19.0169C16.0359 19.2342 15.8744 19.3428 15.6469 19.3428C15.4195 19.3428 15.2653 19.2269 15.214 19.0024C15.1846 18.8793 15.1773 18.7562 15.1773 18.6258C15.1773 17.1339 15.1773 15.642 15.1773 14.1574C15.1773 14.0488 15.1773 13.9401 15.1773 13.817C14.8691 13.817 14.5828 13.817 14.2599 13.817C14.2599 13.9329 14.2599 14.0415 14.2599 14.1429C14.2599 15.642 14.2599 17.1412 14.2599 18.6403C14.2599 18.7634 14.2526 18.8938 14.2232 19.0169C14.1719 19.2269 14.0178 19.3356 13.8049 19.3428C13.5774 19.3501 13.416 19.2487 13.3499 19.0314C13.3133 18.9155 13.3059 18.7852 13.3059 18.6548C13.3059 17.1557 13.3059 15.6565 13.3059 14.1574C13.2912 14.0343 13.2912 13.9256 13.2912 13.788ZM13.2912 12.8755C13.2912 12.5134 13.2986 12.202 13.2912 11.8833C13.2766 11.4053 12.895 11.0287 12.4106 11.0143C11.9189 10.9998 11.5153 11.3329 11.4566 11.7964C11.3905 12.2961 11.6841 12.7379 12.1831 12.8103C12.528 12.8755 12.8876 12.861 13.2912 12.8755ZM16.1386 12.8755C16.5423 12.8538 16.9239 12.8683 17.2981 12.8031C17.7458 12.7234 18.0173 12.2816 17.966 11.8254C17.9146 11.3691 17.5403 11.0287 17.0853 11.0143C16.623 10.9998 16.19 11.3112 16.146 11.753C16.1093 12.1078 16.1386 12.4699 16.1386 12.8755Z" fill="white"/>
<path d="M9.43232 2.25822C9.49837 2.31616 9.66716 2.39582 9.74788 2.52618C10.0634 3.03314 10.357 3.54733 10.6505 4.06153C10.7973 4.32225 10.7239 4.59021 10.4964 4.72057C10.2616 4.85093 9.9974 4.78575 9.83595 4.52503C9.52038 4.01084 9.21216 3.4894 8.92595 2.96071C8.73515 2.62033 8.96998 2.24373 9.43232 2.25822Z" fill="white"/>
<path d="M20.582 2.7506C20.5453 2.83027 20.516 2.94614 20.4573 3.04753C20.1857 3.51828 19.9142 3.98902 19.6353 4.45252C19.4445 4.77118 19.1877 4.86533 18.9381 4.72049C18.6886 4.58288 18.6373 4.30044 18.8207 3.98902C19.1069 3.49655 19.3931 3.00408 19.6867 2.51161C19.8041 2.31607 19.9876 2.19295 20.2371 2.27261C20.4573 2.34504 20.5527 2.50437 20.582 2.7506Z" fill="white"/>
<path d="M5.39507 6.14062C5.48313 6.17684 5.60055 6.2058 5.70329 6.26374C6.18764 6.5317 6.672 6.80691 7.14901 7.08936C7.46457 7.27041 7.55263 7.53837 7.39852 7.78461C7.25175 8.01636 6.98022 8.06706 6.672 7.89324C6.17297 7.6108 5.67394 7.32835 5.17491 7.03866C4.96943 6.92278 4.85935 6.74173 4.9254 6.49549C4.9841 6.27098 5.14556 6.17684 5.39507 6.14062Z" fill="white"/>
<path d="M24.2914 6.22051C24.1593 6.14809 24.0052 6.14084 23.8657 6.19878C23.8217 6.21327 23.7703 6.23499 23.7263 6.26396C23.2419 6.53192 22.7576 6.80713 22.2806 7.08958C21.965 7.27063 21.877 7.53859 22.0311 7.78483C22.1778 8.01658 22.4494 8.06728 22.7576 7.89346C23.2566 7.61102 23.7556 7.32857 24.2547 7.03888C24.4602 6.923 24.5702 6.74195 24.5042 6.49571C24.4602 6.36535 24.3941 6.27845 24.2914 6.22051Z" fill="white"/>
<path d="M24.5202 17.1924C24.5055 17.5907 24.1679 17.8297 23.867 17.6777C23.28 17.3735 22.7002 17.0331 22.1351 16.6927C21.9223 16.5623 21.9003 16.3378 22.0104 16.1133C22.1204 15.9033 22.37 15.8019 22.5901 15.9178C23.1772 16.2292 23.7496 16.5623 24.322 16.91C24.4395 16.9679 24.4835 17.1272 24.5202 17.1924Z" fill="white"/>
<path d="M6.76378 15.9251C6.93256 15.8455 7.13805 15.8817 7.27748 16.0048C7.33619 16.0555 7.38756 16.1134 7.42425 16.1786C7.527 16.3814 7.43893 16.5914 7.24079 16.7146C6.95458 16.8884 6.66103 17.0549 6.36749 17.2215C6.13265 17.3591 5.89781 17.4967 5.65564 17.6271C5.37677 17.7792 5.0979 17.714 4.95847 17.475C4.82637 17.2505 4.89976 16.9825 5.17129 16.8304C5.69233 16.5263 6.21338 16.2293 6.73442 15.9396C6.7491 15.9324 6.75644 15.9324 6.76378 15.9251Z" fill="white"/>
<path d="M4.85938 12.3967C4.56583 12.3967 4.27229 12.404 3.98608 12.3967C3.66318 12.3822 3.4577 12.1867 3.46503 11.9187C3.47237 11.6508 3.68519 11.4625 4.00809 11.4625C4.58051 11.4552 5.16026 11.4552 5.73268 11.4625C6.06292 11.4697 6.2684 11.6435 6.27574 11.9187C6.28308 12.2012 6.08493 12.3895 5.74002 12.404C5.43913 12.4112 5.14559 12.3967 4.85938 12.3967Z" fill="white"/>
<path d="M24.5396 12.3967C24.246 12.3967 23.9525 12.404 23.6663 12.3967C23.336 12.3822 23.1452 12.1939 23.1525 11.9187C23.1599 11.6508 23.3654 11.4697 23.6883 11.4625C24.2607 11.4552 24.8404 11.4552 25.4129 11.4625C25.7358 11.4697 25.9486 11.6508 25.9559 11.9187C25.9633 12.1939 25.7578 12.3822 25.4129 12.3967C25.1266 12.4112 24.8331 12.404 24.5396 12.3967Z" fill="white"/>
<path d="M14.8758 0.832031C15.1253 0.984118 15.1987 1.21587 15.1914 1.49832C15.184 1.98354 15.1914 2.47602 15.184 2.96125C15.184 3.07712 15.1767 3.20024 15.1327 3.30887C15.0593 3.50441 14.8978 3.64201 14.6923 3.59132C14.5382 3.55511 14.3841 3.43199 14.274 3.30163C14.208 3.22921 14.2227 3.07712 14.2227 2.96125C14.2153 2.47602 14.23 1.98354 14.2153 1.49832C14.208 1.21587 14.2814 0.984118 14.5309 0.832031C14.6557 0.832031 14.7657 0.832031 14.8758 0.832031Z" fill="white"/>
<path d="M11.779 24.4268C11.346 23.8329 11.2873 23.2535 11.7203 22.6597C11.7497 22.6162 11.7423 22.5148 11.7056 22.4714C11.4561 22.1382 11.4047 21.7616 11.4268 21.3633C11.4341 21.1967 11.3974 21.0881 11.2286 21.0012C10.7443 20.7477 10.5094 20.3204 10.4874 19.7845C10.4801 19.4876 10.4727 19.1906 10.4874 18.8937C10.5094 18.3795 10.3186 17.9667 9.92234 17.6263C9.32791 17.1266 8.80686 16.5545 8.38856 15.9027C7.44921 14.4397 7.0676 12.832 7.26574 11.1228C7.53727 8.78356 8.70412 6.973 10.6929 5.68389C11.6983 5.03933 12.8064 4.68446 14.0026 4.56134C17.2023 4.24993 20.3359 6.10394 21.5835 9.05152C22.6109 11.4922 22.3907 13.8531 20.901 16.0548C20.5414 16.5907 20.0717 17.0614 19.5947 17.5032C19.1324 17.9305 18.8828 18.394 18.9195 19.0241C18.9415 19.3644 18.9269 19.7121 18.8828 20.0525C18.8241 20.4797 18.5673 20.8056 18.1783 20.9939C18.0169 21.0736 17.9802 21.175 17.9875 21.3343C18.0095 21.7399 17.9582 22.1237 17.7013 22.4641C17.6646 22.5076 17.694 22.6307 17.7307 22.6959C18.0682 23.2246 18.0682 23.746 17.7307 24.2747C17.6866 24.3399 17.6866 24.4847 17.7307 24.5499C18.215 25.3103 17.9802 26.1866 17.1803 26.5922C17.0849 26.6429 16.9968 26.7588 16.9601 26.8674C16.7033 27.7147 16.1455 28.2724 15.2869 28.4969C14.4136 28.7286 13.643 28.4824 13.0046 27.8523C12.7918 27.6423 12.7771 27.3671 12.9605 27.1788C13.144 26.9905 13.4155 26.976 13.643 27.186C14.098 27.5989 14.6044 27.7727 15.1988 27.5482C15.5731 27.4106 15.8446 27.1571 15.9987 26.7298C15.5291 26.7298 15.0888 26.7298 14.6484 26.7298C14.509 26.7298 14.3769 26.737 14.2375 26.7298C13.9513 26.7081 13.7678 26.5198 13.7678 26.2663C13.7678 26.0056 13.9439 25.8173 14.2375 25.81C14.9346 25.7955 15.6318 25.8028 16.3216 25.8028C16.4391 25.8028 16.5638 25.7955 16.6739 25.7738C16.9161 25.7231 17.0262 25.5565 17.0188 25.3248C17.0115 25.0786 16.8647 24.941 16.6299 24.9047C16.4758 24.883 16.3216 24.8975 16.1675 24.8903C15.8446 24.8758 15.6392 24.6875 15.6392 24.4195C15.6392 24.1588 15.83 23.9777 16.1455 23.956C16.3216 23.9415 16.4978 23.9488 16.6666 23.927C16.9014 23.8908 17.0482 23.7025 17.0262 23.4635C17.0041 23.2246 16.872 23.0797 16.6299 23.0507C16.4758 23.0363 16.3216 23.0507 16.1602 23.0363C15.8373 23.0145 15.6318 22.819 15.6392 22.5583C15.6465 22.3048 15.8373 22.1237 16.1529 22.0948C16.2703 22.0875 16.3877 22.0948 16.5125 22.0875C16.8574 22.073 17.0115 21.9354 17.0408 21.5951C17.0482 21.4719 17.0408 21.3488 17.0408 21.1822C16.7546 21.1822 16.4904 21.2112 16.2336 21.175C16.0575 21.1533 15.8446 21.0809 15.7419 20.9577C15.4924 20.668 15.7346 20.2697 16.1529 20.2408C16.4464 20.219 16.7399 20.2335 17.0335 20.2335C17.1803 20.2335 17.327 20.2335 17.4738 20.2335C17.7967 20.2263 17.9655 20.0814 17.9875 19.7555C18.0022 19.5093 18.0095 19.2703 17.9949 19.0241C17.9435 18.1043 18.2884 17.3873 19.0003 16.7935C20.0277 15.9389 20.7175 14.8598 21.0477 13.5707C21.5908 11.4487 21.1431 9.52227 19.7561 7.83483C18.5599 6.38638 16.9821 5.57525 15.0888 5.47386C12.0359 5.31453 9.34992 7.13233 8.47662 10.0147C7.70606 12.5712 8.35187 14.8308 10.3186 16.6848C10.8103 17.1483 11.302 17.5973 11.3974 18.2926C11.4561 18.6982 11.4341 19.1182 11.4414 19.5383C11.4488 20.1104 11.5662 20.2335 12.1533 20.2335C12.9679 20.2335 13.7825 20.2263 14.5971 20.2335C15.0374 20.2335 15.3016 20.5449 15.1548 20.8853C15.0521 21.1315 14.8246 21.1822 14.5897 21.1822C13.9659 21.1822 13.3422 21.1822 12.7257 21.1822C12.6303 21.1822 12.5276 21.1822 12.3955 21.1822C12.3955 21.3416 12.3881 21.4719 12.3955 21.6095C12.4248 21.9282 12.5716 22.0803 12.9092 22.0875C13.4376 22.0948 13.9733 22.0875 14.5017 22.0875C14.9567 22.0875 15.1988 22.2541 15.1988 22.5583C15.1988 22.8697 14.964 23.029 14.5017 23.0363C13.9806 23.0363 13.4596 23.0363 12.9385 23.0363C12.5936 23.0363 12.4101 23.2028 12.4028 23.4853C12.4028 23.7677 12.5863 23.9343 12.9312 23.9415C13.5109 23.9488 14.0834 23.9343 14.6631 23.9488C15.1108 23.9633 15.3603 24.3471 15.1108 24.6513C15.008 24.7744 14.7879 24.8613 14.6191 24.8685C14.054 24.8975 13.4816 24.8758 12.9165 24.883C12.6156 24.883 12.4395 25.0279 12.4175 25.2741C12.3955 25.5203 12.4982 25.6942 12.7477 25.7593C12.8064 25.7738 12.8725 25.7883 12.9312 25.8028C13.1954 25.868 13.3495 26.0635 13.3201 26.3097C13.2908 26.556 13.1073 26.7298 12.8284 26.7153C12.3074 26.6936 11.8964 26.4618 11.6396 26.0128C11.3681 25.5421 11.3901 25.0641 11.6689 24.6006C11.6763 24.5571 11.7276 24.5064 11.779 24.4268Z" fill="white"/>
<path d="M13.2912 13.788C12.961 13.788 12.6675 13.7953 12.3739 13.788C11.3685 13.7735 10.6126 13.0855 10.4952 12.0933C10.3925 11.217 11.0309 10.3552 11.9556 10.1307C13.005 9.87723 14.1205 10.6449 14.2159 11.7095C14.2526 12.0861 14.2526 12.4627 14.2746 12.8538C14.5682 12.8538 14.847 12.8538 15.1479 12.8538C15.1699 12.4699 15.1699 12.0933 15.2066 11.724C15.2874 10.826 16.0432 10.1452 16.9899 10.1017C17.8852 10.0583 18.7145 10.7028 18.8906 11.5792C19.1108 12.7307 18.2742 13.7663 17.0853 13.7953C16.7771 13.8025 16.4689 13.7953 16.1313 13.7953C16.1313 13.9256 16.1313 14.0343 16.1313 14.1429C16.1313 15.6493 16.1313 17.1629 16.1313 18.6693C16.1313 18.7852 16.124 18.9083 16.0946 19.0169C16.0359 19.2342 15.8744 19.3428 15.6469 19.3428C15.4195 19.3428 15.2653 19.2269 15.214 19.0024C15.1846 18.8793 15.1773 18.7562 15.1773 18.6258C15.1773 17.1339 15.1773 15.642 15.1773 14.1574C15.1773 14.0488 15.1773 13.9401 15.1773 13.817C14.8691 13.817 14.5828 13.817 14.2599 13.817C14.2599 13.9329 14.2599 14.0415 14.2599 14.1429C14.2599 15.642 14.2599 17.1412 14.2599 18.6403C14.2599 18.7634 14.2526 18.8938 14.2232 19.0169C14.1719 19.2269 14.0178 19.3356 13.8049 19.3428C13.5774 19.3501 13.416 19.2487 13.3499 19.0314C13.3133 18.9155 13.3059 18.7852 13.3059 18.6548C13.3059 17.1557 13.3059 15.6565 13.3059 14.1574C13.2912 14.0343 13.2912 13.9256 13.2912 13.788ZM13.2912 12.8755C13.2912 12.5134 13.2986 12.202 13.2912 11.8833C13.2766 11.4053 12.895 11.0287 12.4106 11.0143C11.9189 10.9998 11.5153 11.3329 11.4566 11.7964C11.3905 12.2961 11.6841 12.7379 12.1831 12.8103C12.528 12.8755 12.8876 12.861 13.2912 12.8755ZM16.1386 12.8755C16.5423 12.8538 16.9239 12.8683 17.2981 12.8031C17.7458 12.7234 18.0173 12.2816 17.966 11.8254C17.9146 11.3691 17.5403 11.0287 17.0853 11.0143C16.623 10.9998 16.19 11.3112 16.146 11.753C16.1093 12.1078 16.1386 12.4699 16.1386 12.8755Z" fill="white"/>
<path d="M9.43232 2.25822C9.49837 2.31616 9.66716 2.39582 9.74788 2.52618C10.0634 3.03314 10.357 3.54733 10.6505 4.06153C10.7973 4.32225 10.7239 4.59021 10.4964 4.72057C10.2616 4.85093 9.9974 4.78575 9.83595 4.52503C9.52038 4.01084 9.21216 3.4894 8.92595 2.96071C8.73515 2.62033 8.96998 2.24373 9.43232 2.25822Z" fill="white"/>
<path d="M20.582 2.7506C20.5453 2.83027 20.516 2.94614 20.4573 3.04753C20.1857 3.51828 19.9142 3.98902 19.6353 4.45252C19.4445 4.77118 19.1877 4.86533 18.9381 4.72049C18.6886 4.58288 18.6373 4.30044 18.8207 3.98902C19.1069 3.49655 19.3931 3.00408 19.6867 2.51161C19.8041 2.31607 19.9876 2.19295 20.2371 2.27261C20.4573 2.34504 20.5527 2.50437 20.582 2.7506Z" fill="white"/>
<path d="M5.39507 6.14062C5.48313 6.17684 5.60055 6.2058 5.70329 6.26374C6.18764 6.5317 6.672 6.80691 7.14901 7.08936C7.46457 7.27041 7.55263 7.53837 7.39852 7.78461C7.25175 8.01636 6.98022 8.06706 6.672 7.89324C6.17297 7.6108 5.67394 7.32835 5.17491 7.03866C4.96943 6.92278 4.85935 6.74173 4.9254 6.49549C4.9841 6.27098 5.14556 6.17684 5.39507 6.14062Z" fill="white"/>
<path d="M24.2914 6.22051C24.1593 6.14809 24.0052 6.14084 23.8657 6.19878C23.8217 6.21327 23.7703 6.23499 23.7263 6.26396C23.2419 6.53192 22.7576 6.80713 22.2806 7.08958C21.965 7.27063 21.877 7.53859 22.0311 7.78483C22.1778 8.01658 22.4494 8.06728 22.7576 7.89346C23.2566 7.61102 23.7556 7.32857 24.2547 7.03888C24.4602 6.923 24.5702 6.74195 24.5042 6.49571C24.4602 6.36535 24.3941 6.27845 24.2914 6.22051Z" fill="white"/>
<path d="M24.5202 17.1924C24.5055 17.5907 24.1679 17.8297 23.867 17.6777C23.28 17.3735 22.7002 17.0331 22.1351 16.6927C21.9223 16.5623 21.9003 16.3378 22.0104 16.1133C22.1204 15.9033 22.37 15.8019 22.5901 15.9178C23.1772 16.2292 23.7496 16.5623 24.322 16.91C24.4395 16.9679 24.4835 17.1272 24.5202 17.1924Z" fill="white"/>
<path d="M6.76378 15.9251C6.93256 15.8455 7.13805 15.8817 7.27748 16.0048C7.33619 16.0555 7.38756 16.1134 7.42425 16.1786C7.527 16.3814 7.43893 16.5914 7.24079 16.7146C6.95458 16.8884 6.66103 17.0549 6.36749 17.2215C6.13265 17.3591 5.89781 17.4967 5.65564 17.6271C5.37677 17.7792 5.0979 17.714 4.95847 17.475C4.82637 17.2505 4.89976 16.9825 5.17129 16.8304C5.69233 16.5263 6.21338 16.2293 6.73442 15.9396C6.7491 15.9324 6.75644 15.9324 6.76378 15.9251Z" fill="white"/>
<path d="M4.85938 12.3967C4.56583 12.3967 4.27229 12.404 3.98608 12.3967C3.66318 12.3822 3.4577 12.1867 3.46503 11.9187C3.47237 11.6508 3.68519 11.4625 4.00809 11.4625C4.58051 11.4552 5.16026 11.4552 5.73268 11.4625C6.06292 11.4697 6.2684 11.6435 6.27574 11.9187C6.28308 12.2012 6.08493 12.3895 5.74002 12.404C5.43913 12.4112 5.14559 12.3967 4.85938 12.3967Z" fill="white"/>
<path d="M24.5396 12.3967C24.246 12.3967 23.9525 12.404 23.6663 12.3967C23.336 12.3822 23.1452 12.1939 23.1525 11.9187C23.1599 11.6508 23.3654 11.4697 23.6883 11.4625C24.2607 11.4552 24.8404 11.4552 25.4129 11.4625C25.7358 11.4697 25.9486 11.6508 25.9559 11.9187C25.9633 12.1939 25.7578 12.3822 25.4129 12.3967C25.1266 12.4112 24.8331 12.404 24.5396 12.3967Z" fill="white"/>
<path d="M14.8758 0.832031C15.1253 0.984118 15.1987 1.21587 15.1914 1.49832C15.184 1.98354 15.1914 2.47602 15.184 2.96125C15.184 3.07712 15.1767 3.20024 15.1327 3.30887C15.0593 3.50441 14.8978 3.64201 14.6923 3.59132C14.5382 3.55511 14.3841 3.43199 14.274 3.30163C14.208 3.22921 14.2227 3.07712 14.2227 2.96125C14.2153 2.47602 14.23 1.98354 14.2153 1.49832C14.208 1.21587 14.2814 0.984118 14.5309 0.832031C14.6557 0.832031 14.7657 0.832031 14.8758 0.832031Z" fill="white"/>
<path d="M11.779 24.4268C11.346 23.8329 11.2873 23.2535 11.7203 22.6597C11.7497 22.6162 11.7423 22.5148 11.7056 22.4714C11.4561 22.1382 11.4047 21.7616 11.4268 21.3633C11.4341 21.1967 11.3974 21.0881 11.2286 21.0012C10.7443 20.7477 10.5094 20.3204 10.4874 19.7845C10.4801 19.4876 10.4727 19.1906 10.4874 18.8937C10.5094 18.3795 10.3186 17.9667 9.92234 17.6263C9.32791 17.1266 8.80686 16.5545 8.38856 15.9027C7.44921 14.4397 7.0676 12.832 7.26574 11.1228C7.53727 8.78356 8.70412 6.973 10.6929 5.68389C11.6983 5.03933 12.8064 4.68446 14.0026 4.56134C17.2023 4.24993 20.3359 6.10394 21.5835 9.05152C22.6109 11.4922 22.3907 13.8531 20.901 16.0548C20.5414 16.5907 20.0717 17.0614 19.5947 17.5032C19.1324 17.9305 18.8828 18.394 18.9195 19.0241C18.9415 19.3644 18.9269 19.7121 18.8828 20.0525C18.8241 20.4797 18.5673 20.8056 18.1783 20.9939C18.0169 21.0736 17.9802 21.175 17.9875 21.3343C18.0095 21.7399 17.9582 22.1237 17.7013 22.4641C17.6646 22.5076 17.694 22.6307 17.7307 22.6959C18.0682 23.2246 18.0682 23.746 17.7307 24.2747C17.6866 24.3399 17.6866 24.4847 17.7307 24.5499C18.215 25.3103 17.9802 26.1866 17.1803 26.5922C17.0849 26.6429 16.9968 26.7588 16.9601 26.8674C16.7033 27.7147 16.1455 28.2724 15.2869 28.4969C14.4136 28.7286 13.643 28.4824 13.0046 27.8523C12.7918 27.6423 12.7771 27.3671 12.9605 27.1788C13.144 26.9905 13.4155 26.976 13.643 27.186C14.098 27.5989 14.6044 27.7727 15.1988 27.5482C15.5731 27.4106 15.8446 27.1571 15.9987 26.7298C15.5291 26.7298 15.0888 26.7298 14.6484 26.7298C14.509 26.7298 14.3769 26.737 14.2375 26.7298C13.9513 26.7081 13.7678 26.5198 13.7678 26.2663C13.7678 26.0056 13.9439 25.8173 14.2375 25.81C14.9346 25.7955 15.6318 25.8028 16.3216 25.8028C16.4391 25.8028 16.5638 25.7955 16.6739 25.7738C16.9161 25.7231 17.0262 25.5565 17.0188 25.3248C17.0115 25.0786 16.8647 24.941 16.6299 24.9047C16.4758 24.883 16.3216 24.8975 16.1675 24.8903C15.8446 24.8758 15.6392 24.6875 15.6392 24.4195C15.6392 24.1588 15.83 23.9777 16.1455 23.956C16.3216 23.9415 16.4978 23.9488 16.6666 23.927C16.9014 23.8908 17.0482 23.7025 17.0262 23.4635C17.0041 23.2246 16.872 23.0797 16.6299 23.0507C16.4758 23.0363 16.3216 23.0507 16.1602 23.0363C15.8373 23.0145 15.6318 22.819 15.6392 22.5583C15.6465 22.3048 15.8373 22.1237 16.1529 22.0948C16.2703 22.0875 16.3877 22.0948 16.5125 22.0875C16.8574 22.073 17.0115 21.9354 17.0408 21.5951C17.0482 21.4719 17.0408 21.3488 17.0408 21.1822C16.7546 21.1822 16.4904 21.2112 16.2336 21.175C16.0575 21.1533 15.8446 21.0809 15.7419 20.9577C15.4924 20.668 15.7346 20.2697 16.1529 20.2408C16.4464 20.219 16.7399 20.2335 17.0335 20.2335C17.1803 20.2335 17.327 20.2335 17.4738 20.2335C17.7967 20.2263 17.9655 20.0814 17.9875 19.7555C18.0022 19.5093 18.0095 19.2703 17.9949 19.0241C17.9435 18.1043 18.2884 17.3873 19.0003 16.7935C20.0277 15.9389 20.7175 14.8598 21.0477 13.5707C21.5908 11.4487 21.1431 9.52227 19.7561 7.83483C18.5599 6.38638 16.9821 5.57525 15.0888 5.47386C12.0359 5.31453 9.34992 7.13233 8.47662 10.0147C7.70606 12.5712 8.35187 14.8308 10.3186 16.6848C10.8103 17.1483 11.302 17.5973 11.3974 18.2926C11.4561 18.6982 11.4341 19.1182 11.4414 19.5383C11.4488 20.1104 11.5662 20.2335 12.1533 20.2335C12.9679 20.2335 13.7825 20.2263 14.5971 20.2335C15.0374 20.2335 15.3016 20.5449 15.1548 20.8853C15.0521 21.1315 14.8246 21.1822 14.5897 21.1822C13.9659 21.1822 13.3422 21.1822 12.7257 21.1822C12.6303 21.1822 12.5276 21.1822 12.3955 21.1822C12.3955 21.3416 12.3881 21.4719 12.3955 21.6095C12.4248 21.9282 12.5716 22.0803 12.9092 22.0875C13.4376 22.0948 13.9733 22.0875 14.5017 22.0875C14.9567 22.0875 15.1988 22.2541 15.1988 22.5583C15.1988 22.8697 14.964 23.029 14.5017 23.0363C13.9806 23.0363 13.4596 23.0363 12.9385 23.0363C12.5936 23.0363 12.4101 23.2028 12.4028 23.4853C12.4028 23.7677 12.5863 23.9343 12.9312 23.9415C13.5109 23.9488 14.0834 23.9343 14.6631 23.9488C15.1108 23.9633 15.3603 24.3471 15.1108 24.6513C15.008 24.7744 14.7879 24.8613 14.6191 24.8685C14.054 24.8975 13.4816 24.8758 12.9165 24.883C12.6156 24.883 12.4395 25.0279 12.4175 25.2741C12.3955 25.5203 12.4982 25.6942 12.7477 25.7593C12.8064 25.7738 12.8725 25.7883 12.9312 25.8028C13.1954 25.868 13.3495 26.0635 13.3201 26.3097C13.2908 26.556 13.1073 26.7298 12.8284 26.7153C12.3074 26.6936 11.8964 26.4618 11.6396 26.0128C11.3681 25.5421 11.3901 25.0641 11.6689 24.6006C11.6763 24.5571 11.7276 24.5064 11.779 24.4268Z" fill="white"/>
<path d="M13.2912 13.788C12.961 13.788 12.6675 13.7953 12.3739 13.788C11.3685 13.7735 10.6126 13.0855 10.4952 12.0933C10.3925 11.217 11.0309 10.3552 11.9556 10.1307C13.005 9.87723 14.1205 10.6449 14.2159 11.7095C14.2526 12.0861 14.2526 12.4627 14.2746 12.8538C14.5682 12.8538 14.847 12.8538 15.1479 12.8538C15.1699 12.4699 15.1699 12.0933 15.2066 11.724C15.2874 10.826 16.0432 10.1452 16.9899 10.1017C17.8852 10.0583 18.7145 10.7028 18.8906 11.5792C19.1108 12.7307 18.2742 13.7663 17.0853 13.7953C16.7771 13.8025 16.4689 13.7953 16.1313 13.7953C16.1313 13.9256 16.1313 14.0343 16.1313 14.1429C16.1313 15.6493 16.1313 17.1629 16.1313 18.6693C16.1313 18.7852 16.124 18.9083 16.0946 19.0169C16.0359 19.2342 15.8744 19.3428 15.6469 19.3428C15.4195 19.3428 15.2653 19.2269 15.214 19.0024C15.1846 18.8793 15.1773 18.7562 15.1773 18.6258C15.1773 17.1339 15.1773 15.642 15.1773 14.1574C15.1773 14.0488 15.1773 13.9401 15.1773 13.817C14.8691 13.817 14.5828 13.817 14.2599 13.817C14.2599 13.9329 14.2599 14.0415 14.2599 14.1429C14.2599 15.642 14.2599 17.1412 14.2599 18.6403C14.2599 18.7634 14.2526 18.8938 14.2232 19.0169C14.1719 19.2269 14.0178 19.3356 13.8049 19.3428C13.5774 19.3501 13.416 19.2487 13.3499 19.0314C13.3133 18.9155 13.3059 18.7852 13.3059 18.6548C13.3059 17.1557 13.3059 15.6565 13.3059 14.1574C13.2912 14.0343 13.2912 13.9256 13.2912 13.788ZM13.2912 12.8755C13.2912 12.5134 13.2986 12.202 13.2912 11.8833C13.2766 11.4053 12.895 11.0287 12.4106 11.0143C11.9189 10.9998 11.5153 11.3329 11.4566 11.7964C11.3905 12.2961 11.6841 12.7379 12.1831 12.8103C12.528 12.8755 12.8876 12.861 13.2912 12.8755ZM16.1386 12.8755C16.5423 12.8538 16.9239 12.8683 17.2981 12.8031C17.7458 12.7234 18.0173 12.2816 17.966 11.8254C17.9146 11.3691 17.5403 11.0287 17.0853 11.0143C16.623 10.9998 16.19 11.3112 16.146 11.753C16.1093 12.1078 16.1386 12.4699 16.1386 12.8755Z" fill="white"/>
<path d="M9.43232 2.25822C9.49837 2.31616 9.66716 2.39582 9.74788 2.52618C10.0634 3.03314 10.357 3.54733 10.6505 4.06153C10.7973 4.32225 10.7239 4.59021 10.4964 4.72057C10.2616 4.85093 9.9974 4.78575 9.83595 4.52503C9.52038 4.01084 9.21216 3.4894 8.92595 2.96071C8.73515 2.62033 8.96998 2.24373 9.43232 2.25822Z" fill="white"/>
<path d="M20.582 2.7506C20.5453 2.83027 20.516 2.94614 20.4573 3.04753C20.1857 3.51828 19.9142 3.98902 19.6353 4.45252C19.4445 4.77118 19.1877 4.86533 18.9381 4.72049C18.6886 4.58288 18.6373 4.30044 18.8207 3.98902C19.1069 3.49655 19.3931 3.00408 19.6867 2.51161C19.8041 2.31607 19.9876 2.19295 20.2371 2.27261C20.4573 2.34504 20.5527 2.50437 20.582 2.7506Z" fill="white"/>
<path d="M5.39507 6.14062C5.48313 6.17684 5.60055 6.2058 5.70329 6.26374C6.18764 6.5317 6.672 6.80691 7.14901 7.08936C7.46457 7.27041 7.55263 7.53837 7.39852 7.78461C7.25175 8.01636 6.98022 8.06706 6.672 7.89324C6.17297 7.6108 5.67394 7.32835 5.17491 7.03866C4.96943 6.92278 4.85935 6.74173 4.9254 6.49549C4.9841 6.27098 5.14556 6.17684 5.39507 6.14062Z" fill="white"/>
<path d="M24.2914 6.22051C24.1593 6.14809 24.0052 6.14084 23.8657 6.19878C23.8217 6.21327 23.7703 6.23499 23.7263 6.26396C23.2419 6.53192 22.7576 6.80713 22.2806 7.08958C21.965 7.27063 21.877 7.53859 22.0311 7.78483C22.1778 8.01658 22.4494 8.06728 22.7576 7.89346C23.2566 7.61102 23.7556 7.32857 24.2547 7.03888C24.4602 6.923 24.5702 6.74195 24.5042 6.49571C24.4602 6.36535 24.3941 6.27845 24.2914 6.22051Z" fill="white"/>
<path d="M24.5202 17.1924C24.5055 17.5907 24.1679 17.8297 23.867 17.6777C23.28 17.3735 22.7002 17.0331 22.1351 16.6927C21.9223 16.5623 21.9003 16.3378 22.0104 16.1133C22.1204 15.9033 22.37 15.8019 22.5901 15.9178C23.1772 16.2292 23.7496 16.5623 24.322 16.91C24.4395 16.9679 24.4835 17.1272 24.5202 17.1924Z" fill="white"/>
<path d="M6.76378 15.9251C6.93256 15.8455 7.13805 15.8817 7.27748 16.0048C7.33619 16.0555 7.38756 16.1134 7.42425 16.1786C7.527 16.3814 7.43893 16.5914 7.24079 16.7146C6.95458 16.8884 6.66103 17.0549 6.36749 17.2215C6.13265 17.3591 5.89781 17.4967 5.65564 17.6271C5.37677 17.7792 5.0979 17.714 4.95847 17.475C4.82637 17.2505 4.89976 16.9825 5.17129 16.8304C5.69233 16.5263 6.21338 16.2293 6.73442 15.9396C6.7491 15.9324 6.75644 15.9324 6.76378 15.9251Z" fill="white"/>
<path d="M4.85938 12.3967C4.56583 12.3967 4.27229 12.404 3.98608 12.3967C3.66318 12.3822 3.4577 12.1867 3.46503 11.9187C3.47237 11.6508 3.68519 11.4625 4.00809 11.4625C4.58051 11.4552 5.16026 11.4552 5.73268 11.4625C6.06292 11.4697 6.2684 11.6435 6.27574 11.9187C6.28308 12.2012 6.08493 12.3895 5.74002 12.404C5.43913 12.4112 5.14559 12.3967 4.85938 12.3967Z" fill="white"/>
<path d="M24.5396 12.3967C24.246 12.3967 23.9525 12.404 23.6663 12.3967C23.336 12.3822 23.1452 12.1939 23.1525 11.9187C23.1599 11.6508 23.3654 11.4697 23.6883 11.4625C24.2607 11.4552 24.8404 11.4552 25.4129 11.4625C25.7358 11.4697 25.9486 11.6508 25.9559 11.9187C25.9633 12.1939 25.7578 12.3822 25.4129 12.3967C25.1266 12.4112 24.8331 12.404 24.5396 12.3967Z" fill="white"/>
<path d="M14.8758 0.832031C15.1253 0.984118 15.1987 1.21587 15.1914 1.49832C15.184 1.98354 15.1914 2.47602 15.184 2.96125C15.184 3.07712 15.1767 3.20024 15.1327 3.30887C15.0593 3.50441 14.8978 3.64201 14.6923 3.59132C14.5382 3.55511 14.3841 3.43199 14.274 3.30163C14.208 3.22921 14.2227 3.07712 14.2227 2.96125C14.2153 2.47602 14.23 1.98354 14.2153 1.49832C14.208 1.21587 14.2814 0.984118 14.5309 0.832031C14.6557 0.832031 14.7657 0.832031 14.8758 0.832031Z" fill="white"/>
<path d="M11.779 24.4268C11.346 23.8329 11.2873 23.2535 11.7203 22.6597C11.7497 22.6162 11.7423 22.5148 11.7056 22.4714C11.4561 22.1382 11.4047 21.7616 11.4268 21.3633C11.4341 21.1967 11.3974 21.0881 11.2286 21.0012C10.7443 20.7477 10.5094 20.3204 10.4874 19.7845C10.4801 19.4876 10.4727 19.1906 10.4874 18.8937C10.5094 18.3795 10.3186 17.9667 9.92234 17.6263C9.32791 17.1266 8.80686 16.5545 8.38856 15.9027C7.44921 14.4397 7.0676 12.832 7.26574 11.1228C7.53727 8.78356 8.70412 6.973 10.6929 5.68389C11.6983 5.03933 12.8064 4.68446 14.0026 4.56134C17.2023 4.24993 20.3359 6.10394 21.5835 9.05152C22.6109 11.4922 22.3907 13.8531 20.901 16.0548C20.5414 16.5907 20.0717 17.0614 19.5947 17.5032C19.1324 17.9305 18.8828 18.394 18.9195 19.0241C18.9415 19.3644 18.9269 19.7121 18.8828 20.0525C18.8241 20.4797 18.5673 20.8056 18.1783 20.9939C18.0169 21.0736 17.9802 21.175 17.9875 21.3343C18.0095 21.7399 17.9582 22.1237 17.7013 22.4641C17.6646 22.5076 17.694 22.6307 17.7307 22.6959C18.0682 23.2246 18.0682 23.746 17.7307 24.2747C17.6866 24.3399 17.6866 24.4847 17.7307 24.5499C18.215 25.3103 17.9802 26.1866 17.1803 26.5922C17.0849 26.6429 16.9968 26.7588 16.9601 26.8674C16.7033 27.7147 16.1455 28.2724 15.2869 28.4969C14.4136 28.7286 13.643 28.4824 13.0046 27.8523C12.7918 27.6423 12.7771 27.3671 12.9605 27.1788C13.144 26.9905 13.4155 26.976 13.643 27.186C14.098 27.5989 14.6044 27.7727 15.1988 27.5482C15.5731 27.4106 15.8446 27.1571 15.9987 26.7298C15.5291 26.7298 15.0888 26.7298 14.6484 26.7298C14.509 26.7298 14.3769 26.737 14.2375 26.7298C13.9513 26.7081 13.7678 26.5198 13.7678 26.2663C13.7678 26.0056 13.9439 25.8173 14.2375 25.81C14.9346 25.7955 15.6318 25.8028 16.3216 25.8028C16.4391 25.8028 16.5638 25.7955 16.6739 25.7738C16.9161 25.7231 17.0262 25.5565 17.0188 25.3248C17.0115 25.0786 16.8647 24.941 16.6299 24.9047C16.4758 24.883 16.3216 24.8975 16.1675 24.8903C15.8446 24.8758 15.6392 24.6875 15.6392 24.4195C15.6392 24.1588 15.83 23.9777 16.1455 23.956C16.3216 23.9415 16.4978 23.9488 16.6666 23.927C16.9014 23.8908 17.0482 23.7025 17.0262 23.4635C17.0041 23.2246 16.872 23.0797 16.6299 23.0507C16.4758 23.0363 16.3216 23.0507 16.1602 23.0363C15.8373 23.0145 15.6318 22.819 15.6392 22.5583C15.6465 22.3048 15.8373 22.1237 16.1529 22.0948C16.2703 22.0875 16.3877 22.0948 16.5125 22.0875C16.8574 22.073 17.0115 21.9354 17.0408 21.5951C17.0482 21.4719 17.0408 21.3488 17.0408 21.1822C16.7546 21.1822 16.4904 21.2112 16.2336 21.175C16.0575 21.1533 15.8446 21.0809 15.7419 20.9577C15.4924 20.668 15.7346 20.2697 16.1529 20.2408C16.4464 20.219 16.7399 20.2335 17.0335 20.2335C17.1803 20.2335 17.327 20.2335 17.4738 20.2335C17.7967 20.2263 17.9655 20.0814 17.9875 19.7555C18.0022 19.5093 18.0095 19.2703 17.9949 19.0241C17.9435 18.1043 18.2884 17.3873 19.0003 16.7935C20.0277 15.9389 20.7175 14.8598 21.0477 13.5707C21.5908 11.4487 21.1431 9.52227 19.7561 7.83483C18.5599 6.38638 16.9821 5.57525 15.0888 5.47386C12.0359 5.31453 9.34992 7.13233 8.47662 10.0147C7.70606 12.5712 8.35187 14.8308 10.3186 16.6848C10.8103 17.1483 11.302 17.5973 11.3974 18.2926C11.4561 18.6982 11.4341 19.1182 11.4414 19.5383C11.4488 20.1104 11.5662 20.2335 12.1533 20.2335C12.9679 20.2335 13.7825 20.2263 14.5971 20.2335C15.0374 20.2335 15.3016 20.5449 15.1548 20.8853C15.0521 21.1315 14.8246 21.1822 14.5897 21.1822C13.9659 21.1822 13.3422 21.1822 12.7257 21.1822C12.6303 21.1822 12.5276 21.1822 12.3955 21.1822C12.3955 21.3416 12.3881 21.4719 12.3955 21.6095C12.4248 21.9282 12.5716 22.0803 12.9092 22.0875C13.4376 22.0948 13.9733 22.0875 14.5017 22.0875C14.9567 22.0875 15.1988 22.2541 15.1988 22.5583C15.1988 22.8697 14.964 23.029 14.5017 23.0363C13.9806 23.0363 13.4596 23.0363 12.9385 23.0363C12.5936 23.0363 12.4101 23.2028 12.4028 23.4853C12.4028 23.7677 12.5863 23.9343 12.9312 23.9415C13.5109 23.9488 14.0834 23.9343 14.6631 23.9488C15.1108 23.9633 15.3603 24.3471 15.1108 24.6513C15.008 24.7744 14.7879 24.8613 14.6191 24.8685C14.054 24.8975 13.4816 24.8758 12.9165 24.883C12.6156 24.883 12.4395 25.0279 12.4175 25.2741C12.3955 25.5203 12.4982 25.6942 12.7477 25.7593C12.8064 25.7738 12.8725 25.7883 12.9312 25.8028C13.1954 25.868 13.3495 26.0635 13.3201 26.3097C13.2908 26.556 13.1073 26.7298 12.8284 26.7153C12.3074 26.6936 11.8964 26.4618 11.6396 26.0128C11.3681 25.5421 11.3901 25.0641 11.6689 24.6006C11.6763 24.5571 11.7276 24.5064 11.779 24.4268Z" fill="white"/>
<path d="M13.2912 13.788C12.961 13.788 12.6675 13.7953 12.3739 13.788C11.3685 13.7735 10.6126 13.0855 10.4952 12.0933C10.3925 11.217 11.0309 10.3552 11.9556 10.1307C13.005 9.87723 14.1205 10.6449 14.2159 11.7095C14.2526 12.0861 14.2526 12.4627 14.2746 12.8538C14.5682 12.8538 14.847 12.8538 15.1479 12.8538C15.1699 12.4699 15.1699 12.0933 15.2066 11.724C15.2874 10.826 16.0432 10.1452 16.9899 10.1017C17.8852 10.0583 18.7145 10.7028 18.8906 11.5792C19.1108 12.7307 18.2742 13.7663 17.0853 13.7953C16.7771 13.8025 16.4689 13.7953 16.1313 13.7953C16.1313 13.9256 16.1313 14.0343 16.1313 14.1429C16.1313 15.6493 16.1313 17.1629 16.1313 18.6693C16.1313 18.7852 16.124 18.9083 16.0946 19.0169C16.0359 19.2342 15.8744 19.3428 15.6469 19.3428C15.4195 19.3428 15.2653 19.2269 15.214 19.0024C15.1846 18.8793 15.1773 18.7562 15.1773 18.6258C15.1773 17.1339 15.1773 15.642 15.1773 14.1574C15.1773 14.0488 15.1773 13.9401 15.1773 13.817C14.8691 13.817 14.5828 13.817 14.2599 13.817C14.2599 13.9329 14.2599 14.0415 14.2599 14.1429C14.2599 15.642 14.2599 17.1412 14.2599 18.6403C14.2599 18.7634 14.2526 18.8938 14.2232 19.0169C14.1719 19.2269 14.0178 19.3356 13.8049 19.3428C13.5774 19.3501 13.416 19.2487 13.3499 19.0314C13.3133 18.9155 13.3059 18.7852 13.3059 18.6548C13.3059 17.1557 13.3059 15.6565 13.3059 14.1574C13.2912 14.0343 13.2912 13.9256 13.2912 13.788ZM13.2912 12.8755C13.2912 12.5134 13.2986 12.202 13.2912 11.8833C13.2766 11.4053 12.895 11.0287 12.4106 11.0143C11.9189 10.9998 11.5153 11.3329 11.4566 11.7964C11.3905 12.2961 11.6841 12.7379 12.1831 12.8103C12.528 12.8755 12.8876 12.861 13.2912 12.8755ZM16.1386 12.8755C16.5423 12.8538 16.9239 12.8683 17.2981 12.8031C17.7458 12.7234 18.0173 12.2816 17.966 11.8254C17.9146 11.3691 17.5403 11.0287 17.0853 11.0143C16.623 10.9998 16.19 11.3112 16.146 11.753C16.1093 12.1078 16.1386 12.4699 16.1386 12.8755Z" fill="white"/>
<path d="M9.43232 2.25822C9.49837 2.31616 9.66716 2.39582 9.74788 2.52618C10.0634 3.03314 10.357 3.54733 10.6505 4.06153C10.7973 4.32225 10.7239 4.59021 10.4964 4.72057C10.2616 4.85093 9.9974 4.78575 9.83595 4.52503C9.52038 4.01084 9.21216 3.4894 8.92595 2.96071C8.73515 2.62033 8.96998 2.24373 9.43232 2.25822Z" fill="white"/>
<path d="M20.582 2.7506C20.5453 2.83027 20.516 2.94614 20.4573 3.04753C20.1857 3.51828 19.9142 3.98902 19.6353 4.45252C19.4445 4.77118 19.1877 4.86533 18.9381 4.72049C18.6886 4.58288 18.6373 4.30044 18.8207 3.98902C19.1069 3.49655 19.3931 3.00408 19.6867 2.51161C19.8041 2.31607 19.9876 2.19295 20.2371 2.27261C20.4573 2.34504 20.5527 2.50437 20.582 2.7506Z" fill="white"/>
<path d="M5.39507 6.14062C5.48313 6.17684 5.60055 6.2058 5.70329 6.26374C6.18764 6.5317 6.672 6.80691 7.14901 7.08936C7.46457 7.27041 7.55263 7.53837 7.39852 7.78461C7.25175 8.01636 6.98022 8.06706 6.672 7.89324C6.17297 7.6108 5.67394 7.32835 5.17491 7.03866C4.96943 6.92278 4.85935 6.74173 4.9254 6.49549C4.9841 6.27098 5.14556 6.17684 5.39507 6.14062Z" fill="white"/>
<path d="M24.2914 6.22051C24.1593 6.14809 24.0052 6.14084 23.8657 6.19878C23.8217 6.21327 23.7703 6.23499 23.7263 6.26396C23.2419 6.53192 22.7576 6.80713 22.2806 7.08958C21.965 7.27063 21.877 7.53859 22.0311 7.78483C22.1778 8.01658 22.4494 8.06728 22.7576 7.89346C23.2566 7.61102 23.7556 7.32857 24.2547 7.03888C24.4602 6.923 24.5702 6.74195 24.5042 6.49571C24.4602 6.36535 24.3941 6.27845 24.2914 6.22051Z" fill="white"/>
<path d="M24.5202 17.1924C24.5055 17.5907 24.1679 17.8297 23.867 17.6777C23.28 17.3735 22.7002 17.0331 22.1351 16.6927C21.9223 16.5623 21.9003 16.3378 22.0104 16.1133C22.1204 15.9033 22.37 15.8019 22.5901 15.9178C23.1772 16.2292 23.7496 16.5623 24.322 16.91C24.4395 16.9679 24.4835 17.1272 24.5202 17.1924Z" fill="white"/>
<path d="M6.76378 15.9251C6.93256 15.8455 7.13805 15.8817 7.27748 16.0048C7.33619 16.0555 7.38756 16.1134 7.42425 16.1786C7.527 16.3814 7.43893 16.5914 7.24079 16.7146C6.95458 16.8884 6.66103 17.0549 6.36749 17.2215C6.13265 17.3591 5.89781 17.4967 5.65564 17.6271C5.37677 17.7792 5.0979 17.714 4.95847 17.475C4.82637 17.2505 4.89976 16.9825 5.17129 16.8304C5.69233 16.5263 6.21338 16.2293 6.73442 15.9396C6.7491 15.9324 6.75644 15.9324 6.76378 15.9251Z" fill="white"/>
<path d="M4.85938 12.3967C4.56583 12.3967 4.27229 12.404 3.98608 12.3967C3.66318 12.3822 3.4577 12.1867 3.46503 11.9187C3.47237 11.6508 3.68519 11.4625 4.00809 11.4625C4.58051 11.4552 5.16026 11.4552 5.73268 11.4625C6.06292 11.4697 6.2684 11.6435 6.27574 11.9187C6.28308 12.2012 6.08493 12.3895 5.74002 12.404C5.43913 12.4112 5.14559 12.3967 4.85938 12.3967Z" fill="white"/>
<path d="M24.5396 12.3967C24.246 12.3967 23.9525 12.404 23.6663 12.3967C23.336 12.3822 23.1452 12.1939 23.1525 11.9187C23.1599 11.6508 23.3654 11.4697 23.6883 11.4625C24.2607 11.4552 24.8404 11.4552 25.4129 11.4625C25.7358 11.4697 25.9486 11.6508 25.9559 11.9187C25.9633 12.1939 25.7578 12.3822 25.4129 12.3967C25.1266 12.4112 24.8331 12.404 24.5396 12.3967Z" fill="white"/>
</g>
<defs>
<clipPath id="clip0_1979_25518">
<rect width="27.7594" height="27.7594" fill="white" transform="translate(0.832031 0.832031)"/>
</clipPath>
</defs>
</svg>
