<svg width="567" height="515" viewBox="0 0 567 515" fill="none" xmlns="http://www.w3.org/2000/svg">
<path d="M89.5926 515C84.0432 515 79.5445 510.523 79.5445 505C79.5445 499.477 84.0432 495 89.5926 495C95.142 495 99.6406 499.477 99.6406 505C99.6406 510.523 95.142 515 89.5926 515Z" fill="#522C2C"/>
<path d="M558.47 195.3L516.34 452.469L136.25 487.7L0.0898438 340.32L35.3198 115.06L343.24 10.7695L558.47 195.3Z" fill="#FEEBDC"/>
<path d="M480.278 325.36C480.354 325.36 480.429 325.36 480.504 325.36C483.747 325.147 485.557 322.595 485.331 318.624C485.18 315.788 483.898 312.81 482.088 310.542C481.259 309.549 480.278 308.698 479.222 308.06C479.524 307.422 479.826 306.713 480.203 306.075C482.163 302.317 486.914 296.007 495.888 295.511C500.036 295.298 503.656 296.503 506.597 298.985C499.659 303.735 495.662 311.534 495.813 317.065C495.964 321.886 498.905 324.793 503.957 325.005C507.577 325.147 510.443 323.658 512.328 320.68C515.42 315.788 514.817 307.635 511.046 301.75C510.443 300.757 509.764 299.907 509.01 299.127C511.725 297.567 514.817 296.432 518.286 296.149C533.292 294.943 538.496 324.509 538.571 324.793C538.647 325.147 539.024 325.431 539.401 325.36C539.778 325.289 540.079 324.935 540.004 324.58C540.004 324.509 538.647 316.781 535.328 309.336C530.955 299.268 524.997 294.234 518.135 294.731C514.289 295.014 510.895 296.291 507.954 298.063C504.711 295.156 500.564 293.809 495.888 294.022C488.649 294.447 482.616 298.418 478.921 305.366C478.619 306.004 478.242 306.642 478.016 307.28C476.734 306.713 475.376 306.5 473.944 306.571C469.419 306.784 465.799 309.904 463.461 315.647C462.104 318.908 461.501 322.098 461.35 323.446L420.754 323.446C420.301 323.446 420 323.729 420 324.155C420 324.58 420.301 324.864 420.754 324.864L462.556 324.864L462.632 324.226C462.632 324.084 464.442 308.486 473.944 308.06C475.226 307.989 476.357 308.273 477.413 308.698C475.301 314.441 475.075 320.68 477.186 323.658C478.016 324.793 479.072 325.36 480.278 325.36ZM478.695 309.407C481.786 311.463 483.672 315.576 483.823 318.695C483.898 319.901 483.898 323.729 480.429 323.942C479.599 324.013 478.996 323.658 478.393 322.878C476.809 320.539 476.658 315.008 478.695 309.407ZM507.653 299.907C508.407 300.686 509.085 301.537 509.689 302.459C513.233 307.918 513.761 315.434 510.971 319.901C509.915 321.602 507.803 323.658 503.957 323.517C498.301 323.304 497.321 319.333 497.246 316.994C497.17 311.747 501.092 304.373 507.653 299.907Z" fill="#522C2C"/>
<path d="M68.6263 403C68.9394 403 69.2526 402.766 69.2526 402.473C69.2526 402.239 71.5072 379.176 85.7237 379.176C85.849 379.176 86.0368 379.176 86.1621 379.176C93.1138 379.41 96.7463 383.449 98.5625 386.786C98.9383 387.488 99.2514 388.191 99.5645 388.893C96.8089 390.181 94.5543 392.932 94.3038 397.088C94.1159 400.307 95.4937 402.473 97.8736 402.649C99.0009 402.707 100.003 402.239 100.692 401.185C102.258 398.961 102.633 394.161 101.068 389.478C101.757 389.303 102.508 389.186 103.322 389.186C111.589 389.478 112.341 401.888 112.403 402.063V402.649H151.374C151.749 402.649 152 402.415 152 402.063C152 401.712 151.749 401.478 151.374 401.478H113.593C113.468 400.366 113.155 397.849 112.153 395.273C110.337 390.708 107.33 388.191 103.385 388.073C102.508 388.073 101.569 388.191 100.692 388.425C100.379 387.664 100.066 386.961 99.6898 386.259C96.8716 381.108 92.0491 378.181 86.2247 378.005C79.6488 377.83 74.3881 381.986 71.0688 390.122C68.6263 396.151 68.0626 402.122 68 402.356C68 402.707 68.2505 403 68.6263 403ZM99.9403 390.005C101.318 394.278 101.068 398.668 99.6898 400.6C99.1888 401.244 98.6251 401.595 97.9988 401.537C95.9948 401.361 95.4311 399.078 95.5563 397.205C95.6816 394.805 97.0594 391.469 99.9403 390.005Z" fill="#522C2C"/>
<path d="M30.8101 100.621L114.85 100.621C118.059 100.621 120.66 98.0199 120.66 94.8111C120.66 91.6023 118.059 89.0011 114.85 89.0011L30.8101 89.0011C27.6013 89.0011 25 91.6023 25 94.8111C25 98.0199 27.6013 100.621 30.8101 100.621Z" fill="#522C2C"/>
<path d="M419.999 403.15H532.319C535.528 403.15 538.129 400.549 538.129 397.34C538.129 394.132 535.528 391.53 532.319 391.53H419.999C416.79 391.53 414.189 394.132 414.189 397.34C414.189 400.549 416.79 403.15 419.999 403.15Z" fill="#522C2C"/>
<path d="M395.381 456.999C397.883 456.999 399.911 454.971 399.911 452.469C399.911 449.968 397.883 447.939 395.381 447.939C392.879 447.939 390.852 449.968 390.852 452.469C390.852 454.971 392.879 456.999 395.381 456.999Z" fill="#522C2C"/>
<path d="M109.961 348.091C114.253 348.091 117.731 344.612 117.731 340.321C117.731 336.03 114.253 332.551 109.961 332.551C105.67 332.551 102.191 336.03 102.191 340.321C102.191 344.612 105.67 348.091 109.961 348.091Z" fill="#522C2C"/>
<path d="M424.421 278.131C431.114 278.131 436.541 272.704 436.541 266.011C436.541 259.317 431.114 253.891 424.421 253.891C417.727 253.891 412.301 259.317 412.301 266.011C412.301 272.704 417.727 278.131 424.421 278.131Z" fill="#522C2C"/>
<path d="M253.229 495.43H201.529C201.529 495.43 197.079 494.78 197.039 487.73C197.21 488.653 197.701 489.486 198.425 490.084C199.149 490.682 200.06 491.006 200.999 491H253.999C254.432 490.997 254.861 490.909 255.26 490.741C255.66 490.573 256.022 490.327 256.327 490.019C256.631 489.711 256.872 489.345 257.035 488.944C257.199 488.543 257.282 488.113 257.279 487.68C257.279 487.68 258.399 495.43 253.229 495.43Z" fill="#522C2C"/>
<path d="M257.32 444.32V487.7C257.325 488.574 256.984 489.414 256.371 490.036C255.758 490.658 254.924 491.012 254.05 491.02H201C199.975 491.022 198.988 490.629 198.243 489.924C197.499 489.219 197.054 488.254 197 487.23C196.62 481.76 198.7 471.97 217.2 468.63V444.32H257.32Z" fill="#FF2B49"/>
<path d="M236.29 481.53C236.207 481.529 236.125 481.507 236.051 481.467C235.978 481.427 235.916 481.369 235.87 481.3C226.04 466.18 217.78 468.83 217.69 468.86C217.567 468.902 217.432 468.894 217.314 468.838C217.196 468.782 217.105 468.682 217.06 468.56C217.036 468.498 217.025 468.432 217.028 468.366C217.03 468.3 217.046 468.235 217.074 468.176C217.102 468.116 217.142 468.062 217.191 468.018C217.24 467.974 217.298 467.941 217.36 467.92C217.72 467.79 226.36 464.92 236.71 480.76C236.782 480.87 236.808 481.004 236.782 481.133C236.756 481.263 236.68 481.376 236.57 481.45C236.485 481.5 236.389 481.528 236.29 481.53Z" fill="#522C2C"/>
<path d="M233.7 465.74H222.25C222.117 465.74 221.99 465.688 221.896 465.594C221.803 465.5 221.75 465.373 221.75 465.24C221.75 465.108 221.803 464.98 221.896 464.887C221.99 464.793 222.117 464.74 222.25 464.74H233.7C233.833 464.74 233.96 464.793 234.053 464.887C234.147 464.98 234.2 465.108 234.2 465.24C234.2 465.373 234.147 465.5 234.053 465.594C233.96 465.688 233.833 465.74 233.7 465.74Z" fill="#522C2C"/>
<path d="M233.7 462.461H222.25C222.117 462.461 221.99 462.408 221.896 462.314C221.803 462.221 221.75 462.094 221.75 461.961C221.75 461.828 221.803 461.701 221.896 461.607C221.99 461.514 222.117 461.461 222.25 461.461H233.7C233.832 461.463 233.958 461.517 234.051 461.61C234.144 461.703 234.197 461.829 234.2 461.961C234.2 462.094 234.147 462.221 234.053 462.314C233.96 462.408 233.833 462.461 233.7 462.461Z" fill="#522C2C"/>
<path d="M224 458.311C222.208 458.235 220.444 457.842 218.79 457.151C217.217 456.559 215.751 455.714 214.45 454.651C212.91 453.321 212.86 452.36 213.08 451.79C213.78 450.02 217.55 450.44 220.92 451.79C222.494 452.386 223.963 453.23 225.27 454.29C226.8 455.63 226.86 456.59 226.63 457.16C226.27 458 225.27 458.311 224 458.311ZM215.72 451.621C214.72 451.621 214.14 451.831 214.01 452.151C213.88 452.471 214.12 453.051 215.1 453.891C216.317 454.884 217.688 455.671 219.16 456.22C222.73 457.63 225.42 457.491 225.7 456.771C225.81 456.501 225.59 455.881 224.61 455.031C223.393 454.036 222.022 453.249 220.55 452.701C219.005 452.049 217.355 451.683 215.68 451.621H215.72Z" fill="#522C2C"/>
<path d="M227.14 458.001C226.881 458.034 226.618 457.997 226.379 457.893C226.14 457.789 225.933 457.622 225.78 457.411C225.44 456.791 225.78 455.971 226.78 454.961C228.905 453.024 231.452 451.61 234.22 450.831C235.61 450.501 236.49 450.651 236.83 451.271C237.17 451.891 236.83 452.711 235.83 453.711C234.786 454.697 233.616 455.541 232.35 456.221C230.766 457.191 228.987 457.799 227.14 458.001ZM226.65 456.921C226.88 457.161 228.8 457.041 231.87 455.341C234.94 453.641 236.06 452.061 235.97 451.751C235.88 451.441 233.83 451.631 230.75 453.331C227.67 455.031 226.57 456.591 226.65 456.911V456.921Z" fill="#522C2C"/>
<path d="M331.19 495.43H279.49C279.49 495.43 275.04 494.78 275 487.73C275.172 488.66 275.669 489.498 276.401 490.097C277.133 490.696 278.054 491.016 279 491H332C332.433 490.997 332.862 490.909 333.261 490.741C333.661 490.573 334.023 490.327 334.328 490.019C334.632 489.711 334.873 489.345 335.036 488.944C335.2 488.543 335.283 488.113 335.28 487.68C335.28 487.68 336.36 495.43 331.19 495.43Z" fill="#522C2C"/>
<path d="M335.278 444.32V487.7C335.278 488.572 334.933 489.408 334.319 490.027C333.704 490.645 332.87 490.995 331.998 491H278.998C277.976 490.99 276.996 490.593 276.254 489.89C275.512 489.188 275.064 488.23 274.998 487.21C274.628 481.74 276.708 471.95 295.208 468.61V444.32H335.278Z" fill="#FF2B49"/>
<path d="M314.25 481.53C314.167 481.529 314.085 481.507 314.012 481.467C313.938 481.427 313.876 481.369 313.83 481.3C303.99 466.18 295.73 468.83 295.65 468.86C295.525 468.902 295.389 468.894 295.27 468.838C295.151 468.783 295.058 468.683 295.01 468.56C294.968 468.434 294.978 468.296 295.035 468.177C295.093 468.057 295.196 467.965 295.32 467.92C295.68 467.79 304.32 464.92 314.67 480.76C314.742 480.871 314.766 481.006 314.738 481.136C314.71 481.265 314.632 481.378 314.52 481.45C314.439 481.5 314.346 481.528 314.25 481.53Z" fill="#522C2C"/>
<path d="M311.651 465.74H300.211C300.078 465.74 299.951 465.688 299.857 465.594C299.764 465.5 299.711 465.373 299.711 465.24C299.711 465.108 299.764 464.98 299.857 464.887C299.951 464.793 300.078 464.74 300.211 464.74H311.651C311.783 464.74 311.911 464.793 312.005 464.887C312.098 464.98 312.151 465.108 312.151 465.24C312.151 465.373 312.098 465.5 312.005 465.594C311.911 465.688 311.783 465.74 311.651 465.74Z" fill="#522C2C"/>
<path d="M311.651 462.461H300.211C300.078 462.461 299.951 462.408 299.857 462.314C299.764 462.221 299.711 462.094 299.711 461.961C299.711 461.828 299.764 461.701 299.857 461.607C299.951 461.514 300.078 461.461 300.211 461.461H311.651C311.783 461.461 311.911 461.514 312.005 461.607C312.098 461.701 312.151 461.828 312.151 461.961C312.151 462.094 312.098 462.221 312.005 462.314C311.911 462.408 311.783 462.461 311.651 462.461Z" fill="#522C2C"/>
<path d="M301.908 458.311C300.12 458.234 298.359 457.842 296.708 457.151C295.133 456.556 293.665 455.712 292.358 454.651C290.828 453.321 290.768 452.36 290.998 451.79C291.698 450.02 295.468 450.44 298.838 451.79C300.411 452.389 301.88 453.232 303.188 454.29C304.718 455.63 304.778 456.59 304.548 457.16C304.218 458 303.228 458.311 301.908 458.311ZM293.638 451.621C292.638 451.621 292.058 451.831 291.928 452.151C291.798 452.471 292.038 453.051 293.018 453.891C294.234 454.886 295.606 455.673 297.078 456.22C300.648 457.63 303.338 457.491 303.618 456.771C303.728 456.501 303.508 455.881 302.528 455.031C301.31 454.039 299.939 453.252 298.468 452.701C296.936 452.054 295.3 451.688 293.638 451.621Z" fill="#522C2C"/>
<path d="M305.089 458C304.83 458.035 304.565 457.997 304.325 457.891C304.085 457.785 303.879 457.615 303.729 457.4C303.389 456.78 303.729 455.96 304.729 454.95C305.775 453.973 306.941 453.133 308.199 452.45C310.869 450.97 314.059 449.97 314.779 451.26C315.119 451.87 314.779 452.7 313.779 453.7C311.66 455.65 309.106 457.066 306.329 457.83C305.924 457.932 305.508 457.989 305.089 458ZM304.61 456.91C304.83 457.15 306.759 457.03 309.819 455.33C312.879 453.63 314.019 452.05 313.919 451.74C313.819 451.43 311.789 451.62 308.709 453.32C305.629 455.02 304.52 456.59 304.61 456.91Z" fill="#522C2C"/>
<path d="M376.251 60.32C376.251 60.32 362.69 78.5 355.19 88.93C353.185 91.7793 350.468 94.0532 347.309 95.5253C344.151 96.9974 340.662 97.6162 337.19 97.32C328.41 96.46 320.011 90.71 329.111 68.43C329.111 68.43 333.67 60.36 335.96 59.43C335.96 59.43 332.01 50.75 309.67 44.88C309.67 44.88 291.551 47.88 291.321 43.4C291.139 42.4506 291.336 41.4678 291.868 40.661C292.4 39.8541 293.226 39.2869 294.17 39.08C295.289 38.7335 296.343 38.2066 297.291 37.52L278.7 33.37C277.667 33.1426 276.727 32.6094 276.001 31.84C272.851 28.49 278.591 28.25 278.591 28.25L277.011 27.69C275.952 27.4141 274.975 26.8896 274.16 26.16C271 23.24 276.741 22.25 276.741 22.25L279.861 21.38C271.541 14.02 284.99 16.22 285.66 16.38C281.59 14.45 282.331 12.91 283.821 11.9C285.272 10.9865 287.006 10.6312 288.7 10.9C293.25 11.5 304.701 13.37 311.341 17.83C311.341 17.83 361.111 32.47 372.521 38.93C372.511 38.87 386.641 44.66 376.251 60.32Z" fill="#FDAFA2"/>
<path d="M349.43 94.3601L352.84 91.6602C352.84 91.6602 357.62 97.0402 355.66 98.0402C353.379 97.1969 351.269 95.9503 349.43 94.3601Z" fill="#522C2C"/>
<path d="M329.112 68.4199C329.112 68.4199 337.282 89.1899 355.662 98.0399L326.722 126V147.4H210.302V139.23L207.922 142.3C207.922 142.3 192.602 138.21 188.172 140.93C188.172 140.93 197.362 106.55 209.282 90.9299C209.282 90.9299 225.362 75.6999 252.172 76.4599C252.172 76.4599 262.722 90.8499 271.922 85.9999C281.122 81.1499 283.062 79.2699 283.322 78.0799C283.322 78.0799 315.152 79.6099 316.772 82.0799C316.772 81.9999 327.752 68.4199 329.112 68.4199Z" fill="white"/>
<path d="M338.638 447.93H287.058L268.678 258.01L262.548 447.93H209.188L205.488 296.75L207.228 135L231.398 120.75H305.948L325.868 132.49L338.638 447.93Z" fill="#0160FA"/>
<path d="M294.461 167.46L232.121 167.02L233.221 138.02L294.461 139.4V167.46ZM233.161 166.03L293.461 166.45V140.38L234.181 139L233.161 166.03Z" fill="white"/>
<path d="M265.91 219.121C264.942 219.114 263.987 218.905 263.105 218.508C262.224 218.11 261.435 217.532 260.79 216.811C253.01 208.721 254.33 181.811 254.39 180.631C254.4 180.499 254.461 180.376 254.56 180.289C254.659 180.201 254.788 180.155 254.92 180.161C254.985 180.163 255.049 180.179 255.108 180.206C255.168 180.234 255.221 180.273 255.264 180.322C255.308 180.37 255.342 180.427 255.363 180.488C255.385 180.55 255.394 180.615 255.39 180.681C255.39 180.961 254.03 208.331 261.51 216.121C262.068 216.757 262.758 217.266 263.531 217.611C264.304 217.956 265.143 218.13 265.99 218.121C266.123 218.121 266.25 218.173 266.343 218.267C266.437 218.361 266.49 218.488 266.49 218.621C266.49 218.753 266.437 218.88 266.343 218.974C266.25 219.068 266.123 219.121 265.99 219.121H265.91Z" fill="white"/>
<path d="M267.998 247.371C267.872 247.371 267.751 247.324 267.658 247.238C267.565 247.153 267.508 247.036 267.498 246.911L262.798 180.691C262.789 180.558 262.832 180.427 262.92 180.327C263.007 180.226 263.13 180.165 263.263 180.156C263.396 180.146 263.527 180.19 263.627 180.277C263.727 180.364 263.789 180.488 263.798 180.621L268.498 246.831C268.504 246.896 268.496 246.962 268.476 247.025C268.456 247.088 268.423 247.146 268.38 247.196C268.338 247.246 268.285 247.288 268.227 247.318C268.168 247.347 268.104 247.365 268.038 247.371H267.998Z" fill="white"/>
<path d="M322.808 181.16L212.808 176.65C212.676 176.642 212.553 176.584 212.463 176.487C212.374 176.39 212.325 176.262 212.328 176.13C212.328 176.064 212.341 175.998 212.368 175.937C212.395 175.876 212.434 175.821 212.483 175.776C212.531 175.731 212.589 175.696 212.652 175.674C212.715 175.653 212.782 175.645 212.848 175.65L322.848 180.16C322.981 180.16 323.108 180.213 323.202 180.307C323.296 180.4 323.348 180.528 323.348 180.66C323.348 180.793 323.296 180.92 323.202 181.014C323.108 181.107 322.981 181.16 322.848 181.16H322.808Z" fill="white"/>
<path d="M303.369 79.4691C303.369 79.4691 301.619 108.039 301.369 116.339H290.539C290.539 116.339 293.119 78.8791 293.029 78.6191L303.369 79.4691Z" fill="#0160FA"/>
<path d="M232.648 78.1191C232.648 78.1191 234.428 106.759 234.648 115.059H245.479C245.479 115.059 242.858 77.0591 242.948 76.7891L232.648 78.1191Z" fill="#0160FA"/>
<path d="M301.999 117.341V121.521L298.329 126.381H293.329L289.719 121.381V117.311H301.999M302.999 116.311H288.699V121.701L292.799 127.351H298.799L302.969 121.831V116.311H302.999Z" fill="#522C2C"/>
<path d="M297.451 132.911H294.711L292.901 130.531L292.781 127.381H298.811L298.761 130.471L297.451 132.911Z" fill="#522C2C"/>
<path d="M245.94 116.059V120.249L242.27 125.099H237.27L233.66 120.099V116.029H245.96M246.96 115.029H232.66V120.429L236.76 126.069H242.76L246.93 120.549V115.029H246.96Z" fill="#522C2C"/>
<path d="M241.408 131.64H238.668L236.858 129.25L236.738 126.1H242.768L242.718 129.19L241.408 131.64Z" fill="#522C2C"/>
<path d="M236.852 131.641C236.852 131.641 248.431 168.401 250.981 188.831C250.981 188.831 216.432 198.361 210.302 198.361C210.302 198.361 199.751 165.361 197.191 140.661C197.191 140.661 230.892 132.321 236.852 131.641Z" fill="#FF2B49"/>
<path d="M221.231 155.8C223.275 155.8 224.931 154.144 224.931 152.1C224.931 150.057 223.275 148.4 221.231 148.4C219.188 148.4 217.531 150.057 217.531 152.1C217.531 154.144 219.188 155.8 221.231 155.8Z" fill="white"/>
<path d="M198.888 151.64L223.258 152.52C224.454 152.56 225.61 152.957 226.578 153.66C230.758 156.74 224.428 158.19 224.428 158.19L226.298 158.5C227.53 158.579 228.724 158.957 229.778 159.6C233.908 162.2 227.718 164.49 227.718 164.49L224.428 166.11C235.488 172.74 218.978 172.91 218.978 172.91C223.978 174.22 223.438 176.1 221.978 177.53C220.56 178.864 218.704 179.636 216.758 179.7C209.258 180.11 185.068 180.52 183.048 169.17C180.668 155.72 197.718 145.17 197.718 145.17L198.888 151.64Z" fill="#FDAFA2"/>
<path d="M207.58 158.709C207.491 158.695 207.41 158.649 207.352 158.58C207.294 158.512 207.262 158.425 207.262 158.334C207.262 158.244 207.294 158.157 207.352 158.088C207.41 158.02 207.491 157.974 207.58 157.959C213.096 157.644 218.625 157.644 224.14 157.959C224.239 157.967 224.331 158.013 224.397 158.088C224.462 158.163 224.496 158.26 224.49 158.359C224.489 158.409 224.478 158.459 224.457 158.504C224.435 158.549 224.405 158.59 224.367 158.623C224.33 158.656 224.286 158.68 224.238 158.695C224.19 158.71 224.14 158.715 224.09 158.709C218.611 158.399 213.119 158.399 207.64 158.709H207.58Z" fill="#522C2C"/>
<path d="M224.432 166.48C218.843 166.093 213.235 166.053 207.642 166.36C207.55 166.354 207.464 166.316 207.399 166.252C207.334 166.188 207.294 166.102 207.286 166.011C207.279 165.92 207.305 165.829 207.359 165.755C207.413 165.682 207.493 165.63 207.582 165.61C213.212 165.303 218.856 165.343 224.482 165.73C224.581 165.738 224.673 165.784 224.738 165.858C224.804 165.933 224.837 166.031 224.832 166.13C224.829 166.179 224.817 166.228 224.795 166.272C224.774 166.317 224.743 166.357 224.706 166.39C224.668 166.422 224.625 166.447 224.578 166.463C224.531 166.478 224.481 166.484 224.432 166.48Z" fill="#522C2C"/>
<path d="M219.002 173.289H218.932C215.39 172.856 211.81 172.826 208.262 173.199C208.213 173.205 208.163 173.2 208.116 173.186C208.069 173.171 208.025 173.148 207.988 173.116C207.95 173.084 207.92 173.045 207.898 173.001C207.877 172.956 207.864 172.908 207.862 172.859C207.856 172.81 207.861 172.761 207.875 172.714C207.889 172.667 207.913 172.623 207.945 172.586C207.977 172.548 208.016 172.518 208.06 172.496C208.104 172.474 208.152 172.462 208.202 172.459C211.816 172.066 215.464 172.097 219.072 172.549C219.168 172.571 219.253 172.628 219.308 172.71C219.364 172.792 219.387 172.891 219.372 172.989C219.353 173.074 219.307 173.15 219.239 173.204C219.172 173.259 219.088 173.289 219.002 173.289Z" fill="#522C2C"/>
<path d="M297.1 33.8107C297.037 33.8081 296.975 33.7909 296.92 33.7606C292.1 31.1006 278.92 28.9707 278.83 28.9507C278.732 28.9335 278.645 28.8789 278.587 28.7986C278.529 28.7183 278.505 28.6186 278.52 28.5207C278.527 28.4718 278.544 28.4249 278.57 28.3827C278.595 28.3405 278.629 28.3038 278.669 28.2749C278.709 28.246 278.755 28.2255 278.803 28.2144C278.851 28.2034 278.901 28.2021 278.95 28.2107C279.5 28.3007 292.35 30.3807 297.29 33.1007C297.333 33.1246 297.371 33.1568 297.401 33.1956C297.432 33.2343 297.454 33.2787 297.467 33.3262C297.48 33.3737 297.483 33.4234 297.477 33.4722C297.471 33.521 297.454 33.5681 297.43 33.6107C297.399 33.6719 297.352 33.7232 297.294 33.7586C297.235 33.794 297.168 33.8121 297.1 33.8107Z" fill="#522C2C"/>
<path d="M299.379 26.5191H299.249C292.409 24.0091 280.249 21.9591 280.169 21.9391C280.072 21.9219 279.985 21.8673 279.927 21.787C279.869 21.7067 279.845 21.607 279.86 21.509C279.868 21.4598 279.886 21.4126 279.913 21.3704C279.94 21.3281 279.974 21.2915 280.015 21.2627C280.056 21.2339 280.102 21.2135 280.151 21.2025C280.2 21.1916 280.25 21.1904 280.3 21.199C280.42 21.199 292.599 23.279 299.509 25.809C299.604 25.8451 299.68 25.9163 299.723 26.0077C299.766 26.099 299.772 26.2035 299.739 26.2991C299.708 26.3672 299.657 26.4244 299.593 26.4636C299.529 26.5028 299.454 26.5221 299.379 26.5191Z" fill="#522C2C"/>
<path d="M300.999 20.5894C300.947 20.5878 300.896 20.5754 300.85 20.553C300.803 20.5306 300.762 20.4988 300.728 20.4595C298.238 17.7295 286.088 16.6995 285.968 16.6895C285.879 16.6694 285.8 16.6177 285.746 16.5441C285.692 16.4704 285.666 16.3796 285.673 16.2884C285.68 16.1972 285.72 16.1117 285.786 16.0476C285.851 15.9835 285.937 15.9451 286.029 15.9395C286.549 15.9895 298.589 17.0095 301.279 19.9395C301.348 20.0104 301.386 20.1055 301.386 20.2045C301.386 20.3034 301.348 20.3985 301.279 20.4695C301.202 20.5415 301.103 20.5841 300.999 20.5894Z" fill="#522C2C"/>
<path d="M256.092 51.3801L254.891 75.8101L248.602 76.4201C248.602 76.4201 264.091 102.61 286.041 78.1901L276.431 74.1901L276.261 40.4001C276.261 40.4001 288.071 31.6001 278.891 23.8501C276.171 21.5501 274.471 22.9601 272.891 24.6101C272.891 24.6101 274.762 17.7601 274.592 16.3201C274.422 14.8801 254.341 7.02007 250.421 18.2601C246.501 29.5001 245.321 44.3201 247.421 49.0001C249.521 53.6801 256.092 51.3801 256.092 51.3801Z" fill="#FDAFA2"/>
<path d="M262.871 27.0007C262.871 27.0007 265.431 23.4307 267.211 27.0007H262.871Z" fill="#522C2C"/>
<path d="M251.32 27.0007C251.32 27.0007 253.87 23.4307 255.66 27.0007H251.32Z" fill="#522C2C"/>
<path d="M260.38 24.9297V35.5897H252.66L260.38 24.9297Z" fill="#FF2B49"/>
<path d="M259 44.8995C258.869 44.8996 258.743 44.8483 258.65 44.7567C258.556 44.665 258.503 44.5404 258.5 44.4095C258.5 44.2777 258.551 44.1509 258.642 44.0558C258.734 43.9607 258.858 43.9047 258.99 43.8995C263.05 43.8495 263.34 41.2095 263.35 41.0995C263.365 40.9696 263.43 40.8504 263.53 40.7666C263.631 40.6829 263.759 40.641 263.89 40.6495C263.956 40.6546 264.02 40.6726 264.079 40.7025C264.137 40.7324 264.19 40.7736 264.232 40.8238C264.275 40.874 264.307 40.9322 264.328 40.9949C264.348 41.0577 264.356 41.1238 264.35 41.1895C264.35 41.1895 264 44.8295 259.01 44.8995H259Z" fill="#522C2C"/>
<path d="M277.362 34.9999C277.273 35.0004 277.188 34.9683 277.122 34.9099C277.083 34.8797 277.052 34.8423 277.028 34.7998C277.004 34.7574 276.989 34.7106 276.984 34.6623C276.978 34.614 276.982 34.5651 276.995 34.5184C277.009 34.4716 277.031 34.428 277.062 34.3899C279.212 31.7399 280.061 29.6399 279.401 28.3099C278.591 26.5699 275.592 26.5099 275.562 26.5099C275.462 26.5073 275.368 26.4661 275.299 26.3951C275.23 26.3242 275.191 26.229 275.191 26.1299C275.191 26.0805 275.201 26.0315 275.22 25.986C275.24 25.9404 275.268 25.8992 275.303 25.8647C275.339 25.8302 275.381 25.8031 275.427 25.7852C275.473 25.7672 275.522 25.7586 275.572 25.7599C275.712 25.7599 279.062 25.8299 280.082 27.9899C280.842 29.6199 280.021 31.9299 277.651 34.8599C277.615 34.9021 277.571 34.9363 277.521 34.9604C277.471 34.9845 277.417 34.9979 277.362 34.9999Z" fill="#522C2C"/>
<path d="M270.208 17.3808C270.208 17.3808 262.038 24.3808 250.128 17.3808C250.128 17.3808 242.298 14.4908 245.128 8.27075C245.128 8.27075 243.768 -0.729259 252.788 3.51074C252.788 3.51074 255.508 5.64075 262.148 1.89075C262.148 1.89075 266.828 -3.97925 274.488 8.10075C274.488 8.10075 277.129 12.2507 280.359 10.4707C280.359 10.4707 296.788 3.42075 285.808 41.8907C285.808 41.8907 278.149 52.4407 276.359 49.0407V37.4207C276.359 37.4207 282.358 35.7307 281.948 29.7607C281.678 25.7607 277.889 20.5307 272.869 24.6107C272.849 24.6107 273.998 15.3008 270.208 17.3808Z" fill="#522C2C"/>
<path d="M256.091 51.3806L255.551 62.3806C255.551 62.3806 265.281 61.9705 266.041 56.9505V46.8105C263.178 49.1729 259.748 50.7481 256.091 51.3806Z" fill="#FD8471"/>
<path d="M566.435 190.529H408V53.9412C408 46.2353 414.061 40 421.551 40H552.885C560.375 40 566.435 46.2353 566.435 53.9412V190.529ZM409.144 189.353H565.292V53.9412C565.292 46.8823 559.746 41.1765 552.885 41.1765H421.551C414.69 41.1765 409.144 46.8823 409.144 53.9412V189.353Z" fill="#C29C9C"/>
<path d="M553.973 68.1765H420.466C420.123 68.1765 419.895 67.9412 419.895 67.5882C419.895 67.2353 420.123 67 420.466 67H554.03C554.373 67 554.602 67.2353 554.602 67.5882C554.602 67.9412 554.316 68.1765 553.973 68.1765Z" fill="#522C2C"/>
<path d="M553.971 58.9997C553.799 58.9997 553.685 58.9408 553.571 58.8232L545.566 50.5879C545.337 50.3526 545.337 49.9997 545.566 49.7644C545.795 49.5291 546.138 49.5291 546.367 49.7644L554.371 57.9997C554.6 58.235 554.6 58.5879 554.371 58.8232C554.314 58.9408 554.143 58.9997 553.971 58.9997Z" fill="#522C2C"/>
<path d="M545.966 58.9997C545.795 58.9997 545.68 58.9408 545.566 58.8232C545.337 58.5879 545.337 58.235 545.566 57.9997L553.571 49.7644C553.799 49.5291 554.142 49.5291 554.371 49.7644C554.6 49.9997 554.6 50.3526 554.371 50.5879L546.367 58.8232C546.309 58.9408 546.138 58.9997 545.966 58.9997Z" fill="#522C2C"/>
<path d="M449.911 59.0592C447.338 59.0592 445.223 56.8827 445.223 54.2356C445.223 51.5886 447.338 49.4121 449.911 49.4121C452.484 49.4121 454.6 51.5886 454.6 54.2356C454.6 56.8827 452.484 59.0592 449.911 59.0592ZM449.911 50.6474C447.967 50.6474 446.366 52.2945 446.366 54.2945C446.366 56.2945 447.967 57.9415 449.911 57.9415C451.855 57.9415 453.456 56.2945 453.456 54.2945C453.456 52.2945 451.855 50.6474 449.911 50.6474Z" fill="#522C2C"/>
<path d="M437.274 59.0592C434.701 59.0592 432.586 56.8827 432.586 54.2356C432.586 51.5886 434.701 49.4121 437.274 49.4121C439.847 49.4121 441.963 51.5886 441.963 54.2356C441.963 56.8827 439.847 59.0592 437.274 59.0592ZM437.274 50.6474C435.33 50.6474 433.729 52.2945 433.729 54.2945C433.729 56.2945 435.33 57.9415 437.274 57.9415C439.218 57.9415 440.819 56.2945 440.819 54.2945C440.819 52.2945 439.218 50.6474 437.274 50.6474Z" fill="#522C2C"/>
<path d="M424.583 59.0592C422.01 59.0592 419.895 56.8827 419.895 54.2356C419.895 51.5886 422.01 49.4121 424.583 49.4121C427.156 49.4121 429.271 51.5886 429.271 54.2356C429.271 56.8827 427.156 59.0592 424.583 59.0592ZM424.583 50.6474C422.639 50.6474 421.038 52.2945 421.038 54.2945C421.038 56.2945 422.639 57.9415 424.583 57.9415C426.527 57.9415 428.128 56.2945 428.128 54.2945C428.128 52.2945 426.527 50.6474 424.583 50.6474Z" fill="#522C2C"/>
<path d="M188.478 308H5V232.941C5 225.235 11.0607 219 18.5508 219H174.928C182.418 219 188.478 225.235 188.478 232.941V308ZM6.14352 306.824H187.335V232.941C187.335 225.882 181.789 220.176 174.928 220.176H18.5508C11.6896 220.176 6.14352 225.882 6.14352 232.941V306.824Z" fill="#C29C9C"/>
<path d="M176.016 247.235H17.4663C17.1232 247.235 16.8945 247 16.8945 246.647C16.8945 246.294 17.1232 246.059 17.4663 246.059H176.016C176.359 246.059 176.588 246.294 176.588 246.647C176.588 247 176.302 247.235 176.016 247.235Z" fill="#522C2C"/>
<path d="M176.014 238C175.842 238 175.728 237.941 175.614 237.823L167.609 229.588C167.38 229.353 167.38 229 167.609 228.764C167.838 228.529 168.181 228.529 168.409 228.764L176.414 237C176.643 237.235 176.643 237.588 176.414 237.823C176.3 237.941 176.128 238 176.014 238Z" fill="#522C2C"/>
<path d="M168.009 238C167.838 238 167.723 237.941 167.609 237.823C167.38 237.588 167.38 237.235 167.609 237L175.614 228.764C175.842 228.529 176.185 228.529 176.414 228.764C176.643 229 176.643 229.353 176.414 229.588L168.409 237.823C168.295 237.941 168.181 238 168.009 238Z" fill="#522C2C"/>
<path d="M46.9111 238.118C44.3382 238.118 42.2227 235.941 42.2227 233.294C42.2227 230.647 44.3382 228.471 46.9111 228.471C49.484 228.471 51.5996 230.647 51.5996 233.294C51.5996 235.941 49.484 238.118 46.9111 238.118ZM46.9111 229.706C44.9671 229.706 43.3662 231.353 43.3662 233.353C43.3662 235.353 44.9671 237 46.9111 237C48.8551 237 50.456 235.353 50.456 233.353C50.456 231.353 48.8551 229.706 46.9111 229.706Z" fill="#522C2C"/>
<path d="M34.2744 238.118C31.7015 238.118 29.5859 235.941 29.5859 233.294C29.5859 230.647 31.7015 228.471 34.2744 228.471C36.8473 228.471 38.9628 230.647 38.9628 233.294C38.9628 235.941 36.8473 238.118 34.2744 238.118ZM34.2744 229.706C32.3304 229.706 30.7295 231.353 30.7295 233.353C30.7295 235.353 32.3304 237 34.2744 237C36.2184 237 37.8193 235.353 37.8193 233.353C37.8193 231.353 36.2184 229.706 34.2744 229.706Z" fill="#522C2C"/>
<path d="M21.583 238.118C19.0101 238.118 16.8945 235.941 16.8945 233.294C16.8945 230.647 19.0101 228.471 21.583 228.471C24.1559 228.471 26.2714 230.647 26.2714 233.294C26.2714 235.941 24.1559 238.118 21.583 238.118ZM21.583 229.706C19.639 229.706 18.0381 231.353 18.0381 233.353C18.0381 235.353 19.639 237 21.583 237C23.527 237 25.1279 235.353 25.1279 233.353C25.1279 231.353 23.527 229.706 21.583 229.706Z" fill="#522C2C"/>
</svg>
