<svg width="518" height="404" viewBox="0 0 518 404" fill="none" xmlns="http://www.w3.org/2000/svg">
<path d="M279.29 0.498047L2 131.928L31.33 345.698H489.12L517.65 165.698L279.29 0.498047Z" fill="#FEEBDC"/>
<path d="M327.25 27.3076C327.25 27.3076 307.59 51.4376 292.14 49.3076C292.14 49.3076 293.8 60.7976 293.04 62.8376C292.28 64.8776 283.97 57.2276 290.61 36.2876C297.25 15.3476 309.89 12.1576 309.89 12.1576C309.89 12.1576 322.4 19.6876 327.25 13.9476C332.1 8.20761 341.16 1.17761 349.85 6.53761C358.54 11.8976 354.95 25.0476 354.95 25.0476C354.95 25.0476 360.31 32.7076 367.95 31.9476C375.59 31.1876 376.89 49.1776 370.12 54.6676C363.35 60.1576 374.52 73.5676 374.52 73.5676C374.52 73.5676 377.78 79.4376 374.52 83.3976C371.26 87.3576 382.52 96.3276 388.38 89.7376C394.24 83.1476 391.7 101.398 391.7 101.398C391.7 101.398 391.31 110.198 377.78 107.908C364.25 105.618 363.61 98.7776 363.61 98.7776C363.61 98.7776 324.39 43.7276 327.25 27.3076Z" fill="#522C2C"/>
<path d="M335.931 191.649C323.171 185.529 322.651 173.649 322.651 173.649C322.651 173.649 323.891 131.649 319.801 116.649C319.801 116.649 303.631 114.189 296.021 86.6491C294.999 82.9275 294.204 79.1472 293.641 75.3291C292.386 66.4643 291.901 57.5076 292.191 48.5591C292.191 48.5591 318.911 39.5591 327.591 27.1191C327.591 27.1191 330.991 43.9691 341.041 51.9691C341.041 51.9691 345.631 55.1991 356.041 45.9691C366.451 36.7391 377.651 66.3992 359.781 77.4592C359.781 77.4592 373.911 132.099 380.891 140.949C387.871 149.799 348.701 197.779 335.931 191.649Z" fill="#FDAFA2"/>
<path d="M507.852 344.838C507.852 344.838 529.292 189.948 479.932 169.838C430.572 149.728 380.872 140.898 380.872 140.898C380.872 140.898 377.122 167.108 335.252 190.598L322.992 171.568C322.992 171.568 269.212 194.038 261.382 242.888C261.382 242.888 256.612 332.418 258.652 345.358L507.852 344.838Z" fill="#0160FA"/>
<g opacity="0.2">
<path d="M512.87 250.459L508.02 345.699H438.82L512.87 250.459Z" fill="#522C2C"/>
</g>
<path d="M122.336 251.737L199.484 258.568L201.031 241.107L123.882 234.276L122.336 251.737Z" fill="#FF2B49"/>
<path d="M182.027 257.018L199.488 258.564L201.034 241.103L183.573 239.557L182.027 257.018Z" fill="#DE011F"/>
<path d="M407.68 248.418L385.59 277.718C385.59 277.718 277.97 254.038 268.53 245.568C268.53 245.568 236.61 230.248 231.53 230.248L160.48 229.928C160.48 229.928 145.8 232.998 155.38 243.398C155.38 243.398 138.16 251.528 153.65 258.398C153.65 258.398 171.53 263.588 172.89 262.998C172.89 262.998 163.61 274.318 178.89 279.248C178.89 279.248 170.89 287.998 182.62 291.888C194.35 295.778 221.83 306.678 242.89 303.888C242.89 303.888 378.72 361.088 400.17 361.088C421.62 361.088 418.55 366.018 438.81 351.208C459.07 336.398 474.13 306.528 474.13 306.528C474.13 306.528 490.12 243.078 407.68 248.418Z" fill="#FDAFA2"/>
<path d="M385.59 277.718L392.71 279.198L407.68 248.418L385.59 277.718Z" fill="#FD8471"/>
<path d="M407.68 248.419L468.44 165.699C468.44 165.699 523.12 182.039 517.21 233.569C517.21 233.569 513.12 263.439 474.06 306.569C474.06 306.629 461.29 262.969 407.68 248.419Z" fill="#0160FA"/>
<g opacity="0.2">
<path d="M426.313 221.098L376.133 275.598L385.593 277.718L426.313 221.098Z" fill="#522C2C"/>
</g>
<path d="M289.721 72.6192H289.621C289.556 72.6074 289.494 72.5825 289.439 72.5461C289.384 72.5097 289.336 72.4625 289.3 72.4074C289.264 72.3523 289.239 72.2904 289.227 72.2254C289.215 72.1604 289.216 72.0937 289.231 72.0292C289.231 71.8892 289.951 68.5392 292.501 67.5392C294.161 66.8892 296.161 67.3992 298.441 69.0492C298.494 69.088 298.539 69.1368 298.573 69.1929C298.608 69.2491 298.631 69.3115 298.641 69.3765C298.651 69.4415 298.648 69.5078 298.633 69.5718C298.617 69.6358 298.59 69.696 298.551 69.7492C298.512 69.8024 298.463 69.8475 298.407 69.8818C298.351 69.9161 298.289 69.939 298.224 69.9492C298.159 69.9594 298.092 69.9567 298.028 69.9413C297.964 69.9259 297.904 69.898 297.851 69.8592C295.851 68.4192 294.191 67.9492 292.851 68.4692C290.851 69.2692 290.191 72.1992 290.191 72.2292C290.167 72.337 290.107 72.4338 290.022 72.5043C289.937 72.5749 289.831 72.6153 289.721 72.6192Z" fill="#522C2C"/>
<path d="M311.799 66.1083H311.699C311.571 66.0794 311.458 66.0019 311.385 65.8919C311.313 65.7819 311.285 65.648 311.309 65.5183C311.309 65.2783 312.579 59.8183 316.449 58.3483C318.649 57.5083 321.229 58.1383 324.099 60.2383C324.152 60.277 324.198 60.3259 324.232 60.382C324.266 60.4381 324.289 60.5005 324.299 60.5655C324.309 60.6305 324.307 60.6969 324.291 60.7608C324.276 60.8248 324.248 60.8851 324.209 60.9383C324.17 60.9915 324.122 61.0365 324.066 61.0708C324.009 61.1051 323.947 61.128 323.882 61.1383C323.817 61.1485 323.751 61.1458 323.687 61.1304C323.623 61.1149 323.562 61.087 323.509 61.0483C320.929 59.1583 318.679 58.5683 316.809 59.2783C313.449 60.5583 312.299 65.6683 312.289 65.7283C312.262 65.8375 312.199 65.9344 312.11 66.0034C312.021 66.0724 311.912 66.1093 311.799 66.1083Z" fill="#522C2C"/>
<path d="M324.637 78.6355C328.653 77.8816 331.405 74.5818 330.783 71.2653C330.16 67.9487 326.399 65.8713 322.382 66.6252C318.366 67.3791 315.614 70.6788 316.236 73.9954C316.859 77.3119 320.62 79.3894 324.637 78.6355Z" fill="#FF2B49"/>
<path d="M296.021 86.5681C294.999 82.8465 294.204 79.0661 293.641 75.248C296.721 75.478 299.261 77.3481 299.771 80.0181C300.281 82.6881 298.661 85.2281 296.021 86.5681Z" fill="#FF2B49"/>
<path d="M306.571 62.7988L315.381 84.6288L303.121 92.9288L306.571 62.7988Z" fill="#FF2B49"/>
<path d="M361.802 71.1278C361.756 71.1375 361.708 71.1375 361.662 71.1278C361.598 71.1096 361.538 71.0786 361.486 71.0367C361.435 70.9947 361.392 70.9427 361.361 70.8837C361.33 70.8248 361.312 70.7601 361.307 70.6938C361.302 70.6274 361.31 70.5607 361.332 70.4978C364.972 58.6778 363.852 54.7378 362.272 53.4978C360.352 52.0078 356.992 54.0278 356.962 54.0478C356.905 54.0819 356.843 54.1046 356.777 54.1145C356.712 54.1244 356.646 54.1214 356.582 54.1057C356.517 54.0899 356.457 54.0616 356.404 54.0225C356.351 53.9834 356.306 53.9342 356.272 53.8778C356.238 53.8213 356.215 53.7586 356.205 53.6934C356.195 53.6282 356.198 53.5616 356.214 53.4975C356.23 53.4335 356.258 53.3731 356.297 53.32C356.336 53.2668 356.385 53.2219 356.442 53.1878C356.602 53.0978 360.442 50.7878 362.892 52.7078C365.552 54.7678 365.342 60.8578 362.282 70.7878C362.248 70.8879 362.183 70.9747 362.097 71.0358C362.011 71.0969 361.907 71.1291 361.802 71.1278Z" fill="#522C2C"/>
<path d="M317.801 102.879C317.699 102.878 317.601 102.846 317.518 102.787C317.436 102.728 317.374 102.645 317.341 102.549C317.295 102.427 317.298 102.291 317.351 102.172C317.403 102.052 317.5 101.958 317.621 101.909C329.111 97.5089 327.961 89.9089 327.951 89.7789C327.93 89.6479 327.962 89.5141 328.038 89.4058C328.115 89.2975 328.23 89.2233 328.361 89.1989C328.425 89.1875 328.491 89.1891 328.555 89.2037C328.619 89.2182 328.679 89.2454 328.732 89.2836C328.786 89.3218 328.83 89.3703 328.864 89.4262C328.899 89.482 328.921 89.5442 328.931 89.6089C328.931 89.6989 330.221 98.1589 317.931 102.839C317.89 102.86 317.846 102.873 317.801 102.879Z" fill="#522C2C"/>
<path d="M350.909 87.4785L350.059 105.009C350.059 105.009 332.409 124.919 321.559 129.509L320.949 116.419C320.949 116.419 338.059 111.479 350.909 87.4785Z" fill="#FD8471"/>
<path d="M205.42 248.869C186.66 248.869 156.78 243.699 156.42 243.639C156.29 243.614 156.174 243.54 156.097 243.432C156.021 243.324 155.99 243.19 156.01 243.059C156.034 242.928 156.109 242.813 156.217 242.736C156.325 242.66 156.459 242.628 156.59 242.649C156.99 242.719 196.2 249.509 212.79 247.499C212.923 247.483 213.056 247.52 213.161 247.603C213.266 247.685 213.334 247.806 213.35 247.939C213.366 248.071 213.328 248.205 213.246 248.31C213.163 248.415 213.043 248.483 212.91 248.499C210.423 248.767 207.922 248.891 205.42 248.869Z" fill="#522C2C"/>
<path d="M202.699 266.769C192.731 266.638 182.785 265.786 172.939 264.219C172.809 264.194 172.693 264.12 172.617 264.012C172.54 263.904 172.509 263.77 172.53 263.639C172.554 263.508 172.628 263.393 172.736 263.316C172.845 263.24 172.979 263.208 173.11 263.229C173.35 263.229 196.82 267.229 213.4 265.229C213.532 265.213 213.666 265.25 213.771 265.333C213.876 265.415 213.944 265.536 213.959 265.669C213.975 265.801 213.938 265.935 213.855 266.04C213.773 266.145 213.652 266.213 213.52 266.229C209.927 266.622 206.314 266.802 202.699 266.769Z" fill="#522C2C"/>
<path d="M201.782 281.858C194.198 281.839 186.629 281.19 179.152 279.918C179.087 279.906 179.024 279.881 178.969 279.845C178.913 279.808 178.866 279.762 178.828 279.707C178.791 279.652 178.765 279.59 178.752 279.525C178.739 279.46 178.739 279.393 178.752 279.328C178.764 279.263 178.789 279.201 178.825 279.146C178.861 279.091 178.909 279.043 178.964 279.007C179.019 278.971 179.081 278.946 179.146 278.934C179.211 278.922 179.277 278.923 179.342 278.938C179.512 278.938 196.832 282.218 213.402 280.208C213.467 280.198 213.534 280.201 213.597 280.218C213.661 280.234 213.721 280.264 213.773 280.304C213.826 280.344 213.869 280.394 213.902 280.452C213.934 280.509 213.955 280.572 213.962 280.638C213.97 280.704 213.966 280.77 213.948 280.834C213.93 280.898 213.9 280.958 213.859 281.01C213.818 281.062 213.767 281.105 213.709 281.138C213.651 281.17 213.588 281.19 213.522 281.198C209.625 281.653 205.705 281.873 201.782 281.858Z" fill="#522C2C"/>
<path d="M483.321 87.1191H431.001C427.793 87.1191 425.191 89.7204 425.191 92.9291C425.191 96.1379 427.793 98.7392 431.001 98.7392H483.321C486.53 98.7392 489.131 96.1379 489.131 92.9291C489.131 89.7204 486.53 87.1191 483.321 87.1191Z" fill="#522C2C"/>
<path d="M172.719 38.5293H93.0795C89.8707 38.5293 87.2695 41.1305 87.2695 44.3393C87.2695 47.5481 89.8707 50.1493 93.0795 50.1493H172.719C175.928 50.1493 178.53 47.5481 178.53 44.3393C178.53 41.1305 175.928 38.5293 172.719 38.5293Z" fill="#522C2C"/>
<path d="M487.332 154.588C493.959 154.588 499.332 149.215 499.332 142.588C499.332 135.96 493.959 130.588 487.332 130.588C480.705 130.588 475.332 135.96 475.332 142.588C475.332 149.215 480.705 154.588 487.332 154.588Z" fill="#522C2C"/>
<path d="M11.6718 224.248C17.0068 224.248 21.3317 219.923 21.3317 214.588C21.3317 209.253 17.0068 204.928 11.6718 204.928C6.33668 204.928 2.01172 209.253 2.01172 214.588C2.01172 219.923 6.33668 224.248 11.6718 224.248Z" fill="#522C2C"/>
<path d="M461.123 50.1376C464.331 50.1376 466.933 47.5364 466.933 44.3276C466.933 41.1188 464.331 38.5176 461.123 38.5176C457.914 38.5176 455.312 41.1188 455.312 44.3276C455.312 47.5364 457.914 50.1376 461.123 50.1376Z" fill="#522C2C"/>
<path d="M244.032 138.969C247.92 138.969 251.072 135.817 251.072 131.929C251.072 128.041 247.92 124.889 244.032 124.889C240.144 124.889 236.992 128.041 236.992 131.929C236.992 135.817 240.144 138.969 244.032 138.969Z" fill="#522C2C"/>
<path d="M116.871 218.039H37.8906V235.569H116.871V218.039Z" fill="#FF2B49"/>
<path d="M116.871 218.039H37.8906V220.589H116.871V218.039Z" fill="#DE011F"/>
<path d="M112.668 184.451L35.3906 200.764L39.0114 217.916L116.288 201.603L112.668 184.451Z" fill="#FF2B49"/>
<path d="M112.675 184.447L35.3984 200.76L35.9251 203.255L113.202 186.942L112.675 184.447Z" fill="#DE011F"/>
<path d="M105.222 150.197L27.9453 166.51L31.5661 183.662L108.843 167.349L105.222 150.197Z" fill="#FF2B49"/>
<path d="M105.222 150.203L27.9453 166.516L28.472 169.011L105.749 152.698L105.222 150.203Z" fill="#DE011F"/>
<path d="M96.7993 116.15L72.0742 121.369L75.695 138.521L100.42 133.302L96.7993 116.15Z" fill="#FF2B49"/>
<path d="M96.8032 116.144L72.0781 121.363L72.6048 123.858L97.3299 118.639L96.8032 116.144Z" fill="#DE011F"/>
<path d="M47.1234 126.634L22.3984 131.854L26.0192 149.006L50.7442 143.786L47.1234 126.634Z" fill="#FF2B49"/>
<path d="M47.1314 126.63L22.4062 131.85L22.9329 134.345L47.6581 129.125L47.1314 126.63Z" fill="#DE011F"/>
<path d="M86.9697 171.95L53.8398 178.943L57.4606 196.095L90.5905 189.102L86.9697 171.95Z" fill="#FF2B49"/>
<path d="M86.9736 171.944L53.8438 178.938L54.3704 181.433L87.5003 174.439L86.9736 171.944Z" fill="#DE011F"/>
<path d="M92.1023 235.568H62.6523V253.098H92.1023V235.568Z" fill="#FF2B49"/>
<path d="M92.1023 235.568H62.6523V238.118H92.1023V235.568Z" fill="#DE011F"/>
<path d="M66.4423 270.658H38.6523V288.188H66.4423V270.658Z" fill="#FF2B49"/>
<path d="M66.4423 270.658H38.6523V273.208H66.4423V270.658Z" fill="#DE011F"/>
<path d="M118.911 270.658H93.8008V288.188H118.911V270.658Z" fill="#FF2B49"/>
<path d="M118.911 270.658H93.8008V273.208H118.911V270.658Z" fill="#DE011F"/>
<path d="M116.102 253.098H38.6523V270.628H116.102V253.098Z" fill="#FF2B49"/>
<path d="M116.102 253.098H38.6523V255.648H116.102V253.098Z" fill="#DE011F"/>
<path d="M118.911 288.158H41.4609V305.688H118.911V288.158Z" fill="#FF2B49"/>
<path d="M69 305.688V288.158H66.45V305.688H69Z" fill="#DE011F"/>
<path d="M93.8125 305.688V288.158H91.2625V305.688H93.8125Z" fill="#DE011F"/>
<path d="M118.911 288.158H41.4609V290.708H118.911V288.158Z" fill="#DE011F"/>
<path d="M100.858 133.212L25.0781 149.209L28.6989 166.361L104.479 150.364L100.858 133.212Z" fill="#FF2B49"/>
<path d="M55.7535 160.791L52.1328 143.639L49.6378 144.165L53.2585 161.317L55.7535 160.791Z" fill="#DE011F"/>
<path d="M80.0309 155.67L76.4102 138.518L73.9152 139.044L77.5359 156.196L80.0309 155.67Z" fill="#DE011F"/>
<path d="M100.854 133.208L25.0742 149.205L25.6009 151.7L101.381 135.703L100.854 133.208Z" fill="#DE011F"/>
<path d="M116.743 305.668H39.293V323.198H116.743V305.668Z" fill="#FF2B49"/>
<path d="M116.743 305.668H39.293V308.218H116.743V305.668Z" fill="#DE011F"/>
<path d="M116.743 340.049H39.293V357.579H116.743V340.049Z" fill="#FF2B49"/>
<path d="M116.743 340.049H39.293V342.599H116.743V340.049Z" fill="#DE011F"/>
<path d="M225.219 382.258H147.77V399.788H225.219V382.258Z" fill="#FF2B49"/>
<path d="M165.3 382.258H147.77V399.788H165.3V382.258Z" fill="#DE011F"/>
<path d="M317.202 399.789H346.922V382.259H317.202V399.789Z" fill="#FF2B49"/>
<path d="M317.212 399.789H335.082V382.259H317.212V399.789Z" fill="#DE011F"/>
<path d="M334.501 385.498H257.051V403.028H334.501V385.498Z" fill="#FF2B49"/>
<path d="M274.581 385.498H257.051V403.028H274.581V385.498Z" fill="#DE011F"/>
<path d="M275.773 376.129H353.223V358.599H275.773V376.129Z" fill="#FF2B49"/>
<path d="M335.693 376.129H353.223V358.599H335.693V376.129Z" fill="#DE011F"/>
<path d="M174.999 377.498H252.449V359.968H174.999V377.498Z" fill="#FF2B49"/>
<path d="M234.931 377.498H252.461V359.968H234.931V377.498Z" fill="#DE011F"/>
<path d="M240.78 381.578H270.5V364.048H240.78V381.578Z" fill="#FF2B49"/>
<path d="M116.732 357.578H62.9922V375.108H116.732V357.578Z" fill="#FF2B49"/>
<path d="M116.732 357.578H62.9922V360.128H116.732V357.578Z" fill="#DE011F"/>
<path d="M91.1406 375.108V357.578H88.5906V375.108H91.1406Z" fill="#DE011F"/>
<path d="M89.1604 322.518H36.8203V340.048H89.1604V322.518Z" fill="#FF2B49"/>
<path d="M89.1604 322.518H36.8203V325.068H89.1604V322.518Z" fill="#DE011F"/>
<path d="M64.2695 340.048V322.518H61.7195V340.048H64.2695Z" fill="#DE011F"/>
<path d="M291.212 34.9487C291.078 34.936 290.955 34.8712 290.869 34.7682C290.783 34.6652 290.741 34.5325 290.752 34.3987C292.862 11.0887 306.672 7.13872 317.882 7.91872C331.882 8.91872 335.362 0.668713 335.512 0.318713C335.535 0.256758 335.57 0.200129 335.616 0.152224C335.661 0.10432 335.716 0.0661264 335.777 0.0399654C335.838 0.0138044 335.903 0.00021871 335.969 2.61786e-06C336.035 -0.000213474 336.101 0.0129506 336.162 0.0387142C336.283 0.0897714 336.381 0.186022 336.433 0.307238C336.485 0.428454 336.488 0.565189 336.442 0.688708C336.442 0.778708 332.552 9.93872 317.812 8.91872C302.372 7.82872 293.362 16.6787 291.752 34.4887C291.747 34.5544 291.729 34.6185 291.699 34.6773C291.669 34.736 291.628 34.7883 291.577 34.8311C291.527 34.8738 291.469 34.9062 291.406 34.9264C291.344 34.9466 291.277 34.9542 291.212 34.9487Z" fill="#522C2C"/>
<path d="M366.701 27.5678H366.541C366.161 27.4378 357.061 24.3278 352.751 9.90779C352.732 9.84213 352.726 9.77336 352.734 9.70541C352.741 9.63746 352.762 9.57165 352.795 9.51176C352.828 9.45187 352.872 9.39905 352.926 9.35633C352.979 9.31361 353.04 9.28184 353.106 9.2628C353.172 9.24376 353.241 9.23782 353.308 9.24536C353.376 9.25289 353.442 9.27375 353.502 9.30671C353.562 9.33968 353.615 9.3841 353.658 9.43748C353.7 9.49086 353.732 9.55213 353.751 9.61779C357.891 23.4978 366.801 26.6178 366.891 26.6178C367.018 26.6611 367.122 26.7525 367.182 26.8722C367.242 26.992 367.252 27.1305 367.211 27.2578C367.172 27.3584 367.101 27.4433 367.009 27.4994C366.917 27.5555 366.808 27.5795 366.701 27.5678Z" fill="#522C2C"/>
<path d="M388.782 113.938C388.272 113.938 376.042 113.178 370.112 106.068C370.031 105.963 369.993 105.831 370.006 105.699C370.019 105.567 370.082 105.445 370.182 105.358C370.285 105.275 370.416 105.235 370.547 105.249C370.678 105.262 370.798 105.326 370.882 105.428C376.532 112.198 388.722 112.928 388.882 112.938C388.948 112.941 389.012 112.958 389.072 112.987C389.131 113.016 389.184 113.056 389.227 113.105C389.271 113.154 389.305 113.212 389.326 113.274C389.347 113.336 389.356 113.402 389.352 113.468C389.349 113.537 389.331 113.605 389.3 113.667C389.269 113.729 389.225 113.784 389.171 113.828C389.117 113.873 389.055 113.905 388.988 113.924C388.921 113.943 388.851 113.947 388.782 113.938Z" fill="#522C2C"/>
<path d="M1.09763 65.0084C1.64561 65.0084 2.1936 64.5963 2.1936 64.081C2.1936 63.6689 6.13917 23.0702 31.0178 23.0702C31.237 23.0702 31.5657 23.0702 31.7849 23.0702C43.9502 23.4824 50.3071 30.5923 53.4854 36.4657C54.143 37.7022 54.691 38.9387 55.239 40.1752C50.4167 42.4422 46.4711 47.2851 46.0327 54.6011C45.7039 60.2685 48.1151 64.081 52.2798 64.3902C54.2526 64.4932 56.0062 63.6689 57.2117 61.8141C59.9517 57.8985 60.6093 49.449 57.8693 41.2057C59.0749 40.8965 60.3901 40.6904 61.8148 40.6904C76.2817 41.2057 77.5969 63.0506 77.7065 63.3597V64.3902H145.904C146.562 64.3902 147 63.978 147 63.3597C147 62.7415 146.562 62.3293 145.904 62.3293H79.7889C79.5697 60.3715 79.0216 55.9407 77.2681 51.4069C74.0897 43.3696 68.829 38.9388 61.9244 38.7327C60.39 38.7327 58.7461 38.9387 57.2117 39.3509C56.6637 38.0114 56.1158 36.7748 55.4582 35.5383C50.5263 26.4706 42.0871 21.3185 31.8946 21.0094C20.3868 20.7003 11.1806 28.0163 5.37196 42.3392C1.09766 52.9525 0.111245 63.4628 0.00164795 63.8749C0.00164795 64.4932 0.440041 65.0084 1.09763 65.0084ZM55.8965 42.1331C58.3077 49.6551 57.8693 57.3833 55.4582 60.7837C54.5814 61.9171 53.595 62.5354 52.499 62.4324C48.9919 62.1233 48.0055 58.1046 48.2247 54.8072C48.4439 50.5825 50.855 44.7091 55.8965 42.1331Z" fill="#522C2C"/>
</svg>
